<?xml version="1.0" encoding="us-ascii" standalone="no"?><svg xmlns="http://www.w3.org/2000/svg" xmlns:xlink="http://www.w3.org/1999/xlink" contentStyleType="text/css" height="931px" preserveAspectRatio="none" style="width:3089px;height:931px;background:#FFFFFF;" version="1.1" viewBox="0 0 3089 931" width="3089px" zoomAndPan="magnify"><defs/><g><text fill="#000000" font-family="sans-serif" font-size="14" font-weight="bold" lengthAdjust="spacing" textLength="266" x="1409.75" y="27.9951">US008 SD - Comment a comment</text><rect fill="#FFFFFF" height="683.0547" style="stroke:#181818;stroke-width:1.0;" width="10" x="485.5" y="149.7266"/><rect fill="#FFFFFF" height="653.9219" style="stroke:#181818;stroke-width:1.0;" width="10" x="737" y="178.8594"/><rect fill="#FFFFFF" height="582.6563" style="stroke:#181818;stroke-width:1.0;" width="10" x="1059.5" y="250.125"/><rect fill="#FFFFFF" height="87.3984" style="stroke:#181818;stroke-width:1.0;" width="10" x="1299.5" y="395.7891"/><rect fill="#FFFFFF" height="29.1328" style="stroke:#181818;stroke-width:1.0;" width="10" x="1549.5" y="424.9219"/><rect fill="#FFFFFF" height="29.1328" style="stroke:#181818;stroke-width:1.0;" width="10" x="1688.5" y="628.8516"/><rect fill="#FFFFFF" height="87.3984" style="stroke:#181818;stroke-width:1.0;" width="10" x="1862.5" y="279.2578"/><rect fill="#FFFFFF" height="87.3984" style="stroke:#181818;stroke-width:1.0;" width="10" x="2108" y="512.3203"/><rect fill="#FFFFFF" height="29.1328" style="stroke:#181818;stroke-width:1.0;" width="10" x="2430" y="541.4531"/><rect fill="#FFFFFF" height="29.1328" style="stroke:#181818;stroke-width:1.0;" width="10" x="2430" y="745.3828"/><rect fill="#FFFFFF" height="29.1328" style="stroke:#181818;stroke-width:1.0;" width="10" x="2638" y="687.1172"/><rect fill="#FFFFFF" height="29.1328" style="stroke:#181818;stroke-width:1.0;" width="10" x="2807.5" y="308.3906"/><rect fill="#FFFFFF" height="29.1328" style="stroke:#181818;stroke-width:1.0;" width="10" x="2807.5" y="803.6484"/><line style="stroke:#181818;stroke-width:0.5;stroke-dasharray:5.0,5.0;" x1="23" x2="23" y1="118.5938" y2="850.7813"/><line style="stroke:#181818;stroke-width:0.5;stroke-dasharray:5.0,5.0;" x1="490.5" x2="490.5" y1="118.5938" y2="850.7813"/><line style="stroke:#181818;stroke-width:0.5;stroke-dasharray:5.0,5.0;" x1="741.5" x2="741.5" y1="118.5938" y2="850.7813"/><line style="stroke:#181818;stroke-width:0.5;stroke-dasharray:5.0,5.0;" x1="1064.5" x2="1064.5" y1="118.5938" y2="850.7813"/><line style="stroke:#181818;stroke-width:0.5;stroke-dasharray:5.0,5.0;" x1="1304" x2="1304" y1="118.5938" y2="850.7813"/><line style="stroke:#181818;stroke-width:0.5;stroke-dasharray:5.0,5.0;" x1="1554" x2="1554" y1="118.5938" y2="850.7813"/><line style="stroke:#181818;stroke-width:0.5;stroke-dasharray:5.0,5.0;" x1="1693" x2="1693" y1="118.5938" y2="850.7813"/><line style="stroke:#181818;stroke-width:0.5;stroke-dasharray:5.0,5.0;" x1="1867" x2="1867" y1="118.5938" y2="850.7813"/><line style="stroke:#181818;stroke-width:0.5;stroke-dasharray:5.0,5.0;" x1="2113" x2="2113" y1="118.5938" y2="850.7813"/><line style="stroke:#181818;stroke-width:0.5;stroke-dasharray:5.0,5.0;" x1="2434.5" x2="2434.5" y1="118.5938" y2="850.7813"/><line style="stroke:#181818;stroke-width:0.5;stroke-dasharray:5.0,5.0;" x1="2642.5" x2="2642.5" y1="118.5938" y2="850.7813"/><line style="stroke:#181818;stroke-width:0.5;stroke-dasharray:5.0,5.0;" x1="2812.5" x2="2812.5" y1="118.5938" y2="850.7813"/><line style="stroke:#181818;stroke-width:0.5;stroke-dasharray:5.0,5.0;" x1="3054.5" x2="3054.5" y1="118.5938" y2="850.7813"/><text fill="#000000" font-family="sans-serif" font-size="14" lengthAdjust="spacing" textLength="31" x="5" y="115.292">User</text><ellipse cx="23.5" cy="50.7969" fill="#E2E2F0" rx="8" ry="8" style="stroke:#181818;stroke-width:0.5;"/><path d="M23.5,58.7969 L23.5,85.7969 M10.5,66.7969 L36.5,66.7969 M23.5,85.7969 L10.5,100.7969 M23.5,85.7969 L36.5,100.7969 " fill="none" style="stroke:#181818;stroke-width:0.5;"/><text fill="#000000" font-family="sans-serif" font-size="14" lengthAdjust="spacing" textLength="31" x="5" y="862.7764">User</text><ellipse cx="23.5" cy="874.5781" fill="#E2E2F0" rx="8" ry="8" style="stroke:#181818;stroke-width:0.5;"/><path d="M23.5,882.5781 L23.5,909.5781 M10.5,890.5781 L36.5,890.5781 M23.5,909.5781 L10.5,924.5781 M23.5,909.5781 L36.5,924.5781 " fill="none" style="stroke:#181818;stroke-width:0.5;"/><rect fill="#E2E2F0" height="30.2969" rx="2.5" ry="2.5" style="stroke:#181818;stroke-width:0.5;" width="64" x="458.5" y="87.2969"/><text fill="#000000" font-family="sans-serif" font-size="14" lengthAdjust="spacing" textLength="50" x="465.5" y="107.292">Routes</text><rect fill="#E2E2F0" height="30.2969" rx="2.5" ry="2.5" style="stroke:#181818;stroke-width:0.5;" width="64" x="458.5" y="849.7813"/><text fill="#000000" font-family="sans-serif" font-size="14" lengthAdjust="spacing" textLength="50" x="465.5" y="869.7764">Routes</text><rect fill="#E2E2F0" height="30.2969" rx="2.5" ry="2.5" style="stroke:#181818;stroke-width:0.5;" width="419" x="532.5" y="87.2969"/><text fill="#000000" font-family="sans-serif" font-size="14" lengthAdjust="spacing" textLength="405" x="539.5" y="107.292">replytoCommentController:ReplytoCommentController</text><rect fill="#E2E2F0" height="30.2969" rx="2.5" ry="2.5" style="stroke:#181818;stroke-width:0.5;" width="419" x="532.5" y="849.7813"/><text fill="#000000" font-family="sans-serif" font-size="14" lengthAdjust="spacing" textLength="405" x="539.5" y="869.7764">replytoCommentController:ReplytoCommentController</text><rect fill="#E2E2F0" height="30.2969" rx="2.5" ry="2.5" style="stroke:#181818;stroke-width:0.5;" width="206" x="961.5" y="87.2969"/><text fill="#000000" font-family="sans-serif" font-size="14" lengthAdjust="spacing" textLength="192" x="968.5" y="107.292">useCase:ReplytoComment</text><rect fill="#E2E2F0" height="30.2969" rx="2.5" ry="2.5" style="stroke:#181818;stroke-width:0.5;" width="206" x="961.5" y="849.7813"/><text fill="#000000" font-family="sans-serif" font-size="14" lengthAdjust="spacing" textLength="192" x="968.5" y="869.7764">useCase:ReplytoComment</text><rect fill="#E2E2F0" height="30.2969" rx="2.5" ry="2.5" style="stroke:#181818;stroke-width:0.5;" width="239" x="1185" y="87.2969"/><text fill="#000000" font-family="sans-serif" font-size="14" lengthAdjust="spacing" textLength="225" x="1192" y="107.292">menberRepo:replytoComment</text><rect fill="#E2E2F0" height="30.2969" rx="2.5" ry="2.5" style="stroke:#181818;stroke-width:0.5;" width="239" x="1185" y="849.7813"/><text fill="#000000" font-family="sans-serif" font-size="14" lengthAdjust="spacing" textLength="225" x="1192" y="869.7764">menberRepo:replytoComment</text><rect fill="#E2E2F0" height="30.2969" rx="2.5" ry="2.5" style="stroke:#181818;stroke-width:0.5;" width="145" x="1482" y="87.2969"/><text fill="#000000" font-family="sans-serif" font-size="14" lengthAdjust="spacing" textLength="131" x="1489" y="107.292">member: Member</text><rect fill="#E2E2F0" height="30.2969" rx="2.5" ry="2.5" style="stroke:#181818;stroke-width:0.5;" width="145" x="1482" y="849.7813"/><text fill="#000000" font-family="sans-serif" font-size="14" lengthAdjust="spacing" textLength="131" x="1489" y="869.7764">member: Member</text><rect fill="#E2E2F0" height="30.2969" rx="2.5" ry="2.5" style="stroke:#181818;stroke-width:0.5;" width="113" x="1637" y="87.2969"/><text fill="#000000" font-family="sans-serif" font-size="14" lengthAdjust="spacing" textLength="99" x="1644" y="107.292">slug: PostSlug</text><rect fill="#E2E2F0" height="30.2969" rx="2.5" ry="2.5" style="stroke:#181818;stroke-width:0.5;" width="113" x="1637" y="849.7813"/><text fill="#000000" font-family="sans-serif" font-size="14" lengthAdjust="spacing" textLength="99" x="1644" y="869.7764">slug: PostSlug</text><rect fill="#E2E2F0" height="30.2969" rx="2.5" ry="2.5" style="stroke:#181818;stroke-width:0.5;" width="215" x="1760" y="87.2969"/><text fill="#000000" font-family="sans-serif" font-size="14" lengthAdjust="spacing" textLength="201" x="1767" y="107.292">postRepo:replytoComment</text><rect fill="#E2E2F0" height="30.2969" rx="2.5" ry="2.5" style="stroke:#181818;stroke-width:0.5;" width="215" x="1760" y="849.7813"/><text fill="#000000" font-family="sans-serif" font-size="14" lengthAdjust="spacing" textLength="201" x="1767" y="869.7764">postRepo:replytoComment</text><rect fill="#E2E2F0" height="30.2969" rx="2.5" ry="2.5" style="stroke:#181818;stroke-width:0.5;" width="256" x="1985" y="87.2969"/><text fill="#000000" font-family="sans-serif" font-size="14" lengthAdjust="spacing" textLength="242" x="1992" y="107.292">commentRepo: replytoComment</text><rect fill="#E2E2F0" height="30.2969" rx="2.5" ry="2.5" style="stroke:#181818;stroke-width:0.5;" width="256" x="1985" y="849.7813"/><text fill="#000000" font-family="sans-serif" font-size="14" lengthAdjust="spacing" textLength="242" x="1992" y="869.7764">commentRepo: replytoComment</text><rect fill="#E2E2F0" height="30.2969" rx="2.5" ry="2.5" style="stroke:#181818;stroke-width:0.5;" width="165" x="2352.5" y="87.2969"/><text fill="#000000" font-family="sans-serif" font-size="14" lengthAdjust="spacing" textLength="151" x="2359.5" y="107.292">comment: Comment</text><rect fill="#E2E2F0" height="30.2969" rx="2.5" ry="2.5" style="stroke:#181818;stroke-width:0.5;" width="165" x="2352.5" y="849.7813"/><text fill="#000000" font-family="sans-serif" font-size="14" lengthAdjust="spacing" textLength="151" x="2359.5" y="869.7764">comment: Comment</text><rect fill="#E2E2F0" height="30.2969" rx="2.5" ry="2.5" style="stroke:#181818;stroke-width:0.5;" width="231" x="2527.5" y="87.2969"/><text fill="#000000" font-family="sans-serif" font-size="14" lengthAdjust="spacing" textLength="217" x="2534.5" y="107.292">commentText: CommentText</text><rect fill="#E2E2F0" height="30.2969" rx="2.5" ry="2.5" style="stroke:#181818;stroke-width:0.5;" width="231" x="2527.5" y="849.7813"/><text fill="#000000" font-family="sans-serif" font-size="14" lengthAdjust="spacing" textLength="217" x="2534.5" y="869.7764">commentText: CommentText</text><rect fill="#E2E2F0" height="30.2969" rx="2.5" ry="2.5" style="stroke:#181818;stroke-width:0.5;" width="88" x="2768.5" y="87.2969"/><text fill="#000000" font-family="sans-serif" font-size="14" lengthAdjust="spacing" textLength="74" x="2775.5" y="107.292">post: Post</text><rect fill="#E2E2F0" height="30.2969" rx="2.5" ry="2.5" style="stroke:#181818;stroke-width:0.5;" width="88" x="2768.5" y="849.7813"/><text fill="#000000" font-family="sans-serif" font-size="14" lengthAdjust="spacing" textLength="74" x="2775.5" y="869.7764">post: Post</text><text fill="#000000" font-family="sans-serif" font-size="14" lengthAdjust="spacing" textLength="48" x="3027.5" y="115.292">MySQL</text><path d="M3036.5,66.2969 C3036.5,56.2969 3054.5,56.2969 3054.5,56.2969 C3054.5,56.2969 3072.5,56.2969 3072.5,66.2969 L3072.5,92.2969 C3072.5,102.2969 3054.5,102.2969 3054.5,102.2969 C3054.5,102.2969 3036.5,102.2969 3036.5,92.2969 L3036.5,66.2969 " fill="#E2E2F0" style="stroke:#181818;stroke-width:1.5;"/><path d="M3036.5,66.2969 C3036.5,76.2969 3054.5,76.2969 3054.5,76.2969 C3054.5,76.2969 3072.5,76.2969 3072.5,66.2969 " fill="none" style="stroke:#181818;stroke-width:1.5;"/><text fill="#000000" font-family="sans-serif" font-size="14" lengthAdjust="spacing" textLength="48" x="3027.5" y="862.7764">MySQL</text><path d="M3036.5,876.0781 C3036.5,866.0781 3054.5,866.0781 3054.5,866.0781 C3054.5,866.0781 3072.5,866.0781 3072.5,876.0781 L3072.5,902.0781 C3072.5,912.0781 3054.5,912.0781 3054.5,912.0781 C3054.5,912.0781 3036.5,912.0781 3036.5,902.0781 L3036.5,876.0781 " fill="#E2E2F0" style="stroke:#181818;stroke-width:1.5;"/><path d="M3036.5,876.0781 C3036.5,886.0781 3054.5,886.0781 3054.5,886.0781 C3054.5,886.0781 3072.5,886.0781 3072.5,876.0781 " fill="none" style="stroke:#181818;stroke-width:1.5;"/><rect fill="#FFFFFF" height="683.0547" style="stroke:#181818;stroke-width:1.0;" width="10" x="485.5" y="149.7266"/><rect fill="#FFFFFF" height="653.9219" style="stroke:#181818;stroke-width:1.0;" width="10" x="737" y="178.8594"/><rect fill="#FFFFFF" height="582.6563" style="stroke:#181818;stroke-width:1.0;" width="10" x="1059.5" y="250.125"/><rect fill="#FFFFFF" height="87.3984" style="stroke:#181818;stroke-width:1.0;" width="10" x="1299.5" y="395.7891"/><rect fill="#FFFFFF" height="29.1328" style="stroke:#181818;stroke-width:1.0;" width="10" x="1549.5" y="424.9219"/><rect fill="#FFFFFF" height="29.1328" style="stroke:#181818;stroke-width:1.0;" width="10" x="1688.5" y="628.8516"/><rect fill="#FFFFFF" height="87.3984" style="stroke:#181818;stroke-width:1.0;" width="10" x="1862.5" y="279.2578"/><rect fill="#FFFFFF" height="87.3984" style="stroke:#181818;stroke-width:1.0;" width="10" x="2108" y="512.3203"/><rect fill="#FFFFFF" height="29.1328" style="stroke:#181818;stroke-width:1.0;" width="10" x="2430" y="541.4531"/><rect fill="#FFFFFF" height="29.1328" style="stroke:#181818;stroke-width:1.0;" width="10" x="2430" y="745.3828"/><rect fill="#FFFFFF" height="29.1328" style="stroke:#181818;stroke-width:1.0;" width="10" x="2638" y="687.1172"/><rect fill="#FFFFFF" height="29.1328" style="stroke:#181818;stroke-width:1.0;" width="10" x="2807.5" y="308.3906"/><rect fill="#FFFFFF" height="29.1328" style="stroke:#181818;stroke-width:1.0;" width="10" x="2807.5" y="803.6484"/><polygon fill="#181818" points="473.5,145.7266,483.5,149.7266,473.5,153.7266,477.5,149.7266" style="stroke:#181818;stroke-width:1.0;"/><line style="stroke:#181818;stroke-width:1.0;" x1="23.5" x2="479.5" y1="149.7266" y2="149.7266"/><text fill="#000000" font-family="sans-serif" font-size="13" font-weight="bold" lengthAdjust="spacing" textLength="21" x="30.5" y="144.6606">(1)</text><text fill="#000000" font-family="sans-serif" font-size="13" lengthAdjust="spacing" textLength="418" x="55.5" y="144.6606">call Endpoint (method: POST, route: "/", header: "Authorization", )</text><polygon fill="#181818" points="725,174.8594,735,178.8594,725,182.8594,729,178.8594" style="stroke:#181818;stroke-width:1.0;"/><line style="stroke:#181818;stroke-width:1.0;" x1="495.5" x2="731" y1="178.8594" y2="178.8594"/><text fill="#000000" font-family="sans-serif" font-size="13" font-weight="bold" lengthAdjust="spacing" textLength="21" x="502.5" y="173.7935">(2)</text><text fill="#000000" font-family="sans-serif" font-size="13" lengthAdjust="spacing" textLength="115" x="527.5" y="173.7935">.execute(req, res)</text><line style="stroke:#181818;stroke-width:1.0;" x1="747" x2="789" y1="207.9922" y2="207.9922"/><line style="stroke:#181818;stroke-width:1.0;" x1="789" x2="789" y1="207.9922" y2="220.9922"/><line style="stroke:#181818;stroke-width:1.0;" x1="748" x2="789" y1="220.9922" y2="220.9922"/><polygon fill="#181818" points="758,216.9922,748,220.9922,758,224.9922,754,220.9922" style="stroke:#181818;stroke-width:1.0;"/><text fill="#000000" font-family="sans-serif" font-size="13" font-weight="bold" lengthAdjust="spacing" textLength="20" x="754" y="202.9263">(3)</text><text fill="#000000" font-family="sans-serif" font-size="13" lengthAdjust="spacing" textLength="142" x="778" y="202.9263">.executeImpl(req, res)</text><polygon fill="#181818" points="1047.5,246.125,1057.5,250.125,1047.5,254.125,1051.5,250.125" style="stroke:#181818;stroke-width:1.0;"/><line style="stroke:#181818;stroke-width:1.0;" x1="747" x2="1053.5" y1="250.125" y2="250.125"/><text fill="#000000" font-family="sans-serif" font-size="13" font-weight="bold" lengthAdjust="spacing" textLength="21" x="754" y="245.0591">(4)</text><text fill="#000000" font-family="sans-serif" font-size="13" lengthAdjust="spacing" textLength="87" x="779" y="245.0591">.execute(dto)</text><polygon fill="#181818" points="1850.5,275.2578,1860.5,279.2578,1850.5,283.2578,1854.5,279.2578" style="stroke:#181818;stroke-width:1.0;"/><line style="stroke:#181818;stroke-width:1.0;" x1="1069.5" x2="1856.5" y1="279.2578" y2="279.2578"/><text fill="#000000" font-family="sans-serif" font-size="13" font-weight="bold" lengthAdjust="spacing" textLength="21" x="1076.5" y="274.1919">(5)</text><text fill="#000000" font-family="sans-serif" font-size="13" lengthAdjust="spacing" textLength="171" x="1101.5" y="274.1919">.getPostBySlug(slug.value)</text><polygon fill="#181818" points="2795.5,304.3906,2805.5,308.3906,2795.5,312.3906,2799.5,308.3906" style="stroke:#181818;stroke-width:1.0;"/><line style="stroke:#181818;stroke-width:1.0;" x1="1872.5" x2="2801.5" y1="308.3906" y2="308.3906"/><text fill="#000000" font-family="sans-serif" font-size="13" font-weight="bold" lengthAdjust="spacing" textLength="21" x="1879.5" y="303.3247">(6)</text><text fill="#000000" font-family="sans-serif" font-size="13" lengthAdjust="spacing" textLength="171" x="1904.5" y="303.3247">.getPostBySlug(slug.value)</text><polygon fill="#181818" points="1883.5,333.5234,1873.5,337.5234,1883.5,341.5234,1879.5,337.5234" style="stroke:#181818;stroke-width:1.0;"/><line style="stroke:#181818;stroke-width:1.0;stroke-dasharray:2.0,2.0;" x1="1877.5" x2="2811.5" y1="337.5234" y2="337.5234"/><text fill="#000000" font-family="sans-serif" font-size="13" font-weight="bold" lengthAdjust="spacing" textLength="21" x="1889.5" y="332.4575">(7)</text><text fill="#000000" font-family="sans-serif" font-size="13" lengthAdjust="spacing" textLength="28" x="1914.5" y="332.4575">post</text><polygon fill="#181818" points="1080.5,362.6563,1070.5,366.6563,1080.5,370.6563,1076.5,366.6563" style="stroke:#181818;stroke-width:1.0;"/><line style="stroke:#181818;stroke-width:1.0;stroke-dasharray:2.0,2.0;" x1="1074.5" x2="1866.5" y1="366.6563" y2="366.6563"/><text fill="#000000" font-family="sans-serif" font-size="13" font-weight="bold" lengthAdjust="spacing" textLength="21" x="1086.5" y="361.5903">(8)</text><text fill="#000000" font-family="sans-serif" font-size="13" lengthAdjust="spacing" textLength="28" x="1111.5" y="361.5903">post</text><polygon fill="#181818" points="1287.5,391.7891,1297.5,395.7891,1287.5,399.7891,1291.5,395.7891" style="stroke:#181818;stroke-width:1.0;"/><line style="stroke:#181818;stroke-width:1.0;" x1="1069.5" x2="1293.5" y1="395.7891" y2="395.7891"/><text fill="#000000" font-family="sans-serif" font-size="13" font-weight="bold" lengthAdjust="spacing" textLength="21" x="1076.5" y="390.7231">(9)</text><text fill="#000000" font-family="sans-serif" font-size="13" lengthAdjust="spacing" textLength="186" x="1101.5" y="390.7231">.getMemberByUserId (userId)</text><polygon fill="#181818" points="1537.5,420.9219,1547.5,424.9219,1537.5,428.9219,1541.5,424.9219" style="stroke:#181818;stroke-width:1.0;"/><line style="stroke:#181818;stroke-width:1.0;" x1="1309.5" x2="1543.5" y1="424.9219" y2="424.9219"/><text fill="#000000" font-family="sans-serif" font-size="13" font-weight="bold" lengthAdjust="spacing" textLength="31" x="1316.5" y="419.856">(10)</text><text fill="#000000" font-family="sans-serif" font-size="13" lengthAdjust="spacing" textLength="186" x="1351.5" y="419.856">.getMemberByUserId (userId)</text><polygon fill="#181818" points="1320.5,450.0547,1310.5,454.0547,1320.5,458.0547,1316.5,454.0547" style="stroke:#181818;stroke-width:1.0;"/><line style="stroke:#181818;stroke-width:1.0;stroke-dasharray:2.0,2.0;" x1="1314.5" x2="1553.5" y1="454.0547" y2="454.0547"/><text fill="#000000" font-family="sans-serif" font-size="13" font-weight="bold" lengthAdjust="spacing" textLength="30" x="1326.5" y="448.9888">(11)</text><text fill="#000000" font-family="sans-serif" font-size="13" lengthAdjust="spacing" textLength="52" x="1360.5" y="448.9888">Member</text><polygon fill="#181818" points="1080.5,479.1875,1070.5,483.1875,1080.5,487.1875,1076.5,483.1875" style="stroke:#181818;stroke-width:1.0;"/><line style="stroke:#181818;stroke-width:1.0;stroke-dasharray:2.0,2.0;" x1="1074.5" x2="1303.5" y1="483.1875" y2="483.1875"/><text fill="#000000" font-family="sans-serif" font-size="13" font-weight="bold" lengthAdjust="spacing" textLength="30" x="1086.5" y="478.1216">(12)</text><text fill="#000000" font-family="sans-serif" font-size="13" lengthAdjust="spacing" textLength="52" x="1120.5" y="478.1216">Member</text><polygon fill="#181818" points="2096,508.3203,2106,512.3203,2096,516.3203,2100,512.3203" style="stroke:#181818;stroke-width:1.0;"/><line style="stroke:#181818;stroke-width:1.0;" x1="1069.5" x2="2102" y1="512.3203" y2="512.3203"/><text fill="#000000" font-family="sans-serif" font-size="13" font-weight="bold" lengthAdjust="spacing" textLength="29" x="1076.5" y="507.2544">(13)</text><text fill="#000000" font-family="sans-serif" font-size="13" lengthAdjust="spacing" textLength="210" x="1109.5" y="507.2544">getParentComment(commentId)</text><polygon fill="#181818" points="2418,537.4531,2428,541.4531,2418,545.4531,2422,541.4531" style="stroke:#181818;stroke-width:1.0;"/><line style="stroke:#181818;stroke-width:1.0;" x1="2118" x2="2424" y1="541.4531" y2="541.4531"/><text fill="#000000" font-family="sans-serif" font-size="13" font-weight="bold" lengthAdjust="spacing" textLength="30" x="2125" y="536.3872">(14)</text><text fill="#000000" font-family="sans-serif" font-size="13" lengthAdjust="spacing" textLength="259" x="2159" y="536.3872">getCommentByCommentId(commentId)</text><polygon fill="#181818" points="2129,566.5859,2119,570.5859,2129,574.5859,2125,570.5859" style="stroke:#181818;stroke-width:1.0;"/><line style="stroke:#181818;stroke-width:1.0;stroke-dasharray:2.0,2.0;" x1="2123" x2="2434" y1="570.5859" y2="570.5859"/><text fill="#000000" font-family="sans-serif" font-size="13" font-weight="bold" lengthAdjust="spacing" textLength="30" x="2135" y="565.52">(15)</text><text fill="#000000" font-family="sans-serif" font-size="13" lengthAdjust="spacing" textLength="62" x="2169" y="565.52">comment</text><polygon fill="#181818" points="1080.5,595.7188,1070.5,599.7188,1080.5,603.7188,1076.5,599.7188" style="stroke:#181818;stroke-width:1.0;"/><line style="stroke:#181818;stroke-width:1.0;stroke-dasharray:2.0,2.0;" x1="1074.5" x2="2112" y1="599.7188" y2="599.7188"/><text fill="#000000" font-family="sans-serif" font-size="13" font-weight="bold" lengthAdjust="spacing" textLength="30" x="1086.5" y="594.6528">(16)</text><text fill="#000000" font-family="sans-serif" font-size="13" lengthAdjust="spacing" textLength="62" x="1120.5" y="594.6528">comment</text><polygon fill="#181818" points="1676.5,624.8516,1686.5,628.8516,1676.5,632.8516,1680.5,628.8516" style="stroke:#181818;stroke-width:1.0;"/><line style="stroke:#181818;stroke-width:1.0;" x1="1069.5" x2="1682.5" y1="628.8516" y2="628.8516"/><text fill="#000000" font-family="sans-serif" font-size="13" font-weight="bold" lengthAdjust="spacing" textLength="30" x="1076.5" y="623.7856">(17)</text><text fill="#000000" font-family="sans-serif" font-size="13" lengthAdjust="spacing" textLength="193" x="1110.5" y="623.7856">.createFromExisting (req.slug)</text><polygon fill="#181818" points="1080.5,653.9844,1070.5,657.9844,1080.5,661.9844,1076.5,657.9844" style="stroke:#181818;stroke-width:1.0;"/><line style="stroke:#181818;stroke-width:1.0;stroke-dasharray:2.0,2.0;" x1="1074.5" x2="1692.5" y1="657.9844" y2="657.9844"/><text fill="#000000" font-family="sans-serif" font-size="13" font-weight="bold" lengthAdjust="spacing" textLength="30" x="1086.5" y="652.9185">(18)</text><text fill="#000000" font-family="sans-serif" font-size="13" lengthAdjust="spacing" textLength="141" x="1120.5" y="652.9185">.isFailure (SlugorError)</text><polygon fill="#181818" points="2626,683.1172,2636,687.1172,2626,691.1172,2630,687.1172" style="stroke:#181818;stroke-width:1.0;"/><line style="stroke:#181818;stroke-width:1.0;" x1="1069.5" x2="2632" y1="687.1172" y2="687.1172"/><text fill="#000000" font-family="sans-serif" font-size="13" font-weight="bold" lengthAdjust="spacing" textLength="30" x="1076.5" y="682.0513">(19)</text><text fill="#000000" font-family="sans-serif" font-size="13" lengthAdjust="spacing" textLength="191" x="1110.5" y="682.0513">.create(value: req.comment);</text><polygon fill="#181818" points="1080.5,712.25,1070.5,716.25,1080.5,720.25,1076.5,716.25" style="stroke:#181818;stroke-width:1.0;"/><line style="stroke:#181818;stroke-width:1.0;stroke-dasharray:2.0,2.0;" x1="1074.5" x2="2642" y1="716.25" y2="716.25"/><text fill="#000000" font-family="sans-serif" font-size="13" font-weight="bold" lengthAdjust="spacing" textLength="31" x="1086.5" y="711.1841">(20)</text><text fill="#000000" font-family="sans-serif" font-size="13" lengthAdjust="spacing" textLength="164" x="1121.5" y="711.1841">commentOrError.isFailure</text><polygon fill="#181818" points="2418,741.3828,2428,745.3828,2418,749.3828,2422,745.3828" style="stroke:#181818;stroke-width:1.0;"/><line style="stroke:#181818;stroke-width:1.0;" x1="1069.5" x2="2424" y1="745.3828" y2="745.3828"/><text fill="#000000" font-family="sans-serif" font-size="13" font-weight="bold" lengthAdjust="spacing" textLength="30" x="1076.5" y="740.3169">(21)</text><text fill="#000000" font-family="sans-serif" font-size="13" lengthAdjust="spacing" textLength="60" x="1110.5" y="740.3169">.create();</text><polygon fill="#181818" points="1080.5,770.5156,1070.5,774.5156,1080.5,778.5156,1076.5,774.5156" style="stroke:#181818;stroke-width:1.0;"/><line style="stroke:#181818;stroke-width:1.0;stroke-dasharray:2.0,2.0;" x1="1074.5" x2="2434" y1="774.5156" y2="774.5156"/><text fill="#000000" font-family="sans-serif" font-size="13" font-weight="bold" lengthAdjust="spacing" textLength="30" x="1086.5" y="769.4497">(22)</text><text fill="#000000" font-family="sans-serif" font-size="13" lengthAdjust="spacing" textLength="164" x="1120.5" y="769.4497">commentOrError.isFailure</text><polygon fill="#181818" points="2795.5,799.6484,2805.5,803.6484,2795.5,807.6484,2799.5,803.6484" style="stroke:#181818;stroke-width:1.0;"/><line style="stroke:#181818;stroke-width:1.0;" x1="1069.5" x2="2801.5" y1="803.6484" y2="803.6484"/><text fill="#000000" font-family="sans-serif" font-size="13" font-weight="bold" lengthAdjust="spacing" textLength="29" x="1076.5" y="798.5825">(23)</text><text fill="#000000" font-family="sans-serif" font-size="13" lengthAdjust="spacing" textLength="160" x="1109.5" y="798.5825">addComment(comment)</text><polygon fill="#181818" points="3042.5,828.7813,3052.5,832.7813,3042.5,836.7813,3046.5,832.7813" style="stroke:#181818;stroke-width:1.0;"/><line style="stroke:#181818;stroke-width:1.0;stroke-dasharray:2.0,2.0;" x1="2812.5" x2="3048.5" y1="832.7813" y2="832.7813"/><text fill="#000000" font-family="sans-serif" font-size="13" font-weight="bold" lengthAdjust="spacing" textLength="30" x="2819.5" y="827.7153">(24)</text><text fill="#000000" font-family="sans-serif" font-size="13" lengthAdjust="spacing" textLength="179" x="2853.5" y="827.7153">Save comment to database</text><!--SRC=[fLN1RgCm4Btp5IDEH6hO75VigbB3fbAaZPfjsWzmO9GY0QR6HCb-_Th63ZR1QQIz9FPuvisRyMDCEaxhhjeZW_3d_Z5QpCA05xn4UDyj5jzXzmlcaDAgmfe3WQnV1IJZbC5xYone2ED5LZH4EBpIZcFhc4A6JNdcL6EajEQCbYMovDLp409fmNSOR6tihiMKj3Y2cW1uxnrTPk90r2qSQSAk0TORhFJnE4pQ4-ZFbM-_TDtQiZiaiAKjtucLSZCRrx4HLY-9hJvqG_Grg2YO2ai7Xyd816ntlGucNT_mDBZBZHqYzzVLz6LVIWvomibUj1ysvzsVtz9iB44WDGJpHosT120ZPGchEcze8V2Y2la7pGNYo-xj0PZqIY3y5Zx01v9StaFur0aNLlmblA2rE9X9UHP7mj48ilzJQNngX1XFc0ctYE6dI8Ij3UDJe-z0fFewqxfgIYlR3QnfDLkSSqwzTBKt1DDcWNvHcK0y89UxvLaADP8YZe-axD227qHvMKcKhRhvUm2KAEGFpDtiZL8BkevM4dydnf43nya0cNRuleNg9EtUi3nBIQvpY3hrRnTkZGHhBOlVwA5m5uuU5_rVtmE7Z3wtoj4M9wc_6HC0DdM_3b9xhiYB94n9KLaZFH3SbjYJnjv8lDGC6m6bryjpQb0cySmeCa_E_8gMUOAiuaoGcz_Vdma8fmvlWym0J-ACeGXxPhHQdOgM5_K1vASSIxsFbAuclbdSeXKNxJCfoeuXHDANiXLZbCt6NuG2z79CxR6jUKRg2vHFnMUiYv_zk6gw6kRM-euMllGK1-OJrw9Wlw8xK9qWvgZX_mdTljy4I9wF9E-TNUOTIs17ZcX80AV32pSUPzPUlqwsnVVGU7qq-ty0]--></g></svg>