<?xml version="1.0" encoding="us-ascii" standalone="no"?><svg xmlns="http://www.w3.org/2000/svg" xmlns:xlink="http://www.w3.org/1999/xlink" contentStyleType="text/css" height="815px" preserveAspectRatio="none" style="width:2842px;height:815px;background:#FFFFFF;" version="1.1" viewBox="0 0 2842 815" width="2842px" zoomAndPan="magnify"><defs/><g><text fill="#000000" font-family="sans-serif" font-size="14" font-weight="bold" lengthAdjust="spacing" textLength="269" x="1284.75" y="27.9951">US007 SD - Create post comment</text><rect fill="#FFFFFF" height="566.5234" style="stroke:#181818;stroke-width:1.0;" width="10" x="485.5" y="149.7266"/><rect fill="#FFFFFF" height="537.3906" style="stroke:#181818;stroke-width:1.0;" width="10" x="697" y="178.8594"/><rect fill="#FFFFFF" height="466.125" style="stroke:#181818;stroke-width:1.0;" width="10" x="1180" y="250.125"/><rect fill="#FFFFFF" height="29.1328" style="stroke:#181818;stroke-width:1.0;" width="10" x="1427" y="279.2578"/><rect fill="#FFFFFF" height="87.3984" style="stroke:#181818;stroke-width:1.0;" width="10" x="1581" y="337.5234"/><rect fill="#FFFFFF" height="87.3984" style="stroke:#181818;stroke-width:1.0;" width="10" x="1778" y="454.0547"/><rect fill="#FFFFFF" height="29.1328" style="stroke:#181818;stroke-width:1.0;" width="10" x="2027" y="483.1875"/><rect fill="#FFFFFF" height="29.1328" style="stroke:#181818;stroke-width:1.0;" width="10" x="2223" y="570.5859"/><rect fill="#FFFFFF" height="29.1328" style="stroke:#181818;stroke-width:1.0;" width="10" x="2427" y="628.8516"/><rect fill="#FFFFFF" height="29.1328" style="stroke:#181818;stroke-width:1.0;" width="10" x="2559.5" y="366.6563"/><rect fill="#FFFFFF" height="29.1328" style="stroke:#181818;stroke-width:1.0;" width="10" x="2559.5" y="687.1172"/><line style="stroke:#181818;stroke-width:0.5;stroke-dasharray:5.0,5.0;" x1="23" x2="23" y1="118.5938" y2="734.25"/><line style="stroke:#181818;stroke-width:0.5;stroke-dasharray:5.0,5.0;" x1="490.5" x2="490.5" y1="118.5938" y2="734.25"/><line style="stroke:#181818;stroke-width:0.5;stroke-dasharray:5.0,5.0;" x1="701.5" x2="701.5" y1="118.5938" y2="734.25"/><line style="stroke:#181818;stroke-width:0.5;stroke-dasharray:5.0,5.0;" x1="1185" x2="1185" y1="118.5938" y2="734.25"/><line style="stroke:#181818;stroke-width:0.5;stroke-dasharray:5.0,5.0;" x1="1431.5" x2="1431.5" y1="118.5938" y2="734.25"/><line style="stroke:#181818;stroke-width:0.5;stroke-dasharray:5.0,5.0;" x1="1585.5" x2="1585.5" y1="118.5938" y2="734.25"/><line style="stroke:#181818;stroke-width:0.5;stroke-dasharray:5.0,5.0;" x1="1782.5" x2="1782.5" y1="118.5938" y2="734.25"/><line style="stroke:#181818;stroke-width:0.5;stroke-dasharray:5.0,5.0;" x1="2031.5" x2="2031.5" y1="118.5938" y2="734.25"/><line style="stroke:#181818;stroke-width:0.5;stroke-dasharray:5.0,5.0;" x1="2227.5" x2="2227.5" y1="118.5938" y2="734.25"/><line style="stroke:#181818;stroke-width:0.5;stroke-dasharray:5.0,5.0;" x1="2431.5" x2="2431.5" y1="118.5938" y2="734.25"/><line style="stroke:#181818;stroke-width:0.5;stroke-dasharray:5.0,5.0;" x1="2564.5" x2="2564.5" y1="118.5938" y2="734.25"/><line style="stroke:#181818;stroke-width:0.5;stroke-dasharray:5.0,5.0;" x1="2807.5" x2="2807.5" y1="118.5938" y2="734.25"/><text fill="#000000" font-family="sans-serif" font-size="14" lengthAdjust="spacing" textLength="31" x="5" y="115.292">User</text><ellipse cx="23.5" cy="50.7969" fill="#E2E2F0" rx="8" ry="8" style="stroke:#181818;stroke-width:0.5;"/><path d="M23.5,58.7969 L23.5,85.7969 M10.5,66.7969 L36.5,66.7969 M23.5,85.7969 L10.5,100.7969 M23.5,85.7969 L36.5,100.7969 " fill="none" style="stroke:#181818;stroke-width:0.5;"/><text fill="#000000" font-family="sans-serif" font-size="14" lengthAdjust="spacing" textLength="31" x="5" y="746.2451">User</text><ellipse cx="23.5" cy="758.0469" fill="#E2E2F0" rx="8" ry="8" style="stroke:#181818;stroke-width:0.5;"/><path d="M23.5,766.0469 L23.5,793.0469 M10.5,774.0469 L36.5,774.0469 M23.5,793.0469 L10.5,808.0469 M23.5,793.0469 L36.5,808.0469 " fill="none" style="stroke:#181818;stroke-width:0.5;"/><rect fill="#E2E2F0" height="30.2969" rx="2.5" ry="2.5" style="stroke:#181818;stroke-width:0.5;" width="64" x="458.5" y="87.2969"/><text fill="#000000" font-family="sans-serif" font-size="14" lengthAdjust="spacing" textLength="50" x="465.5" y="107.292">Routes</text><rect fill="#E2E2F0" height="30.2969" rx="2.5" ry="2.5" style="stroke:#181818;stroke-width:0.5;" width="64" x="458.5" y="733.25"/><text fill="#000000" font-family="sans-serif" font-size="14" lengthAdjust="spacing" textLength="50" x="465.5" y="753.2451">Routes</text><rect fill="#E2E2F0" height="30.2969" rx="2.5" ry="2.5" style="stroke:#181818;stroke-width:0.5;" width="339" x="532.5" y="87.2969"/><text fill="#000000" font-family="sans-serif" font-size="14" lengthAdjust="spacing" textLength="325" x="539.5" y="107.292">replytoPostController:ReplytoPostController</text><rect fill="#E2E2F0" height="30.2969" rx="2.5" ry="2.5" style="stroke:#181818;stroke-width:0.5;" width="339" x="532.5" y="733.25"/><text fill="#000000" font-family="sans-serif" font-size="14" lengthAdjust="spacing" textLength="325" x="539.5" y="753.2451">replytoPostController:ReplytoPostController</text><rect fill="#E2E2F0" height="30.2969" rx="2.5" ry="2.5" style="stroke:#181818;stroke-width:0.5;" width="166" x="1102" y="87.2969"/><text fill="#000000" font-family="sans-serif" font-size="14" lengthAdjust="spacing" textLength="152" x="1109" y="107.292">useCase:ReplytoPost</text><rect fill="#E2E2F0" height="30.2969" rx="2.5" ry="2.5" style="stroke:#181818;stroke-width:0.5;" width="166" x="1102" y="733.25"/><text fill="#000000" font-family="sans-serif" font-size="14" lengthAdjust="spacing" textLength="152" x="1109" y="753.2451">useCase:ReplytoPost</text><rect fill="#E2E2F0" height="30.2969" rx="2.5" ry="2.5" style="stroke:#181818;stroke-width:0.5;" width="113" x="1375.5" y="87.2969"/><text fill="#000000" font-family="sans-serif" font-size="14" lengthAdjust="spacing" textLength="99" x="1382.5" y="107.292">slug: PostSlug</text><rect fill="#E2E2F0" height="30.2969" rx="2.5" ry="2.5" style="stroke:#181818;stroke-width:0.5;" width="113" x="1375.5" y="733.25"/><text fill="#000000" font-family="sans-serif" font-size="14" lengthAdjust="spacing" textLength="99" x="1382.5" y="753.2451">slug: PostSlug</text><rect fill="#E2E2F0" height="30.2969" rx="2.5" ry="2.5" style="stroke:#181818;stroke-width:0.5;" width="175" x="1498.5" y="87.2969"/><text fill="#000000" font-family="sans-serif" font-size="14" lengthAdjust="spacing" textLength="161" x="1505.5" y="107.292">postRepo:replytoPost</text><rect fill="#E2E2F0" height="30.2969" rx="2.5" ry="2.5" style="stroke:#181818;stroke-width:0.5;" width="175" x="1498.5" y="733.25"/><text fill="#000000" font-family="sans-serif" font-size="14" lengthAdjust="spacing" textLength="161" x="1505.5" y="753.2451">postRepo:replytoPost</text><rect fill="#E2E2F0" height="30.2969" rx="2.5" ry="2.5" style="stroke:#181818;stroke-width:0.5;" width="199" x="1683.5" y="87.2969"/><text fill="#000000" font-family="sans-serif" font-size="14" lengthAdjust="spacing" textLength="185" x="1690.5" y="107.292">menberRepo:replytoPost</text><rect fill="#E2E2F0" height="30.2969" rx="2.5" ry="2.5" style="stroke:#181818;stroke-width:0.5;" width="199" x="1683.5" y="733.25"/><text fill="#000000" font-family="sans-serif" font-size="14" lengthAdjust="spacing" textLength="185" x="1690.5" y="753.2451">menberRepo:replytoPost</text><rect fill="#E2E2F0" height="30.2969" rx="2.5" ry="2.5" style="stroke:#181818;stroke-width:0.5;" width="145" x="1959.5" y="87.2969"/><text fill="#000000" font-family="sans-serif" font-size="14" lengthAdjust="spacing" textLength="131" x="1966.5" y="107.292">member: Member</text><rect fill="#E2E2F0" height="30.2969" rx="2.5" ry="2.5" style="stroke:#181818;stroke-width:0.5;" width="145" x="1959.5" y="733.25"/><text fill="#000000" font-family="sans-serif" font-size="14" lengthAdjust="spacing" textLength="131" x="1966.5" y="753.2451">member: Member</text><rect fill="#E2E2F0" height="30.2969" rx="2.5" ry="2.5" style="stroke:#181818;stroke-width:0.5;" width="227" x="2114.5" y="87.2969"/><text fill="#000000" font-family="sans-serif" font-size="14" lengthAdjust="spacing" textLength="213" x="2121.5" y="107.292">commentText:CommentText</text><rect fill="#E2E2F0" height="30.2969" rx="2.5" ry="2.5" style="stroke:#181818;stroke-width:0.5;" width="227" x="2114.5" y="733.25"/><text fill="#000000" font-family="sans-serif" font-size="14" lengthAdjust="spacing" textLength="213" x="2121.5" y="753.2451">commentText:CommentText</text><rect fill="#E2E2F0" height="30.2969" rx="2.5" ry="2.5" style="stroke:#181818;stroke-width:0.5;" width="161" x="2351.5" y="87.2969"/><text fill="#000000" font-family="sans-serif" font-size="14" lengthAdjust="spacing" textLength="147" x="2358.5" y="107.292">comment:Comment</text><rect fill="#E2E2F0" height="30.2969" rx="2.5" ry="2.5" style="stroke:#181818;stroke-width:0.5;" width="161" x="2351.5" y="733.25"/><text fill="#000000" font-family="sans-serif" font-size="14" lengthAdjust="spacing" textLength="147" x="2358.5" y="753.2451">comment:Comment</text><rect fill="#E2E2F0" height="30.2969" rx="2.5" ry="2.5" style="stroke:#181818;stroke-width:0.5;" width="84" x="2522.5" y="87.2969"/><text fill="#000000" font-family="sans-serif" font-size="14" lengthAdjust="spacing" textLength="70" x="2529.5" y="107.292">post:Post</text><rect fill="#E2E2F0" height="30.2969" rx="2.5" ry="2.5" style="stroke:#181818;stroke-width:0.5;" width="84" x="2522.5" y="733.25"/><text fill="#000000" font-family="sans-serif" font-size="14" lengthAdjust="spacing" textLength="70" x="2529.5" y="753.2451">post:Post</text><text fill="#000000" font-family="sans-serif" font-size="14" lengthAdjust="spacing" textLength="48" x="2780.5" y="115.292">MySQL</text><path d="M2789.5,66.2969 C2789.5,56.2969 2807.5,56.2969 2807.5,56.2969 C2807.5,56.2969 2825.5,56.2969 2825.5,66.2969 L2825.5,92.2969 C2825.5,102.2969 2807.5,102.2969 2807.5,102.2969 C2807.5,102.2969 2789.5,102.2969 2789.5,92.2969 L2789.5,66.2969 " fill="#E2E2F0" style="stroke:#181818;stroke-width:1.5;"/><path d="M2789.5,66.2969 C2789.5,76.2969 2807.5,76.2969 2807.5,76.2969 C2807.5,76.2969 2825.5,76.2969 2825.5,66.2969 " fill="none" style="stroke:#181818;stroke-width:1.5;"/><text fill="#000000" font-family="sans-serif" font-size="14" lengthAdjust="spacing" textLength="48" x="2780.5" y="746.2451">MySQL</text><path d="M2789.5,759.5469 C2789.5,749.5469 2807.5,749.5469 2807.5,749.5469 C2807.5,749.5469 2825.5,749.5469 2825.5,759.5469 L2825.5,785.5469 C2825.5,795.5469 2807.5,795.5469 2807.5,795.5469 C2807.5,795.5469 2789.5,795.5469 2789.5,785.5469 L2789.5,759.5469 " fill="#E2E2F0" style="stroke:#181818;stroke-width:1.5;"/><path d="M2789.5,759.5469 C2789.5,769.5469 2807.5,769.5469 2807.5,769.5469 C2807.5,769.5469 2825.5,769.5469 2825.5,759.5469 " fill="none" style="stroke:#181818;stroke-width:1.5;"/><rect fill="#FFFFFF" height="566.5234" style="stroke:#181818;stroke-width:1.0;" width="10" x="485.5" y="149.7266"/><rect fill="#FFFFFF" height="537.3906" style="stroke:#181818;stroke-width:1.0;" width="10" x="697" y="178.8594"/><rect fill="#FFFFFF" height="466.125" style="stroke:#181818;stroke-width:1.0;" width="10" x="1180" y="250.125"/><rect fill="#FFFFFF" height="29.1328" style="stroke:#181818;stroke-width:1.0;" width="10" x="1427" y="279.2578"/><rect fill="#FFFFFF" height="87.3984" style="stroke:#181818;stroke-width:1.0;" width="10" x="1581" y="337.5234"/><rect fill="#FFFFFF" height="87.3984" style="stroke:#181818;stroke-width:1.0;" width="10" x="1778" y="454.0547"/><rect fill="#FFFFFF" height="29.1328" style="stroke:#181818;stroke-width:1.0;" width="10" x="2027" y="483.1875"/><rect fill="#FFFFFF" height="29.1328" style="stroke:#181818;stroke-width:1.0;" width="10" x="2223" y="570.5859"/><rect fill="#FFFFFF" height="29.1328" style="stroke:#181818;stroke-width:1.0;" width="10" x="2427" y="628.8516"/><rect fill="#FFFFFF" height="29.1328" style="stroke:#181818;stroke-width:1.0;" width="10" x="2559.5" y="366.6563"/><rect fill="#FFFFFF" height="29.1328" style="stroke:#181818;stroke-width:1.0;" width="10" x="2559.5" y="687.1172"/><polygon fill="#181818" points="473.5,145.7266,483.5,149.7266,473.5,153.7266,477.5,149.7266" style="stroke:#181818;stroke-width:1.0;"/><line style="stroke:#181818;stroke-width:1.0;" x1="23.5" x2="479.5" y1="149.7266" y2="149.7266"/><text fill="#000000" font-family="sans-serif" font-size="13" font-weight="bold" lengthAdjust="spacing" textLength="21" x="30.5" y="144.6606">(1)</text><text fill="#000000" font-family="sans-serif" font-size="13" lengthAdjust="spacing" textLength="418" x="55.5" y="144.6606">call Endpoint (method: POST, route: "/", header: "Authorization", )</text><polygon fill="#181818" points="685,174.8594,695,178.8594,685,182.8594,689,178.8594" style="stroke:#181818;stroke-width:1.0;"/><line style="stroke:#181818;stroke-width:1.0;" x1="495.5" x2="691" y1="178.8594" y2="178.8594"/><text fill="#000000" font-family="sans-serif" font-size="13" font-weight="bold" lengthAdjust="spacing" textLength="21" x="502.5" y="173.7935">(2)</text><text fill="#000000" font-family="sans-serif" font-size="13" lengthAdjust="spacing" textLength="115" x="527.5" y="173.7935">.execute(req, res)</text><line style="stroke:#181818;stroke-width:1.0;" x1="707" x2="749" y1="207.9922" y2="207.9922"/><line style="stroke:#181818;stroke-width:1.0;" x1="749" x2="749" y1="207.9922" y2="220.9922"/><line style="stroke:#181818;stroke-width:1.0;" x1="708" x2="749" y1="220.9922" y2="220.9922"/><polygon fill="#181818" points="718,216.9922,708,220.9922,718,224.9922,714,220.9922" style="stroke:#181818;stroke-width:1.0;"/><text fill="#000000" font-family="sans-serif" font-size="13" font-weight="bold" lengthAdjust="spacing" textLength="20" x="714" y="202.9263">(3)</text><text fill="#000000" font-family="sans-serif" font-size="13" lengthAdjust="spacing" textLength="435" x="738" y="202.9263">.executeImpl(req: DecodedExpressRequest,res: express.Response)</text><polygon fill="#181818" points="1168,246.125,1178,250.125,1168,254.125,1172,250.125" style="stroke:#181818;stroke-width:1.0;"/><line style="stroke:#181818;stroke-width:1.0;" x1="707" x2="1174" y1="250.125" y2="250.125"/><text fill="#000000" font-family="sans-serif" font-size="13" font-weight="bold" lengthAdjust="spacing" textLength="21" x="714" y="245.0591">(4)</text><text fill="#000000" font-family="sans-serif" font-size="13" lengthAdjust="spacing" textLength="87" x="739" y="245.0591">.execute(dto)</text><polygon fill="#181818" points="1415,275.2578,1425,279.2578,1415,283.2578,1419,279.2578" style="stroke:#181818;stroke-width:1.0;"/><line style="stroke:#181818;stroke-width:1.0;" x1="1190" x2="1421" y1="279.2578" y2="279.2578"/><text fill="#000000" font-family="sans-serif" font-size="13" font-weight="bold" lengthAdjust="spacing" textLength="21" x="1197" y="274.1919">(5)</text><text fill="#000000" font-family="sans-serif" font-size="13" lengthAdjust="spacing" textLength="193" x="1222" y="274.1919">.createFromExisting (req.slug)</text><polygon fill="#181818" points="1201,304.3906,1191,308.3906,1201,312.3906,1197,308.3906" style="stroke:#181818;stroke-width:1.0;"/><line style="stroke:#181818;stroke-width:1.0;stroke-dasharray:2.0,2.0;" x1="1195" x2="1431" y1="308.3906" y2="308.3906"/><text fill="#000000" font-family="sans-serif" font-size="13" font-weight="bold" lengthAdjust="spacing" textLength="21" x="1207" y="303.3247">(6)</text><text fill="#000000" font-family="sans-serif" font-size="13" lengthAdjust="spacing" textLength="141" x="1232" y="303.3247">.isFailure (SlugorError)</text><polygon fill="#181818" points="1569,333.5234,1579,337.5234,1569,341.5234,1573,337.5234" style="stroke:#181818;stroke-width:1.0;"/><line style="stroke:#181818;stroke-width:1.0;" x1="1190" x2="1575" y1="337.5234" y2="337.5234"/><text fill="#000000" font-family="sans-serif" font-size="13" font-weight="bold" lengthAdjust="spacing" textLength="21" x="1197" y="332.4575">(7)</text><text fill="#000000" font-family="sans-serif" font-size="13" lengthAdjust="spacing" textLength="177" x="1222" y="332.4575">.getPostBySlug (Slug.Value)</text><polygon fill="#181818" points="2547.5,362.6563,2557.5,366.6563,2547.5,370.6563,2551.5,366.6563" style="stroke:#181818;stroke-width:1.0;"/><line style="stroke:#181818;stroke-width:1.0;" x1="1591" x2="2553.5" y1="366.6563" y2="366.6563"/><text fill="#000000" font-family="sans-serif" font-size="13" font-weight="bold" lengthAdjust="spacing" textLength="21" x="1598" y="361.5903">(8)</text><text fill="#000000" font-family="sans-serif" font-size="13" lengthAdjust="spacing" textLength="177" x="1623" y="361.5903">.getPostBySlug (Slug.Value)</text><polygon fill="#181818" points="1602,391.7891,1592,395.7891,1602,399.7891,1598,395.7891" style="stroke:#181818;stroke-width:1.0;"/><line style="stroke:#181818;stroke-width:1.0;stroke-dasharray:2.0,2.0;" x1="1596" x2="2563.5" y1="395.7891" y2="395.7891"/><text fill="#000000" font-family="sans-serif" font-size="13" font-weight="bold" lengthAdjust="spacing" textLength="21" x="1608" y="390.7231">(9)</text><text fill="#000000" font-family="sans-serif" font-size="13" lengthAdjust="spacing" textLength="28" x="1633" y="390.7231">post</text><polygon fill="#181818" points="1201,420.9219,1191,424.9219,1201,428.9219,1197,424.9219" style="stroke:#181818;stroke-width:1.0;"/><line style="stroke:#181818;stroke-width:1.0;stroke-dasharray:2.0,2.0;" x1="1195" x2="1585" y1="424.9219" y2="424.9219"/><text fill="#000000" font-family="sans-serif" font-size="13" font-weight="bold" lengthAdjust="spacing" textLength="31" x="1207" y="419.856">(10)</text><text fill="#000000" font-family="sans-serif" font-size="13" lengthAdjust="spacing" textLength="28" x="1242" y="419.856">post</text><polygon fill="#181818" points="1766,450.0547,1776,454.0547,1766,458.0547,1770,454.0547" style="stroke:#181818;stroke-width:1.0;"/><line style="stroke:#181818;stroke-width:1.0;" x1="1190" x2="1772" y1="454.0547" y2="454.0547"/><text fill="#000000" font-family="sans-serif" font-size="13" font-weight="bold" lengthAdjust="spacing" textLength="30" x="1197" y="448.9888">(11)</text><text fill="#000000" font-family="sans-serif" font-size="13" lengthAdjust="spacing" textLength="186" x="1231" y="448.9888">.getMemberByUserId (userId)</text><polygon fill="#181818" points="2015,479.1875,2025,483.1875,2015,487.1875,2019,483.1875" style="stroke:#181818;stroke-width:1.0;"/><line style="stroke:#181818;stroke-width:1.0;" x1="1788" x2="2021" y1="483.1875" y2="483.1875"/><text fill="#000000" font-family="sans-serif" font-size="13" font-weight="bold" lengthAdjust="spacing" textLength="30" x="1795" y="478.1216">(12)</text><text fill="#000000" font-family="sans-serif" font-size="13" lengthAdjust="spacing" textLength="186" x="1829" y="478.1216">.getMemberByUserId (userId)</text><polygon fill="#181818" points="1799,508.3203,1789,512.3203,1799,516.3203,1795,512.3203" style="stroke:#181818;stroke-width:1.0;"/><line style="stroke:#181818;stroke-width:1.0;stroke-dasharray:2.0,2.0;" x1="1793" x2="2031" y1="512.3203" y2="512.3203"/><text fill="#000000" font-family="sans-serif" font-size="13" font-weight="bold" lengthAdjust="spacing" textLength="29" x="1805" y="507.2544">(13)</text><text fill="#000000" font-family="sans-serif" font-size="13" lengthAdjust="spacing" textLength="52" x="1838" y="507.2544">Member</text><polygon fill="#181818" points="1201,537.4531,1191,541.4531,1201,545.4531,1197,541.4531" style="stroke:#181818;stroke-width:1.0;"/><line style="stroke:#181818;stroke-width:1.0;stroke-dasharray:2.0,2.0;" x1="1195" x2="1782" y1="541.4531" y2="541.4531"/><text fill="#000000" font-family="sans-serif" font-size="13" font-weight="bold" lengthAdjust="spacing" textLength="30" x="1207" y="536.3872">(14)</text><text fill="#000000" font-family="sans-serif" font-size="13" lengthAdjust="spacing" textLength="52" x="1241" y="536.3872">Member</text><polygon fill="#181818" points="2211,566.5859,2221,570.5859,2211,574.5859,2215,570.5859" style="stroke:#181818;stroke-width:1.0;"/><line style="stroke:#181818;stroke-width:1.0;" x1="1190" x2="2217" y1="570.5859" y2="570.5859"/><text fill="#000000" font-family="sans-serif" font-size="13" font-weight="bold" lengthAdjust="spacing" textLength="30" x="1197" y="565.52">(15)</text><text fill="#000000" font-family="sans-serif" font-size="13" lengthAdjust="spacing" textLength="191" x="1231" y="565.52">.create(value: req.comment);</text><polygon fill="#181818" points="1201,595.7188,1191,599.7188,1201,603.7188,1197,599.7188" style="stroke:#181818;stroke-width:1.0;"/><line style="stroke:#181818;stroke-width:1.0;stroke-dasharray:2.0,2.0;" x1="1195" x2="2227" y1="599.7188" y2="599.7188"/><text fill="#000000" font-family="sans-serif" font-size="13" font-weight="bold" lengthAdjust="spacing" textLength="30" x="1207" y="594.6528">(16)</text><text fill="#000000" font-family="sans-serif" font-size="13" lengthAdjust="spacing" textLength="164" x="1241" y="594.6528">commentOrError.isFailure</text><polygon fill="#181818" points="2415,624.8516,2425,628.8516,2415,632.8516,2419,628.8516" style="stroke:#181818;stroke-width:1.0;"/><line style="stroke:#181818;stroke-width:1.0;" x1="1190" x2="2421" y1="628.8516" y2="628.8516"/><text fill="#000000" font-family="sans-serif" font-size="13" font-weight="bold" lengthAdjust="spacing" textLength="30" x="1197" y="623.7856">(17)</text><text fill="#000000" font-family="sans-serif" font-size="13" lengthAdjust="spacing" textLength="60" x="1231" y="623.7856">.create();</text><polygon fill="#181818" points="1201,653.9844,1191,657.9844,1201,661.9844,1197,657.9844" style="stroke:#181818;stroke-width:1.0;"/><line style="stroke:#181818;stroke-width:1.0;stroke-dasharray:2.0,2.0;" x1="1195" x2="2431" y1="657.9844" y2="657.9844"/><text fill="#000000" font-family="sans-serif" font-size="13" font-weight="bold" lengthAdjust="spacing" textLength="30" x="1207" y="652.9185">(18)</text><text fill="#000000" font-family="sans-serif" font-size="13" lengthAdjust="spacing" textLength="164" x="1241" y="652.9185">commentOrError.isFailure</text><polygon fill="#181818" points="2547.5,683.1172,2557.5,687.1172,2547.5,691.1172,2551.5,687.1172" style="stroke:#181818;stroke-width:1.0;"/><line style="stroke:#181818;stroke-width:1.0;" x1="1190" x2="2553.5" y1="687.1172" y2="687.1172"/><text fill="#000000" font-family="sans-serif" font-size="13" font-weight="bold" lengthAdjust="spacing" textLength="30" x="1197" y="682.0513">(19)</text><text fill="#000000" font-family="sans-serif" font-size="13" lengthAdjust="spacing" textLength="160" x="1231" y="682.0513">addComment(comment)</text><polygon fill="#181818" points="2795.5,712.25,2805.5,716.25,2795.5,720.25,2799.5,716.25" style="stroke:#181818;stroke-width:1.0;"/><line style="stroke:#181818;stroke-width:1.0;stroke-dasharray:2.0,2.0;" x1="2564.5" x2="2801.5" y1="716.25" y2="716.25"/><text fill="#000000" font-family="sans-serif" font-size="13" font-weight="bold" lengthAdjust="spacing" textLength="31" x="2571.5" y="711.1841">(20)</text><text fill="#000000" font-family="sans-serif" font-size="13" lengthAdjust="spacing" textLength="179" x="2606.5" y="711.1841">Save comment to database</text><!--SRC=[hLJ1Zfim4Btp5IDEH4feRfNSQgLkafKYDTeqRFRkm2YB19YrJPJqwsiR4qnYLZdq0iDuvisRuNbe8rdLb0Va4FuyF4NpIHZ8N1O8-sG-_mx94cQmu4WbGis4X9IL9LOoeAba7FO2UL1JBlCqhsabOSSQYMBW2ZdMnKMohKfVi4foLXJ8oSxd3O4Ay9u4MnUo4RYW0bsGszHz6pAa8ehcI40V9yeoATt7C53tgi0OuJSLrbjxCenNCr4pz6TiiBHdjpdQJw0zDx6jEGop4t_3ioIBtZRnphStgKjmWuFxJicLh3Q2Z4fwKBE3pINvyrkxEqyGw3yEioVxemb0Iei2LbLMirp1HINA3vQf6RycRrFWEef0-2sSmWVIJBSR_cfK2C__KfcpIXrCj9ZoavQObK_xCcMyse4OpvYgc8ZZfwg2miNmoiVhVQ32kgmBNON04bEMOROwrwgUsE5dWq9EkHu2jhvuXw9cbS39G-MiGfrkCidyZNHYldTfp4x294xDJNtXh5oTSo7pwWYQVAnrxo1VDTyPC1kZbeiNcXSDHuXq8EChpXcV11dUe_dPNM-CGZkYr5_F5rFK8CRlj6ZG8TVViAlLDVaWWX6nVfYsdFgrKVUGkLjbP0WcROaUXYCTzpTUNH1DkNKyN_JjMMSGDURjDkqi2SVMQ1kx9Xx2iGkaVRNj3yZOSsS6rZCeEZ87JxRBspyCPqMf7bg1HYVznmXeQTfDDVdHD-5kDSSUvMKXNbjjzf9rYRgONnBjINeeTNJ-1vKlBZC1ccKsBEe6DARlRZSJIEW9EmOWMR-rRoNlVDkDwtgy-zCVO7d_0m00]--></g></svg>