<?xml version="1.0" encoding="us-ascii" standalone="no"?><svg xmlns="http://www.w3.org/2000/svg" xmlns:xlink="http://www.w3.org/1999/xlink" contentStyleType="text/css" height="656px" preserveAspectRatio="none" style="width:2372px;height:656px;background:#FFFFFF;" version="1.1" viewBox="0 0 2372 656" width="2372px" zoomAndPan="magnify"><defs/><g><text fill="#000000" font-family="sans-serif" font-size="14" font-weight="bold" lengthAdjust="spacing" textLength="236" x="1066.25" y="27.9951">US010 SD - Up vote comment</text><rect fill="#FFFFFF" height="407.8594" style="stroke:#181818;stroke-width:1.0;" width="10" x="246.5" y="149.7266"/><rect fill="#FFFFFF" height="378.7266" style="stroke:#181818;stroke-width:1.0;" width="10" x="494.5" y="178.8594"/><rect fill="#FFFFFF" height="349.5938" style="stroke:#181818;stroke-width:1.0;" width="10" x="904.5" y="207.9922"/><rect fill="#FFFFFF" height="29.1328" style="stroke:#181818;stroke-width:1.0;" width="10" x="1221" y="237.125"/><rect fill="#FFFFFF" height="29.1328" style="stroke:#181818;stroke-width:1.0;" width="10" x="1440" y="295.3906"/><rect fill="#FFFFFF" height="29.1328" style="stroke:#181818;stroke-width:1.0;" width="10" x="1603.5" y="353.6563"/><rect fill="#FFFFFF" height="29.1328" style="stroke:#181818;stroke-width:1.0;" width="10" x="1786" y="411.9219"/><rect fill="#FFFFFF" height="29.1328" style="stroke:#181818;stroke-width:1.0;" width="10" x="2008.5" y="470.1875"/><rect fill="#FFFFFF" height="29.1328" style="stroke:#181818;stroke-width:1.0;" width="10" x="2157.5" y="528.4531"/><line style="stroke:#181818;stroke-width:0.5;stroke-dasharray:5.0,5.0;" x1="23" x2="23" y1="118.5938" y2="575.5859"/><line style="stroke:#181818;stroke-width:0.5;stroke-dasharray:5.0,5.0;" x1="251.5" x2="251.5" y1="118.5938" y2="575.5859"/><line style="stroke:#181818;stroke-width:0.5;stroke-dasharray:5.0,5.0;" x1="499.5" x2="499.5" y1="118.5938" y2="575.5859"/><line style="stroke:#181818;stroke-width:0.5;stroke-dasharray:5.0,5.0;" x1="909.5" x2="909.5" y1="118.5938" y2="575.5859"/><line style="stroke:#181818;stroke-width:0.5;stroke-dasharray:5.0,5.0;" x1="1225.5" x2="1225.5" y1="118.5938" y2="575.5859"/><line style="stroke:#181818;stroke-width:0.5;stroke-dasharray:5.0,5.0;" x1="1444.5" x2="1444.5" y1="118.5938" y2="575.5859"/><line style="stroke:#181818;stroke-width:0.5;stroke-dasharray:5.0,5.0;" x1="1608.5" x2="1608.5" y1="118.5938" y2="575.5859"/><line style="stroke:#181818;stroke-width:0.5;stroke-dasharray:5.0,5.0;" x1="1790.5" x2="1790.5" y1="118.5938" y2="575.5859"/><line style="stroke:#181818;stroke-width:0.5;stroke-dasharray:5.0,5.0;" x1="2013.5" x2="2013.5" y1="118.5938" y2="575.5859"/><line style="stroke:#181818;stroke-width:0.5;stroke-dasharray:5.0,5.0;" x1="2162.5" x2="2162.5" y1="118.5938" y2="575.5859"/><line style="stroke:#181818;stroke-width:0.5;stroke-dasharray:5.0,5.0;" x1="2337.5" x2="2337.5" y1="118.5938" y2="575.5859"/><text fill="#000000" font-family="sans-serif" font-size="14" lengthAdjust="spacing" textLength="31" x="5" y="115.292">User</text><ellipse cx="23.5" cy="50.7969" fill="#E2E2F0" rx="8" ry="8" style="stroke:#181818;stroke-width:0.5;"/><path d="M23.5,58.7969 L23.5,85.7969 M10.5,66.7969 L36.5,66.7969 M23.5,85.7969 L10.5,100.7969 M23.5,85.7969 L36.5,100.7969 " fill="none" style="stroke:#181818;stroke-width:0.5;"/><text fill="#000000" font-family="sans-serif" font-size="14" lengthAdjust="spacing" textLength="31" x="5" y="587.5811">User</text><ellipse cx="23.5" cy="599.3828" fill="#E2E2F0" rx="8" ry="8" style="stroke:#181818;stroke-width:0.5;"/><path d="M23.5,607.3828 L23.5,634.3828 M10.5,615.3828 L36.5,615.3828 M23.5,634.3828 L10.5,649.3828 M23.5,634.3828 L36.5,649.3828 " fill="none" style="stroke:#181818;stroke-width:0.5;"/><rect fill="#E2E2F0" height="30.2969" rx="2.5" ry="2.5" style="stroke:#181818;stroke-width:0.5;" width="64" x="219.5" y="87.2969"/><text fill="#000000" font-family="sans-serif" font-size="14" lengthAdjust="spacing" textLength="50" x="226.5" y="107.292">Routes</text><rect fill="#E2E2F0" height="30.2969" rx="2.5" ry="2.5" style="stroke:#181818;stroke-width:0.5;" width="64" x="219.5" y="574.5859"/><text fill="#000000" font-family="sans-serif" font-size="14" lengthAdjust="spacing" textLength="50" x="226.5" y="594.5811">Routes</text><rect fill="#E2E2F0" height="30.2969" rx="2.5" ry="2.5" style="stroke:#181818;stroke-width:0.5;" width="412" x="293.5" y="87.2969"/><text fill="#000000" font-family="sans-serif" font-size="14" lengthAdjust="spacing" textLength="398" x="300.5" y="107.292">upvoteCommentController:UpvoteCommentController</text><rect fill="#E2E2F0" height="30.2969" rx="2.5" ry="2.5" style="stroke:#181818;stroke-width:0.5;" width="412" x="293.5" y="574.5859"/><text fill="#000000" font-family="sans-serif" font-size="14" lengthAdjust="spacing" textLength="398" x="300.5" y="594.5811">upvoteCommentController:UpvoteCommentController</text><rect fill="#E2E2F0" height="30.2969" rx="2.5" ry="2.5" style="stroke:#181818;stroke-width:0.5;" width="388" x="715.5" y="87.2969"/><text fill="#000000" font-family="sans-serif" font-size="14" lengthAdjust="spacing" textLength="374" x="722.5" y="107.292">upvoteCommentUseCase: UpvoteCommentUseCase</text><rect fill="#E2E2F0" height="30.2969" rx="2.5" ry="2.5" style="stroke:#181818;stroke-width:0.5;" width="388" x="715.5" y="574.5859"/><text fill="#000000" font-family="sans-serif" font-size="14" lengthAdjust="spacing" textLength="374" x="722.5" y="594.5811">upvoteCommentUseCase: UpvoteCommentUseCase</text><rect fill="#E2E2F0" height="30.2969" rx="2.5" ry="2.5" style="stroke:#181818;stroke-width:0.5;" width="225" x="1113.5" y="87.2969"/><text fill="#000000" font-family="sans-serif" font-size="14" lengthAdjust="spacing" textLength="211" x="1120.5" y="107.292">memberRepo: IMemberRepo</text><rect fill="#E2E2F0" height="30.2969" rx="2.5" ry="2.5" style="stroke:#181818;stroke-width:0.5;" width="225" x="1113.5" y="574.5859"/><text fill="#000000" font-family="sans-serif" font-size="14" lengthAdjust="spacing" textLength="211" x="1120.5" y="594.5811">memberRepo: IMemberRepo</text><rect fill="#E2E2F0" height="30.2969" rx="2.5" ry="2.5" style="stroke:#181818;stroke-width:0.5;" width="193" x="1348.5" y="87.2969"/><text fill="#000000" font-family="sans-serif" font-size="14" lengthAdjust="spacing" textLength="179" x="1355.5" y="107.292">commentId: CommentID</text><rect fill="#E2E2F0" height="30.2969" rx="2.5" ry="2.5" style="stroke:#181818;stroke-width:0.5;" width="193" x="1348.5" y="574.5859"/><text fill="#000000" font-family="sans-serif" font-size="14" lengthAdjust="spacing" textLength="179" x="1355.5" y="594.5811">commentId: CommentID</text><rect fill="#E2E2F0" height="30.2969" rx="2.5" ry="2.5" style="stroke:#181818;stroke-width:0.5;" width="114" x="1551.5" y="87.2969"/><text fill="#000000" font-family="sans-serif" font-size="14" lengthAdjust="spacing" textLength="100" x="1558.5" y="107.292">postid: PostId</text><rect fill="#E2E2F0" height="30.2969" rx="2.5" ry="2.5" style="stroke:#181818;stroke-width:0.5;" width="114" x="1551.5" y="574.5859"/><text fill="#000000" font-family="sans-serif" font-size="14" lengthAdjust="spacing" textLength="100" x="1558.5" y="594.5811">postid: PostId</text><rect fill="#E2E2F0" height="30.2969" rx="2.5" ry="2.5" style="stroke:#181818;stroke-width:0.5;" width="231" x="1675.5" y="87.2969"/><text fill="#000000" font-family="sans-serif" font-size="14" lengthAdjust="spacing" textLength="217" x="1682.5" y="107.292">commentVote:CommentVote</text><rect fill="#E2E2F0" height="30.2969" rx="2.5" ry="2.5" style="stroke:#181818;stroke-width:0.5;" width="231" x="1675.5" y="574.5859"/><text fill="#000000" font-family="sans-serif" font-size="14" lengthAdjust="spacing" textLength="217" x="1682.5" y="594.5811">commentVote:CommentVote</text><rect fill="#E2E2F0" height="30.2969" rx="2.5" ry="2.5" style="stroke:#181818;stroke-width:0.5;" width="194" x="1916.5" y="87.2969"/><text fill="#000000" font-family="sans-serif" font-size="14" lengthAdjust="spacing" textLength="180" x="1923.5" y="107.292">postService: PostService</text><rect fill="#E2E2F0" height="30.2969" rx="2.5" ry="2.5" style="stroke:#181818;stroke-width:0.5;" width="194" x="1916.5" y="574.5859"/><text fill="#000000" font-family="sans-serif" font-size="14" lengthAdjust="spacing" textLength="180" x="1923.5" y="594.5811">postService: PostService</text><rect fill="#E2E2F0" height="30.2969" rx="2.5" ry="2.5" style="stroke:#181818;stroke-width:0.5;" width="84" x="2120.5" y="87.2969"/><text fill="#000000" font-family="sans-serif" font-size="14" lengthAdjust="spacing" textLength="70" x="2127.5" y="107.292">post:Post</text><rect fill="#E2E2F0" height="30.2969" rx="2.5" ry="2.5" style="stroke:#181818;stroke-width:0.5;" width="84" x="2120.5" y="574.5859"/><text fill="#000000" font-family="sans-serif" font-size="14" lengthAdjust="spacing" textLength="70" x="2127.5" y="594.5811">post:Post</text><text fill="#000000" font-family="sans-serif" font-size="14" lengthAdjust="spacing" textLength="48" x="2310.5" y="115.292">MySQL</text><path d="M2319.5,66.2969 C2319.5,56.2969 2337.5,56.2969 2337.5,56.2969 C2337.5,56.2969 2355.5,56.2969 2355.5,66.2969 L2355.5,92.2969 C2355.5,102.2969 2337.5,102.2969 2337.5,102.2969 C2337.5,102.2969 2319.5,102.2969 2319.5,92.2969 L2319.5,66.2969 " fill="#E2E2F0" style="stroke:#181818;stroke-width:1.5;"/><path d="M2319.5,66.2969 C2319.5,76.2969 2337.5,76.2969 2337.5,76.2969 C2337.5,76.2969 2355.5,76.2969 2355.5,66.2969 " fill="none" style="stroke:#181818;stroke-width:1.5;"/><text fill="#000000" font-family="sans-serif" font-size="14" lengthAdjust="spacing" textLength="48" x="2310.5" y="587.5811">MySQL</text><path d="M2319.5,600.8828 C2319.5,590.8828 2337.5,590.8828 2337.5,590.8828 C2337.5,590.8828 2355.5,590.8828 2355.5,600.8828 L2355.5,626.8828 C2355.5,636.8828 2337.5,636.8828 2337.5,636.8828 C2337.5,636.8828 2319.5,636.8828 2319.5,626.8828 L2319.5,600.8828 " fill="#E2E2F0" style="stroke:#181818;stroke-width:1.5;"/><path d="M2319.5,600.8828 C2319.5,610.8828 2337.5,610.8828 2337.5,610.8828 C2337.5,610.8828 2355.5,610.8828 2355.5,600.8828 " fill="none" style="stroke:#181818;stroke-width:1.5;"/><rect fill="#FFFFFF" height="407.8594" style="stroke:#181818;stroke-width:1.0;" width="10" x="246.5" y="149.7266"/><rect fill="#FFFFFF" height="378.7266" style="stroke:#181818;stroke-width:1.0;" width="10" x="494.5" y="178.8594"/><rect fill="#FFFFFF" height="349.5938" style="stroke:#181818;stroke-width:1.0;" width="10" x="904.5" y="207.9922"/><rect fill="#FFFFFF" height="29.1328" style="stroke:#181818;stroke-width:1.0;" width="10" x="1221" y="237.125"/><rect fill="#FFFFFF" height="29.1328" style="stroke:#181818;stroke-width:1.0;" width="10" x="1440" y="295.3906"/><rect fill="#FFFFFF" height="29.1328" style="stroke:#181818;stroke-width:1.0;" width="10" x="1603.5" y="353.6563"/><rect fill="#FFFFFF" height="29.1328" style="stroke:#181818;stroke-width:1.0;" width="10" x="1786" y="411.9219"/><rect fill="#FFFFFF" height="29.1328" style="stroke:#181818;stroke-width:1.0;" width="10" x="2008.5" y="470.1875"/><rect fill="#FFFFFF" height="29.1328" style="stroke:#181818;stroke-width:1.0;" width="10" x="2157.5" y="528.4531"/><polygon fill="#181818" points="234.5,145.7266,244.5,149.7266,234.5,153.7266,238.5,149.7266" style="stroke:#181818;stroke-width:1.0;"/><line style="stroke:#181818;stroke-width:1.0;" x1="23.5" x2="240.5" y1="149.7266" y2="149.7266"/><text fill="#000000" font-family="sans-serif" font-size="13" lengthAdjust="spacing" textLength="204" x="30.5" y="144.6606">1. call Endpoint (method: POST)</text><polygon fill="#181818" points="482.5,174.8594,492.5,178.8594,482.5,182.8594,486.5,178.8594" style="stroke:#181818;stroke-width:1.0;"/><line style="stroke:#181818;stroke-width:1.0;" x1="256.5" x2="488.5" y1="178.8594" y2="178.8594"/><text fill="#000000" font-family="sans-serif" font-size="13" lengthAdjust="spacing" textLength="131" x="263.5" y="173.7935">2. .execute(req, res)</text><polygon fill="#181818" points="892.5,203.9922,902.5,207.9922,892.5,211.9922,896.5,207.9922" style="stroke:#181818;stroke-width:1.0;"/><line style="stroke:#181818;stroke-width:1.0;" x1="504.5" x2="898.5" y1="207.9922" y2="207.9922"/><text fill="#000000" font-family="sans-serif" font-size="13" lengthAdjust="spacing" textLength="158" x="511.5" y="202.9263">3. .executeImpl(req, res)</text><polygon fill="#181818" points="1209,233.125,1219,237.125,1209,241.125,1213,237.125" style="stroke:#181818;stroke-width:1.0;"/><line style="stroke:#181818;stroke-width:1.0;" x1="914.5" x2="1215" y1="237.125" y2="237.125"/><text fill="#000000" font-family="sans-serif" font-size="13" lengthAdjust="spacing" textLength="213" x="921.5" y="232.0591">4. .GetMemberByIdUserID(userId)</text><polygon fill="#181818" points="925.5,262.2578,915.5,266.2578,925.5,270.2578,921.5,266.2578" style="stroke:#181818;stroke-width:1.0;"/><line style="stroke:#181818;stroke-width:1.0;stroke-dasharray:2.0,2.0;" x1="919.5" x2="1225" y1="266.2578" y2="266.2578"/><text fill="#000000" font-family="sans-serif" font-size="13" lengthAdjust="spacing" textLength="68" x="931.5" y="261.1919">5. Member</text><polygon fill="#181818" points="1428,291.3906,1438,295.3906,1428,299.3906,1432,295.3906" style="stroke:#181818;stroke-width:1.0;"/><line style="stroke:#181818;stroke-width:1.0;" x1="914.5" x2="1434" y1="295.3906" y2="295.3906"/><text fill="#000000" font-family="sans-serif" font-size="13" lengthAdjust="spacing" textLength="300" x="921.5" y="290.3247">6. getCommentByCommentId(req.commentId)</text><polygon fill="#181818" points="925.5,320.5234,915.5,324.5234,925.5,328.5234,921.5,324.5234" style="stroke:#181818;stroke-width:1.0;"/><line style="stroke:#181818;stroke-width:1.0;stroke-dasharray:2.0,2.0;" x1="919.5" x2="1444" y1="324.5234" y2="324.5234"/><text fill="#000000" font-family="sans-serif" font-size="13" lengthAdjust="spacing" textLength="80" x="931.5" y="319.4575">7. Comment</text><polygon fill="#181818" points="1591.5,349.6563,1601.5,353.6563,1591.5,357.6563,1595.5,353.6563" style="stroke:#181818;stroke-width:1.0;"/><line style="stroke:#181818;stroke-width:1.0;" x1="914.5" x2="1597.5" y1="353.6563" y2="353.6563"/><text fill="#000000" font-family="sans-serif" font-size="13" lengthAdjust="spacing" textLength="173" x="921.5" y="348.5903">8. getPostByPostId (postId)</text><polygon fill="#181818" points="925.5,378.7891,915.5,382.7891,925.5,386.7891,921.5,382.7891" style="stroke:#181818;stroke-width:1.0;"/><line style="stroke:#181818;stroke-width:1.0;stroke-dasharray:2.0,2.0;" x1="919.5" x2="1607.5" y1="382.7891" y2="382.7891"/><text fill="#000000" font-family="sans-serif" font-size="13" lengthAdjust="spacing" textLength="44" x="931.5" y="377.7231">9. Post</text><polygon fill="#181818" points="1774,407.9219,1784,411.9219,1774,415.9219,1778,411.9219" style="stroke:#181818;stroke-width:1.0;"/><line style="stroke:#181818;stroke-width:1.0;" x1="914.5" x2="1780" y1="411.9219" y2="411.9219"/><text fill="#000000" font-family="sans-serif" font-size="13" lengthAdjust="spacing" textLength="402" x="921.5" y="406.856">10. .getVotesForCommentByMemberId(commentId,memberId)</text><polygon fill="#181818" points="925.5,437.0547,915.5,441.0547,925.5,445.0547,921.5,441.0547" style="stroke:#181818;stroke-width:1.0;"/><line style="stroke:#181818;stroke-width:1.0;stroke-dasharray:2.0,2.0;" x1="919.5" x2="1790" y1="441.0547" y2="441.0547"/><text fill="#000000" font-family="sans-serif" font-size="13" lengthAdjust="spacing" textLength="118" x="931.5" y="435.9888">11. CommentVote</text><polygon fill="#181818" points="1996.5,466.1875,2006.5,470.1875,1996.5,474.1875,2000.5,470.1875" style="stroke:#181818;stroke-width:1.0;"/><line style="stroke:#181818;stroke-width:1.0;" x1="914.5" x2="2002.5" y1="470.1875" y2="470.1875"/><text fill="#000000" font-family="sans-serif" font-size="13" lengthAdjust="spacing" textLength="553" x="921.5" y="465.1216">12. .upvoteComment(post, member, comment, existingVotesOnCommentByMember)</text><polygon fill="#181818" points="925.5,495.3203,915.5,499.3203,925.5,503.3203,921.5,499.3203" style="stroke:#181818;stroke-width:1.0;"/><line style="stroke:#181818;stroke-width:1.0;stroke-dasharray:2.0,2.0;" x1="919.5" x2="2012.5" y1="499.3203" y2="499.3203"/><text fill="#000000" font-family="sans-serif" font-size="13" lengthAdjust="spacing" textLength="197" x="931.5" y="494.2544">13 .UpvoteCommentResponse</text><polygon fill="#181818" points="2145.5,524.4531,2155.5,528.4531,2145.5,532.4531,2149.5,528.4531" style="stroke:#181818;stroke-width:1.0;"/><line style="stroke:#181818;stroke-width:1.0;" x1="914.5" x2="2151.5" y1="528.4531" y2="528.4531"/><text fill="#000000" font-family="sans-serif" font-size="13" lengthAdjust="spacing" textLength="93" x="921.5" y="523.3872">14 .save(post)</text><polygon fill="#181818" points="2325.5,553.5859,2335.5,557.5859,2325.5,561.5859,2329.5,557.5859" style="stroke:#181818;stroke-width:1.0;"/><line style="stroke:#181818;stroke-width:1.0;" x1="2162.5" x2="2331.5" y1="557.5859" y2="557.5859"/><text fill="#000000" font-family="sans-serif" font-size="13" lengthAdjust="spacing" textLength="146" x="2169.5" y="552.52">Send data to database</text><!--SRC=[XLLBRzim3BxxLn0zfO0Zn6ltqc70aco3WHNjucLtrIOw0xRboKhG_FlfPKUE8_SaaI8_VgH9MfQoGjXdgsG5sHQMi6_Xo2L2pkiQ6ncnN781-mv5r38XoxniMIDXnmyIkv7gvj1gpurrtF162bvLAEZ-klu6M0U1jnbWHMN3EgHZLwUTOhg7CM2DzJEA7RQSGlem2CRRayTEhY9fGS5XfrlhuSIfIyixMIhx9tMcXJNMzo3u7qMSRixt4RvMTDU3P2YEPOusaXEChoTFlQX-7SoYWadsh6e53wVirq-jxZLH5EaEWEKNz-4fG48WPrK5tvgYvQM2NDGe_tATxMFs-rOtJdbagfDSgzX3GmI-EOLt10Y-OguC5mB_nI2myu12lHBGJq8DdNDtZfFMRVLchBw7hYbr5AzbADmhy1yehMfzIWjTkNIxEEYZy4BuZURTOHda_Pw0jOiAl0eJ9EXrA8KF15vGEjNwr3TpeUj0XYxtcVeDxWipN3-IVaf6P7sa8Dj-H2XyCbIrl3xP8O95QqwVtZ1Imss6s6TYktsBLm3UAk0mWXIIbVhGYfnHVUTYgAVz7ggSGodZsgbkew-NbJWFzKGpaqII3ENLvgDa9i2Xf9xynP7euHijMbFe62ptkFyXn82lfTfgpOi9yDXSvEsbwEyUxpwNrXsGqSiEkvOttIX17tOkDGLt3wHZHpIPN10pZBHfl-CePDWKHWJ9pwll8h8lkytcQK8hAcJYAFy7]--></g></svg>