<?xml version="1.0" encoding="us-ascii" standalone="no"?><svg xmlns="http://www.w3.org/2000/svg" xmlns:xlink="http://www.w3.org/1999/xlink" contentStyleType="text/css" height="565px" preserveAspectRatio="none" style="width:1803px;height:565px;background:#FFFFFF;" version="1.1" viewBox="0 0 1803 565" width="1803px" zoomAndPan="magnify"><defs/><g><text fill="#000000" font-family="sans-serif" font-size="14" font-weight="bold" lengthAdjust="spacing" textLength="185" x="807.25" y="27.9951">US013 SD - Delete User</text><rect fill="#FFFFFF" height="317.3281" style="stroke:#181818;stroke-width:1.0;" width="10" x="471" y="149.7266"/><rect fill="#FFFFFF" height="288.1953" style="stroke:#181818;stroke-width:1.0;" width="10" x="675.5" y="178.8594"/><rect fill="#FFFFFF" height="216.9297" style="stroke:#181818;stroke-width:1.0;" width="10" x="1134.5" y="250.125"/><rect fill="#FFFFFF" height="187.7969" style="stroke:#181818;stroke-width:1.0;" width="10" x="1371.5" y="279.2578"/><rect fill="#FFFFFF" height="87.3984" style="stroke:#181818;stroke-width:1.0;" width="10" x="1567.5" y="308.3906"/><rect fill="#FFFFFF" height="29.1328" style="stroke:#181818;stroke-width:1.0;" width="10" x="1763.5" y="337.5234"/><line style="stroke:#181818;stroke-width:0.5;stroke-dasharray:5.0,5.0;" x1="27" x2="27" y1="118.5938" y2="485.0547"/><line style="stroke:#181818;stroke-width:0.5;stroke-dasharray:5.0,5.0;" x1="476" x2="476" y1="118.5938" y2="485.0547"/><line style="stroke:#181818;stroke-width:0.5;stroke-dasharray:5.0,5.0;" x1="680" x2="680" y1="118.5938" y2="485.0547"/><line style="stroke:#181818;stroke-width:0.5;stroke-dasharray:5.0,5.0;" x1="1139.5" x2="1139.5" y1="118.5938" y2="485.0547"/><line style="stroke:#181818;stroke-width:0.5;stroke-dasharray:5.0,5.0;" x1="1376.5" x2="1376.5" y1="118.5938" y2="485.0547"/><line style="stroke:#181818;stroke-width:0.5;stroke-dasharray:5.0,5.0;" x1="1572" x2="1572" y1="118.5938" y2="485.0547"/><line style="stroke:#181818;stroke-width:0.5;stroke-dasharray:5.0,5.0;" x1="1768.5" x2="1768.5" y1="118.5938" y2="485.0547"/><text fill="#000000" font-family="sans-serif" font-size="14" lengthAdjust="spacing" textLength="38" x="5" y="115.292">Users</text><ellipse cx="27" cy="50.7969" fill="#E2E2F0" rx="8" ry="8" style="stroke:#181818;stroke-width:0.5;"/><path d="M27,58.7969 L27,85.7969 M14,66.7969 L40,66.7969 M27,85.7969 L14,100.7969 M27,85.7969 L40,100.7969 " fill="none" style="stroke:#181818;stroke-width:0.5;"/><text fill="#000000" font-family="sans-serif" font-size="14" lengthAdjust="spacing" textLength="38" x="5" y="497.0498">Users</text><ellipse cx="27" cy="508.8516" fill="#E2E2F0" rx="8" ry="8" style="stroke:#181818;stroke-width:0.5;"/><path d="M27,516.8516 L27,543.8516 M14,524.8516 L40,524.8516 M27,543.8516 L14,558.8516 M27,543.8516 L40,558.8516 " fill="none" style="stroke:#181818;stroke-width:0.5;"/><rect fill="#E2E2F0" height="30.2969" rx="2.5" ry="2.5" style="stroke:#181818;stroke-width:0.5;" width="64" x="444" y="87.2969"/><text fill="#000000" font-family="sans-serif" font-size="14" lengthAdjust="spacing" textLength="50" x="451" y="107.292">Routes</text><rect fill="#E2E2F0" height="30.2969" rx="2.5" ry="2.5" style="stroke:#181818;stroke-width:0.5;" width="64" x="444" y="484.0547"/><text fill="#000000" font-family="sans-serif" font-size="14" lengthAdjust="spacing" textLength="50" x="451" y="504.0498">Routes</text><rect fill="#E2E2F0" height="30.2969" rx="2.5" ry="2.5" style="stroke:#181818;stroke-width:0.5;" width="325" x="518" y="87.2969"/><text fill="#000000" font-family="sans-serif" font-size="14" lengthAdjust="spacing" textLength="311" x="525" y="107.292">DeleteUserController:DeleteUserController</text><rect fill="#E2E2F0" height="30.2969" rx="2.5" ry="2.5" style="stroke:#181818;stroke-width:0.5;" width="325" x="518" y="484.0547"/><text fill="#000000" font-family="sans-serif" font-size="14" lengthAdjust="spacing" textLength="311" x="525" y="504.0498">DeleteUserController:DeleteUserController</text><rect fill="#E2E2F0" height="30.2969" rx="2.5" ry="2.5" style="stroke:#181818;stroke-width:0.5;" width="220" x="1029.5" y="87.2969"/><text fill="#000000" font-family="sans-serif" font-size="14" lengthAdjust="spacing" textLength="206" x="1036.5" y="107.292">useCase: DeleteUserUseCase</text><rect fill="#E2E2F0" height="30.2969" rx="2.5" ry="2.5" style="stroke:#181818;stroke-width:0.5;" width="220" x="1029.5" y="484.0547"/><text fill="#000000" font-family="sans-serif" font-size="14" lengthAdjust="spacing" textLength="206" x="1036.5" y="504.0498">useCase: DeleteUserUseCase</text><rect fill="#E2E2F0" height="30.2969" rx="2.5" ry="2.5" style="stroke:#181818;stroke-width:0.5;" width="164" x="1294.5" y="87.2969"/><text fill="#000000" font-family="sans-serif" font-size="14" lengthAdjust="spacing" textLength="150" x="1301.5" y="107.292">userRepo: IUserRepo</text><rect fill="#E2E2F0" height="30.2969" rx="2.5" ry="2.5" style="stroke:#181818;stroke-width:0.5;" width="164" x="1294.5" y="484.0547"/><text fill="#000000" font-family="sans-serif" font-size="14" lengthAdjust="spacing" textLength="150" x="1301.5" y="504.0498">userRepo: IUserRepo</text><rect fill="#E2E2F0" height="30.2969" rx="2.5" ry="2.5" style="stroke:#181818;stroke-width:0.5;" width="81" x="1532" y="87.2969"/><text fill="#000000" font-family="sans-serif" font-size="14" lengthAdjust="spacing" textLength="67" x="1539" y="107.292">User:User</text><rect fill="#E2E2F0" height="30.2969" rx="2.5" ry="2.5" style="stroke:#181818;stroke-width:0.5;" width="81" x="1532" y="484.0547"/><text fill="#000000" font-family="sans-serif" font-size="14" lengthAdjust="spacing" textLength="67" x="1539" y="504.0498">User:User</text><text fill="#000000" font-family="sans-serif" font-size="14" lengthAdjust="spacing" textLength="48" x="1741.5" y="115.292">MySQL</text><path d="M1750.5,66.2969 C1750.5,56.2969 1768.5,56.2969 1768.5,56.2969 C1768.5,56.2969 1786.5,56.2969 1786.5,66.2969 L1786.5,92.2969 C1786.5,102.2969 1768.5,102.2969 1768.5,102.2969 C1768.5,102.2969 1750.5,102.2969 1750.5,92.2969 L1750.5,66.2969 " fill="#E2E2F0" style="stroke:#181818;stroke-width:1.5;"/><path d="M1750.5,66.2969 C1750.5,76.2969 1768.5,76.2969 1768.5,76.2969 C1768.5,76.2969 1786.5,76.2969 1786.5,66.2969 " fill="none" style="stroke:#181818;stroke-width:1.5;"/><text fill="#000000" font-family="sans-serif" font-size="14" lengthAdjust="spacing" textLength="48" x="1741.5" y="497.0498">MySQL</text><path d="M1750.5,510.3516 C1750.5,500.3516 1768.5,500.3516 1768.5,500.3516 C1768.5,500.3516 1786.5,500.3516 1786.5,510.3516 L1786.5,536.3516 C1786.5,546.3516 1768.5,546.3516 1768.5,546.3516 C1768.5,546.3516 1750.5,546.3516 1750.5,536.3516 L1750.5,510.3516 " fill="#E2E2F0" style="stroke:#181818;stroke-width:1.5;"/><path d="M1750.5,510.3516 C1750.5,520.3516 1768.5,520.3516 1768.5,520.3516 C1768.5,520.3516 1786.5,520.3516 1786.5,510.3516 " fill="none" style="stroke:#181818;stroke-width:1.5;"/><rect fill="#FFFFFF" height="317.3281" style="stroke:#181818;stroke-width:1.0;" width="10" x="471" y="149.7266"/><rect fill="#FFFFFF" height="288.1953" style="stroke:#181818;stroke-width:1.0;" width="10" x="675.5" y="178.8594"/><rect fill="#FFFFFF" height="216.9297" style="stroke:#181818;stroke-width:1.0;" width="10" x="1134.5" y="250.125"/><rect fill="#FFFFFF" height="187.7969" style="stroke:#181818;stroke-width:1.0;" width="10" x="1371.5" y="279.2578"/><rect fill="#FFFFFF" height="87.3984" style="stroke:#181818;stroke-width:1.0;" width="10" x="1567.5" y="308.3906"/><rect fill="#FFFFFF" height="29.1328" style="stroke:#181818;stroke-width:1.0;" width="10" x="1763.5" y="337.5234"/><polygon fill="#181818" points="459,145.7266,469,149.7266,459,153.7266,463,149.7266" style="stroke:#181818;stroke-width:1.0;"/><line style="stroke:#181818;stroke-width:1.0;" x1="27" x2="465" y1="149.7266" y2="149.7266"/><text fill="#000000" font-family="sans-serif" font-size="13" lengthAdjust="spacing" textLength="425" x="34" y="144.6606">call Endpoint (method: DELETE, route: "/", header: "Authorization")</text><polygon fill="#181818" points="663.5,174.8594,673.5,178.8594,663.5,182.8594,667.5,178.8594" style="stroke:#181818;stroke-width:1.0;"/><line style="stroke:#181818;stroke-width:1.0;" x1="481" x2="669.5" y1="178.8594" y2="178.8594"/><text fill="#000000" font-family="sans-serif" font-size="13" lengthAdjust="spacing" textLength="115" x="488" y="173.7935">.execute(req, res)</text><line style="stroke:#181818;stroke-width:1.0;" x1="685.5" x2="727.5" y1="207.9922" y2="207.9922"/><line style="stroke:#181818;stroke-width:1.0;" x1="727.5" x2="727.5" y1="207.9922" y2="220.9922"/><line style="stroke:#181818;stroke-width:1.0;" x1="686.5" x2="727.5" y1="220.9922" y2="220.9922"/><polygon fill="#181818" points="696.5,216.9922,686.5,220.9922,696.5,224.9922,692.5,220.9922" style="stroke:#181818;stroke-width:1.0;"/><text fill="#000000" font-family="sans-serif" font-size="13" lengthAdjust="spacing" textLength="435" x="692.5" y="202.9263">.executeImpl(req: DecodedExpressRequest,res: express.Response)</text><polygon fill="#181818" points="1122.5,246.125,1132.5,250.125,1122.5,254.125,1126.5,250.125" style="stroke:#181818;stroke-width:1.0;"/><line style="stroke:#181818;stroke-width:1.0;" x1="685.5" x2="1128.5" y1="250.125" y2="250.125"/><text fill="#000000" font-family="sans-serif" font-size="13" lengthAdjust="spacing" textLength="87" x="692.5" y="245.0591">.execute(dto)</text><polygon fill="#181818" points="1359.5,275.2578,1369.5,279.2578,1359.5,283.2578,1363.5,279.2578" style="stroke:#181818;stroke-width:1.0;"/><line style="stroke:#181818;stroke-width:1.0;" x1="1144.5" x2="1365.5" y1="279.2578" y2="279.2578"/><text fill="#000000" font-family="sans-serif" font-size="13" lengthAdjust="spacing" textLength="208" x="1151.5" y="274.1919">.getUserByUserId (userId: string)</text><polygon fill="#181818" points="1555.5,304.3906,1565.5,308.3906,1555.5,312.3906,1559.5,308.3906" style="stroke:#181818;stroke-width:1.0;"/><line style="stroke:#181818;stroke-width:1.0;" x1="1381.5" x2="1561.5" y1="308.3906" y2="308.3906"/><text fill="#000000" font-family="sans-serif" font-size="13" lengthAdjust="spacing" textLength="167" x="1388.5" y="303.3247">.deleteUser(userid: string)</text><polygon fill="#181818" points="1751.5,333.5234,1761.5,337.5234,1751.5,341.5234,1755.5,337.5234" style="stroke:#181818;stroke-width:1.0;"/><line style="stroke:#181818;stroke-width:1.0;" x1="1577.5" x2="1757.5" y1="337.5234" y2="337.5234"/><text fill="#000000" font-family="sans-serif" font-size="13" lengthAdjust="spacing" textLength="167" x="1584.5" y="332.4575">.deleteUser(userid: string)</text><polygon fill="#181818" points="1588.5,362.6563,1578.5,366.6563,1588.5,370.6563,1584.5,366.6563" style="stroke:#181818;stroke-width:1.0;"/><line style="stroke:#181818;stroke-width:1.0;stroke-dasharray:2.0,2.0;" x1="1582.5" x2="1767.5" y1="366.6563" y2="366.6563"/><text fill="#000000" font-family="sans-serif" font-size="13" lengthAdjust="spacing" textLength="79" x="1594.5" y="361.5903">UserDeleted</text><polygon fill="#181818" points="1392.5,391.7891,1382.5,395.7891,1392.5,399.7891,1388.5,395.7891" style="stroke:#181818;stroke-width:1.0;"/><line style="stroke:#181818;stroke-width:1.0;stroke-dasharray:2.0,2.0;" x1="1386.5" x2="1571.5" y1="395.7891" y2="395.7891"/><text fill="#000000" font-family="sans-serif" font-size="13" lengthAdjust="spacing" textLength="79" x="1398.5" y="390.7231">UserDeleted</text><line style="stroke:#181818;stroke-width:1.0;" x1="1381.5" x2="1423.5" y1="424.9219" y2="424.9219"/><line style="stroke:#181818;stroke-width:1.0;" x1="1423.5" x2="1423.5" y1="424.9219" y2="437.9219"/><line style="stroke:#181818;stroke-width:1.0;" x1="1382.5" x2="1423.5" y1="437.9219" y2="437.9219"/><polygon fill="#181818" points="1392.5,433.9219,1382.5,437.9219,1392.5,441.9219,1388.5,437.9219" style="stroke:#181818;stroke-width:1.0;"/><text fill="#000000" font-family="sans-serif" font-size="13" lengthAdjust="spacing" textLength="111" x="1388.5" y="419.856">.save(user: User)</text><polygon fill="#181818" points="1150.5,463.0547,1140.5,467.0547,1150.5,471.0547,1146.5,467.0547" style="stroke:#181818;stroke-width:1.0;"/><line style="stroke:#181818;stroke-width:1.0;stroke-dasharray:2.0,2.0;" x1="1144.5" x2="1375.5" y1="467.0547" y2="467.0547"/><text fill="#000000" font-family="sans-serif" font-size="13" lengthAdjust="spacing" textLength="79" x="1156.5" y="461.9888">UserDeleted</text><!--SRC=[ZLFBRi8m4BpxArOvWGIqLMy-L6eX1oHwQ6W-m8rNO2d4mNOGzElhHnAIOjHU76UyE-ETNHjXIeHy-_Zq3DiLp6659HgBQ5I4iC98vVUQr4mPKOYQLGOosHWSGqb8TB5BMHabon8LZO49C0snWp5Vet79DD91Q1wWNmGjUfEjCgmbXNNURdrQ_pSEToXrYm_onNDcs9VbXVVBzcFZu0uXn3i2yvVM2A1GiBA4jEAr59PlSa2pbzpUFTsad-aCb8kZa3maCzWZurODajV61YdnpOoGLJ9rReiJi-QtzfAMtUf4pOK5dh6m8HE5Hwk1Ui0HDPZ4qB_vruUwT1gk5uNaoDDpRTLqXiS6jPdPFGKCs293NSjAu_GVOddNuxuIRcIqYAx9v0PoZ7rNBTCEZVjxkxXrpM7I-2y5RPIeTWFswooGVklO_330WlTAdaB4AC8pSQjBx0RadydNUUfdRTxBkpNKoWd7I4uG7HT_9odSSbJZq37DJkXl6GYcmyXuk-xeN0qTWBSzZ1uEfdHm7bx03m00]--></g></svg>