<?xml version="1.0" encoding="us-ascii" standalone="no"?><svg xmlns="http://www.w3.org/2000/svg" xmlns:xlink="http://www.w3.org/1999/xlink" contentStyleType="text/css" height="671px" preserveAspectRatio="none" style="width:1040px;height:671px;background:#FFFFFF;" version="1.1" viewBox="0 0 1040 671" width="1040px" zoomAndPan="magnify"><defs/><g><text fill="#000000" font-family="sans-serif" font-size="14" font-weight="bold" lengthAdjust="spacing" textLength="1012" x="10" y="27.9951">System Sequence Diagram (SSD) - View member info - User's access privileges are checked before displaying the information</text><rect fill="#FFFFFF" height="453.0078" style="stroke:#181818;stroke-width:1.0;" width="10" x="250.25" y="128.5938"/><rect fill="none" height="366.7422" style="stroke:#000000;stroke-width:1.5;" width="619.5" x="206.75" y="206.8594"/><rect fill="none" height="249.5391" style="stroke:#000000;stroke-width:1.5;" width="599.5" x="216.75" y="273.125"/><rect fill="none" height="132.3359" style="stroke:#000000;stroke-width:1.5;" width="579.5" x="226.75" y="339.3906"/><line style="stroke:#181818;stroke-width:0.5;stroke-dasharray:5.0,5.0;" x1="254.75" x2="254.75" y1="118.5938" y2="590.6016"/><line style="stroke:#181818;stroke-width:0.5;stroke-dasharray:5.0,5.0;" x1="573.75" x2="573.75" y1="118.5938" y2="590.6016"/><text fill="#000000" font-family="sans-serif" font-size="14" lengthAdjust="spacing" textLength="31" x="236.75" y="115.292">User</text><ellipse cx="255.25" cy="50.7969" fill="#E3E3E3" rx="8" ry="8" style="stroke:#181818;stroke-width:0.5;"/><path d="M255.25,58.7969 L255.25,85.7969 M242.25,66.7969 L268.25,66.7969 M255.25,85.7969 L242.25,100.7969 M255.25,85.7969 L268.25,100.7969 " fill="none" style="stroke:#181818;stroke-width:0.5;"/><text fill="#000000" font-family="sans-serif" font-size="14" lengthAdjust="spacing" textLength="31" x="236.75" y="602.5967">User</text><ellipse cx="255.25" cy="614.3984" fill="#E3E3E3" rx="8" ry="8" style="stroke:#181818;stroke-width:0.5;"/><path d="M255.25,622.3984 L255.25,649.3984 M242.25,630.3984 L268.25,630.3984 M255.25,649.3984 L242.25,664.3984 M255.25,649.3984 L268.25,664.3984 " fill="none" style="stroke:#181818;stroke-width:0.5;"/><rect fill="#E3E3E3" height="30.2969" rx="2.5" ry="2.5" style="stroke:#181818;stroke-width:0.5;" width="73" x="537.75" y="87.2969"/><text fill="#000000" font-family="sans-serif" font-size="14" lengthAdjust="spacing" textLength="59" x="544.75" y="107.292">:System</text><rect fill="#E3E3E3" height="30.2969" rx="2.5" ry="2.5" style="stroke:#181818;stroke-width:0.5;" width="73" x="537.75" y="589.6016"/><text fill="#000000" font-family="sans-serif" font-size="14" lengthAdjust="spacing" textLength="59" x="544.75" y="609.5967">:System</text><rect fill="#FFFFFF" height="453.0078" style="stroke:#181818;stroke-width:1.0;" width="10" x="250.25" y="128.5938"/><polygon fill="#181818" points="562.25,145.7266,572.25,149.7266,562.25,153.7266,566.25,149.7266" style="stroke:#181818;stroke-width:1.0;"/><line style="stroke:#181818;stroke-width:1.0;" x1="260.25" x2="568.25" y1="149.7266" y2="149.7266"/><text fill="#000000" font-family="sans-serif" font-size="13" font-weight="bold" lengthAdjust="spacing" textLength="9" x="267.25" y="144.6606">1</text><text fill="#000000" font-family="sans-serif" font-size="13" lengthAdjust="spacing" textLength="190" x="280.25" y="144.6606">Request member information</text><line style="stroke:#181818;stroke-width:1.0;" x1="574.25" x2="616.25" y1="178.8594" y2="178.8594"/><line style="stroke:#181818;stroke-width:1.0;" x1="616.25" x2="616.25" y1="178.8594" y2="191.8594"/><line style="stroke:#181818;stroke-width:1.0;" x1="575.25" x2="616.25" y1="191.8594" y2="191.8594"/><polygon fill="#181818" points="585.25,187.8594,575.25,191.8594,585.25,195.8594,581.25,191.8594" style="stroke:#181818;stroke-width:1.0;"/><text fill="#000000" font-family="sans-serif" font-size="13" font-weight="bold" lengthAdjust="spacing" textLength="9" x="581.25" y="173.7935">2</text><text fill="#000000" font-family="sans-serif" font-size="13" lengthAdjust="spacing" textLength="105" x="594.25" y="173.7935">Validate request</text><path d="M206.75,206.8594 L272.75,206.8594 L272.75,213.9922 L262.75,223.9922 L206.75,223.9922 L206.75,206.8594 " fill="#EEEEEE" style="stroke:#000000;stroke-width:1.5;"/><rect fill="none" height="366.7422" style="stroke:#000000;stroke-width:1.5;" width="619.5" x="206.75" y="206.8594"/><text fill="#000000" font-family="sans-serif" font-size="13" font-weight="bold" lengthAdjust="spacing" textLength="21" x="221.75" y="219.9263">alt</text><text fill="#000000" font-family="sans-serif" font-size="11" font-weight="bold" lengthAdjust="spacing" textLength="99" x="287.75" y="219.0698">[Valid request]</text><line style="stroke:#181818;stroke-width:1.0;" x1="574.25" x2="616.25" y1="245.125" y2="245.125"/><line style="stroke:#181818;stroke-width:1.0;" x1="616.25" x2="616.25" y1="245.125" y2="258.125"/><line style="stroke:#181818;stroke-width:1.0;" x1="575.25" x2="616.25" y1="258.125" y2="258.125"/><polygon fill="#181818" points="585.25,254.125,575.25,258.125,585.25,262.125,581.25,258.125" style="stroke:#181818;stroke-width:1.0;"/><text fill="#000000" font-family="sans-serif" font-size="13" font-weight="bold" lengthAdjust="spacing" textLength="8" x="581.25" y="240.0591">3</text><text fill="#000000" font-family="sans-serif" font-size="13" lengthAdjust="spacing" textLength="184" x="593.25" y="240.0591">Check user access privileges</text><path d="M216.75,273.125 L282.75,273.125 L282.75,280.2578 L272.75,290.2578 L216.75,290.2578 L216.75,273.125 " fill="#EEEEEE" style="stroke:#000000;stroke-width:1.5;"/><rect fill="none" height="249.5391" style="stroke:#000000;stroke-width:1.5;" width="599.5" x="216.75" y="273.125"/><text fill="#000000" font-family="sans-serif" font-size="13" font-weight="bold" lengthAdjust="spacing" textLength="21" x="231.75" y="286.1919">alt</text><text fill="#000000" font-family="sans-serif" font-size="11" font-weight="bold" lengthAdjust="spacing" textLength="115" x="297.75" y="285.3354">[User has access]</text><line style="stroke:#181818;stroke-width:1.0;" x1="574.25" x2="616.25" y1="311.3906" y2="311.3906"/><line style="stroke:#181818;stroke-width:1.0;" x1="616.25" x2="616.25" y1="311.3906" y2="324.3906"/><line style="stroke:#181818;stroke-width:1.0;" x1="575.25" x2="616.25" y1="324.3906" y2="324.3906"/><polygon fill="#181818" points="585.25,320.3906,575.25,324.3906,585.25,328.3906,581.25,324.3906" style="stroke:#181818;stroke-width:1.0;"/><text fill="#000000" font-family="sans-serif" font-size="13" font-weight="bold" lengthAdjust="spacing" textLength="9" x="581.25" y="306.3247">4</text><text fill="#000000" font-family="sans-serif" font-size="13" lengthAdjust="spacing" textLength="191" x="594.25" y="306.3247">Retrieve member information</text><path d="M226.75,339.3906 L292.75,339.3906 L292.75,346.5234 L282.75,356.5234 L226.75,356.5234 L226.75,339.3906 " fill="#EEEEEE" style="stroke:#000000;stroke-width:1.5;"/><rect fill="none" height="132.3359" style="stroke:#000000;stroke-width:1.5;" width="579.5" x="226.75" y="339.3906"/><text fill="#000000" font-family="sans-serif" font-size="13" font-weight="bold" lengthAdjust="spacing" textLength="21" x="241.75" y="352.4575">alt</text><text fill="#000000" font-family="sans-serif" font-size="11" font-weight="bold" lengthAdjust="spacing" textLength="107" x="307.75" y="351.6011">[Member found]</text><line style="stroke:#181818;stroke-width:1.0;" x1="574.25" x2="616.25" y1="377.6563" y2="377.6563"/><line style="stroke:#181818;stroke-width:1.0;" x1="616.25" x2="616.25" y1="377.6563" y2="390.6563"/><line style="stroke:#181818;stroke-width:1.0;" x1="575.25" x2="616.25" y1="390.6563" y2="390.6563"/><polygon fill="#181818" points="585.25,386.6563,575.25,390.6563,585.25,394.6563,581.25,390.6563" style="stroke:#181818;stroke-width:1.0;"/><text fill="#000000" font-family="sans-serif" font-size="13" font-weight="bold" lengthAdjust="spacing" textLength="9" x="581.25" y="372.5903">5</text><text fill="#000000" font-family="sans-serif" font-size="13" lengthAdjust="spacing" textLength="200" x="594.25" y="372.5903">Prepare member info response</text><polygon fill="#181818" points="271.25,415.7891,261.25,419.7891,271.25,423.7891,267.25,419.7891" style="stroke:#181818;stroke-width:1.0;"/><line style="stroke:#181818;stroke-width:1.0;stroke-dasharray:2.0,2.0;" x1="265.25" x2="573.25" y1="419.7891" y2="419.7891"/><text fill="#000000" font-family="sans-serif" font-size="13" font-weight="bold" lengthAdjust="spacing" textLength="9" x="277.25" y="414.7231">6</text><text fill="#000000" font-family="sans-serif" font-size="13" lengthAdjust="spacing" textLength="184" x="290.25" y="414.7231">Display member information</text><line style="stroke:#000000;stroke-width:1.0;stroke-dasharray:2.0,2.0;" x1="226.75" x2="806.25" y1="428.7891" y2="428.7891"/><text fill="#000000" font-family="sans-serif" font-size="11" font-weight="bold" lengthAdjust="spacing" textLength="135" x="231.75" y="438.9995">[Member not found]</text><polygon fill="#181818" points="271.25,459.7266,261.25,463.7266,271.25,467.7266,267.25,463.7266" style="stroke:#181818;stroke-width:1.0;"/><line style="stroke:#181818;stroke-width:1.0;stroke-dasharray:2.0,2.0;" x1="265.25" x2="573.25" y1="463.7266" y2="463.7266"/><text fill="#000000" font-family="sans-serif" font-size="13" font-weight="bold" lengthAdjust="spacing" textLength="9" x="277.25" y="458.6606">7</text><text fill="#000000" font-family="sans-serif" font-size="13" lengthAdjust="spacing" textLength="277" x="290.25" y="458.6606">Display error message (Member not found)</text><line style="stroke:#000000;stroke-width:1.0;stroke-dasharray:2.0,2.0;" x1="216.75" x2="816.25" y1="479.7266" y2="479.7266"/><text fill="#000000" font-family="sans-serif" font-size="11" font-weight="bold" lengthAdjust="spacing" textLength="136" x="221.75" y="489.937">[User access denied]</text><polygon fill="#181818" points="271.25,510.6641,261.25,514.6641,271.25,518.6641,267.25,514.6641" style="stroke:#181818;stroke-width:1.0;"/><line style="stroke:#181818;stroke-width:1.0;stroke-dasharray:2.0,2.0;" x1="265.25" x2="573.25" y1="514.6641" y2="514.6641"/><text fill="#000000" font-family="sans-serif" font-size="13" font-weight="bold" lengthAdjust="spacing" textLength="9" x="277.25" y="509.5981">8</text><text fill="#000000" font-family="sans-serif" font-size="13" lengthAdjust="spacing" textLength="251" x="290.25" y="509.5981">Display error message (Access denied)</text><line style="stroke:#000000;stroke-width:1.0;stroke-dasharray:2.0,2.0;" x1="206.75" x2="826.25" y1="530.6641" y2="530.6641"/><text fill="#000000" font-family="sans-serif" font-size="11" font-weight="bold" lengthAdjust="spacing" textLength="109" x="211.75" y="540.8745">[Invalid request]</text><polygon fill="#181818" points="271.25,561.6016,261.25,565.6016,271.25,569.6016,267.25,565.6016" style="stroke:#181818;stroke-width:1.0;"/><line style="stroke:#181818;stroke-width:1.0;stroke-dasharray:2.0,2.0;" x1="265.25" x2="573.25" y1="565.6016" y2="565.6016"/><text fill="#000000" font-family="sans-serif" font-size="13" font-weight="bold" lengthAdjust="spacing" textLength="9" x="277.25" y="560.5356">9</text><text fill="#000000" font-family="sans-serif" font-size="13" lengthAdjust="spacing" textLength="253" x="290.25" y="560.5356">Display error message (Invalid request)</text><!--SRC=[bLBDReCm3BxdAQnUrXxs0ZrCcjRB3fEcelRk1WDM8M69eUhRBmcbGothD0u8R7y__l57DYqwRA2nnkhAsOP0N4VANpCjwYEMbCcv9d2a1KrPJmjyXRaziIcXmDgJKi8IIhEp5seWew-EZ2ROC9QnV9bbcnKymvxf10qr1tB0fh0XjFFadZoWrkGzj8vxhgca4744kY9zf1mELDZmcxDlQpn7MQaeCRW6XQrHs8arNIHM2hLO1ul8l03qIK85tyAQMpG2Y_LWD6M7puJY7eM6SXNVyFnoIQzX6tloCdK_Qb-wdXJliUOySha1fR2M8NYDG7ZkWM-nOUYYzjr44YGI9MiLZaDByNcwBObZwcdEzOYAZ1z3kh2ToQ-9USfFHsrSpNIBZdnhJJY3EMZ0HiFhS0nfUu-yKBYbqOonyi3G7Iiv5vRUX7c4muNbBSdgH-F2cBHsaqddP9XozL-brobwa8aIYVxTzByk_I_U6-nA1TPl]--></g></svg>