<?xml version="1.0" encoding="us-ascii" standalone="no"?><svg xmlns="http://www.w3.org/2000/svg" xmlns:xlink="http://www.w3.org/1999/xlink" contentStyleType="text/css" height="240px" preserveAspectRatio="none" style="width:339px;height:240px;background:#FFFFFF;" version="1.1" viewBox="0 0 339 240" width="339px" zoomAndPan="magnify"><defs/><g><rect fill="#FFFFFF" height="50.2656" style="stroke:#181818;stroke-width:1.0;" width="10" x="18.5" y="91.2969"/><rect fill="#FFFFFF" height="29.1328" style="stroke:#181818;stroke-width:1.0;" width="10" x="303.5" y="112.4297"/><line style="stroke:#181818;stroke-width:0.5;stroke-dasharray:5.0,5.0;" x1="23" x2="23" y1="81.2969" y2="159.5625"/><line style="stroke:#181818;stroke-width:0.5;stroke-dasharray:5.0,5.0;" x1="308.5" x2="308.5" y1="81.2969" y2="159.5625"/><text fill="#000000" font-family="sans-serif" font-size="14" lengthAdjust="spacing" textLength="31" x="5" y="77.9951">User</text><ellipse cx="23.5" cy="13.5" fill="#E2E2F0" rx="8" ry="8" style="stroke:#181818;stroke-width:0.5;"/><path d="M23.5,21.5 L23.5,48.5 M10.5,29.5 L36.5,29.5 M23.5,48.5 L10.5,63.5 M23.5,48.5 L36.5,63.5 " fill="none" style="stroke:#181818;stroke-width:0.5;"/><text fill="#000000" font-family="sans-serif" font-size="14" lengthAdjust="spacing" textLength="31" x="5" y="171.5576">User</text><ellipse cx="23.5" cy="183.3594" fill="#E2E2F0" rx="8" ry="8" style="stroke:#181818;stroke-width:0.5;"/><path d="M23.5,191.3594 L23.5,218.3594 M10.5,199.3594 L36.5,199.3594 M23.5,218.3594 L10.5,233.3594 M23.5,218.3594 L36.5,233.3594 " fill="none" style="stroke:#181818;stroke-width:0.5;"/><text fill="#000000" font-family="sans-serif" font-size="14" lengthAdjust="spacing" textLength="54" x="278.5" y="77.9951">System</text><path d="M288,37 L288,61 M288,49 L305,49 " fill="none" style="stroke:#181818;stroke-width:0.5;"/><ellipse cx="317" cy="49" fill="#E2E2F0" rx="12" ry="12" style="stroke:#181818;stroke-width:0.5;"/><text fill="#000000" font-family="sans-serif" font-size="14" lengthAdjust="spacing" textLength="54" x="278.5" y="171.5576">System</text><path d="M288,178.8594 L288,202.8594 M288,190.8594 L305,190.8594 " fill="none" style="stroke:#181818;stroke-width:0.5;"/><ellipse cx="317" cy="190.8594" fill="#E2E2F0" rx="12" ry="12" style="stroke:#181818;stroke-width:0.5;"/><rect fill="#FFFFFF" height="50.2656" style="stroke:#181818;stroke-width:1.0;" width="10" x="18.5" y="91.2969"/><rect fill="#FFFFFF" height="29.1328" style="stroke:#181818;stroke-width:1.0;" width="10" x="303.5" y="112.4297"/><polygon fill="#181818" points="291.5,108.4297,301.5,112.4297,291.5,116.4297,295.5,112.4297" style="stroke:#181818;stroke-width:1.0;"/><line style="stroke:#181818;stroke-width:1.0;" x1="28.5" x2="297.5" y1="112.4297" y2="112.4297"/><text fill="#000000" font-family="sans-serif" font-size="13" lengthAdjust="spacing" textLength="256" x="35.5" y="107.3638">1 Navigates to the page with New posts</text><polygon fill="#181818" points="34.5,137.5625,24.5,141.5625,34.5,145.5625,30.5,141.5625" style="stroke:#181818;stroke-width:1.0;"/><line style="stroke:#181818;stroke-width:1.0;" x1="28.5" x2="307.5" y1="141.5625" y2="141.5625"/><text fill="#000000" font-family="sans-serif" font-size="13" lengthAdjust="spacing" textLength="137" x="40.5" y="136.4966">2 Displays New posts</text><!--SRC=[NOmn2eKm40NxdE9Tm49B2ojh6_40gouQK1EogvBR_nyK5Al7F9YXGLr09nmC3MeFKhweT_isKeXeeoYlngGNMNLpYHmD7NRw2m9rq9dXQMASLcSqVC8xKNcgT-UQ54h14WLgAtwXA2zfvA_sUfBt0m00]--></g></svg>