<svg xmlns="http://www.w3.org/2000/svg" xmlns:xlink="http://www.w3.org/1999/xlink" contentStyleType="text/css" height="698" preserveAspectRatio="none" style="width:2618px;height:698px;background:#FFFFFF;" version="1.1" viewBox="0 0 2618 698" width="2618" zoomAndPan="magnify"><defs/><g><text fill="#000000" font-family="sans-serif" font-size="14" font-weight="bold" lengthAdjust="spacing" textLength="269" x="1172.5" y="27.9951">US012 SD - getMemberPostCount</text><rect fill="#FFFFFF" height="449.9922" style="stroke:#181818;stroke-width:1.0;" width="10" x="379" y="149.7266"/><rect fill="#FFFFFF" height="420.8594" style="stroke:#181818;stroke-width:1.0;" width="10" x="663.5" y="178.8594"/><rect fill="#FFFFFF" height="349.5938" style="stroke:#181818;stroke-width:1.0;" width="10" x="1150.5" y="250.125"/><rect fill="#FFFFFF" height="145.6641" style="stroke:#181818;stroke-width:1.0;" width="10" x="1442.5" y="279.2578"/><rect fill="#FFFFFF" height="87.3984" style="stroke:#181818;stroke-width:1.0;" width="10" x="1723.5" y="308.3906"/><rect fill="#FFFFFF" height="145.6641" style="stroke:#181818;stroke-width:1.0;" width="10" x="1974" y="454.0547"/><rect fill="#FFFFFF" height="87.3984" style="stroke:#181818;stroke-width:1.0;" width="10" x="2328" y="483.1875"/><rect fill="#FFFFFF" height="29.1328" style="stroke:#181818;stroke-width:1.0;" width="10" x="2578" y="337.5234"/><rect fill="#FFFFFF" height="29.1328" style="stroke:#181818;stroke-width:1.0;" width="10" x="2578" y="512.3203"/><line style="stroke:#181818;stroke-width:0.5;stroke-dasharray:5.0,5.0;" x1="27" x2="27" y1="118.5938" y2="617.7188"/><line style="stroke:#181818;stroke-width:0.5;stroke-dasharray:5.0,5.0;" x1="384" x2="384" y1="118.5938" y2="617.7188"/><line style="stroke:#181818;stroke-width:0.5;stroke-dasharray:5.0,5.0;" x1="668" x2="668" y1="118.5938" y2="617.7188"/><line style="stroke:#181818;stroke-width:0.5;stroke-dasharray:5.0,5.0;" x1="1155.5" x2="1155.5" y1="118.5938" y2="617.7188"/><line style="stroke:#181818;stroke-width:0.5;stroke-dasharray:5.0,5.0;" x1="1447" x2="1447" y1="118.5938" y2="617.7188"/><line style="stroke:#181818;stroke-width:0.5;stroke-dasharray:5.0,5.0;" x1="1728" x2="1728" y1="118.5938" y2="617.7188"/><line style="stroke:#181818;stroke-width:0.5;stroke-dasharray:5.0,5.0;" x1="1979" x2="1979" y1="118.5938" y2="617.7188"/><line style="stroke:#181818;stroke-width:0.5;stroke-dasharray:5.0,5.0;" x1="2332.5" x2="2332.5" y1="118.5938" y2="617.7188"/><line style="stroke:#181818;stroke-width:0.5;stroke-dasharray:5.0,5.0;" x1="2583" x2="2583" y1="118.5938" y2="617.7188"/><text fill="#000000" font-family="sans-serif" font-size="14" lengthAdjust="spacing" textLength="38" x="5" y="115.292">Users</text><ellipse cx="27" cy="50.7969" fill="#E2E2F0" rx="8" ry="8" style="stroke:#181818;stroke-width:0.5;"/><path d="M27,58.7969 L27,85.7969 M14,66.7969 L40,66.7969 M27,85.7969 L14,100.7969 M27,85.7969 L40,100.7969 " fill="none" style="stroke:#181818;stroke-width:0.5;"/><text fill="#000000" font-family="sans-serif" font-size="14" lengthAdjust="spacing" textLength="38" x="5" y="629.7139">Users</text><ellipse cx="27" cy="641.5156" fill="#E2E2F0" rx="8" ry="8" style="stroke:#181818;stroke-width:0.5;"/><path d="M27,649.5156 L27,676.5156 M14,657.5156 L40,657.5156 M27,676.5156 L14,691.5156 M27,676.5156 L40,691.5156 " fill="none" style="stroke:#181818;stroke-width:0.5;"/><rect fill="#E2E2F0" height="30.2969" rx="2.5" ry="2.5" style="stroke:#181818;stroke-width:0.5;" width="64" x="352" y="87.2969"/><text fill="#000000" font-family="sans-serif" font-size="14" lengthAdjust="spacing" textLength="50" x="359" y="107.292">Routes</text><rect fill="#E2E2F0" height="30.2969" rx="2.5" ry="2.5" style="stroke:#181818;stroke-width:0.5;" width="64" x="352" y="616.7188"/><text fill="#000000" font-family="sans-serif" font-size="14" lengthAdjust="spacing" textLength="50" x="359" y="636.7139">Routes</text><rect fill="#E2E2F0" height="30.2969" rx="2.5" ry="2.5" style="stroke:#181818;stroke-width:0.5;" width="485" x="426" y="87.2969"/><text fill="#000000" font-family="sans-serif" font-size="14" lengthAdjust="spacing" textLength="471" x="433" y="107.292">getMemberPostCountController:getMemberPostCountController</text><rect fill="#E2E2F0" height="30.2969" rx="2.5" ry="2.5" style="stroke:#181818;stroke-width:0.5;" width="485" x="426" y="616.7188"/><text fill="#000000" font-family="sans-serif" font-size="14" lengthAdjust="spacing" textLength="471" x="433" y="636.7139">getMemberPostCountController:getMemberPostCountController</text><rect fill="#E2E2F0" height="30.2969" rx="2.5" ry="2.5" style="stroke:#181818;stroke-width:0.5;" width="302" x="1004.5" y="87.2969"/><text fill="#000000" font-family="sans-serif" font-size="14" lengthAdjust="spacing" textLength="288" x="1011.5" y="107.292">useCase: GetMemberPostCountUseCase</text><rect fill="#E2E2F0" height="30.2969" rx="2.5" ry="2.5" style="stroke:#181818;stroke-width:0.5;" width="302" x="1004.5" y="616.7188"/><text fill="#000000" font-family="sans-serif" font-size="14" lengthAdjust="spacing" textLength="288" x="1011.5" y="636.7139">useCase: GetMemberPostCountUseCase</text><rect fill="#E2E2F0" height="30.2969" rx="2.5" ry="2.5" style="stroke:#181818;stroke-width:0.5;" width="225" x="1335" y="87.2969"/><text fill="#000000" font-family="sans-serif" font-size="14" lengthAdjust="spacing" textLength="211" x="1342" y="107.292">memberRepo: IMemberRepo</text><rect fill="#E2E2F0" height="30.2969" rx="2.5" ry="2.5" style="stroke:#181818;stroke-width:0.5;" width="225" x="1335" y="616.7188"/><text fill="#000000" font-family="sans-serif" font-size="14" lengthAdjust="spacing" textLength="211" x="1342" y="636.7139">memberRepo: IMemberRepo</text><rect fill="#E2E2F0" height="30.2969" rx="2.5" ry="2.5" style="stroke:#181818;stroke-width:0.5;" width="313" x="1572" y="87.2969"/><text fill="#000000" font-family="sans-serif" font-size="14" lengthAdjust="spacing" textLength="299" x="1579" y="107.292">getMemberByUserId:getMemberByUserId</text><rect fill="#E2E2F0" height="30.2969" rx="2.5" ry="2.5" style="stroke:#181818;stroke-width:0.5;" width="313" x="1572" y="616.7188"/><text fill="#000000" font-family="sans-serif" font-size="14" lengthAdjust="spacing" textLength="299" x="1579" y="636.7139">getMemberByUserId:getMemberByUserId</text><rect fill="#E2E2F0" height="30.2969" rx="2.5" ry="2.5" style="stroke:#181818;stroke-width:0.5;" width="168" x="1895" y="87.2969"/><text fill="#000000" font-family="sans-serif" font-size="14" lengthAdjust="spacing" textLength="154" x="1902" y="107.292">postRepo: IPostRepo</text><rect fill="#E2E2F0" height="30.2969" rx="2.5" ry="2.5" style="stroke:#181818;stroke-width:0.5;" width="168" x="1895" y="616.7188"/><text fill="#000000" font-family="sans-serif" font-size="14" lengthAdjust="spacing" textLength="154" x="1902" y="636.7139">postRepo: IPostRepo</text><rect fill="#E2E2F0" height="30.2969" rx="2.5" ry="2.5" style="stroke:#181818;stroke-width:0.5;" width="339" x="2163.5" y="87.2969"/><text fill="#000000" font-family="sans-serif" font-size="14" lengthAdjust="spacing" textLength="325" x="2170.5" y="107.292">getMemberPostCount:getMemberPostCount</text><rect fill="#E2E2F0" height="30.2969" rx="2.5" ry="2.5" style="stroke:#181818;stroke-width:0.5;" width="339" x="2163.5" y="616.7188"/><text fill="#000000" font-family="sans-serif" font-size="14" lengthAdjust="spacing" textLength="325" x="2170.5" y="636.7139">getMemberPostCount:getMemberPostCount</text><text fill="#000000" font-family="sans-serif" font-size="14" lengthAdjust="spacing" textLength="48" x="2556" y="115.292">MySQL</text><path d="M2565,66.2969 C2565,56.2969 2583,56.2969 2583,56.2969 C2583,56.2969 2601,56.2969 2601,66.2969 L2601,92.2969 C2601,102.2969 2583,102.2969 2583,102.2969 C2583,102.2969 2565,102.2969 2565,92.2969 L2565,66.2969 " fill="#E2E2F0" style="stroke:#181818;stroke-width:1.5;"/><path d="M2565,66.2969 C2565,76.2969 2583,76.2969 2583,76.2969 C2583,76.2969 2601,76.2969 2601,66.2969 " fill="none" style="stroke:#181818;stroke-width:1.5;"/><text fill="#000000" font-family="sans-serif" font-size="14" lengthAdjust="spacing" textLength="48" x="2556" y="629.7139">MySQL</text><path d="M2565,643.0156 C2565,633.0156 2583,633.0156 2583,633.0156 C2583,633.0156 2601,633.0156 2601,643.0156 L2601,669.0156 C2601,679.0156 2583,679.0156 2583,679.0156 C2583,679.0156 2565,679.0156 2565,669.0156 L2565,643.0156 " fill="#E2E2F0" style="stroke:#181818;stroke-width:1.5;"/><path d="M2565,643.0156 C2565,653.0156 2583,653.0156 2583,653.0156 C2583,653.0156 2601,653.0156 2601,643.0156 " fill="none" style="stroke:#181818;stroke-width:1.5;"/><rect fill="#FFFFFF" height="449.9922" style="stroke:#181818;stroke-width:1.0;" width="10" x="379" y="149.7266"/><rect fill="#FFFFFF" height="420.8594" style="stroke:#181818;stroke-width:1.0;" width="10" x="663.5" y="178.8594"/><rect fill="#FFFFFF" height="349.5938" style="stroke:#181818;stroke-width:1.0;" width="10" x="1150.5" y="250.125"/><rect fill="#FFFFFF" height="145.6641" style="stroke:#181818;stroke-width:1.0;" width="10" x="1442.5" y="279.2578"/><rect fill="#FFFFFF" height="87.3984" style="stroke:#181818;stroke-width:1.0;" width="10" x="1723.5" y="308.3906"/><rect fill="#FFFFFF" height="145.6641" style="stroke:#181818;stroke-width:1.0;" width="10" x="1974" y="454.0547"/><rect fill="#FFFFFF" height="87.3984" style="stroke:#181818;stroke-width:1.0;" width="10" x="2328" y="483.1875"/><rect fill="#FFFFFF" height="29.1328" style="stroke:#181818;stroke-width:1.0;" width="10" x="2578" y="337.5234"/><rect fill="#FFFFFF" height="29.1328" style="stroke:#181818;stroke-width:1.0;" width="10" x="2578" y="512.3203"/><polygon fill="#181818" points="367,145.7266,377,149.7266,367,153.7266,371,149.7266" style="stroke:#181818;stroke-width:1.0;"/><line style="stroke:#181818;stroke-width:1.0;" x1="27" x2="373" y1="149.7266" y2="149.7266"/><text fill="#000000" font-family="sans-serif" font-size="13" font-weight="bold" lengthAdjust="spacing" textLength="21" x="34" y="144.6606">(1)</text><text fill="#000000" font-family="sans-serif" font-size="13" lengthAdjust="spacing" textLength="308" x="59" y="144.6606">call Endpoint (method: GET, route: "/postcount/"</text><polygon fill="#181818" points="651.5,174.8594,661.5,178.8594,651.5,182.8594,655.5,178.8594" style="stroke:#181818;stroke-width:1.0;"/><line style="stroke:#181818;stroke-width:1.0;" x1="389" x2="657.5" y1="178.8594" y2="178.8594"/><text fill="#000000" font-family="sans-serif" font-size="13" font-weight="bold" lengthAdjust="spacing" textLength="21" x="396" y="173.7935">(2)</text><text fill="#000000" font-family="sans-serif" font-size="13" lengthAdjust="spacing" textLength="115" x="421" y="173.7935">.execute(req, res)</text><line style="stroke:#181818;stroke-width:1.0;" x1="673.5" x2="715.5" y1="207.9922" y2="207.9922"/><line style="stroke:#181818;stroke-width:1.0;" x1="715.5" x2="715.5" y1="207.9922" y2="220.9922"/><line style="stroke:#181818;stroke-width:1.0;" x1="674.5" x2="715.5" y1="220.9922" y2="220.9922"/><polygon fill="#181818" points="684.5,216.9922,674.5,220.9922,684.5,224.9922,680.5,220.9922" style="stroke:#181818;stroke-width:1.0;"/><text fill="#000000" font-family="sans-serif" font-size="13" font-weight="bold" lengthAdjust="spacing" textLength="20" x="680.5" y="202.9263">(3)</text><text fill="#000000" font-family="sans-serif" font-size="13" lengthAdjust="spacing" textLength="439" x="704.5" y="202.9263">.executeImpl(req: DecodedExpressRequest, res: express.Response)</text><polygon fill="#181818" points="1138.5,246.125,1148.5,250.125,1138.5,254.125,1142.5,250.125" style="stroke:#181818;stroke-width:1.0;"/><line style="stroke:#181818;stroke-width:1.0;" x1="673.5" x2="1144.5" y1="250.125" y2="250.125"/><text fill="#000000" font-family="sans-serif" font-size="13" font-weight="bold" lengthAdjust="spacing" textLength="21" x="680.5" y="245.0591">(4)</text><text fill="#000000" font-family="sans-serif" font-size="13" lengthAdjust="spacing" textLength="87" x="705.5" y="245.0591">.execute(dto)</text><polygon fill="#181818" points="1430.5,275.2578,1440.5,279.2578,1430.5,283.2578,1434.5,279.2578" style="stroke:#181818;stroke-width:1.0;"/><line style="stroke:#181818;stroke-width:1.0;" x1="1160.5" x2="1436.5" y1="279.2578" y2="279.2578"/><text fill="#000000" font-family="sans-serif" font-size="13" font-weight="bold" lengthAdjust="spacing" textLength="21" x="1167.5" y="274.1919">(5)</text><text fill="#000000" font-family="sans-serif" font-size="13" lengthAdjust="spacing" textLength="238" x="1192.5" y="274.1919">.getMemberIdByUserId(userId: string)</text><polygon fill="#181818" points="1711.5,304.3906,1721.5,308.3906,1711.5,312.3906,1715.5,308.3906" style="stroke:#181818;stroke-width:1.0;"/><line style="stroke:#181818;stroke-width:1.0;" x1="1452.5" x2="1717.5" y1="308.3906" y2="308.3906"/><text fill="#000000" font-family="sans-serif" font-size="13" font-weight="bold" lengthAdjust="spacing" textLength="21" x="1459.5" y="303.3247">(6)</text><text fill="#000000" font-family="sans-serif" font-size="13" lengthAdjust="spacing" textLength="227" x="1484.5" y="303.3247">.getMemberByUserId(userId: string)</text><polygon fill="#181818" points="2566,333.5234,2576,337.5234,2566,341.5234,2570,337.5234" style="stroke:#181818;stroke-width:1.0;"/><line style="stroke:#181818;stroke-width:1.0;" x1="1733.5" x2="2572" y1="337.5234" y2="337.5234"/><text fill="#000000" font-family="sans-serif" font-size="13" font-weight="bold" lengthAdjust="spacing" textLength="21" x="1740.5" y="332.4575">(7)</text><text fill="#000000" font-family="sans-serif" font-size="13" lengthAdjust="spacing" textLength="103" x="1765.5" y="332.4575">.findOne(userId)</text><polygon fill="#181818" points="1744.5,362.6563,1734.5,366.6563,1744.5,370.6563,1740.5,366.6563" style="stroke:#181818;stroke-width:1.0;"/><line style="stroke:#181818;stroke-width:1.0;stroke-dasharray:2.0,2.0;" x1="1738.5" x2="2582" y1="366.6563" y2="366.6563"/><text fill="#000000" font-family="sans-serif" font-size="13" font-weight="bold" lengthAdjust="spacing" textLength="21" x="1750.5" y="361.5903">(8)</text><text fill="#000000" font-family="sans-serif" font-size="13" lengthAdjust="spacing" textLength="63" x="1775.5" y="361.5903">MemberId</text><polygon fill="#181818" points="1463.5,391.7891,1453.5,395.7891,1463.5,399.7891,1459.5,395.7891" style="stroke:#181818;stroke-width:1.0;"/><line style="stroke:#181818;stroke-width:1.0;stroke-dasharray:2.0,2.0;" x1="1457.5" x2="1727.5" y1="395.7891" y2="395.7891"/><text fill="#000000" font-family="sans-serif" font-size="13" font-weight="bold" lengthAdjust="spacing" textLength="21" x="1469.5" y="390.7231">(9)</text><text fill="#000000" font-family="sans-serif" font-size="13" lengthAdjust="spacing" textLength="63" x="1494.5" y="390.7231">MemberId</text><polygon fill="#181818" points="1171.5,420.9219,1161.5,424.9219,1171.5,428.9219,1167.5,424.9219" style="stroke:#181818;stroke-width:1.0;"/><line style="stroke:#181818;stroke-width:1.0;stroke-dasharray:2.0,2.0;" x1="1165.5" x2="1446.5" y1="424.9219" y2="424.9219"/><text fill="#000000" font-family="sans-serif" font-size="13" font-weight="bold" lengthAdjust="spacing" textLength="31" x="1177.5" y="419.856">(10)</text><text fill="#000000" font-family="sans-serif" font-size="13" lengthAdjust="spacing" textLength="63" x="1212.5" y="419.856">MemberId</text><polygon fill="#181818" points="1962,450.0547,1972,454.0547,1962,458.0547,1966,454.0547" style="stroke:#181818;stroke-width:1.0;"/><line style="stroke:#181818;stroke-width:1.0;" x1="1160.5" x2="1968" y1="454.0547" y2="454.0547"/><text fill="#000000" font-family="sans-serif" font-size="13" font-weight="bold" lengthAdjust="spacing" textLength="30" x="1167.5" y="448.9888">(11)</text><text fill="#000000" font-family="sans-serif" font-size="13" lengthAdjust="spacing" textLength="295" x="1201.5" y="448.9888">.getMemberPostCount (memberId: MemberId)</text><polygon fill="#181818" points="2316,479.1875,2326,483.1875,2316,487.1875,2320,483.1875" style="stroke:#181818;stroke-width:1.0;"/><line style="stroke:#181818;stroke-width:1.0;" x1="1984" x2="2322" y1="483.1875" y2="483.1875"/><text fill="#000000" font-family="sans-serif" font-size="13" font-weight="bold" lengthAdjust="spacing" textLength="30" x="1991" y="478.1216">(12)</text><text fill="#000000" font-family="sans-serif" font-size="13" lengthAdjust="spacing" textLength="291" x="2025" y="478.1216">.getMemberPostCount(memberId: MemberId)</text><polygon fill="#181818" points="2566,508.3203,2576,512.3203,2566,516.3203,2570,512.3203" style="stroke:#181818;stroke-width:1.0;"/><line style="stroke:#181818;stroke-width:1.0;" x1="2338" x2="2572" y1="512.3203" y2="512.3203"/><text fill="#000000" font-family="sans-serif" font-size="13" font-weight="bold" lengthAdjust="spacing" textLength="29" x="2345" y="507.2544">(13)</text><text fill="#000000" font-family="sans-serif" font-size="13" lengthAdjust="spacing" textLength="188" x="2378" y="507.2544">.count(memberId: MemberId)</text><polygon fill="#181818" points="2349,537.4531,2339,541.4531,2349,545.4531,2345,541.4531" style="stroke:#181818;stroke-width:1.0;"/><line style="stroke:#181818;stroke-width:1.0;stroke-dasharray:2.0,2.0;" x1="2343" x2="2582" y1="541.4531" y2="541.4531"/><text fill="#000000" font-family="sans-serif" font-size="13" font-weight="bold" lengthAdjust="spacing" textLength="30" x="2355" y="536.3872">(14)</text><text fill="#000000" font-family="sans-serif" font-size="13" lengthAdjust="spacing" textLength="64" x="2389" y="536.3872">postcount</text><polygon fill="#181818" points="1995,566.5859,1985,570.5859,1995,574.5859,1991,570.5859" style="stroke:#181818;stroke-width:1.0;"/><line style="stroke:#181818;stroke-width:1.0;stroke-dasharray:2.0,2.0;" x1="1989" x2="2332" y1="570.5859" y2="570.5859"/><text fill="#000000" font-family="sans-serif" font-size="13" font-weight="bold" lengthAdjust="spacing" textLength="30" x="2001" y="565.52">(15)</text><text fill="#000000" font-family="sans-serif" font-size="13" lengthAdjust="spacing" textLength="64" x="2035" y="565.52">postcount</text><polygon fill="#181818" points="1166.5,595.7188,1156.5,599.7188,1166.5,603.7188,1162.5,599.7188" style="stroke:#181818;stroke-width:1.0;"/><line style="stroke:#181818;stroke-width:1.0;stroke-dasharray:2.0,2.0;" x1="1160.5" x2="1978" y1="599.7188" y2="599.7188"/><text fill="#000000" font-family="sans-serif" font-size="13" font-weight="bold" lengthAdjust="spacing" textLength="30" x="1172.5" y="594.6528">(16)</text><text fill="#000000" font-family="sans-serif" font-size="13" lengthAdjust="spacing" textLength="121" x="1206.5" y="594.6528">memberPostCount</text><!--SRC=[ZLN9Rjim4BtpAmOwsK3jf3qAHGwnZS90ZRfs_G6qE4q5IAH2KaNozoL5BQDOediZPtcpl4U9rrR9khoYXkJhzMdnk4oOpMs1S3a_Vlu2vosiu0Nj0NtCKHcxKRMqZ36UMQNXOb0RLd5jyoolkBHmKhN5iIcv1TWeQRKg2jHfp9a0Dn0B6DUf3MwumHI-tQHSWgi1dFMEqSecveILIc5_w2yD1BdFZFhyxdUp5-cDfG48fd5kvTffontROoZMtUvjTMAN3S30c-2MNzsaS7W___pkVLjdUVQpCzQG2QkdbaD88UD50JifAfMxYeiIxHybt7ftlpw1za4f90- -xSoZFoHU5VbVRh6J0MkX76XK1B36DynSw4BZgyD6inomeW9WCU__rzsNLU5hfx35J0aKkxVATM5E-5gZiKrBAM0mhazeAYKDBkzMdzKQ6LbOHQQTLoTZipvVYcZIWVUDxKKdl4KT50d6wbo-a9fKpenSF6ouKSJxUAsw6Gi73zFfp07zpgNu8R5D9sc35hiJh4W7tJnCu4HAL-hZ9gQoklv6eyRPce8PhItEpR5_s-jRoVYN5T27EfIT_lsp_kX1XtS_1Hh799_oeOqnJTbzb1d2I6Fzns6QD59xlAN9FD8qMKISj_B3dulID-oLMETvf57HRnA92z-_Vm00]--></g></svg>