<svg xmlns="http://www.w3.org/2000/svg" xmlns:xlink="http://www.w3.org/1999/xlink" contentStyleType="text/css" height="698" preserveAspectRatio="none" style="width:2763px;height:698px;background:#FFFFFF;" version="1.1" viewBox="0 0 2763 698" width="2763" zoomAndPan="magnify"><defs/><g><text fill="#000000" font-family="sans-serif" font-size="14" font-weight="bold" lengthAdjust="spacing" textLength="309" x="1225" y="27.9951">US012 SD - getMemberCommentCount</text><rect fill="#FFFFFF" height="449.9922" style="stroke:#181818;stroke-width:1.0;" width="10" x="408" y="149.7266"/><rect fill="#FFFFFF" height="420.8594" style="stroke:#181818;stroke-width:1.0;" width="10" x="732.5" y="178.8594"/><rect fill="#FFFFFF" height="349.5938" style="stroke:#181818;stroke-width:1.0;" width="10" x="1219.5" y="250.125"/><rect fill="#FFFFFF" height="145.6641" style="stroke:#181818;stroke-width:1.0;" width="10" x="1513" y="279.2578"/><rect fill="#FFFFFF" height="87.3984" style="stroke:#181818;stroke-width:1.0;" width="10" x="1794" y="308.3906"/><rect fill="#FFFFFF" height="145.6641" style="stroke:#181818;stroke-width:1.0;" width="10" x="2083" y="454.0547"/><rect fill="#FFFFFF" height="87.3984" style="stroke:#181818;stroke-width:1.0;" width="10" x="2473" y="483.1875"/><rect fill="#FFFFFF" height="29.1328" style="stroke:#181818;stroke-width:1.0;" width="10" x="2723" y="337.5234"/><rect fill="#FFFFFF" height="29.1328" style="stroke:#181818;stroke-width:1.0;" width="10" x="2723" y="512.3203"/><line style="stroke:#181818;stroke-width:0.5;stroke-dasharray:5.0,5.0;" x1="27" x2="27" y1="118.5938" y2="617.7188"/><line style="stroke:#181818;stroke-width:0.5;stroke-dasharray:5.0,5.0;" x1="413" x2="413" y1="118.5938" y2="617.7188"/><line style="stroke:#181818;stroke-width:0.5;stroke-dasharray:5.0,5.0;" x1="737" x2="737" y1="118.5938" y2="617.7188"/><line style="stroke:#181818;stroke-width:0.5;stroke-dasharray:5.0,5.0;" x1="1224.5" x2="1224.5" y1="118.5938" y2="617.7188"/><line style="stroke:#181818;stroke-width:0.5;stroke-dasharray:5.0,5.0;" x1="1517.5" x2="1517.5" y1="118.5938" y2="617.7188"/><line style="stroke:#181818;stroke-width:0.5;stroke-dasharray:5.0,5.0;" x1="1798.5" x2="1798.5" y1="118.5938" y2="617.7188"/><line style="stroke:#181818;stroke-width:0.5;stroke-dasharray:5.0,5.0;" x1="2087.5" x2="2087.5" y1="118.5938" y2="617.7188"/><line style="stroke:#181818;stroke-width:0.5;stroke-dasharray:5.0,5.0;" x1="2477.5" x2="2477.5" y1="118.5938" y2="617.7188"/><line style="stroke:#181818;stroke-width:0.5;stroke-dasharray:5.0,5.0;" x1="2728" x2="2728" y1="118.5938" y2="617.7188"/><text fill="#000000" font-family="sans-serif" font-size="14" lengthAdjust="spacing" textLength="38" x="5" y="115.292">Users</text><ellipse cx="27" cy="50.7969" fill="#E2E2F0" rx="8" ry="8" style="stroke:#181818;stroke-width:0.5;"/><path d="M27,58.7969 L27,85.7969 M14,66.7969 L40,66.7969 M27,85.7969 L14,100.7969 M27,85.7969 L40,100.7969 " fill="none" style="stroke:#181818;stroke-width:0.5;"/><text fill="#000000" font-family="sans-serif" font-size="14" lengthAdjust="spacing" textLength="38" x="5" y="629.7139">Users</text><ellipse cx="27" cy="641.5156" fill="#E2E2F0" rx="8" ry="8" style="stroke:#181818;stroke-width:0.5;"/><path d="M27,649.5156 L27,676.5156 M14,657.5156 L40,657.5156 M27,676.5156 L14,691.5156 M27,676.5156 L40,691.5156 " fill="none" style="stroke:#181818;stroke-width:0.5;"/><rect fill="#E2E2F0" height="30.2969" rx="2.5" ry="2.5" style="stroke:#181818;stroke-width:0.5;" width="64" x="381" y="87.2969"/><text fill="#000000" font-family="sans-serif" font-size="14" lengthAdjust="spacing" textLength="50" x="388" y="107.292">Routes</text><rect fill="#E2E2F0" height="30.2969" rx="2.5" ry="2.5" style="stroke:#181818;stroke-width:0.5;" width="64" x="381" y="616.7188"/><text fill="#000000" font-family="sans-serif" font-size="14" lengthAdjust="spacing" textLength="50" x="388" y="636.7139">Routes</text><rect fill="#E2E2F0" height="30.2969" rx="2.5" ry="2.5" style="stroke:#181818;stroke-width:0.5;" width="565" x="455" y="87.2969"/><text fill="#000000" font-family="sans-serif" font-size="14" lengthAdjust="spacing" textLength="551" x="462" y="107.292">getMemberCommentCountController:getMemberCommentCountController</text><rect fill="#E2E2F0" height="30.2969" rx="2.5" ry="2.5" style="stroke:#181818;stroke-width:0.5;" width="565" x="455" y="616.7188"/><text fill="#000000" font-family="sans-serif" font-size="14" lengthAdjust="spacing" textLength="551" x="462" y="636.7139">getMemberCommentCountController:getMemberCommentCountController</text><rect fill="#E2E2F0" height="30.2969" rx="2.5" ry="2.5" style="stroke:#181818;stroke-width:0.5;" width="342" x="1053.5" y="87.2969"/><text fill="#000000" font-family="sans-serif" font-size="14" lengthAdjust="spacing" textLength="328" x="1060.5" y="107.292">useCase: GetMemberCommentCountUseCase</text><rect fill="#E2E2F0" height="30.2969" rx="2.5" ry="2.5" style="stroke:#181818;stroke-width:0.5;" width="342" x="1053.5" y="616.7188"/><text fill="#000000" font-family="sans-serif" font-size="14" lengthAdjust="spacing" textLength="328" x="1060.5" y="636.7139">useCase: GetMemberCommentCountUseCase</text><rect fill="#E2E2F0" height="30.2969" rx="2.5" ry="2.5" style="stroke:#181818;stroke-width:0.5;" width="225" x="1405.5" y="87.2969"/><text fill="#000000" font-family="sans-serif" font-size="14" lengthAdjust="spacing" textLength="211" x="1412.5" y="107.292">memberRepo: IMemberRepo</text><rect fill="#E2E2F0" height="30.2969" rx="2.5" ry="2.5" style="stroke:#181818;stroke-width:0.5;" width="225" x="1405.5" y="616.7188"/><text fill="#000000" font-family="sans-serif" font-size="14" lengthAdjust="spacing" textLength="211" x="1412.5" y="636.7139">memberRepo: IMemberRepo</text><rect fill="#E2E2F0" height="30.2969" rx="2.5" ry="2.5" style="stroke:#181818;stroke-width:0.5;" width="313" x="1642.5" y="87.2969"/><text fill="#000000" font-family="sans-serif" font-size="14" lengthAdjust="spacing" textLength="299" x="1649.5" y="107.292">getMemberByUserId:getMemberByUserId</text><rect fill="#E2E2F0" height="30.2969" rx="2.5" ry="2.5" style="stroke:#181818;stroke-width:0.5;" width="313" x="1642.5" y="616.7188"/><text fill="#000000" font-family="sans-serif" font-size="14" lengthAdjust="spacing" textLength="299" x="1649.5" y="636.7139">getMemberByUserId:getMemberByUserId</text><rect fill="#E2E2F0" height="30.2969" rx="2.5" ry="2.5" style="stroke:#181818;stroke-width:0.5;" width="245" x="1965.5" y="87.2969"/><text fill="#000000" font-family="sans-serif" font-size="14" lengthAdjust="spacing" textLength="231" x="1972.5" y="107.292">commentRepo: ICommentRepo</text><rect fill="#E2E2F0" height="30.2969" rx="2.5" ry="2.5" style="stroke:#181818;stroke-width:0.5;" width="245" x="1965.5" y="616.7188"/><text fill="#000000" font-family="sans-serif" font-size="14" lengthAdjust="spacing" textLength="231" x="1972.5" y="636.7139">commentRepo: ICommentRepo</text><rect fill="#E2E2F0" height="30.2969" rx="2.5" ry="2.5" style="stroke:#181818;stroke-width:0.5;" width="419" x="2268.5" y="87.2969"/><text fill="#000000" font-family="sans-serif" font-size="14" lengthAdjust="spacing" textLength="405" x="2275.5" y="107.292">getMemberCommentCount:getMemberCommentCount</text><rect fill="#E2E2F0" height="30.2969" rx="2.5" ry="2.5" style="stroke:#181818;stroke-width:0.5;" width="419" x="2268.5" y="616.7188"/><text fill="#000000" font-family="sans-serif" font-size="14" lengthAdjust="spacing" textLength="405" x="2275.5" y="636.7139">getMemberCommentCount:getMemberCommentCount</text><text fill="#000000" font-family="sans-serif" font-size="14" lengthAdjust="spacing" textLength="48" x="2701" y="115.292">MySQL</text><path d="M2710,66.2969 C2710,56.2969 2728,56.2969 2728,56.2969 C2728,56.2969 2746,56.2969 2746,66.2969 L2746,92.2969 C2746,102.2969 2728,102.2969 2728,102.2969 C2728,102.2969 2710,102.2969 2710,92.2969 L2710,66.2969 " fill="#E2E2F0" style="stroke:#181818;stroke-width:1.5;"/><path d="M2710,66.2969 C2710,76.2969 2728,76.2969 2728,76.2969 C2728,76.2969 2746,76.2969 2746,66.2969 " fill="none" style="stroke:#181818;stroke-width:1.5;"/><text fill="#000000" font-family="sans-serif" font-size="14" lengthAdjust="spacing" textLength="48" x="2701" y="629.7139">MySQL</text><path d="M2710,643.0156 C2710,633.0156 2728,633.0156 2728,633.0156 C2728,633.0156 2746,633.0156 2746,643.0156 L2746,669.0156 C2746,679.0156 2728,679.0156 2728,679.0156 C2728,679.0156 2710,679.0156 2710,669.0156 L2710,643.0156 " fill="#E2E2F0" style="stroke:#181818;stroke-width:1.5;"/><path d="M2710,643.0156 C2710,653.0156 2728,653.0156 2728,653.0156 C2728,653.0156 2746,653.0156 2746,643.0156 " fill="none" style="stroke:#181818;stroke-width:1.5;"/><rect fill="#FFFFFF" height="449.9922" style="stroke:#181818;stroke-width:1.0;" width="10" x="408" y="149.7266"/><rect fill="#FFFFFF" height="420.8594" style="stroke:#181818;stroke-width:1.0;" width="10" x="732.5" y="178.8594"/><rect fill="#FFFFFF" height="349.5938" style="stroke:#181818;stroke-width:1.0;" width="10" x="1219.5" y="250.125"/><rect fill="#FFFFFF" height="145.6641" style="stroke:#181818;stroke-width:1.0;" width="10" x="1513" y="279.2578"/><rect fill="#FFFFFF" height="87.3984" style="stroke:#181818;stroke-width:1.0;" width="10" x="1794" y="308.3906"/><rect fill="#FFFFFF" height="145.6641" style="stroke:#181818;stroke-width:1.0;" width="10" x="2083" y="454.0547"/><rect fill="#FFFFFF" height="87.3984" style="stroke:#181818;stroke-width:1.0;" width="10" x="2473" y="483.1875"/><rect fill="#FFFFFF" height="29.1328" style="stroke:#181818;stroke-width:1.0;" width="10" x="2723" y="337.5234"/><rect fill="#FFFFFF" height="29.1328" style="stroke:#181818;stroke-width:1.0;" width="10" x="2723" y="512.3203"/><polygon fill="#181818" points="396,145.7266,406,149.7266,396,153.7266,400,149.7266" style="stroke:#181818;stroke-width:1.0;"/><line style="stroke:#181818;stroke-width:1.0;" x1="27" x2="402" y1="149.7266" y2="149.7266"/><text fill="#000000" font-family="sans-serif" font-size="13" font-weight="bold" lengthAdjust="spacing" textLength="21" x="34" y="144.6606">(1)</text><text fill="#000000" font-family="sans-serif" font-size="13" lengthAdjust="spacing" textLength="337" x="59" y="144.6606">call Endpoint (method: GET, route: "/commentcount/</text><polygon fill="#181818" points="720.5,174.8594,730.5,178.8594,720.5,182.8594,724.5,178.8594" style="stroke:#181818;stroke-width:1.0;"/><line style="stroke:#181818;stroke-width:1.0;" x1="418" x2="726.5" y1="178.8594" y2="178.8594"/><text fill="#000000" font-family="sans-serif" font-size="13" font-weight="bold" lengthAdjust="spacing" textLength="21" x="425" y="173.7935">(2)</text><text fill="#000000" font-family="sans-serif" font-size="13" lengthAdjust="spacing" textLength="115" x="450" y="173.7935">.execute(req, res)</text><line style="stroke:#181818;stroke-width:1.0;" x1="742.5" x2="784.5" y1="207.9922" y2="207.9922"/><line style="stroke:#181818;stroke-width:1.0;" x1="784.5" x2="784.5" y1="207.9922" y2="220.9922"/><line style="stroke:#181818;stroke-width:1.0;" x1="743.5" x2="784.5" y1="220.9922" y2="220.9922"/><polygon fill="#181818" points="753.5,216.9922,743.5,220.9922,753.5,224.9922,749.5,220.9922" style="stroke:#181818;stroke-width:1.0;"/><text fill="#000000" font-family="sans-serif" font-size="13" font-weight="bold" lengthAdjust="spacing" textLength="20" x="749.5" y="202.9263">(3)</text><text fill="#000000" font-family="sans-serif" font-size="13" lengthAdjust="spacing" textLength="439" x="773.5" y="202.9263">.executeImpl(req: DecodedExpressRequest, res: express.Response)</text><polygon fill="#181818" points="1207.5,246.125,1217.5,250.125,1207.5,254.125,1211.5,250.125" style="stroke:#181818;stroke-width:1.0;"/><line style="stroke:#181818;stroke-width:1.0;" x1="742.5" x2="1213.5" y1="250.125" y2="250.125"/><text fill="#000000" font-family="sans-serif" font-size="13" font-weight="bold" lengthAdjust="spacing" textLength="21" x="749.5" y="245.0591">(4)</text><text fill="#000000" font-family="sans-serif" font-size="13" lengthAdjust="spacing" textLength="87" x="774.5" y="245.0591">.execute(dto)</text><polygon fill="#181818" points="1501,275.2578,1511,279.2578,1501,283.2578,1505,279.2578" style="stroke:#181818;stroke-width:1.0;"/><line style="stroke:#181818;stroke-width:1.0;" x1="1229.5" x2="1507" y1="279.2578" y2="279.2578"/><text fill="#000000" font-family="sans-serif" font-size="13" font-weight="bold" lengthAdjust="spacing" textLength="21" x="1236.5" y="274.1919">(5)</text><text fill="#000000" font-family="sans-serif" font-size="13" lengthAdjust="spacing" textLength="238" x="1261.5" y="274.1919">.getMemberIdByUserId(userId: string)</text><polygon fill="#181818" points="1782,304.3906,1792,308.3906,1782,312.3906,1786,308.3906" style="stroke:#181818;stroke-width:1.0;"/><line style="stroke:#181818;stroke-width:1.0;" x1="1523" x2="1788" y1="308.3906" y2="308.3906"/><text fill="#000000" font-family="sans-serif" font-size="13" font-weight="bold" lengthAdjust="spacing" textLength="21" x="1530" y="303.3247">(6)</text><text fill="#000000" font-family="sans-serif" font-size="13" lengthAdjust="spacing" textLength="227" x="1555" y="303.3247">.getMemberByUserId(userId: string)</text><polygon fill="#181818" points="2711,333.5234,2721,337.5234,2711,341.5234,2715,337.5234" style="stroke:#181818;stroke-width:1.0;"/><line style="stroke:#181818;stroke-width:1.0;" x1="1804" x2="2717" y1="337.5234" y2="337.5234"/><text fill="#000000" font-family="sans-serif" font-size="13" font-weight="bold" lengthAdjust="spacing" textLength="21" x="1811" y="332.4575">(7)</text><text fill="#000000" font-family="sans-serif" font-size="13" lengthAdjust="spacing" textLength="103" x="1836" y="332.4575">.findOne(userId)</text><polygon fill="#181818" points="1815,362.6563,1805,366.6563,1815,370.6563,1811,366.6563" style="stroke:#181818;stroke-width:1.0;"/><line style="stroke:#181818;stroke-width:1.0;stroke-dasharray:2.0,2.0;" x1="1809" x2="2727" y1="366.6563" y2="366.6563"/><text fill="#000000" font-family="sans-serif" font-size="13" font-weight="bold" lengthAdjust="spacing" textLength="21" x="1821" y="361.5903">(8)</text><text fill="#000000" font-family="sans-serif" font-size="13" lengthAdjust="spacing" textLength="63" x="1846" y="361.5903">MemberId</text><polygon fill="#181818" points="1534,391.7891,1524,395.7891,1534,399.7891,1530,395.7891" style="stroke:#181818;stroke-width:1.0;"/><line style="stroke:#181818;stroke-width:1.0;stroke-dasharray:2.0,2.0;" x1="1528" x2="1798" y1="395.7891" y2="395.7891"/><text fill="#000000" font-family="sans-serif" font-size="13" font-weight="bold" lengthAdjust="spacing" textLength="21" x="1540" y="390.7231">(9)</text><text fill="#000000" font-family="sans-serif" font-size="13" lengthAdjust="spacing" textLength="63" x="1565" y="390.7231">MemberId</text><polygon fill="#181818" points="1240.5,420.9219,1230.5,424.9219,1240.5,428.9219,1236.5,424.9219" style="stroke:#181818;stroke-width:1.0;"/><line style="stroke:#181818;stroke-width:1.0;stroke-dasharray:2.0,2.0;" x1="1234.5" x2="1517" y1="424.9219" y2="424.9219"/><text fill="#000000" font-family="sans-serif" font-size="13" font-weight="bold" lengthAdjust="spacing" textLength="31" x="1246.5" y="419.856">(10)</text><text fill="#000000" font-family="sans-serif" font-size="13" lengthAdjust="spacing" textLength="63" x="1281.5" y="419.856">MemberId</text><polygon fill="#181818" points="2071,450.0547,2081,454.0547,2071,458.0547,2075,454.0547" style="stroke:#181818;stroke-width:1.0;"/><line style="stroke:#181818;stroke-width:1.0;" x1="1229.5" x2="2077" y1="454.0547" y2="454.0547"/><text fill="#000000" font-family="sans-serif" font-size="13" font-weight="bold" lengthAdjust="spacing" textLength="30" x="1236.5" y="448.9888">(11)</text><text fill="#000000" font-family="sans-serif" font-size="13" lengthAdjust="spacing" textLength="331" x="1270.5" y="448.9888">.getMemberCommentCount (memberId: MemberId)</text><polygon fill="#181818" points="2461,479.1875,2471,483.1875,2461,487.1875,2465,483.1875" style="stroke:#181818;stroke-width:1.0;"/><line style="stroke:#181818;stroke-width:1.0;" x1="2093" x2="2467" y1="483.1875" y2="483.1875"/><text fill="#000000" font-family="sans-serif" font-size="13" font-weight="bold" lengthAdjust="spacing" textLength="30" x="2100" y="478.1216">(12)</text><text fill="#000000" font-family="sans-serif" font-size="13" lengthAdjust="spacing" textLength="327" x="2134" y="478.1216">.getMemberCommentCount(memberId: MemberId)</text><polygon fill="#181818" points="2711,508.3203,2721,512.3203,2711,516.3203,2715,512.3203" style="stroke:#181818;stroke-width:1.0;"/><line style="stroke:#181818;stroke-width:1.0;" x1="2483" x2="2717" y1="512.3203" y2="512.3203"/><text fill="#000000" font-family="sans-serif" font-size="13" font-weight="bold" lengthAdjust="spacing" textLength="29" x="2490" y="507.2544">(13)</text><text fill="#000000" font-family="sans-serif" font-size="13" lengthAdjust="spacing" textLength="188" x="2523" y="507.2544">.count(memberId: MemberId)</text><polygon fill="#181818" points="2494,537.4531,2484,541.4531,2494,545.4531,2490,541.4531" style="stroke:#181818;stroke-width:1.0;"/><line style="stroke:#181818;stroke-width:1.0;stroke-dasharray:2.0,2.0;" x1="2488" x2="2727" y1="541.4531" y2="541.4531"/><text fill="#000000" font-family="sans-serif" font-size="13" font-weight="bold" lengthAdjust="spacing" textLength="30" x="2500" y="536.3872">(14)</text><text fill="#000000" font-family="sans-serif" font-size="13" lengthAdjust="spacing" textLength="157" x="2534" y="536.3872">memberCommentCount</text><polygon fill="#181818" points="2104,566.5859,2094,570.5859,2104,574.5859,2100,570.5859" style="stroke:#181818;stroke-width:1.0;"/><line style="stroke:#181818;stroke-width:1.0;stroke-dasharray:2.0,2.0;" x1="2098" x2="2477" y1="570.5859" y2="570.5859"/><text fill="#000000" font-family="sans-serif" font-size="13" font-weight="bold" lengthAdjust="spacing" textLength="30" x="2110" y="565.52">(15)</text><text fill="#000000" font-family="sans-serif" font-size="13" lengthAdjust="spacing" textLength="157" x="2144" y="565.52">memberCommentCount</text><polygon fill="#181818" points="1235.5,595.7188,1225.5,599.7188,1235.5,603.7188,1231.5,599.7188" style="stroke:#181818;stroke-width:1.0;"/><line style="stroke:#181818;stroke-width:1.0;stroke-dasharray:2.0,2.0;" x1="1229.5" x2="2087" y1="599.7188" y2="599.7188"/><text fill="#000000" font-family="sans-serif" font-size="13" font-weight="bold" lengthAdjust="spacing" textLength="30" x="1241.5" y="594.6528">(16)</text><text fill="#000000" font-family="sans-serif" font-size="13" lengthAdjust="spacing" textLength="157" x="1275.5" y="594.6528">memberCommentCount</text><!--SRC=[bLN1RkCW4Btp5IEV4gb9kprQgnxgH5MaHgjDcWyWPhPhoGONyAhz-uAn4zWuqFgIC0pllPbvnhJJWdVD4ILaFuyFixjvHdIbQuJ3_kx7FUnNi81Nr5kqEOLe6kIw41tNXD1I2ma7XLAHbafTbLLBkOQTw3I6eMmIeX1SIr7NAFF4VWPKGI8d9EmK5bHX3azJfmvkjuUD9OIOJP-smrRaiDcU5ZsAjxvI-UE7RTM6vHUH7i25mhEbKpGm5kULe_G2N-ZsT8zxf62kZ6fwDBN3zcF_-zbkhqpaqNQ3zCE6nSCmOyYXf7KDQyvQKHdcMOFwhs2cw-kN6v0sAOViTgYZjFYtrZVLFwfnD0ePm0nioYQmn7SiJVPCufiXG3K_mwNyGH89tnAmQThQYiXXXQLWoDRlhP6ZTlZMeTAzjXpG1PSxLAtW2kTVqH0pfDS1feLNVDJ51CmJox2qdeCDoqddXeqsdNNElw2qhFZhl4Sz2V1VW7x7FbxGKhYLZnx53l27zuEuNuissjBW_Qau-yLnGF7QShRk-0yMdf2nHC9muiX8zNzpfawDyeAAayESGWeQcHnQuLyHoqbtsRVIqPm9lHO5rmZnLvOWk46k4CJnmuz682mSOfd6kZBEK6Hp-QsQ76yevQAPSPYmgh1hoR77eSE1U1jHC_Y9gPlGItLtxoS0]--></g></svg>