<?xml version="1.0" encoding="us-ascii" standalone="no"?><svg xmlns="http://www.w3.org/2000/svg" xmlns:xlink="http://www.w3.org/1999/xlink" contentStyleType="text/css" height="452px" preserveAspectRatio="none" style="width:681px;height:452px;background:#FFFFFF;" version="1.1" viewBox="0 0 681 452" width="681px" zoomAndPan="magnify"><defs/><g><text fill="#000000" font-family="sans-serif" font-size="14" font-weight="bold" lengthAdjust="spacing" textLength="653" x="10" y="27.9951">SSD - US019 - View Percentage of Posts without any comment for a Specific Day</text><rect fill="#FFFFFF" height="225.0625" style="stroke:#181818;stroke-width:1.0;" width="10" x="46" y="128.5938"/><rect fill="#FFFFFF" height="29.1328" style="stroke:#181818;stroke-width:1.0;" width="10" x="621" y="149.7266"/><rect fill="#FFFFFF" height="29.1328" style="stroke:#181818;stroke-width:1.0;" width="10" x="621" y="207.9922"/><rect fill="#FFFFFF" height="29.1328" style="stroke:#181818;stroke-width:1.0;" width="10" x="621" y="266.2578"/><rect fill="#FFFFFF" height="29.1328" style="stroke:#181818;stroke-width:1.0;" width="10" x="621" y="324.5234"/><line style="stroke:#181818;stroke-width:0.5;stroke-dasharray:5.0,5.0;" x1="51" x2="51" y1="118.5938" y2="371.6563"/><line style="stroke:#181818;stroke-width:0.5;stroke-dasharray:5.0,5.0;" x1="626" x2="626" y1="118.5938" y2="371.6563"/><text fill="#000000" font-family="sans-serif" font-size="14" lengthAdjust="spacing" textLength="60" x="18" y="115.292">Member</text><ellipse cx="51" cy="50.7969" fill="#E2E2F0" rx="8" ry="8" style="stroke:#181818;stroke-width:0.5;"/><path d="M51,58.7969 L51,85.7969 M38,66.7969 L64,66.7969 M51,85.7969 L38,100.7969 M51,85.7969 L64,100.7969 " fill="none" style="stroke:#181818;stroke-width:0.5;"/><text fill="#000000" font-family="sans-serif" font-size="14" lengthAdjust="spacing" textLength="60" x="18" y="383.6514">Member</text><ellipse cx="51" cy="395.4531" fill="#E2E2F0" rx="8" ry="8" style="stroke:#181818;stroke-width:0.5;"/><path d="M51,403.4531 L51,430.4531 M38,411.4531 L64,411.4531 M51,430.4531 L38,445.4531 M51,430.4531 L64,445.4531 " fill="none" style="stroke:#181818;stroke-width:0.5;"/><text fill="#000000" font-family="sans-serif" font-size="14" lengthAdjust="spacing" textLength="54" x="596" y="115.292">System</text><path d="M605.5,74.2969 L605.5,98.2969 M605.5,86.2969 L622.5,86.2969 " fill="none" style="stroke:#181818;stroke-width:0.5;"/><ellipse cx="634.5" cy="86.2969" fill="#E2E2F0" rx="12" ry="12" style="stroke:#181818;stroke-width:0.5;"/><text fill="#000000" font-family="sans-serif" font-size="14" lengthAdjust="spacing" textLength="54" x="596" y="383.6514">System</text><path d="M605.5,390.9531 L605.5,414.9531 M605.5,402.9531 L622.5,402.9531 " fill="none" style="stroke:#181818;stroke-width:0.5;"/><ellipse cx="634.5" cy="402.9531" fill="#E2E2F0" rx="12" ry="12" style="stroke:#181818;stroke-width:0.5;"/><rect fill="#FFFFFF" height="225.0625" style="stroke:#181818;stroke-width:1.0;" width="10" x="46" y="128.5938"/><rect fill="#FFFFFF" height="29.1328" style="stroke:#181818;stroke-width:1.0;" width="10" x="621" y="149.7266"/><rect fill="#FFFFFF" height="29.1328" style="stroke:#181818;stroke-width:1.0;" width="10" x="621" y="207.9922"/><rect fill="#FFFFFF" height="29.1328" style="stroke:#181818;stroke-width:1.0;" width="10" x="621" y="266.2578"/><rect fill="#FFFFFF" height="29.1328" style="stroke:#181818;stroke-width:1.0;" width="10" x="621" y="324.5234"/><polygon fill="#181818" points="609,145.7266,619,149.7266,609,153.7266,613,149.7266" style="stroke:#181818;stroke-width:1.0;"/><line style="stroke:#181818;stroke-width:1.0;" x1="56" x2="615" y1="149.7266" y2="149.7266"/><text fill="#000000" font-family="sans-serif" font-size="13" lengthAdjust="spacing" textLength="208" x="63" y="144.6606">1. Go to DDD Forum Home Page</text><polygon fill="#181818" points="67,174.8594,57,178.8594,67,182.8594,63,178.8594" style="stroke:#181818;stroke-width:1.0;"/><line style="stroke:#181818;stroke-width:1.0;" x1="61" x2="625" y1="178.8594" y2="178.8594"/><text fill="#000000" font-family="sans-serif" font-size="13" lengthAdjust="spacing" textLength="220" x="73" y="173.7935">2. Display DDD Forum Home Page</text><polygon fill="#181818" points="609,203.9922,619,207.9922,609,211.9922,613,207.9922" style="stroke:#181818;stroke-width:1.0;"/><line style="stroke:#181818;stroke-width:1.0;" x1="56" x2="615" y1="207.9922" y2="207.9922"/><text fill="#000000" font-family="sans-serif" font-size="13" lengthAdjust="spacing" textLength="146" x="63" y="202.9263">7. Login at DDD Forum</text><polygon fill="#181818" points="67,233.125,57,237.125,67,241.125,63,237.125" style="stroke:#181818;stroke-width:1.0;"/><line style="stroke:#181818;stroke-width:1.0;" x1="61" x2="625" y1="237.125" y2="237.125"/><text fill="#000000" font-family="sans-serif" font-size="13" lengthAdjust="spacing" textLength="285" x="73" y="232.0591">8. Confirms Login and returns to Home Page</text><polygon fill="#181818" points="609,262.2578,619,266.2578,609,270.2578,613,266.2578" style="stroke:#181818;stroke-width:1.0;"/><line style="stroke:#181818;stroke-width:1.0;" x1="56" x2="615" y1="266.2578" y2="266.2578"/><text fill="#000000" font-family="sans-serif" font-size="13" lengthAdjust="spacing" textLength="215" x="63" y="261.1919">9. Clicks on the "Statistics" Button</text><polygon fill="#181818" points="67,291.3906,57,295.3906,67,299.3906,63,295.3906" style="stroke:#181818;stroke-width:1.0;"/><line style="stroke:#181818;stroke-width:1.0;" x1="61" x2="625" y1="295.3906" y2="295.3906"/><text fill="#000000" font-family="sans-serif" font-size="13" lengthAdjust="spacing" textLength="179" x="73" y="290.3247">10. Display "Statistics" Page</text><polygon fill="#181818" points="609,320.5234,619,324.5234,609,328.5234,613,324.5234" style="stroke:#181818;stroke-width:1.0;"/><line style="stroke:#181818;stroke-width:1.0;" x1="56" x2="615" y1="324.5234" y2="324.5234"/><text fill="#000000" font-family="sans-serif" font-size="13" lengthAdjust="spacing" textLength="390" x="63" y="319.4575">11. Insert a date on text box and clicks on the refresh button</text><polygon fill="#181818" points="62,349.6563,52,353.6563,62,357.6563,58,353.6563" style="stroke:#181818;stroke-width:1.0;"/><line style="stroke:#181818;stroke-width:1.0;" x1="56" x2="625" y1="353.6563" y2="353.6563"/><text fill="#000000" font-family="sans-serif" font-size="13" lengthAdjust="spacing" textLength="541" x="68" y="348.5903">12. Display the result - Percentage of Posts without any comment for a Specific Day</text><!--SRC=[fP9DQyCm38Rl-HKllJSqkspjOOSjx0CsA8JjxZXAQvPOnLRMvj_FQLhIhcK4TXB8ygD7jiH8HSYo55DyPBDa7kAdeIsMv3HPKIi2brYo5u-jaJKt0cLRQAxhS8wI7HIo3MbJ6erKjL6aj8JiEzKvkIZdnXRAjSXQBrJlJyst4ZeMz07J-qF50acCPuOmqZJ54xkcnWlNX6Mm6QuVU7tehlUW1MvYfCPlAjLU1HJq6t5fS1lZZLV6Gid0Y4RqlelnoBOqhlP7WYtWI1fdVJVINnvNHEQ1LndzvS4MiYPCCb5Yl1Zj9tXeHDYEyKfcmwES8SQh9E5RNgqd5nO0HLVRAT5EaFDkFwO-CtLKEl9hvECbJtwk9_Ycah2H_rZ6oz5ECdtZ7m00]--></g></svg>