<?xml version="1.0" encoding="us-ascii" standalone="no"?><svg xmlns="http://www.w3.org/2000/svg" xmlns:xlink="http://www.w3.org/1999/xlink" contentStyleType="text/css" height="394px" preserveAspectRatio="none" style="width:1138px;height:394px;background:#FFFFFF;" version="1.1" viewBox="0 0 1138 394" width="1138px" zoomAndPan="magnify"><defs/><g><text fill="#000000" font-family="sans-serif" font-size="14" font-weight="bold" lengthAdjust="spacing" textLength="1110" x="10" y="27.9951">System Sequence Diagram (SSD) - Registration of New Account - Missing at least one of the required fields (Email/ Username/ Password)</text><rect fill="#FFFFFF" height="166.7969" style="stroke:#181818;stroke-width:1.0;" width="10" x="264.25" y="128.5938"/><rect fill="#FFFFFF" height="29.1328" style="stroke:#181818;stroke-width:1.0;" width="10" x="841.25" y="149.7266"/><rect fill="#FFFFFF" height="29.1328" style="stroke:#181818;stroke-width:1.0;" width="10" x="841.25" y="207.9922"/><rect fill="#FFFFFF" height="29.1328" style="stroke:#181818;stroke-width:1.0;" width="10" x="841.25" y="266.2578"/><line style="stroke:#181818;stroke-width:0.5;stroke-dasharray:5.0,5.0;" x1="268.75" x2="268.75" y1="118.5938" y2="313.3906"/><line style="stroke:#181818;stroke-width:0.5;stroke-dasharray:5.0,5.0;" x1="846.25" x2="846.25" y1="118.5938" y2="313.3906"/><text fill="#000000" font-family="sans-serif" font-size="14" lengthAdjust="spacing" textLength="31" x="250.75" y="115.292">User</text><ellipse cx="269.25" cy="50.7969" fill="#E3E3E3" rx="8" ry="8" style="stroke:#181818;stroke-width:0.5;"/><path d="M269.25,58.7969 L269.25,85.7969 M256.25,66.7969 L282.25,66.7969 M269.25,85.7969 L256.25,100.7969 M269.25,85.7969 L282.25,100.7969 " fill="none" style="stroke:#181818;stroke-width:0.5;"/><text fill="#000000" font-family="sans-serif" font-size="14" lengthAdjust="spacing" textLength="31" x="250.75" y="325.3857">User</text><ellipse cx="269.25" cy="337.1875" fill="#E3E3E3" rx="8" ry="8" style="stroke:#181818;stroke-width:0.5;"/><path d="M269.25,345.1875 L269.25,372.1875 M256.25,353.1875 L282.25,353.1875 M269.25,372.1875 L256.25,387.1875 M269.25,372.1875 L282.25,387.1875 " fill="none" style="stroke:#181818;stroke-width:0.5;"/><rect fill="#E3E3E3" height="30.2969" rx="2.5" ry="2.5" style="stroke:#181818;stroke-width:0.5;" width="68" x="812.25" y="87.2969"/><text fill="#000000" font-family="sans-serif" font-size="14" lengthAdjust="spacing" textLength="54" x="819.25" y="107.292">System</text><rect fill="#E3E3E3" height="30.2969" rx="2.5" ry="2.5" style="stroke:#181818;stroke-width:0.5;" width="68" x="812.25" y="312.3906"/><text fill="#000000" font-family="sans-serif" font-size="14" lengthAdjust="spacing" textLength="54" x="819.25" y="332.3857">System</text><rect fill="#FFFFFF" height="166.7969" style="stroke:#181818;stroke-width:1.0;" width="10" x="264.25" y="128.5938"/><rect fill="#FFFFFF" height="29.1328" style="stroke:#181818;stroke-width:1.0;" width="10" x="841.25" y="149.7266"/><rect fill="#FFFFFF" height="29.1328" style="stroke:#181818;stroke-width:1.0;" width="10" x="841.25" y="207.9922"/><rect fill="#FFFFFF" height="29.1328" style="stroke:#181818;stroke-width:1.0;" width="10" x="841.25" y="266.2578"/><polygon fill="#181818" points="829.25,145.7266,839.25,149.7266,829.25,153.7266,833.25,149.7266" style="stroke:#181818;stroke-width:1.0;"/><line style="stroke:#181818;stroke-width:1.0;" x1="274.25" x2="835.25" y1="149.7266" y2="149.7266"/><text fill="#000000" font-family="sans-serif" font-size="13" font-weight="bold" lengthAdjust="spacing" textLength="9" x="281.25" y="144.6606">1</text><text fill="#000000" font-family="sans-serif" font-size="13" lengthAdjust="spacing" textLength="185" x="294.25" y="144.6606">Access to the localhost:3000</text><polygon fill="#181818" points="285.25,174.8594,275.25,178.8594,285.25,182.8594,281.25,178.8594" style="stroke:#181818;stroke-width:1.0;"/><line style="stroke:#181818;stroke-width:1.0;stroke-dasharray:2.0,2.0;" x1="279.25" x2="845.25" y1="178.8594" y2="178.8594"/><text fill="#000000" font-family="sans-serif" font-size="13" font-weight="bold" lengthAdjust="spacing" textLength="9" x="291.25" y="173.7935">2</text><text fill="#000000" font-family="sans-serif" font-size="13" lengthAdjust="spacing" textLength="136" x="304.25" y="173.7935">Loads the homepage</text><polygon fill="#181818" points="829.25,203.9922,839.25,207.9922,829.25,211.9922,833.25,207.9922" style="stroke:#181818;stroke-width:1.0;"/><line style="stroke:#181818;stroke-width:1.0;" x1="274.25" x2="835.25" y1="207.9922" y2="207.9922"/><text fill="#000000" font-family="sans-serif" font-size="13" font-weight="bold" lengthAdjust="spacing" textLength="8" x="281.25" y="202.9263">3</text><text fill="#000000" font-family="sans-serif" font-size="13" lengthAdjust="spacing" textLength="157" x="293.25" y="202.9263">Click on the "Join" button</text><polygon fill="#181818" points="285.25,233.125,275.25,237.125,285.25,241.125,281.25,237.125" style="stroke:#181818;stroke-width:1.0;"/><line style="stroke:#181818;stroke-width:1.0;stroke-dasharray:2.0,2.0;" x1="279.25" x2="845.25" y1="237.125" y2="237.125"/><text fill="#000000" font-family="sans-serif" font-size="13" font-weight="bold" lengthAdjust="spacing" textLength="9" x="291.25" y="232.0591">4</text><text fill="#000000" font-family="sans-serif" font-size="13" lengthAdjust="spacing" textLength="337" x="304.25" y="232.0591">Loads the registration page (localhost:3000/register)</text><polygon fill="#181818" points="829.25,262.2578,839.25,266.2578,829.25,270.2578,833.25,266.2578" style="stroke:#181818;stroke-width:1.0;"/><line style="stroke:#181818;stroke-width:1.0;" x1="274.25" x2="835.25" y1="266.2578" y2="266.2578"/><text fill="#000000" font-family="sans-serif" font-size="13" font-weight="bold" lengthAdjust="spacing" textLength="9" x="281.25" y="261.1919">5</text><text fill="#000000" font-family="sans-serif" font-size="13" lengthAdjust="spacing" textLength="535" x="294.25" y="261.1919">Inserts a maximum of 2 out of 3 unique paramaters (Email / Username / Password)</text><polygon fill="#181818" points="280.25,291.3906,270.25,295.3906,280.25,299.3906,276.25,295.3906" style="stroke:#181818;stroke-width:1.0;"/><line style="stroke:#181818;stroke-width:1.0;" x1="274.25" x2="845.25" y1="295.3906" y2="295.3906"/><text fill="#000000" font-family="sans-serif" font-size="13" font-weight="bold" lengthAdjust="spacing" textLength="9" x="286.25" y="290.3247">6</text><text fill="#000000" font-family="sans-serif" font-size="13" lengthAdjust="spacing" textLength="375" x="299.25" y="290.3247">Throws a prompt Message pointing out the missing input/s</text><!--SRC=[bL9DJoCn3BtdLrXpQWzLAxZriD9guG02X9Zb1vYCEnCr7qFiKFZtE5CANR58S8ci-3tRptwyTN74Z052YiaEEGK2oOKClsT6j5ligPKNJv392iRU7mDum2xjNEnXWvx9676YqFQ5XGAqz5WeMe8pXts5pzhsR0uBkAFUiMGKboAa3TpG3dvRcqeKpLuxvbeI1JmX2wH85IL37UAnk4mTR1pvZc5s7j3v9TmpvOY1bd2BpBkKkxanM2J54XueQsmbPMWghW7aYM1KX3ZhHjI-pNxeARaF9v9xGg4zsjGN5hyEyjPrPc86ITDiFbdqGs9PdwvMgm_oeTeRRQ4Lfafhk4ge6YftqEsFkchJqIVUfxP_lBDRtSh4R2wJYmqy556nFskQZyzGkyFiNmtBFOBo_5jpNKJz4GQ4WCykb52lTWAfI0rEeKIdXe39Ebee7yu77_U3umD-AUPTor-rxQus7DM-ey2rdgFg67KdKZrKUrUfuSrJQjmYIpR_qNFqKwk_0W00]--></g></svg>