<?xml version="1.0" encoding="us-ascii" standalone="no"?><svg xmlns="http://www.w3.org/2000/svg" xmlns:xlink="http://www.w3.org/1999/xlink" contentStyleType="text/css" height="394px" preserveAspectRatio="none" style="width:1134px;height:394px;background:#FFFFFF;" version="1.1" viewBox="0 0 1134 394" width="1134px" zoomAndPan="magnify"><defs/><g><text fill="#000000" font-family="sans-serif" font-size="14" font-weight="bold" lengthAdjust="spacing" textLength="1106" x="10" y="27.9951">System Sequence Diagram (SSD) - Registration of New Account -  With parameters from an already existant account (Email / Username)</text><rect fill="#FFFFFF" height="166.7969" style="stroke:#181818;stroke-width:1.0;" width="10" x="303.25" y="128.5938"/><rect fill="#FFFFFF" height="29.1328" style="stroke:#181818;stroke-width:1.0;" width="10" x="798.25" y="149.7266"/><rect fill="#FFFFFF" height="29.1328" style="stroke:#181818;stroke-width:1.0;" width="10" x="798.25" y="207.9922"/><rect fill="#FFFFFF" height="29.1328" style="stroke:#181818;stroke-width:1.0;" width="10" x="798.25" y="266.2578"/><line style="stroke:#181818;stroke-width:0.5;stroke-dasharray:5.0,5.0;" x1="307.75" x2="307.75" y1="118.5938" y2="313.3906"/><line style="stroke:#181818;stroke-width:0.5;stroke-dasharray:5.0,5.0;" x1="803.25" x2="803.25" y1="118.5938" y2="313.3906"/><text fill="#000000" font-family="sans-serif" font-size="14" lengthAdjust="spacing" textLength="31" x="289.75" y="115.292">User</text><ellipse cx="308.25" cy="50.7969" fill="#E3E3E3" rx="8" ry="8" style="stroke:#181818;stroke-width:0.5;"/><path d="M308.25,58.7969 L308.25,85.7969 M295.25,66.7969 L321.25,66.7969 M308.25,85.7969 L295.25,100.7969 M308.25,85.7969 L321.25,100.7969 " fill="none" style="stroke:#181818;stroke-width:0.5;"/><text fill="#000000" font-family="sans-serif" font-size="14" lengthAdjust="spacing" textLength="31" x="289.75" y="325.3857">User</text><ellipse cx="308.25" cy="337.1875" fill="#E3E3E3" rx="8" ry="8" style="stroke:#181818;stroke-width:0.5;"/><path d="M308.25,345.1875 L308.25,372.1875 M295.25,353.1875 L321.25,353.1875 M308.25,372.1875 L295.25,387.1875 M308.25,372.1875 L321.25,387.1875 " fill="none" style="stroke:#181818;stroke-width:0.5;"/><rect fill="#E3E3E3" height="30.2969" rx="2.5" ry="2.5" style="stroke:#181818;stroke-width:0.5;" width="68" x="769.25" y="87.2969"/><text fill="#000000" font-family="sans-serif" font-size="14" lengthAdjust="spacing" textLength="54" x="776.25" y="107.292">System</text><rect fill="#E3E3E3" height="30.2969" rx="2.5" ry="2.5" style="stroke:#181818;stroke-width:0.5;" width="68" x="769.25" y="312.3906"/><text fill="#000000" font-family="sans-serif" font-size="14" lengthAdjust="spacing" textLength="54" x="776.25" y="332.3857">System</text><rect fill="#FFFFFF" height="166.7969" style="stroke:#181818;stroke-width:1.0;" width="10" x="303.25" y="128.5938"/><rect fill="#FFFFFF" height="29.1328" style="stroke:#181818;stroke-width:1.0;" width="10" x="798.25" y="149.7266"/><rect fill="#FFFFFF" height="29.1328" style="stroke:#181818;stroke-width:1.0;" width="10" x="798.25" y="207.9922"/><rect fill="#FFFFFF" height="29.1328" style="stroke:#181818;stroke-width:1.0;" width="10" x="798.25" y="266.2578"/><polygon fill="#181818" points="786.25,145.7266,796.25,149.7266,786.25,153.7266,790.25,149.7266" style="stroke:#181818;stroke-width:1.0;"/><line style="stroke:#181818;stroke-width:1.0;" x1="313.25" x2="792.25" y1="149.7266" y2="149.7266"/><text fill="#000000" font-family="sans-serif" font-size="13" font-weight="bold" lengthAdjust="spacing" textLength="9" x="320.25" y="144.6606">1</text><text fill="#000000" font-family="sans-serif" font-size="13" lengthAdjust="spacing" textLength="185" x="333.25" y="144.6606">Access to the localhost:3000</text><polygon fill="#181818" points="324.25,174.8594,314.25,178.8594,324.25,182.8594,320.25,178.8594" style="stroke:#181818;stroke-width:1.0;"/><line style="stroke:#181818;stroke-width:1.0;stroke-dasharray:2.0,2.0;" x1="318.25" x2="802.25" y1="178.8594" y2="178.8594"/><text fill="#000000" font-family="sans-serif" font-size="13" font-weight="bold" lengthAdjust="spacing" textLength="9" x="330.25" y="173.7935">2</text><text fill="#000000" font-family="sans-serif" font-size="13" lengthAdjust="spacing" textLength="136" x="343.25" y="173.7935">Loads the homepage</text><polygon fill="#181818" points="786.25,203.9922,796.25,207.9922,786.25,211.9922,790.25,207.9922" style="stroke:#181818;stroke-width:1.0;"/><line style="stroke:#181818;stroke-width:1.0;" x1="313.25" x2="792.25" y1="207.9922" y2="207.9922"/><text fill="#000000" font-family="sans-serif" font-size="13" font-weight="bold" lengthAdjust="spacing" textLength="8" x="320.25" y="202.9263">3</text><text fill="#000000" font-family="sans-serif" font-size="13" lengthAdjust="spacing" textLength="157" x="332.25" y="202.9263">Click on the "Join" button</text><polygon fill="#181818" points="324.25,233.125,314.25,237.125,324.25,241.125,320.25,237.125" style="stroke:#181818;stroke-width:1.0;"/><line style="stroke:#181818;stroke-width:1.0;stroke-dasharray:2.0,2.0;" x1="318.25" x2="802.25" y1="237.125" y2="237.125"/><text fill="#000000" font-family="sans-serif" font-size="13" font-weight="bold" lengthAdjust="spacing" textLength="9" x="330.25" y="232.0591">4</text><text fill="#000000" font-family="sans-serif" font-size="13" lengthAdjust="spacing" textLength="337" x="343.25" y="232.0591">Loads the registration page (localhost:3000/register)</text><polygon fill="#181818" points="786.25,262.2578,796.25,266.2578,786.25,270.2578,790.25,266.2578" style="stroke:#181818;stroke-width:1.0;"/><line style="stroke:#181818;stroke-width:1.0;" x1="313.25" x2="792.25" y1="266.2578" y2="266.2578"/><text fill="#000000" font-family="sans-serif" font-size="13" font-weight="bold" lengthAdjust="spacing" textLength="9" x="320.25" y="261.1919">5</text><text fill="#000000" font-family="sans-serif" font-size="13" lengthAdjust="spacing" textLength="453" x="333.25" y="261.1919">Inserts parameters from an account already in use (Email / Username)</text><polygon fill="#181818" points="319.25,291.3906,309.25,295.3906,319.25,299.3906,315.25,295.3906" style="stroke:#181818;stroke-width:1.0;"/><line style="stroke:#181818;stroke-width:1.0;" x1="313.25" x2="802.25" y1="295.3906" y2="295.3906"/><text fill="#000000" font-family="sans-serif" font-size="13" font-weight="bold" lengthAdjust="spacing" textLength="9" x="325.25" y="290.3247">6</text><text fill="#000000" font-family="sans-serif" font-size="13" lengthAdjust="spacing" textLength="333" x="338.25" y="290.3247">Throws a prompt message "Account already exists"</text><!--SRC=[bLAnRjim4Dtv5G-QxC68WMmU2WH9XnP5XYf5vWjzbWXBfCexnVNVzoZRYPEuGBeG1E-zU-_kKROX3fIfHvzYycrEFKFpo4vUAWFvBJLSwxvZPFPAiUdE0TBIEkr2RB2XJjWv3MhGUY_AFMh-FNBqZBj0JO7FwlfkZWL-SXD4Csb84Mc3UzxXnliqHhKg7eEsc0HOEGisvWqKGLrcMk_1VunDXgKZP_Qrfz3X2h-4SpJQt3aQDSMnV-9iTwyfeohL2YGJp9c01X-6qgWwE9wAX-j42i-aV42xScBnvJJRgXXc4MY2jemkUUhQ9BgwNYwNh-HJjoDjOHscJYlyIBIMYTlQwWVRirlp1zu7sTik-2riRuLPVKyXLdWQrORzFz5yda5Hn-pj35S71EVvftnzY_QYSZ6tOqod_4B4A7mfjNzEy3B0WttKdO0mMFD1qLi6nNnryqva-YHIkGlcprvArxy0]--></g></svg>