<?xml version="1.0" encoding="us-ascii" standalone="no"?><svg xmlns="http://www.w3.org/2000/svg" xmlns:xlink="http://www.w3.org/1999/xlink" contentStyleType="text/css" height="552px" preserveAspectRatio="none" style="width:2030px;height:552px;background:#FFFFFF;" version="1.1" viewBox="0 0 2030 552" width="2030px" zoomAndPan="magnify"><defs/><g><text fill="#000000" font-family="sans-serif" font-size="14" font-weight="bold" lengthAdjust="spacing" textLength="475" x="775.5" y="27.9951">US020 SD - Get Hour With the Most Posts Created In a Day</text><rect fill="#FFFFFF" height="304.3281" style="stroke:#181818;stroke-width:1.0;" width="10" x="463" y="149.7266"/><rect fill="#FFFFFF" height="275.1953" style="stroke:#181818;stroke-width:1.0;" width="10" x="761" y="178.8594"/><rect fill="#FFFFFF" height="203.9297" style="stroke:#181818;stroke-width:1.0;" width="10" x="1262" y="250.125"/><rect fill="#FFFFFF" height="87.3984" style="stroke:#181818;stroke-width:1.0;" width="10" x="1626" y="279.2578"/><rect fill="#FFFFFF" height="29.1328" style="stroke:#181818;stroke-width:1.0;" width="10" x="1990" y="308.3906"/><line style="stroke:#181818;stroke-width:0.5;stroke-dasharray:5.0,5.0;" x1="27" x2="27" y1="118.5938" y2="472.0547"/><line style="stroke:#181818;stroke-width:0.5;stroke-dasharray:5.0,5.0;" x1="468" x2="468" y1="118.5938" y2="472.0547"/><line style="stroke:#181818;stroke-width:0.5;stroke-dasharray:5.0,5.0;" x1="765.5" x2="765.5" y1="118.5938" y2="472.0547"/><line style="stroke:#181818;stroke-width:0.5;stroke-dasharray:5.0,5.0;" x1="1266.5" x2="1266.5" y1="118.5938" y2="472.0547"/><line style="stroke:#181818;stroke-width:0.5;stroke-dasharray:5.0,5.0;" x1="1630.5" x2="1630.5" y1="118.5938" y2="472.0547"/><line style="stroke:#181818;stroke-width:0.5;stroke-dasharray:5.0,5.0;" x1="1995" x2="1995" y1="118.5938" y2="472.0547"/><text fill="#000000" font-family="sans-serif" font-size="14" lengthAdjust="spacing" textLength="38" x="5" y="115.292">Users</text><ellipse cx="27" cy="50.7969" fill="#E2E2F0" rx="8" ry="8" style="stroke:#181818;stroke-width:0.5;"/><path d="M27,58.7969 L27,85.7969 M14,66.7969 L40,66.7969 M27,85.7969 L14,100.7969 M27,85.7969 L40,100.7969 " fill="none" style="stroke:#181818;stroke-width:0.5;"/><text fill="#000000" font-family="sans-serif" font-size="14" lengthAdjust="spacing" textLength="38" x="5" y="484.0498">Users</text><ellipse cx="27" cy="495.8516" fill="#E2E2F0" rx="8" ry="8" style="stroke:#181818;stroke-width:0.5;"/><path d="M27,503.8516 L27,530.8516 M14,511.8516 L40,511.8516 M27,530.8516 L14,545.8516 M27,530.8516 L40,545.8516 " fill="none" style="stroke:#181818;stroke-width:0.5;"/><rect fill="#E2E2F0" height="30.2969" rx="2.5" ry="2.5" style="stroke:#181818;stroke-width:0.5;" width="64" x="436" y="87.2969"/><text fill="#000000" font-family="sans-serif" font-size="14" lengthAdjust="spacing" textLength="50" x="443" y="107.292">Routes</text><rect fill="#E2E2F0" height="30.2969" rx="2.5" ry="2.5" style="stroke:#181818;stroke-width:0.5;" width="64" x="436" y="471.0547"/><text fill="#000000" font-family="sans-serif" font-size="14" lengthAdjust="spacing" textLength="50" x="443" y="491.0498">Routes</text><rect fill="#E2E2F0" height="30.2969" rx="2.5" ry="2.5" style="stroke:#181818;stroke-width:0.5;" width="505" x="513.5" y="87.2969"/><text fill="#000000" font-family="sans-serif" font-size="14" lengthAdjust="spacing" textLength="491" x="520.5" y="107.292">GetHourWithMostPostsController: GetHourWithMostPostsController</text><rect fill="#E2E2F0" height="30.2969" rx="2.5" ry="2.5" style="stroke:#181818;stroke-width:0.5;" width="505" x="513.5" y="471.0547"/><text fill="#000000" font-family="sans-serif" font-size="14" lengthAdjust="spacing" textLength="491" x="520.5" y="491.0498">GetHourWithMostPostsController: GetHourWithMostPostsController</text><rect fill="#E2E2F0" height="30.2969" rx="2.5" ry="2.5" style="stroke:#181818;stroke-width:0.5;" width="477" x="1028.5" y="87.2969"/><text fill="#000000" font-family="sans-serif" font-size="14" lengthAdjust="spacing" textLength="463" x="1035.5" y="107.292">GetHourWithMostPostsUseCase: GetHourWithMostPostsUseCase</text><rect fill="#E2E2F0" height="30.2969" rx="2.5" ry="2.5" style="stroke:#181818;stroke-width:0.5;" width="477" x="1028.5" y="471.0547"/><text fill="#000000" font-family="sans-serif" font-size="14" lengthAdjust="spacing" textLength="463" x="1035.5" y="491.0498">GetHourWithMostPostsUseCase: GetHourWithMostPostsUseCase</text><rect fill="#E2E2F0" height="30.2969" rx="2.5" ry="2.5" style="stroke:#181818;stroke-width:0.5;" width="163" x="1549.5" y="87.2969"/><text fill="#000000" font-family="sans-serif" font-size="14" lengthAdjust="spacing" textLength="149" x="1556.5" y="107.292">PostRepo: PostRepo</text><rect fill="#E2E2F0" height="30.2969" rx="2.5" ry="2.5" style="stroke:#181818;stroke-width:0.5;" width="163" x="1549.5" y="471.0547"/><text fill="#000000" font-family="sans-serif" font-size="14" lengthAdjust="spacing" textLength="149" x="1556.5" y="491.0498">PostRepo: PostRepo</text><text fill="#000000" font-family="sans-serif" font-size="14" lengthAdjust="spacing" textLength="48" x="1968" y="115.292">MySQL</text><path d="M1977,66.2969 C1977,56.2969 1995,56.2969 1995,56.2969 C1995,56.2969 2013,56.2969 2013,66.2969 L2013,92.2969 C2013,102.2969 1995,102.2969 1995,102.2969 C1995,102.2969 1977,102.2969 1977,92.2969 L1977,66.2969 " fill="#E2E2F0" style="stroke:#181818;stroke-width:1.5;"/><path d="M1977,66.2969 C1977,76.2969 1995,76.2969 1995,76.2969 C1995,76.2969 2013,76.2969 2013,66.2969 " fill="none" style="stroke:#181818;stroke-width:1.5;"/><text fill="#000000" font-family="sans-serif" font-size="14" lengthAdjust="spacing" textLength="48" x="1968" y="484.0498">MySQL</text><path d="M1977,497.3516 C1977,487.3516 1995,487.3516 1995,487.3516 C1995,487.3516 2013,487.3516 2013,497.3516 L2013,523.3516 C2013,533.3516 1995,533.3516 1995,533.3516 C1995,533.3516 1977,533.3516 1977,523.3516 L1977,497.3516 " fill="#E2E2F0" style="stroke:#181818;stroke-width:1.5;"/><path d="M1977,497.3516 C1977,507.3516 1995,507.3516 1995,507.3516 C1995,507.3516 2013,507.3516 2013,497.3516 " fill="none" style="stroke:#181818;stroke-width:1.5;"/><rect fill="#FFFFFF" height="304.3281" style="stroke:#181818;stroke-width:1.0;" width="10" x="463" y="149.7266"/><rect fill="#FFFFFF" height="275.1953" style="stroke:#181818;stroke-width:1.0;" width="10" x="761" y="178.8594"/><rect fill="#FFFFFF" height="203.9297" style="stroke:#181818;stroke-width:1.0;" width="10" x="1262" y="250.125"/><rect fill="#FFFFFF" height="87.3984" style="stroke:#181818;stroke-width:1.0;" width="10" x="1626" y="279.2578"/><rect fill="#FFFFFF" height="29.1328" style="stroke:#181818;stroke-width:1.0;" width="10" x="1990" y="308.3906"/><polygon fill="#181818" points="451,145.7266,461,149.7266,451,153.7266,455,149.7266" style="stroke:#181818;stroke-width:1.0;"/><line style="stroke:#181818;stroke-width:1.0;" x1="27" x2="457" y1="149.7266" y2="149.7266"/><text fill="#000000" font-family="sans-serif" font-size="13" lengthAdjust="spacing" textLength="417" x="34" y="144.6606">1. Call Endpoint (method: Get, route: "/", header: "Authorization")</text><polygon fill="#181818" points="749,174.8594,759,178.8594,749,182.8594,753,178.8594" style="stroke:#181818;stroke-width:1.0;"/><line style="stroke:#181818;stroke-width:1.0;" x1="473" x2="755" y1="178.8594" y2="178.8594"/><text fill="#000000" font-family="sans-serif" font-size="13" lengthAdjust="spacing" textLength="131" x="480" y="173.7935">2. .execute(req, res)</text><line style="stroke:#181818;stroke-width:1.0;" x1="771" x2="813" y1="207.9922" y2="207.9922"/><line style="stroke:#181818;stroke-width:1.0;" x1="813" x2="813" y1="207.9922" y2="220.9922"/><line style="stroke:#181818;stroke-width:1.0;" x1="772" x2="813" y1="220.9922" y2="220.9922"/><polygon fill="#181818" points="782,216.9922,772,220.9922,782,224.9922,778,220.9922" style="stroke:#181818;stroke-width:1.0;"/><text fill="#000000" font-family="sans-serif" font-size="13" lengthAdjust="spacing" textLength="455" x="778" y="202.9263">3. .executeImpl(req: DecodedExpressRequest, res: express.Response)</text><polygon fill="#181818" points="1250,246.125,1260,250.125,1250,254.125,1254,250.125" style="stroke:#181818;stroke-width:1.0;"/><line style="stroke:#181818;stroke-width:1.0;" x1="771" x2="1256" y1="250.125" y2="250.125"/><text fill="#000000" font-family="sans-serif" font-size="13" lengthAdjust="spacing" textLength="103" x="778" y="245.0591">4. .execute(dto)</text><polygon fill="#181818" points="1614,275.2578,1624,279.2578,1614,283.2578,1618,279.2578" style="stroke:#181818;stroke-width:1.0;"/><line style="stroke:#181818;stroke-width:1.0;" x1="1272" x2="1620" y1="279.2578" y2="279.2578"/><text fill="#000000" font-family="sans-serif" font-size="13" lengthAdjust="spacing" textLength="335" x="1279" y="274.1919">5. .getHourWithMostPostsCreatedInaDay(day: Date)</text><polygon fill="#181818" points="1978,304.3906,1988,308.3906,1978,312.3906,1982,308.3906" style="stroke:#181818;stroke-width:1.0;"/><line style="stroke:#181818;stroke-width:1.0;" x1="1636" x2="1984" y1="308.3906" y2="308.3906"/><text fill="#000000" font-family="sans-serif" font-size="13" lengthAdjust="spacing" textLength="335" x="1643" y="303.3247">6. .getHourWithMostPostsCreatedInaDay(day: Date)</text><polygon fill="#181818" points="1647,333.5234,1637,337.5234,1647,341.5234,1643,337.5234" style="stroke:#181818;stroke-width:1.0;"/><line style="stroke:#181818;stroke-width:1.0;stroke-dasharray:2.0,2.0;" x1="1641" x2="1994" y1="337.5234" y2="337.5234"/><text fill="#000000" font-family="sans-serif" font-size="13" lengthAdjust="spacing" textLength="199" x="1653" y="332.4575">7. hourWithMostPosts(number)</text><polygon fill="#181818" points="1283,362.6563,1273,366.6563,1283,370.6563,1279,366.6563" style="stroke:#181818;stroke-width:1.0;"/><line style="stroke:#181818;stroke-width:1.0;stroke-dasharray:2.0,2.0;" x1="1277" x2="1630" y1="366.6563" y2="366.6563"/><text fill="#000000" font-family="sans-serif" font-size="13" lengthAdjust="spacing" textLength="199" x="1289" y="361.5903">7. hourWithMostPosts(number)</text><polygon fill="#181818" points="782,391.7891,772,395.7891,782,399.7891,778,395.7891" style="stroke:#181818;stroke-width:1.0;"/><line style="stroke:#181818;stroke-width:1.0;stroke-dasharray:2.0,2.0;" x1="776" x2="1261" y1="395.7891" y2="395.7891"/><text fill="#000000" font-family="sans-serif" font-size="13" lengthAdjust="spacing" textLength="199" x="788" y="390.7231">8. hourWithMostPosts(number)</text><polygon fill="#181818" points="484,420.9219,474,424.9219,484,428.9219,480,424.9219" style="stroke:#181818;stroke-width:1.0;"/><line style="stroke:#181818;stroke-width:1.0;stroke-dasharray:2.0,2.0;" x1="478" x2="760" y1="424.9219" y2="424.9219"/><text fill="#000000" font-family="sans-serif" font-size="13" lengthAdjust="spacing" textLength="264" x="490" y="419.856">9. res.send(hourWithMostPosts(number))</text><polygon fill="#181818" points="38,450.0547,28,454.0547,38,458.0547,34,454.0547" style="stroke:#181818;stroke-width:1.0;"/><line style="stroke:#181818;stroke-width:1.0;stroke-dasharray:2.0,2.0;" x1="32" x2="467" y1="454.0547" y2="454.0547"/><text fill="#000000" font-family="sans-serif" font-size="13" lengthAdjust="spacing" textLength="87" x="44" y="448.9888">10. Response</text><!--SRC=[dLFBJiCm4BpxArOvfH8DvGqv8A6sWaeWGIl4sTGh4YcrKtk3A5-FdTPDoYEkk2IsTpqptfsbd0g4vzdWU02p4VJX5WdkLANX9QSCA4DuK8RWqNuC33LoGW4J2Hn6VCKOdvFIy6nG6rPoJVayBxaacAgASFSeij0EsG4xp1fog2HfLHIeK-YEHy1D82LCPuKEkS7VkJR1FuasyLqM5vbYgLBmg_g-tp31YR_QM_2mcZtTkz1eSy9ONJReNs-gbS9H0aDU532MebIvXOyNI9aIjTu3q2ujXUWmEe0CkN15Ysugcw7pJqwvab7FTIH_jrtoBM3hlwC9DU0uWGG_S6xpOurBIuYc1HWeFkkExoFWf14mMPI54v722ETAe1X_b5QEcUAoGaErjXHmVPXCqPHA6kpzKyJM5wUj4WXIWTTxHx2EeADiJ79cyTz-axYUh8daTgnYmLUfymcs-BUEOdxbaBsPKZZ_D_BMa7u1_HtD5mbatr5ZMIrUKVUOm9yuZS1GkVU5RXxVMUazB7RPnHXqJsjMhn9dmSIW5F6VYBrc_EpLUjxjb0yIy8PbxLS61YoGwStOIbjpVm40]--></g></svg>