<?xml version="1.0" encoding="us-ascii" standalone="no"?><svg xmlns="http://www.w3.org/2000/svg" xmlns:xlink="http://www.w3.org/1999/xlink" contentStyleType="text/css" height="611px" preserveAspectRatio="none" style="width:2946px;height:611px;background:#FFFFFF;" version="1.1" viewBox="0 0 2946 611" width="2946px" zoomAndPan="magnify"><defs/><g><text fill="#000000" font-family="sans-serif" font-size="14" font-weight="bold" lengthAdjust="spacing" textLength="605" x="1168.5" y="27.9951">US013 SD - get Usernames Without Posts And Comments (helper function)</text><rect fill="#FFFFFF" height="362.5938" style="stroke:#181818;stroke-width:1.0;" width="10" x="733" y="149.7266"/><rect fill="#FFFFFF" height="304.3281" style="stroke:#181818;stroke-width:1.0;" width="10" x="1175.5" y="178.8594"/><rect fill="#FFFFFF" height="203.9297" style="stroke:#181818;stroke-width:1.0;" width="10" x="1814" y="250.125"/><rect fill="#FFFFFF" height="145.6641" style="stroke:#181818;stroke-width:1.0;" width="10" x="2204" y="279.2578"/><rect fill="#FFFFFF" height="87.3984" style="stroke:#181818;stroke-width:1.0;" width="10" x="2589" y="308.3906"/><rect fill="#FFFFFF" height="29.1328" style="stroke:#181818;stroke-width:1.0;" width="10" x="2906" y="337.5234"/><line style="stroke:#181818;stroke-width:0.5;stroke-dasharray:5.0,5.0;" x1="27" x2="27" y1="118.5938" y2="530.3203"/><line style="stroke:#181818;stroke-width:0.5;stroke-dasharray:5.0,5.0;" x1="738" x2="738" y1="118.5938" y2="530.3203"/><line style="stroke:#181818;stroke-width:0.5;stroke-dasharray:5.0,5.0;" x1="1180" x2="1180" y1="118.5938" y2="530.3203"/><line style="stroke:#181818;stroke-width:0.5;stroke-dasharray:5.0,5.0;" x1="1819" x2="1819" y1="118.5938" y2="530.3203"/><line style="stroke:#181818;stroke-width:0.5;stroke-dasharray:5.0,5.0;" x1="2209" x2="2209" y1="118.5938" y2="530.3203"/><line style="stroke:#181818;stroke-width:0.5;stroke-dasharray:5.0,5.0;" x1="2593.5" x2="2593.5" y1="118.5938" y2="530.3203"/><line style="stroke:#181818;stroke-width:0.5;stroke-dasharray:5.0,5.0;" x1="2911" x2="2911" y1="118.5938" y2="530.3203"/><text fill="#000000" font-family="sans-serif" font-size="14" lengthAdjust="spacing" textLength="38" x="5" y="115.292">Users</text><ellipse cx="27" cy="50.7969" fill="#E2E2F0" rx="8" ry="8" style="stroke:#181818;stroke-width:0.5;"/><path d="M27,58.7969 L27,85.7969 M14,66.7969 L40,66.7969 M27,85.7969 L14,100.7969 M27,85.7969 L40,100.7969 " fill="none" style="stroke:#181818;stroke-width:0.5;"/><text fill="#000000" font-family="sans-serif" font-size="14" lengthAdjust="spacing" textLength="38" x="5" y="542.3154">Users</text><ellipse cx="27" cy="554.1172" fill="#E2E2F0" rx="8" ry="8" style="stroke:#181818;stroke-width:0.5;"/><path d="M27,562.1172 L27,589.1172 M14,570.1172 L40,570.1172 M27,589.1172 L14,604.1172 M27,589.1172 L40,604.1172 " fill="none" style="stroke:#181818;stroke-width:0.5;"/><rect fill="#E2E2F0" height="30.2969" rx="2.5" ry="2.5" style="stroke:#181818;stroke-width:0.5;" width="64" x="706" y="87.2969"/><text fill="#000000" font-family="sans-serif" font-size="14" lengthAdjust="spacing" textLength="50" x="713" y="107.292">Routes</text><rect fill="#E2E2F0" height="30.2969" rx="2.5" ry="2.5" style="stroke:#181818;stroke-width:0.5;" width="64" x="706" y="529.3203"/><text fill="#000000" font-family="sans-serif" font-size="14" lengthAdjust="spacing" textLength="50" x="713" y="549.3154">Routes</text><rect fill="#E2E2F0" height="30.2969" rx="2.5" ry="2.5" style="stroke:#181818;stroke-width:0.5;" width="801" x="780" y="87.2969"/><text fill="#000000" font-family="sans-serif" font-size="14" lengthAdjust="spacing" textLength="787" x="787" y="107.292">getUsernamesWhithoutPostsAndCommentsController: getUsernamesWhithoutPostsAndCommentsController</text><rect fill="#E2E2F0" height="30.2969" rx="2.5" ry="2.5" style="stroke:#181818;stroke-width:0.5;" width="801" x="780" y="529.3203"/><text fill="#000000" font-family="sans-serif" font-size="14" lengthAdjust="spacing" textLength="787" x="787" y="549.3154">getUsernamesWhithoutPostsAndCommentsController: getUsernamesWhithoutPostsAndCommentsController</text><rect fill="#E2E2F0" height="30.2969" rx="2.5" ry="2.5" style="stroke:#181818;stroke-width:0.5;" width="456" x="1591" y="87.2969"/><text fill="#000000" font-family="sans-serif" font-size="14" lengthAdjust="spacing" textLength="442" x="1598" y="107.292">useCase: getUsernamesWhithoutPostsAndCommentsUseCase</text><rect fill="#E2E2F0" height="30.2969" rx="2.5" ry="2.5" style="stroke:#181818;stroke-width:0.5;" width="456" x="1591" y="529.3203"/><text fill="#000000" font-family="sans-serif" font-size="14" lengthAdjust="spacing" textLength="442" x="1598" y="549.3154">useCase: getUsernamesWhithoutPostsAndCommentsUseCase</text><rect fill="#E2E2F0" height="30.2969" rx="2.5" ry="2.5" style="stroke:#181818;stroke-width:0.5;" width="168" x="2125" y="87.2969"/><text fill="#000000" font-family="sans-serif" font-size="14" lengthAdjust="spacing" textLength="154" x="2132" y="107.292">postRepo: IPostRepo</text><rect fill="#E2E2F0" height="30.2969" rx="2.5" ry="2.5" style="stroke:#181818;stroke-width:0.5;" width="168" x="2125" y="529.3203"/><text fill="#000000" font-family="sans-serif" font-size="14" lengthAdjust="spacing" textLength="154" x="2132" y="549.3154">postRepo: IPostRepo</text><rect fill="#E2E2F0" height="30.2969" rx="2.5" ry="2.5" style="stroke:#181818;stroke-width:0.5;" width="87" x="2550.5" y="87.2969"/><text fill="#000000" font-family="sans-serif" font-size="14" lengthAdjust="spacing" textLength="73" x="2557.5" y="107.292">Post: Post</text><rect fill="#E2E2F0" height="30.2969" rx="2.5" ry="2.5" style="stroke:#181818;stroke-width:0.5;" width="87" x="2550.5" y="529.3203"/><text fill="#000000" font-family="sans-serif" font-size="14" lengthAdjust="spacing" textLength="73" x="2557.5" y="549.3154">Post: Post</text><text fill="#000000" font-family="sans-serif" font-size="14" lengthAdjust="spacing" textLength="48" x="2884" y="115.292">MySQL</text><path d="M2893,66.2969 C2893,56.2969 2911,56.2969 2911,56.2969 C2911,56.2969 2929,56.2969 2929,66.2969 L2929,92.2969 C2929,102.2969 2911,102.2969 2911,102.2969 C2911,102.2969 2893,102.2969 2893,92.2969 L2893,66.2969 " fill="#E2E2F0" style="stroke:#181818;stroke-width:1.5;"/><path d="M2893,66.2969 C2893,76.2969 2911,76.2969 2911,76.2969 C2911,76.2969 2929,76.2969 2929,66.2969 " fill="none" style="stroke:#181818;stroke-width:1.5;"/><text fill="#000000" font-family="sans-serif" font-size="14" lengthAdjust="spacing" textLength="48" x="2884" y="542.3154">MySQL</text><path d="M2893,555.6172 C2893,545.6172 2911,545.6172 2911,545.6172 C2911,545.6172 2929,545.6172 2929,555.6172 L2929,581.6172 C2929,591.6172 2911,591.6172 2911,591.6172 C2911,591.6172 2893,591.6172 2893,581.6172 L2893,555.6172 " fill="#E2E2F0" style="stroke:#181818;stroke-width:1.5;"/><path d="M2893,555.6172 C2893,565.6172 2911,565.6172 2911,565.6172 C2911,565.6172 2929,565.6172 2929,555.6172 " fill="none" style="stroke:#181818;stroke-width:1.5;"/><rect fill="#FFFFFF" height="362.5938" style="stroke:#181818;stroke-width:1.0;" width="10" x="733" y="149.7266"/><rect fill="#FFFFFF" height="304.3281" style="stroke:#181818;stroke-width:1.0;" width="10" x="1175.5" y="178.8594"/><rect fill="#FFFFFF" height="203.9297" style="stroke:#181818;stroke-width:1.0;" width="10" x="1814" y="250.125"/><rect fill="#FFFFFF" height="145.6641" style="stroke:#181818;stroke-width:1.0;" width="10" x="2204" y="279.2578"/><rect fill="#FFFFFF" height="87.3984" style="stroke:#181818;stroke-width:1.0;" width="10" x="2589" y="308.3906"/><rect fill="#FFFFFF" height="29.1328" style="stroke:#181818;stroke-width:1.0;" width="10" x="2906" y="337.5234"/><polygon fill="#181818" points="721,145.7266,731,149.7266,721,153.7266,725,149.7266" style="stroke:#181818;stroke-width:1.0;"/><line style="stroke:#181818;stroke-width:1.0;" x1="27" x2="727" y1="149.7266" y2="149.7266"/><text fill="#000000" font-family="sans-serif" font-size="13" lengthAdjust="spacing" textLength="687" x="34" y="144.6606">call Endpoint (method: Post, route: "/getUsernamesWhithoutPostsAndComments", header: "Authorization")</text><polygon fill="#181818" points="1163.5,174.8594,1173.5,178.8594,1163.5,182.8594,1167.5,178.8594" style="stroke:#181818;stroke-width:1.0;"/><line style="stroke:#181818;stroke-width:1.0;" x1="743" x2="1169.5" y1="178.8594" y2="178.8594"/><text fill="#000000" font-family="sans-serif" font-size="13" lengthAdjust="spacing" textLength="115" x="750" y="173.7935">.execute(req, res)</text><line style="stroke:#181818;stroke-width:1.0;" x1="1185.5" x2="1227.5" y1="207.9922" y2="207.9922"/><line style="stroke:#181818;stroke-width:1.0;" x1="1227.5" x2="1227.5" y1="207.9922" y2="220.9922"/><line style="stroke:#181818;stroke-width:1.0;" x1="1186.5" x2="1227.5" y1="220.9922" y2="220.9922"/><polygon fill="#181818" points="1196.5,216.9922,1186.5,220.9922,1196.5,224.9922,1192.5,220.9922" style="stroke:#181818;stroke-width:1.0;"/><text fill="#000000" font-family="sans-serif" font-size="13" lengthAdjust="spacing" textLength="439" x="1192.5" y="202.9263">.executeImpl(req: DecodedExpressRequest, res: express.Response)</text><polygon fill="#181818" points="1802,246.125,1812,250.125,1802,254.125,1806,250.125" style="stroke:#181818;stroke-width:1.0;"/><line style="stroke:#181818;stroke-width:1.0;" x1="1185.5" x2="1808" y1="250.125" y2="250.125"/><text fill="#000000" font-family="sans-serif" font-size="13" lengthAdjust="spacing" textLength="87" x="1192.5" y="245.0591">.execute(dto)</text><polygon fill="#181818" points="2192,275.2578,2202,279.2578,2192,283.2578,2196,279.2578" style="stroke:#181818;stroke-width:1.0;"/><line style="stroke:#181818;stroke-width:1.0;" x1="1824" x2="2198" y1="279.2578" y2="279.2578"/><text fill="#000000" font-family="sans-serif" font-size="13" lengthAdjust="spacing" textLength="356" x="1831" y="274.1919">.getUsernamesWhithoutPostsAndComments() : string[]</text><polygon fill="#181818" points="2577,304.3906,2587,308.3906,2577,312.3906,2581,308.3906" style="stroke:#181818;stroke-width:1.0;"/><line style="stroke:#181818;stroke-width:1.0;" x1="2214" x2="2583" y1="308.3906" y2="308.3906"/><text fill="#000000" font-family="sans-serif" font-size="13" lengthAdjust="spacing" textLength="356" x="2221" y="303.3247">.getUsernamesWhithoutPostsAndComments() : string[]</text><polygon fill="#181818" points="2894,333.5234,2904,337.5234,2894,341.5234,2898,337.5234" style="stroke:#181818;stroke-width:1.0;"/><line style="stroke:#181818;stroke-width:1.0;" x1="2599" x2="2900" y1="337.5234" y2="337.5234"/><text fill="#000000" font-family="sans-serif" font-size="13" lengthAdjust="spacing" textLength="88" x="2606" y="332.4575">.post(string[])</text><polygon fill="#181818" points="2610,362.6563,2600,366.6563,2610,370.6563,2606,366.6563" style="stroke:#181818;stroke-width:1.0;"/><line style="stroke:#181818;stroke-width:1.0;stroke-dasharray:2.0,2.0;" x1="2604" x2="2910" y1="366.6563" y2="366.6563"/><text fill="#000000" font-family="sans-serif" font-size="13" lengthAdjust="spacing" textLength="283" x="2616" y="361.5903">getUsernamesWhithoutPostsAndComments</text><polygon fill="#181818" points="2225,391.7891,2215,395.7891,2225,399.7891,2221,395.7891" style="stroke:#181818;stroke-width:1.0;"/><line style="stroke:#181818;stroke-width:1.0;stroke-dasharray:2.0,2.0;" x1="2219" x2="2593" y1="395.7891" y2="395.7891"/><text fill="#000000" font-family="sans-serif" font-size="13" lengthAdjust="spacing" textLength="342" x="2231" y="390.7231">getUsernamesWhithoutPostsAndComments : string[]</text><polygon fill="#181818" points="1835,420.9219,1825,424.9219,1835,428.9219,1831,424.9219" style="stroke:#181818;stroke-width:1.0;"/><line style="stroke:#181818;stroke-width:1.0;stroke-dasharray:2.0,2.0;" x1="1829" x2="2208" y1="424.9219" y2="424.9219"/><text fill="#000000" font-family="sans-serif" font-size="13" lengthAdjust="spacing" textLength="356" x="1841" y="419.856">.getUsernamesWhithoutPostsAndComments() : string[]</text><polygon fill="#181818" points="1196.5,450.0547,1186.5,454.0547,1196.5,458.0547,1192.5,454.0547" style="stroke:#181818;stroke-width:1.0;"/><line style="stroke:#181818;stroke-width:1.0;stroke-dasharray:2.0,2.0;" x1="1190.5" x2="1818" y1="454.0547" y2="454.0547"/><text fill="#000000" font-family="sans-serif" font-size="13" lengthAdjust="spacing" textLength="111" x="1202.5" y="448.9888">list of usernames</text><polygon fill="#181818" points="754,479.1875,744,483.1875,754,487.1875,750,483.1875" style="stroke:#181818;stroke-width:1.0;"/><line style="stroke:#181818;stroke-width:1.0;stroke-dasharray:2.0,2.0;" x1="748" x2="1179.5" y1="483.1875" y2="483.1875"/><text fill="#000000" font-family="sans-serif" font-size="13" lengthAdjust="spacing" textLength="111" x="760" y="478.1216">list of usernames</text><polygon fill="#181818" points="38,508.3203,28,512.3203,38,516.3203,34,512.3203" style="stroke:#181818;stroke-width:1.0;"/><line style="stroke:#181818;stroke-width:1.0;stroke-dasharray:2.0,2.0;" x1="32" x2="737" y1="512.3203" y2="512.3203"/><text fill="#000000" font-family="sans-serif" font-size="13" lengthAdjust="spacing" textLength="111" x="44" y="507.2544">list of usernames</text><!--SRC=[jLHDJ-Cm4BtxLunoIYKAhBZbi18g7910WbOL1yJ16m_KKc8Rsra1lnv_rAaZhRJnThcqpkZDUy_pOSjjXx3TdF-uWCqLBE4LBMmDQa5xDF38xKuE5kwbiGOk1OELx7iKxgFUOQTGmyiWMikbM112Mojro3P4KMrvonKL5jQE0gUXokcCCe-xA1DKd4ZIM4bXjUmwr0sKuIkWfZ1bQcymkA86v-bk8tYsw1u_LLGEj4Ob6xYvtny3uVWrXVje4_eIKFv06BNqboE6ku_DmwqFfmWXeIkm_BblHWCjxJgu5an9xlZg7frL5XbFG7jG0zNPdEjK9x13odoNgil1GJJ_f7uageKV2VwRMampGEA_Dr8w0QVuZgrBhZM-EOTeClR2LfCo_35kRthLUSSDN64h6RBhT-MycpM-3HXAxPk1CNYwHgEaCBZu9eVRDDPZCPcLXNLCqqiAmDxVECXEVKvglO06ZDLSl3uz7omUze6CHqyV5-8Ovh13nFzwlhGwZjElPftmMRKEspLktd9qCiS8OVW7ikXWMh4vRFcbCk9uhQnMnRDINjDCFkjNqS3ymyvrt1LEli2Gad8V_tsqy-tBtjMZJUJlL7ej7NzumFz27-5V]--></g></svg>