<?xml version="1.0" encoding="us-ascii" standalone="no"?><svg xmlns="http://www.w3.org/2000/svg" xmlns:xlink="http://www.w3.org/1999/xlink" contentStyleType="text/css" height="1033px" preserveAspectRatio="none" style="width:2524px;height:1033px;background:#FFFFFF;" version="1.1" viewBox="0 0 2524 1033" width="2524px" zoomAndPan="magnify"><defs/><g><text fill="#000000" font-family="sans-serif" font-size="14" font-weight="bold" lengthAdjust="spacing" textLength="304" x="1108" y="27.9951">SD - US005 - Create a Post with a link</text><rect fill="#FFFFFF" height="763.4531" style="stroke:#181818;stroke-width:1.0;" width="10" x="339" y="179.9922"/><rect fill="#ADD8E6" height="68.832" style="stroke:#181818;stroke-width:1.0;" width="10" x="344" y="219.6914"/><rect fill="#FFFFFF" height="39.6992" style="stroke:#181818;stroke-width:1.0;" width="10" x="541" y="219.6914"/><rect fill="#FFFFFF" height="616.7891" style="stroke:#181818;stroke-width:1.0;" width="10" x="809" y="288.5234"/><rect fill="#FFFFFF" height="516.3906" style="stroke:#181818;stroke-width:1.0;" width="10" x="1062.5" y="317.6563"/><rect fill="#FFFFFF" height="458.125" style="stroke:#181818;stroke-width:1.0;" width="10" x="1307.5" y="346.7891"/><rect fill="#ADD8E6" height="312.4609" style="stroke:#181818;stroke-width:1.0;" width="10" x="1312.5" y="375.9219"/><rect fill="#FFFFFF" height="29.1328" style="stroke:#181818;stroke-width:1.0;" width="10" x="1556.5" y="375.9219"/><rect fill="#FFFFFF" height="29.1328" style="stroke:#181818;stroke-width:1.0;" width="10" x="1738.5" y="434.1875"/><rect fill="#FFFFFF" height="29.1328" style="stroke:#181818;stroke-width:1.0;" width="10" x="1867.5" y="492.4531"/><rect fill="#FFFFFF" height="29.1328" style="stroke:#181818;stroke-width:1.0;" width="10" x="1992.5" y="550.7188"/><rect fill="#FFFFFF" height="39.6992" style="stroke:#181818;stroke-width:1.0;" width="10" x="2114.5" y="608.9844"/><rect fill="#FFFFFF" height="29.1328" style="stroke:#181818;stroke-width:1.0;" width="10" x="2225" y="688.3828"/><rect fill="#FFFFFF" height="29.1328" style="stroke:#181818;stroke-width:1.0;" width="10" x="2363" y="746.6484"/><line style="stroke:#181818;stroke-width:0.5;stroke-dasharray:5.0,5.0;" x1="43" x2="43" y1="118.5938" y2="952.4453"/><line style="stroke:#181818;stroke-width:0.5;stroke-dasharray:5.0,5.0;" x1="344" x2="344" y1="118.5938" y2="952.4453"/><line style="stroke:#181818;stroke-width:0.5;stroke-dasharray:5.0,5.0;" x1="545.5" x2="545.5" y1="118.5938" y2="952.4453"/><line style="stroke:#181818;stroke-width:0.5;stroke-dasharray:5.0,5.0;" x1="813.5" x2="813.5" y1="118.5938" y2="952.4453"/><line style="stroke:#181818;stroke-width:0.5;stroke-dasharray:5.0,5.0;" x1="1067.5" x2="1067.5" y1="118.5938" y2="952.4453"/><line style="stroke:#181818;stroke-width:0.5;stroke-dasharray:5.0,5.0;" x1="1312.5" x2="1312.5" y1="118.5938" y2="952.4453"/><line style="stroke:#181818;stroke-width:0.5;stroke-dasharray:5.0,5.0;" x1="1561" x2="1561" y1="118.5938" y2="952.4453"/><line style="stroke:#181818;stroke-width:0.5;stroke-dasharray:5.0,5.0;" x1="1743" x2="1743" y1="118.5938" y2="952.4453"/><line style="stroke:#181818;stroke-width:0.5;stroke-dasharray:5.0,5.0;" x1="1872" x2="1872" y1="118.5938" y2="952.4453"/><line style="stroke:#181818;stroke-width:0.5;stroke-dasharray:5.0,5.0;" x1="1997" x2="1997" y1="118.5938" y2="952.4453"/><line style="stroke:#181818;stroke-width:0.5;stroke-dasharray:5.0,5.0;" x1="2119" x2="2119" y1="118.5938" y2="952.4453"/><line style="stroke:#181818;stroke-width:0.5;stroke-dasharray:5.0,5.0;" x1="2230" x2="2230" y1="118.5938" y2="952.4453"/><line style="stroke:#181818;stroke-width:0.5;stroke-dasharray:5.0,5.0;" x1="2368" x2="2368" y1="118.5938" y2="952.4453"/><line style="stroke:#181818;stroke-width:0.5;stroke-dasharray:5.0,5.0;" x1="2489" x2="2489" y1="118.5938" y2="952.4453"/><text fill="#000000" font-family="sans-serif" font-size="14" lengthAdjust="spacing" textLength="70" x="5" y="115.292">user: User</text><ellipse cx="43" cy="50.7969" fill="#E2E2F0" rx="8" ry="8" style="stroke:#181818;stroke-width:0.5;"/><path d="M43,58.7969 L43,85.7969 M30,66.7969 L56,66.7969 M43,85.7969 L30,100.7969 M43,85.7969 L56,100.7969 " fill="none" style="stroke:#181818;stroke-width:0.5;"/><text fill="#000000" font-family="sans-serif" font-size="14" lengthAdjust="spacing" textLength="70" x="5" y="964.4404">user: User</text><ellipse cx="43" cy="976.2422" fill="#E2E2F0" rx="8" ry="8" style="stroke:#181818;stroke-width:0.5;"/><path d="M43,984.2422 L43,1011.2422 M30,992.2422 L56,992.2422 M43,1011.2422 L30,1026.2422 M43,1011.2422 L56,1026.2422 " fill="none" style="stroke:#181818;stroke-width:0.5;"/><rect fill="#E2E2F0" height="30.2969" rx="2.5" ry="2.5" style="stroke:#181818;stroke-width:0.5;" width="154" x="267" y="87.2969"/><text fill="#000000" font-family="sans-serif" font-size="14" lengthAdjust="spacing" textLength="140" x="274" y="107.292">postRouter: Router</text><rect fill="#E2E2F0" height="30.2969" rx="2.5" ry="2.5" style="stroke:#181818;stroke-width:0.5;" width="154" x="267" y="951.4453"/><text fill="#000000" font-family="sans-serif" font-size="14" lengthAdjust="spacing" textLength="140" x="274" y="971.4404">postRouter: Router</text><rect fill="#E2E2F0" height="30.2969" rx="2.5" ry="2.5" style="stroke:#181818;stroke-width:0.5;" width="187" x="452.5" y="87.2969"/><text fill="#000000" font-family="sans-serif" font-size="14" lengthAdjust="spacing" textLength="173" x="459.5" y="107.292">middleware: Middleware</text><rect fill="#E2E2F0" height="30.2969" rx="2.5" ry="2.5" style="stroke:#181818;stroke-width:0.5;" width="187" x="452.5" y="951.4453"/><text fill="#000000" font-family="sans-serif" font-size="14" lengthAdjust="spacing" textLength="173" x="459.5" y="971.4404">middleware: Middleware</text><rect fill="#E2E2F0" height="30.2969" rx="2.5" ry="2.5" style="stroke:#181818;stroke-width:0.5;" width="329" x="649.5" y="87.2969"/><text fill="#000000" font-family="sans-serif" font-size="14" lengthAdjust="spacing" textLength="315" x="656.5" y="107.292">createPostController: CreatePostController</text><rect fill="#E2E2F0" height="30.2969" rx="2.5" ry="2.5" style="stroke:#181818;stroke-width:0.5;" width="329" x="649.5" y="951.4453"/><text fill="#000000" font-family="sans-serif" font-size="14" lengthAdjust="spacing" textLength="315" x="656.5" y="971.4404">createPostController: CreatePostController</text><rect fill="#E2E2F0" height="30.2969" rx="2.5" ry="2.5" style="stroke:#181818;stroke-width:0.5;" width="158" x="988.5" y="87.2969"/><text fill="#000000" font-family="sans-serif" font-size="14" lengthAdjust="spacing" textLength="144" x="995.5" y="107.292">useCase:CreatePost</text><rect fill="#E2E2F0" height="30.2969" rx="2.5" ry="2.5" style="stroke:#181818;stroke-width:0.5;" width="158" x="988.5" y="951.4453"/><text fill="#000000" font-family="sans-serif" font-size="14" lengthAdjust="spacing" textLength="144" x="995.5" y="971.4404">useCase:CreatePost</text><rect fill="#E2E2F0" height="30.2969" rx="2.5" ry="2.5" style="stroke:#181818;stroke-width:0.5;" width="160" x="1232.5" y="87.2969"/><text fill="#000000" font-family="sans-serif" font-size="14" lengthAdjust="spacing" textLength="146" x="1239.5" y="107.292">dto: CreatePostDTO</text><rect fill="#E2E2F0" height="30.2969" rx="2.5" ry="2.5" style="stroke:#181818;stroke-width:0.5;" width="160" x="1232.5" y="951.4453"/><text fill="#000000" font-family="sans-serif" font-size="14" lengthAdjust="spacing" textLength="146" x="1239.5" y="971.4404">dto: CreatePostDTO</text><rect fill="#E2E2F0" height="30.2969" rx="2.5" ry="2.5" style="stroke:#181818;stroke-width:0.5;" width="225" x="1449" y="87.2969"/><text fill="#000000" font-family="sans-serif" font-size="14" lengthAdjust="spacing" textLength="211" x="1456" y="107.292">memberRepo: IMemberRepo</text><rect fill="#E2E2F0" height="30.2969" rx="2.5" ry="2.5" style="stroke:#181818;stroke-width:0.5;" width="225" x="1449" y="951.4453"/><text fill="#000000" font-family="sans-serif" font-size="14" lengthAdjust="spacing" textLength="211" x="1456" y="971.4404">memberRepo: IMemberRepo</text><rect fill="#E2E2F0" height="30.2969" rx="2.5" ry="2.5" style="stroke:#181818;stroke-width:0.5;" width="119" x="1684" y="87.2969"/><text fill="#000000" font-family="sans-serif" font-size="14" lengthAdjust="spacing" textLength="105" x="1691" y="107.292">title: PostTitle</text><rect fill="#E2E2F0" height="30.2969" rx="2.5" ry="2.5" style="stroke:#181818;stroke-width:0.5;" width="119" x="1684" y="951.4453"/><text fill="#000000" font-family="sans-serif" font-size="14" lengthAdjust="spacing" textLength="105" x="1691" y="971.4404">title: PostTitle</text><rect fill="#E2E2F0" height="30.2969" rx="2.5" ry="2.5" style="stroke:#181818;stroke-width:0.5;" width="119" x="1813" y="87.2969"/><text fill="#000000" font-family="sans-serif" font-size="14" lengthAdjust="spacing" textLength="105" x="1820" y="107.292">text: PostText</text><rect fill="#E2E2F0" height="30.2969" rx="2.5" ry="2.5" style="stroke:#181818;stroke-width:0.5;" width="119" x="1813" y="951.4453"/><text fill="#000000" font-family="sans-serif" font-size="14" lengthAdjust="spacing" textLength="105" x="1820" y="971.4404">text: PostText</text><rect fill="#E2E2F0" height="30.2969" rx="2.5" ry="2.5" style="stroke:#181818;stroke-width:0.5;" width="111" x="1942" y="87.2969"/><text fill="#000000" font-family="sans-serif" font-size="14" lengthAdjust="spacing" textLength="97" x="1949" y="107.292">link: PostLink</text><rect fill="#E2E2F0" height="30.2969" rx="2.5" ry="2.5" style="stroke:#181818;stroke-width:0.5;" width="111" x="1942" y="951.4453"/><text fill="#000000" font-family="sans-serif" font-size="14" lengthAdjust="spacing" textLength="97" x="1949" y="971.4404">link: PostLink</text><rect fill="#E2E2F0" height="30.2969" rx="2.5" ry="2.5" style="stroke:#181818;stroke-width:0.5;" width="113" x="2063" y="87.2969"/><text fill="#000000" font-family="sans-serif" font-size="14" lengthAdjust="spacing" textLength="99" x="2070" y="107.292">slug: PostSlug</text><rect fill="#E2E2F0" height="30.2969" rx="2.5" ry="2.5" style="stroke:#181818;stroke-width:0.5;" width="113" x="2063" y="951.4453"/><text fill="#000000" font-family="sans-serif" font-size="14" lengthAdjust="spacing" textLength="99" x="2070" y="971.4404">slug: PostSlug</text><rect fill="#E2E2F0" height="30.2969" rx="2.5" ry="2.5" style="stroke:#181818;stroke-width:0.5;" width="88" x="2186" y="87.2969"/><text fill="#000000" font-family="sans-serif" font-size="14" lengthAdjust="spacing" textLength="74" x="2193" y="107.292">post: Post</text><rect fill="#E2E2F0" height="30.2969" rx="2.5" ry="2.5" style="stroke:#181818;stroke-width:0.5;" width="88" x="2186" y="951.4453"/><text fill="#000000" font-family="sans-serif" font-size="14" lengthAdjust="spacing" textLength="74" x="2193" y="971.4404">post: Post</text><rect fill="#E2E2F0" height="30.2969" rx="2.5" ry="2.5" style="stroke:#181818;stroke-width:0.5;" width="168" x="2284" y="87.2969"/><text fill="#000000" font-family="sans-serif" font-size="14" lengthAdjust="spacing" textLength="154" x="2291" y="107.292">postRepo: IPostRepo</text><rect fill="#E2E2F0" height="30.2969" rx="2.5" ry="2.5" style="stroke:#181818;stroke-width:0.5;" width="168" x="2284" y="951.4453"/><text fill="#000000" font-family="sans-serif" font-size="14" lengthAdjust="spacing" textLength="154" x="2291" y="971.4404">postRepo: IPostRepo</text><text fill="#000000" font-family="sans-serif" font-size="14" lengthAdjust="spacing" textLength="48" x="2462" y="115.292">MySQL</text><path d="M2471,66.2969 C2471,56.2969 2489,56.2969 2489,56.2969 C2489,56.2969 2507,56.2969 2507,66.2969 L2507,92.2969 C2507,102.2969 2489,102.2969 2489,102.2969 C2489,102.2969 2471,102.2969 2471,92.2969 L2471,66.2969 " fill="#E2E2F0" style="stroke:#181818;stroke-width:1.5;"/><path d="M2471,66.2969 C2471,76.2969 2489,76.2969 2489,76.2969 C2489,76.2969 2507,76.2969 2507,66.2969 " fill="none" style="stroke:#181818;stroke-width:1.5;"/><text fill="#000000" font-family="sans-serif" font-size="14" lengthAdjust="spacing" textLength="48" x="2462" y="964.4404">MySQL</text><path d="M2471,977.7422 C2471,967.7422 2489,967.7422 2489,967.7422 C2489,967.7422 2507,967.7422 2507,977.7422 L2507,1003.7422 C2507,1013.7422 2489,1013.7422 2489,1013.7422 C2489,1013.7422 2471,1013.7422 2471,1003.7422 L2471,977.7422 " fill="#E2E2F0" style="stroke:#181818;stroke-width:1.5;"/><path d="M2471,977.7422 C2471,987.7422 2489,987.7422 2489,987.7422 C2489,987.7422 2507,987.7422 2507,977.7422 " fill="none" style="stroke:#181818;stroke-width:1.5;"/><rect fill="#FFFFFF" height="763.4531" style="stroke:#181818;stroke-width:1.0;" width="10" x="339" y="179.9922"/><rect fill="#ADD8E6" height="68.832" style="stroke:#181818;stroke-width:1.0;" width="10" x="344" y="219.6914"/><rect fill="#FFFFFF" height="39.6992" style="stroke:#181818;stroke-width:1.0;" width="10" x="541" y="219.6914"/><rect fill="#FFFFFF" height="616.7891" style="stroke:#181818;stroke-width:1.0;" width="10" x="809" y="288.5234"/><rect fill="#FFFFFF" height="516.3906" style="stroke:#181818;stroke-width:1.0;" width="10" x="1062.5" y="317.6563"/><rect fill="#FFFFFF" height="458.125" style="stroke:#181818;stroke-width:1.0;" width="10" x="1307.5" y="346.7891"/><rect fill="#ADD8E6" height="312.4609" style="stroke:#181818;stroke-width:1.0;" width="10" x="1312.5" y="375.9219"/><rect fill="#FFFFFF" height="29.1328" style="stroke:#181818;stroke-width:1.0;" width="10" x="1556.5" y="375.9219"/><rect fill="#FFFFFF" height="29.1328" style="stroke:#181818;stroke-width:1.0;" width="10" x="1738.5" y="434.1875"/><rect fill="#FFFFFF" height="29.1328" style="stroke:#181818;stroke-width:1.0;" width="10" x="1867.5" y="492.4531"/><rect fill="#FFFFFF" height="29.1328" style="stroke:#181818;stroke-width:1.0;" width="10" x="1992.5" y="550.7188"/><rect fill="#FFFFFF" height="39.6992" style="stroke:#181818;stroke-width:1.0;" width="10" x="2114.5" y="608.9844"/><rect fill="#FFFFFF" height="29.1328" style="stroke:#181818;stroke-width:1.0;" width="10" x="2225" y="688.3828"/><rect fill="#FFFFFF" height="29.1328" style="stroke:#181818;stroke-width:1.0;" width="10" x="2363" y="746.6484"/><polygon fill="#181818" points="327,175.9922,337,179.9922,327,183.9922,331,179.9922" style="stroke:#181818;stroke-width:1.0;"/><line style="stroke:#181818;stroke-width:1.0;" x1="43" x2="333" y1="179.9922" y2="179.9922"/><text fill="#000000" font-family="sans-serif" font-size="13" font-weight="bold" lengthAdjust="spacing" textLength="21" x="50" y="159.7935">(1)</text><text fill="#000000" font-family="sans-serif" font-size="13" lengthAdjust="spacing" textLength="248" x="75" y="144.6606">.callEndpoint(method: POST, route: "/",</text><text fill="#000000" font-family="sans-serif" font-size="13" lengthAdjust="spacing" textLength="169" x="75" y="159.7935">authToken, headers, data,</text><text fill="#000000" font-family="sans-serif" font-size="13" lengthAdjust="spacing" textLength="172" x="75" y="174.9263">params, additionalConfigs)</text><polygon fill="#181818" points="529,215.6914,539,219.6914,529,223.6914,533,219.6914" style="stroke:#181818;stroke-width:1.0;"/><line style="stroke:#181818;stroke-width:1.0;" x1="354" x2="535" y1="219.6914" y2="219.6914"/><text fill="#000000" font-family="sans-serif" font-size="13" font-weight="bold" lengthAdjust="spacing" textLength="21" x="361" y="214.6255">(2)</text><text fill="#000000" font-family="sans-serif" font-size="13" lengthAdjust="spacing" textLength="148" x="386" y="214.6255">.ensureAuthenticated()</text><path d="M556,192.9922 L556,232.9922 L741,232.9922 L741,202.9922 L731,192.9922 L556,192.9922 " fill="#FEFFDD" style="stroke:#181818;stroke-width:0.5;"/><path d="M731,192.9922 L731,202.9922 L741,202.9922 L731,192.9922 " fill="#FEFFDD" style="stroke:#181818;stroke-width:0.5;"/><text fill="#000000" font-family="sans-serif" font-size="13" lengthAdjust="spacing" textLength="148" x="562" y="210.0591">If the token was found,</text><text fill="#000000" font-family="sans-serif" font-size="13" lengthAdjust="spacing" textLength="164" x="562" y="225.1919">just continue the request.</text><polygon fill="#181818" points="365,255.3906,355,259.3906,365,263.3906,361,259.3906" style="stroke:#181818;stroke-width:1.0;"/><line style="stroke:#181818;stroke-width:1.0;stroke-dasharray:2.0,2.0;" x1="359" x2="545" y1="259.3906" y2="259.3906"/><text fill="#000000" font-family="sans-serif" font-size="13" font-weight="bold" lengthAdjust="spacing" textLength="20" x="371" y="254.3247">(3)</text><text fill="#000000" font-family="sans-serif" font-size="13" lengthAdjust="spacing" textLength="29" x="395" y="254.3247">next</text><polygon fill="#181818" points="797,284.5234,807,288.5234,797,292.5234,801,288.5234" style="stroke:#181818;stroke-width:1.0;"/><line style="stroke:#181818;stroke-width:1.0;" x1="349" x2="803" y1="288.5234" y2="288.5234"/><text fill="#000000" font-family="sans-serif" font-size="13" font-weight="bold" lengthAdjust="spacing" textLength="21" x="356" y="283.4575">(4)</text><text fill="#000000" font-family="sans-serif" font-size="13" lengthAdjust="spacing" textLength="115" x="381" y="283.4575">.execute(req, res)</text><polygon fill="#181818" points="1050.5,313.6563,1060.5,317.6563,1050.5,321.6563,1054.5,317.6563" style="stroke:#181818;stroke-width:1.0;"/><line style="stroke:#181818;stroke-width:1.0;" x1="819" x2="1056.5" y1="317.6563" y2="317.6563"/><text fill="#000000" font-family="sans-serif" font-size="13" font-weight="bold" lengthAdjust="spacing" textLength="21" x="826" y="312.5903">(5)</text><text fill="#000000" font-family="sans-serif" font-size="13" lengthAdjust="spacing" textLength="59" x="851" y="312.5903">.useCase</text><polygon fill="#181818" points="1295.5,342.7891,1305.5,346.7891,1295.5,350.7891,1299.5,346.7891" style="stroke:#181818;stroke-width:1.0;"/><line style="stroke:#181818;stroke-width:1.0;" x1="1072.5" x2="1301.5" y1="346.7891" y2="346.7891"/><text fill="#000000" font-family="sans-serif" font-size="13" font-weight="bold" lengthAdjust="spacing" textLength="21" x="1079.5" y="341.7231">(6)</text><text fill="#000000" font-family="sans-serif" font-size="13" lengthAdjust="spacing" textLength="191" x="1104.5" y="341.7231">execute(req: CreatePostDTO)</text><polygon fill="#181818" points="1544.5,371.9219,1554.5,375.9219,1544.5,379.9219,1548.5,375.9219" style="stroke:#181818;stroke-width:1.0;"/><line style="stroke:#181818;stroke-width:1.0;" x1="1322.5" x2="1550.5" y1="375.9219" y2="375.9219"/><text fill="#000000" font-family="sans-serif" font-size="13" font-weight="bold" lengthAdjust="spacing" textLength="21" x="1329.5" y="370.856">(7)</text><text fill="#000000" font-family="sans-serif" font-size="13" lengthAdjust="spacing" textLength="195" x="1354.5" y="370.856">.getMemberByIdUserID(userId)</text><polygon fill="#181818" points="1333.5,401.0547,1323.5,405.0547,1333.5,409.0547,1329.5,405.0547" style="stroke:#181818;stroke-width:1.0;"/><line style="stroke:#181818;stroke-width:1.0;stroke-dasharray:2.0,2.0;" x1="1327.5" x2="1560.5" y1="405.0547" y2="405.0547"/><text fill="#000000" font-family="sans-serif" font-size="13" font-weight="bold" lengthAdjust="spacing" textLength="21" x="1339.5" y="399.9888">(8)</text><text fill="#000000" font-family="sans-serif" font-size="13" lengthAdjust="spacing" textLength="52" x="1364.5" y="399.9888">Member</text><polygon fill="#181818" points="1726.5,430.1875,1736.5,434.1875,1726.5,438.1875,1730.5,434.1875" style="stroke:#181818;stroke-width:1.0;"/><line style="stroke:#181818;stroke-width:1.0;" x1="1322.5" x2="1732.5" y1="434.1875" y2="434.1875"/><text fill="#000000" font-family="sans-serif" font-size="13" font-weight="bold" lengthAdjust="spacing" textLength="21" x="1329.5" y="429.1216">(9)</text><text fill="#000000" font-family="sans-serif" font-size="13" lengthAdjust="spacing" textLength="187" x="1354.5" y="429.1216">PostTitle.create(request.title)</text><polygon fill="#181818" points="1333.5,459.3203,1323.5,463.3203,1333.5,467.3203,1329.5,463.3203" style="stroke:#181818;stroke-width:1.0;"/><line style="stroke:#181818;stroke-width:1.0;stroke-dasharray:2.0,2.0;" x1="1327.5" x2="1742.5" y1="463.3203" y2="463.3203"/><text fill="#000000" font-family="sans-serif" font-size="13" font-weight="bold" lengthAdjust="spacing" textLength="31" x="1339.5" y="458.2544">(10)</text><text fill="#000000" font-family="sans-serif" font-size="13" lengthAdjust="spacing" textLength="163" x="1374.5" y="458.2544">titleOrError: Result&lt;title&gt;</text><polygon fill="#181818" points="1855.5,488.4531,1865.5,492.4531,1855.5,496.4531,1859.5,492.4531" style="stroke:#181818;stroke-width:1.0;"/><line style="stroke:#181818;stroke-width:1.0;" x1="1322.5" x2="1861.5" y1="492.4531" y2="492.4531"/><text fill="#000000" font-family="sans-serif" font-size="13" font-weight="bold" lengthAdjust="spacing" textLength="30" x="1329.5" y="487.3872">(11)</text><text fill="#000000" font-family="sans-serif" font-size="13" lengthAdjust="spacing" textLength="191" x="1363.5" y="487.3872">PostText.create(request.text)</text><polygon fill="#181818" points="1333.5,517.5859,1323.5,521.5859,1333.5,525.5859,1329.5,521.5859" style="stroke:#181818;stroke-width:1.0;"/><line style="stroke:#181818;stroke-width:1.0;stroke-dasharray:2.0,2.0;" x1="1327.5" x2="1871.5" y1="521.5859" y2="521.5859"/><text fill="#000000" font-family="sans-serif" font-size="13" font-weight="bold" lengthAdjust="spacing" textLength="30" x="1339.5" y="516.52">(12)</text><text fill="#000000" font-family="sans-serif" font-size="13" lengthAdjust="spacing" textLength="167" x="1373.5" y="516.52">textOrError: Result&lt;text&gt;</text><polygon fill="#181818" points="1980.5,546.7188,1990.5,550.7188,1980.5,554.7188,1984.5,550.7188" style="stroke:#181818;stroke-width:1.0;"/><line style="stroke:#181818;stroke-width:1.0;" x1="1322.5" x2="1986.5" y1="550.7188" y2="550.7188"/><text fill="#000000" font-family="sans-serif" font-size="13" font-weight="bold" lengthAdjust="spacing" textLength="29" x="1329.5" y="545.6528">(13)</text><text fill="#000000" font-family="sans-serif" font-size="13" lengthAdjust="spacing" textLength="182" x="1362.5" y="545.6528">PostLink.create(request.link)</text><polygon fill="#181818" points="1333.5,575.8516,1323.5,579.8516,1333.5,583.8516,1329.5,579.8516" style="stroke:#181818;stroke-width:1.0;"/><line style="stroke:#181818;stroke-width:1.0;stroke-dasharray:2.0,2.0;" x1="1327.5" x2="1996.5" y1="579.8516" y2="579.8516"/><text fill="#000000" font-family="sans-serif" font-size="13" font-weight="bold" lengthAdjust="spacing" textLength="30" x="1339.5" y="574.7856">(14)</text><text fill="#000000" font-family="sans-serif" font-size="13" lengthAdjust="spacing" textLength="161" x="1373.5" y="574.7856">linkOrError: Result&lt;Link&gt;</text><polygon fill="#181818" points="2102.5,604.9844,2112.5,608.9844,2102.5,612.9844,2106.5,608.9844" style="stroke:#181818;stroke-width:1.0;"/><line style="stroke:#181818;stroke-width:1.0;" x1="1322.5" x2="2108.5" y1="608.9844" y2="608.9844"/><text fill="#000000" font-family="sans-serif" font-size="13" font-weight="bold" lengthAdjust="spacing" textLength="30" x="1329.5" y="603.9185">(15)</text><text fill="#000000" font-family="sans-serif" font-size="13" lengthAdjust="spacing" textLength="134" x="1363.5" y="603.9185">PostSlug.create(title)</text><polygon fill="#181818" points="1333.5,644.6836,1323.5,648.6836,1333.5,652.6836,1329.5,648.6836" style="stroke:#181818;stroke-width:1.0;"/><line style="stroke:#181818;stroke-width:1.0;stroke-dasharray:2.0,2.0;" x1="1327.5" x2="2118.5" y1="648.6836" y2="648.6836"/><text fill="#000000" font-family="sans-serif" font-size="13" font-weight="bold" lengthAdjust="spacing" textLength="30" x="1339.5" y="643.6177">(16)</text><text fill="#000000" font-family="sans-serif" font-size="13" lengthAdjust="spacing" textLength="167" x="1373.5" y="643.6177">slugOrError: Result&lt;slug&gt;</text><path d="M1087,621.9844 L1087,661.9844 L1302,661.9844 L1302,631.9844 L1292,621.9844 L1087,621.9844 " fill="#FEFFDD" style="stroke:#181818;stroke-width:0.5;"/><path d="M1292,621.9844 L1292,631.9844 L1302,631.9844 L1292,621.9844 " fill="#FEFFDD" style="stroke:#181818;stroke-width:0.5;"/><text fill="#000000" font-family="sans-serif" font-size="13" lengthAdjust="spacing" textLength="181" x="1093" y="639.0513">PostProps Interface in "blue"</text><text fill="#000000" font-family="sans-serif" font-size="13" lengthAdjust="spacing" textLength="194" x="1093" y="654.1841">(member, title, text, link, slug)</text><polygon fill="#181818" points="2213,684.3828,2223,688.3828,2213,692.3828,2217,688.3828" style="stroke:#181818;stroke-width:1.0;"/><line style="stroke:#181818;stroke-width:1.0;" x1="1317.5" x2="2219" y1="688.3828" y2="688.3828"/><text fill="#000000" font-family="sans-serif" font-size="13" font-weight="bold" lengthAdjust="spacing" textLength="30" x="1324.5" y="683.3169">(17)</text><text fill="#000000" font-family="sans-serif" font-size="13" lengthAdjust="spacing" textLength="119" x="1358.5" y="683.3169">.create(postProps)</text><polygon fill="#181818" points="1328.5,713.5156,1318.5,717.5156,1328.5,721.5156,1324.5,717.5156" style="stroke:#181818;stroke-width:1.0;"/><line style="stroke:#181818;stroke-width:1.0;stroke-dasharray:2.0,2.0;" x1="1322.5" x2="2229" y1="717.5156" y2="717.5156"/><text fill="#000000" font-family="sans-serif" font-size="13" font-weight="bold" lengthAdjust="spacing" textLength="30" x="1334.5" y="712.4497">(18)</text><text fill="#000000" font-family="sans-serif" font-size="13" lengthAdjust="spacing" textLength="171" x="1368.5" y="712.4497">postOrError: Result&lt;post&gt;</text><polygon fill="#181818" points="2351,742.6484,2361,746.6484,2351,750.6484,2355,746.6484" style="stroke:#181818;stroke-width:1.0;"/><line style="stroke:#181818;stroke-width:1.0;" x1="1317.5" x2="2357" y1="746.6484" y2="746.6484"/><text fill="#000000" font-family="sans-serif" font-size="13" font-weight="bold" lengthAdjust="spacing" textLength="30" x="1324.5" y="741.5825">(19)</text><text fill="#000000" font-family="sans-serif" font-size="13" lengthAdjust="spacing" textLength="73" x="1358.5" y="741.5825">.save(post)</text><polygon fill="#181818" points="1328.5,771.7813,1318.5,775.7813,1328.5,779.7813,1324.5,775.7813" style="stroke:#181818;stroke-width:1.0;"/><line style="stroke:#181818;stroke-width:1.0;stroke-dasharray:2.0,2.0;" x1="1322.5" x2="2367" y1="775.7813" y2="775.7813"/><text fill="#000000" font-family="sans-serif" font-size="13" font-weight="bold" lengthAdjust="spacing" textLength="31" x="1334.5" y="770.7153">(20)</text><text fill="#000000" font-family="sans-serif" font-size="13" lengthAdjust="spacing" textLength="59" x="1369.5" y="770.7153">Result.ok</text><polygon fill="#181818" points="1083.5,800.9141,1073.5,804.9141,1083.5,808.9141,1079.5,804.9141" style="stroke:#181818;stroke-width:1.0;"/><line style="stroke:#181818;stroke-width:1.0;stroke-dasharray:2.0,2.0;" x1="1077.5" x2="1311.5" y1="804.9141" y2="804.9141"/><text fill="#000000" font-family="sans-serif" font-size="13" font-weight="bold" lengthAdjust="spacing" textLength="30" x="1089.5" y="799.8481">(21)</text><text fill="#000000" font-family="sans-serif" font-size="13" lengthAdjust="spacing" textLength="59" x="1123.5" y="799.8481">Result.ok</text><polygon fill="#181818" points="830,830.0469,820,834.0469,830,838.0469,826,834.0469" style="stroke:#181818;stroke-width:1.0;"/><line style="stroke:#181818;stroke-width:1.0;stroke-dasharray:2.0,2.0;" x1="824" x2="1066.5" y1="834.0469" y2="834.0469"/><text fill="#000000" font-family="sans-serif" font-size="13" font-weight="bold" lengthAdjust="spacing" textLength="30" x="836" y="828.981">(22)</text><text fill="#000000" font-family="sans-serif" font-size="13" lengthAdjust="spacing" textLength="59" x="870" y="828.981">Result.ok</text><line style="stroke:#181818;stroke-width:1.0;" x1="819" x2="861" y1="863.1797" y2="863.1797"/><line style="stroke:#181818;stroke-width:1.0;" x1="861" x2="861" y1="863.1797" y2="876.1797"/><line style="stroke:#181818;stroke-width:1.0;" x1="820" x2="861" y1="876.1797" y2="876.1797"/><polygon fill="#181818" points="830,872.1797,820,876.1797,830,880.1797,826,876.1797" style="stroke:#181818;stroke-width:1.0;"/><text fill="#000000" font-family="sans-serif" font-size="13" font-weight="bold" lengthAdjust="spacing" textLength="29" x="826" y="858.1138">(23)</text><text fill="#000000" font-family="sans-serif" font-size="13" lengthAdjust="spacing" textLength="138" x="859" y="858.1138">executeImpl(req, res)</text><polygon fill="#181818" points="360,901.3125,350,905.3125,360,909.3125,356,905.3125" style="stroke:#181818;stroke-width:1.0;"/><line style="stroke:#181818;stroke-width:1.0;stroke-dasharray:2.0,2.0;" x1="354" x2="813" y1="905.3125" y2="905.3125"/><text fill="#000000" font-family="sans-serif" font-size="13" font-weight="bold" lengthAdjust="spacing" textLength="30" x="366" y="900.2466">(24)</text><text fill="#000000" font-family="sans-serif" font-size="13" lengthAdjust="spacing" textLength="182" x="400" y="900.2466">res.status(200): Result&lt;ok&gt;</text><polygon fill="#181818" points="2477,930.4453,2487,934.4453,2477,938.4453,2481,934.4453" style="stroke:#181818;stroke-width:1.0;"/><line style="stroke:#181818;stroke-width:1.0;stroke-dasharray:2.0,2.0;" x1="349" x2="2483" y1="934.4453" y2="934.4453"/><text fill="#000000" font-family="sans-serif" font-size="13" font-weight="bold" lengthAdjust="spacing" textLength="30" x="356" y="929.3794">(25)</text><text fill="#000000" font-family="sans-serif" font-size="13" lengthAdjust="spacing" textLength="73" x="390" y="929.3794">.sendPost()</text><!--SRC=[XLPDZziW4BtxLo3tK4VAUgDAlKJLIcssXqYxscsJlVL234beC7O1Txl_lZCG76oJzfBCm7oyWPc7RzzdswCmP7DFu7VVQ6AFd7I6auh2JxxId5fEA7bkZ2MlmXv1baATycnjqOKQqzMSzQx6Kcr9imS5TfcW1qrhKAWDaJMX4gAoDx8NKe8hbTBj7MqjCKuD6rmoYAqOgQIeJc3KA6Upwwm54REPRbSBOmIeBXqdBM949r0q1niUGKAi7WDNh6s4iYJ7el8oUt-RPLPOoV4ORiZBPh7u2FzNQyyoMbb0a6CrI_82lpaSX1Eo5fA9IhGK4o2YxqrdqSp_EqCl3arhmPZahrJp9NdiPMT-sHgwL0uWebiroke6JXFoh1AhBangOnWGwbd1jIylbYF75symz6AsYRFURvz6Nh0ogfNNEww_ynOSru-zujmYVUZaRcZfBcEBehDkWpQovN_isHGaPncKeI5UfpTymAOEXgWC3Oti3jvm0r9lYChqohrXRvJe2L_wyrdqXGSjOzJI7OxVuzlcsmFkXHNel0xwlyCJ8lcdtLsncEKPzXsvkIEXqyeAHkhhkSkBcjjZmm3IqsOx9nfjbYI_pUVaXu9ensrpucfEZZ2IN9kvouLx09hMe5F6X8KfenBQPYyEPeRjBtxZR9mRsVyXXBYBIwvCf_bdoC4Lr0yEh9WuatSFud2qNsJ7BrjHnwi6T8qcS61-pYqY9gyK2QjJ3C7-x614AsXheJe_zPh_whYnPNQ9HMwYGrBO2uodKbxAMIKdhEH_U0Kc1UI04-Lm8b6WVvILdC3KuZ3tUUeWyNb0Kn73Q4vMXh5W5fSamZ-Qt5agDCxlGCEGqPm2i0EtNl_ojcROZ-lx0jbnpQv5J1vGFFoHx2vkL8FVZGy-Tfx0xOaYOf3I4sWHMiKnJ8Gt8fSWfP0ujoVzLUi6QPwRJjfFRl4kXdU9DW4NkEb2MHDei1OXwyai24bSi3w11Mi3L7sa9AY70JsEGI5vZa0vuWn22XJwZ46XxGIKYvG4jHbGSG0rlhoUdOEGGeEiFaQ3QnCqBfAZ8idtvtjwraqBjArWslUquaGeak-WdVCVgl0ltDptnjnTnTpLFdSvP-dAaBfzDMs8Fw2M_m-GUsxSzqgYMWmwhXRN9jKcflsvVxLAGtzxWD5fNnwlNaeXy4dBvZIOszvtb3PDWiaOryYgvy2hPFwVS5DQlSRIST0pmQxhLaQFH3f6z2Q1LGbVgxOpnOV5OjPVKdEw8sbuqJiINYs85puNyBBWQnSDYzbV]--></g></svg>