<?xml version="1.0" encoding="us-ascii" standalone="no"?><svg xmlns="http://www.w3.org/2000/svg" xmlns:xlink="http://www.w3.org/1999/xlink" contentStyleType="text/css" height="656px" preserveAspectRatio="none" style="width:2454px;height:656px;background:#FFFFFF;" version="1.1" viewBox="0 0 2454 656" width="2454px" zoomAndPan="magnify"><defs/><g><text fill="#000000" font-family="sans-serif" font-size="14" font-weight="bold" lengthAdjust="spacing" textLength="259" x="1095.75" y="27.9951">US010 SD - Down vote comment</text><rect fill="#FFFFFF" height="407.8594" style="stroke:#181818;stroke-width:1.0;" width="10" x="246.5" y="149.7266"/><rect fill="#FFFFFF" height="378.7266" style="stroke:#181818;stroke-width:1.0;" width="10" x="515" y="178.8594"/><rect fill="#FFFFFF" height="349.5938" style="stroke:#181818;stroke-width:1.0;" width="10" x="966" y="207.9922"/><rect fill="#FFFFFF" height="29.1328" style="stroke:#181818;stroke-width:1.0;" width="10" x="1303" y="237.125"/><rect fill="#FFFFFF" height="29.1328" style="stroke:#181818;stroke-width:1.0;" width="10" x="1522" y="295.3906"/><rect fill="#FFFFFF" height="29.1328" style="stroke:#181818;stroke-width:1.0;" width="10" x="1685.5" y="353.6563"/><rect fill="#FFFFFF" height="29.1328" style="stroke:#181818;stroke-width:1.0;" width="10" x="1868" y="411.9219"/><rect fill="#FFFFFF" height="29.1328" style="stroke:#181818;stroke-width:1.0;" width="10" x="2090.5" y="470.1875"/><rect fill="#FFFFFF" height="29.1328" style="stroke:#181818;stroke-width:1.0;" width="10" x="2239.5" y="528.4531"/><line style="stroke:#181818;stroke-width:0.5;stroke-dasharray:5.0,5.0;" x1="23" x2="23" y1="118.5938" y2="575.5859"/><line style="stroke:#181818;stroke-width:0.5;stroke-dasharray:5.0,5.0;" x1="251.5" x2="251.5" y1="118.5938" y2="575.5859"/><line style="stroke:#181818;stroke-width:0.5;stroke-dasharray:5.0,5.0;" x1="519.5" x2="519.5" y1="118.5938" y2="575.5859"/><line style="stroke:#181818;stroke-width:0.5;stroke-dasharray:5.0,5.0;" x1="970.5" x2="970.5" y1="118.5938" y2="575.5859"/><line style="stroke:#181818;stroke-width:0.5;stroke-dasharray:5.0,5.0;" x1="1307.5" x2="1307.5" y1="118.5938" y2="575.5859"/><line style="stroke:#181818;stroke-width:0.5;stroke-dasharray:5.0,5.0;" x1="1526.5" x2="1526.5" y1="118.5938" y2="575.5859"/><line style="stroke:#181818;stroke-width:0.5;stroke-dasharray:5.0,5.0;" x1="1690.5" x2="1690.5" y1="118.5938" y2="575.5859"/><line style="stroke:#181818;stroke-width:0.5;stroke-dasharray:5.0,5.0;" x1="1872.5" x2="1872.5" y1="118.5938" y2="575.5859"/><line style="stroke:#181818;stroke-width:0.5;stroke-dasharray:5.0,5.0;" x1="2095.5" x2="2095.5" y1="118.5938" y2="575.5859"/><line style="stroke:#181818;stroke-width:0.5;stroke-dasharray:5.0,5.0;" x1="2244.5" x2="2244.5" y1="118.5938" y2="575.5859"/><line style="stroke:#181818;stroke-width:0.5;stroke-dasharray:5.0,5.0;" x1="2419.5" x2="2419.5" y1="118.5938" y2="575.5859"/><text fill="#000000" font-family="sans-serif" font-size="14" lengthAdjust="spacing" textLength="31" x="5" y="115.292">User</text><ellipse cx="23.5" cy="50.7969" fill="#E2E2F0" rx="8" ry="8" style="stroke:#181818;stroke-width:0.5;"/><path d="M23.5,58.7969 L23.5,85.7969 M10.5,66.7969 L36.5,66.7969 M23.5,85.7969 L10.5,100.7969 M23.5,85.7969 L36.5,100.7969 " fill="none" style="stroke:#181818;stroke-width:0.5;"/><text fill="#000000" font-family="sans-serif" font-size="14" lengthAdjust="spacing" textLength="31" x="5" y="587.5811">User</text><ellipse cx="23.5" cy="599.3828" fill="#E2E2F0" rx="8" ry="8" style="stroke:#181818;stroke-width:0.5;"/><path d="M23.5,607.3828 L23.5,634.3828 M10.5,615.3828 L36.5,615.3828 M23.5,634.3828 L10.5,649.3828 M23.5,634.3828 L36.5,649.3828 " fill="none" style="stroke:#181818;stroke-width:0.5;"/><rect fill="#E2E2F0" height="30.2969" rx="2.5" ry="2.5" style="stroke:#181818;stroke-width:0.5;" width="64" x="219.5" y="87.2969"/><text fill="#000000" font-family="sans-serif" font-size="14" lengthAdjust="spacing" textLength="50" x="226.5" y="107.292">Routes</text><rect fill="#E2E2F0" height="30.2969" rx="2.5" ry="2.5" style="stroke:#181818;stroke-width:0.5;" width="64" x="219.5" y="574.5859"/><text fill="#000000" font-family="sans-serif" font-size="14" lengthAdjust="spacing" textLength="50" x="226.5" y="594.5811">Routes</text><rect fill="#E2E2F0" height="30.2969" rx="2.5" ry="2.5" style="stroke:#181818;stroke-width:0.5;" width="453" x="293.5" y="87.2969"/><text fill="#000000" font-family="sans-serif" font-size="14" lengthAdjust="spacing" textLength="439" x="300.5" y="107.292">downvoteCommentController:DownvoteCommentController</text><rect fill="#E2E2F0" height="30.2969" rx="2.5" ry="2.5" style="stroke:#181818;stroke-width:0.5;" width="453" x="293.5" y="574.5859"/><text fill="#000000" font-family="sans-serif" font-size="14" lengthAdjust="spacing" textLength="439" x="300.5" y="594.5811">downvoteCommentController:DownvoteCommentController</text><rect fill="#E2E2F0" height="30.2969" rx="2.5" ry="2.5" style="stroke:#181818;stroke-width:0.5;" width="429" x="756.5" y="87.2969"/><text fill="#000000" font-family="sans-serif" font-size="14" lengthAdjust="spacing" textLength="415" x="763.5" y="107.292">downvoteCommentUseCase: DownvoteCommentUseCase</text><rect fill="#E2E2F0" height="30.2969" rx="2.5" ry="2.5" style="stroke:#181818;stroke-width:0.5;" width="429" x="756.5" y="574.5859"/><text fill="#000000" font-family="sans-serif" font-size="14" lengthAdjust="spacing" textLength="415" x="763.5" y="594.5811">downvoteCommentUseCase: DownvoteCommentUseCase</text><rect fill="#E2E2F0" height="30.2969" rx="2.5" ry="2.5" style="stroke:#181818;stroke-width:0.5;" width="225" x="1195.5" y="87.2969"/><text fill="#000000" font-family="sans-serif" font-size="14" lengthAdjust="spacing" textLength="211" x="1202.5" y="107.292">memberRepo: IMemberRepo</text><rect fill="#E2E2F0" height="30.2969" rx="2.5" ry="2.5" style="stroke:#181818;stroke-width:0.5;" width="225" x="1195.5" y="574.5859"/><text fill="#000000" font-family="sans-serif" font-size="14" lengthAdjust="spacing" textLength="211" x="1202.5" y="594.5811">memberRepo: IMemberRepo</text><rect fill="#E2E2F0" height="30.2969" rx="2.5" ry="2.5" style="stroke:#181818;stroke-width:0.5;" width="193" x="1430.5" y="87.2969"/><text fill="#000000" font-family="sans-serif" font-size="14" lengthAdjust="spacing" textLength="179" x="1437.5" y="107.292">commentId: CommentID</text><rect fill="#E2E2F0" height="30.2969" rx="2.5" ry="2.5" style="stroke:#181818;stroke-width:0.5;" width="193" x="1430.5" y="574.5859"/><text fill="#000000" font-family="sans-serif" font-size="14" lengthAdjust="spacing" textLength="179" x="1437.5" y="594.5811">commentId: CommentID</text><rect fill="#E2E2F0" height="30.2969" rx="2.5" ry="2.5" style="stroke:#181818;stroke-width:0.5;" width="114" x="1633.5" y="87.2969"/><text fill="#000000" font-family="sans-serif" font-size="14" lengthAdjust="spacing" textLength="100" x="1640.5" y="107.292">postid: PostId</text><rect fill="#E2E2F0" height="30.2969" rx="2.5" ry="2.5" style="stroke:#181818;stroke-width:0.5;" width="114" x="1633.5" y="574.5859"/><text fill="#000000" font-family="sans-serif" font-size="14" lengthAdjust="spacing" textLength="100" x="1640.5" y="594.5811">postid: PostId</text><rect fill="#E2E2F0" height="30.2969" rx="2.5" ry="2.5" style="stroke:#181818;stroke-width:0.5;" width="231" x="1757.5" y="87.2969"/><text fill="#000000" font-family="sans-serif" font-size="14" lengthAdjust="spacing" textLength="217" x="1764.5" y="107.292">commentVote:CommentVote</text><rect fill="#E2E2F0" height="30.2969" rx="2.5" ry="2.5" style="stroke:#181818;stroke-width:0.5;" width="231" x="1757.5" y="574.5859"/><text fill="#000000" font-family="sans-serif" font-size="14" lengthAdjust="spacing" textLength="217" x="1764.5" y="594.5811">commentVote:CommentVote</text><rect fill="#E2E2F0" height="30.2969" rx="2.5" ry="2.5" style="stroke:#181818;stroke-width:0.5;" width="194" x="1998.5" y="87.2969"/><text fill="#000000" font-family="sans-serif" font-size="14" lengthAdjust="spacing" textLength="180" x="2005.5" y="107.292">postService: PostService</text><rect fill="#E2E2F0" height="30.2969" rx="2.5" ry="2.5" style="stroke:#181818;stroke-width:0.5;" width="194" x="1998.5" y="574.5859"/><text fill="#000000" font-family="sans-serif" font-size="14" lengthAdjust="spacing" textLength="180" x="2005.5" y="594.5811">postService: PostService</text><rect fill="#E2E2F0" height="30.2969" rx="2.5" ry="2.5" style="stroke:#181818;stroke-width:0.5;" width="84" x="2202.5" y="87.2969"/><text fill="#000000" font-family="sans-serif" font-size="14" lengthAdjust="spacing" textLength="70" x="2209.5" y="107.292">post:Post</text><rect fill="#E2E2F0" height="30.2969" rx="2.5" ry="2.5" style="stroke:#181818;stroke-width:0.5;" width="84" x="2202.5" y="574.5859"/><text fill="#000000" font-family="sans-serif" font-size="14" lengthAdjust="spacing" textLength="70" x="2209.5" y="594.5811">post:Post</text><text fill="#000000" font-family="sans-serif" font-size="14" lengthAdjust="spacing" textLength="48" x="2392.5" y="115.292">MySQL</text><path d="M2401.5,66.2969 C2401.5,56.2969 2419.5,56.2969 2419.5,56.2969 C2419.5,56.2969 2437.5,56.2969 2437.5,66.2969 L2437.5,92.2969 C2437.5,102.2969 2419.5,102.2969 2419.5,102.2969 C2419.5,102.2969 2401.5,102.2969 2401.5,92.2969 L2401.5,66.2969 " fill="#E2E2F0" style="stroke:#181818;stroke-width:1.5;"/><path d="M2401.5,66.2969 C2401.5,76.2969 2419.5,76.2969 2419.5,76.2969 C2419.5,76.2969 2437.5,76.2969 2437.5,66.2969 " fill="none" style="stroke:#181818;stroke-width:1.5;"/><text fill="#000000" font-family="sans-serif" font-size="14" lengthAdjust="spacing" textLength="48" x="2392.5" y="587.5811">MySQL</text><path d="M2401.5,600.8828 C2401.5,590.8828 2419.5,590.8828 2419.5,590.8828 C2419.5,590.8828 2437.5,590.8828 2437.5,600.8828 L2437.5,626.8828 C2437.5,636.8828 2419.5,636.8828 2419.5,636.8828 C2419.5,636.8828 2401.5,636.8828 2401.5,626.8828 L2401.5,600.8828 " fill="#E2E2F0" style="stroke:#181818;stroke-width:1.5;"/><path d="M2401.5,600.8828 C2401.5,610.8828 2419.5,610.8828 2419.5,610.8828 C2419.5,610.8828 2437.5,610.8828 2437.5,600.8828 " fill="none" style="stroke:#181818;stroke-width:1.5;"/><rect fill="#FFFFFF" height="407.8594" style="stroke:#181818;stroke-width:1.0;" width="10" x="246.5" y="149.7266"/><rect fill="#FFFFFF" height="378.7266" style="stroke:#181818;stroke-width:1.0;" width="10" x="515" y="178.8594"/><rect fill="#FFFFFF" height="349.5938" style="stroke:#181818;stroke-width:1.0;" width="10" x="966" y="207.9922"/><rect fill="#FFFFFF" height="29.1328" style="stroke:#181818;stroke-width:1.0;" width="10" x="1303" y="237.125"/><rect fill="#FFFFFF" height="29.1328" style="stroke:#181818;stroke-width:1.0;" width="10" x="1522" y="295.3906"/><rect fill="#FFFFFF" height="29.1328" style="stroke:#181818;stroke-width:1.0;" width="10" x="1685.5" y="353.6563"/><rect fill="#FFFFFF" height="29.1328" style="stroke:#181818;stroke-width:1.0;" width="10" x="1868" y="411.9219"/><rect fill="#FFFFFF" height="29.1328" style="stroke:#181818;stroke-width:1.0;" width="10" x="2090.5" y="470.1875"/><rect fill="#FFFFFF" height="29.1328" style="stroke:#181818;stroke-width:1.0;" width="10" x="2239.5" y="528.4531"/><polygon fill="#181818" points="234.5,145.7266,244.5,149.7266,234.5,153.7266,238.5,149.7266" style="stroke:#181818;stroke-width:1.0;"/><line style="stroke:#181818;stroke-width:1.0;" x1="23.5" x2="240.5" y1="149.7266" y2="149.7266"/><text fill="#000000" font-family="sans-serif" font-size="13" lengthAdjust="spacing" textLength="204" x="30.5" y="144.6606">1. call Endpoint (method: POST)</text><polygon fill="#181818" points="503,174.8594,513,178.8594,503,182.8594,507,178.8594" style="stroke:#181818;stroke-width:1.0;"/><line style="stroke:#181818;stroke-width:1.0;" x1="256.5" x2="509" y1="178.8594" y2="178.8594"/><text fill="#000000" font-family="sans-serif" font-size="13" lengthAdjust="spacing" textLength="131" x="263.5" y="173.7935">2. .execute(req, res)</text><polygon fill="#181818" points="954,203.9922,964,207.9922,954,211.9922,958,207.9922" style="stroke:#181818;stroke-width:1.0;"/><line style="stroke:#181818;stroke-width:1.0;" x1="525" x2="960" y1="207.9922" y2="207.9922"/><text fill="#000000" font-family="sans-serif" font-size="13" lengthAdjust="spacing" textLength="158" x="532" y="202.9263">3. .executeImpl(req, res)</text><polygon fill="#181818" points="1291,233.125,1301,237.125,1291,241.125,1295,237.125" style="stroke:#181818;stroke-width:1.0;"/><line style="stroke:#181818;stroke-width:1.0;" x1="976" x2="1297" y1="237.125" y2="237.125"/><text fill="#000000" font-family="sans-serif" font-size="13" lengthAdjust="spacing" textLength="213" x="983" y="232.0591">4. .GetMemberByIdUserID(userId)</text><polygon fill="#181818" points="987,262.2578,977,266.2578,987,270.2578,983,266.2578" style="stroke:#181818;stroke-width:1.0;"/><line style="stroke:#181818;stroke-width:1.0;stroke-dasharray:2.0,2.0;" x1="981" x2="1307" y1="266.2578" y2="266.2578"/><text fill="#000000" font-family="sans-serif" font-size="13" lengthAdjust="spacing" textLength="68" x="993" y="261.1919">5. Member</text><polygon fill="#181818" points="1510,291.3906,1520,295.3906,1510,299.3906,1514,295.3906" style="stroke:#181818;stroke-width:1.0;"/><line style="stroke:#181818;stroke-width:1.0;" x1="976" x2="1516" y1="295.3906" y2="295.3906"/><text fill="#000000" font-family="sans-serif" font-size="13" lengthAdjust="spacing" textLength="300" x="983" y="290.3247">6. getCommentByCommentId(req.commentId)</text><polygon fill="#181818" points="987,320.5234,977,324.5234,987,328.5234,983,324.5234" style="stroke:#181818;stroke-width:1.0;"/><line style="stroke:#181818;stroke-width:1.0;stroke-dasharray:2.0,2.0;" x1="981" x2="1526" y1="324.5234" y2="324.5234"/><text fill="#000000" font-family="sans-serif" font-size="13" lengthAdjust="spacing" textLength="80" x="993" y="319.4575">7. Comment</text><polygon fill="#181818" points="1673.5,349.6563,1683.5,353.6563,1673.5,357.6563,1677.5,353.6563" style="stroke:#181818;stroke-width:1.0;"/><line style="stroke:#181818;stroke-width:1.0;" x1="976" x2="1679.5" y1="353.6563" y2="353.6563"/><text fill="#000000" font-family="sans-serif" font-size="13" lengthAdjust="spacing" textLength="173" x="983" y="348.5903">8. getPostByPostId (postId)</text><polygon fill="#181818" points="987,378.7891,977,382.7891,987,386.7891,983,382.7891" style="stroke:#181818;stroke-width:1.0;"/><line style="stroke:#181818;stroke-width:1.0;stroke-dasharray:2.0,2.0;" x1="981" x2="1689.5" y1="382.7891" y2="382.7891"/><text fill="#000000" font-family="sans-serif" font-size="13" lengthAdjust="spacing" textLength="44" x="993" y="377.7231">9. Post</text><polygon fill="#181818" points="1856,407.9219,1866,411.9219,1856,415.9219,1860,411.9219" style="stroke:#181818;stroke-width:1.0;"/><line style="stroke:#181818;stroke-width:1.0;" x1="976" x2="1862" y1="411.9219" y2="411.9219"/><text fill="#000000" font-family="sans-serif" font-size="13" lengthAdjust="spacing" textLength="402" x="983" y="406.856">10. .getVotesForCommentByMemberId(commentId,memberId)</text><polygon fill="#181818" points="987,437.0547,977,441.0547,987,445.0547,983,441.0547" style="stroke:#181818;stroke-width:1.0;"/><line style="stroke:#181818;stroke-width:1.0;stroke-dasharray:2.0,2.0;" x1="981" x2="1872" y1="441.0547" y2="441.0547"/><text fill="#000000" font-family="sans-serif" font-size="13" lengthAdjust="spacing" textLength="118" x="993" y="435.9888">11. CommentVote</text><polygon fill="#181818" points="2078.5,466.1875,2088.5,470.1875,2078.5,474.1875,2082.5,470.1875" style="stroke:#181818;stroke-width:1.0;"/><line style="stroke:#181818;stroke-width:1.0;" x1="976" x2="2084.5" y1="470.1875" y2="470.1875"/><text fill="#000000" font-family="sans-serif" font-size="13" lengthAdjust="spacing" textLength="574" x="983" y="465.1216">12. .DownvoteComment(post, member, comment, existingVotesOnCommentByMember)</text><polygon fill="#181818" points="987,495.3203,977,499.3203,987,503.3203,983,499.3203" style="stroke:#181818;stroke-width:1.0;"/><line style="stroke:#181818;stroke-width:1.0;stroke-dasharray:2.0,2.0;" x1="981" x2="2094.5" y1="499.3203" y2="499.3203"/><text fill="#000000" font-family="sans-serif" font-size="13" lengthAdjust="spacing" textLength="217" x="993" y="494.2544">13 .DownvoteCommentResponse</text><polygon fill="#181818" points="2227.5,524.4531,2237.5,528.4531,2227.5,532.4531,2231.5,528.4531" style="stroke:#181818;stroke-width:1.0;"/><line style="stroke:#181818;stroke-width:1.0;" x1="976" x2="2233.5" y1="528.4531" y2="528.4531"/><text fill="#000000" font-family="sans-serif" font-size="13" lengthAdjust="spacing" textLength="93" x="983" y="523.3872">14 .save(post)</text><polygon fill="#181818" points="2407.5,553.5859,2417.5,557.5859,2407.5,561.5859,2411.5,557.5859" style="stroke:#181818;stroke-width:1.0;"/><line style="stroke:#181818;stroke-width:1.0;" x1="2244.5" x2="2413.5" y1="557.5859" y2="557.5859"/><text fill="#000000" font-family="sans-serif" font-size="13" lengthAdjust="spacing" textLength="146" x="2251.5" y="552.52">Send data to database</text><!--SRC=[ZLLBRvn03BxpAwoSDj8kMfhqaJbKwYvjXTGewTBaJXWhHGA6mcIR_VUT5wnvfgSPU-pFdurjP2PpX8Tu6smX3c43eVXRmb58X5GK1PRIIr8fQdXeiFQgf9PPcbL9AU4WNYGsFTK5LyxQTszTzwAKjSXph5auzt81IGEphulmYj8-QP0DtPr-2jazzM4BB9wmFc0b64ItdM3yYTntSjM9E0E77ONMmubZbqeqCbFsz-gCk3NMzrdmHqMSxS_t7hvMDDD1OgoFMOesaXECBv77Nao_TcOUJsJof6e5jwVuvm-jRZMUv-bkWCrdrmGC8F0XJV8SlfQy4fc2N1KeVmkTxLtywr8tKNPCL5Uvjh67XfZzzWpU-U3ZAwRAT5NZdpNKs12e-QwPVPa8s7NHrJbQL5JvVqHiksbQhMEHzc5mhG9yHsbLkrF4THMZSFMY3qx2qAOZTzWii7_lWxNqE4u2BP0a7SlWWm_FA9rgTsgRc-jw-5tNKxQquQcmoFUZtyvDZp35Mc3SZWs3JuQkbdSdErYmgin9ANPZrjqMoTtuTWP2d81ukv3TQ388jkgZAu96zKtKNLtjbr5bxKgwBfpgqliohCTvs4UQnKI2e2kpTkWbD8AUJ-oUBfL0Z-N0rfHy3JQ3TVlhM0E-PchdbSyco5qvo9uaIZSJkIydTpNYSS2c4cNJIvH2BwUe8A_1Rv8Zcdm6z0mlRThkGGOnbjo88CLvFGvYKzbjFw9PM6Bunjxv1m00]--></g></svg>