<?xml version="1.0" encoding="UTF-8" standalone="no"?><svg xmlns="http://www.w3.org/2000/svg" xmlns:xlink="http://www.w3.org/1999/xlink" contentStyleType="text/css" height="344px" preserveAspectRatio="none" style="width:520px;height:344px;background:#FFFFFF;" version="1.1" viewBox="0 0 520 344" width="520px" zoomAndPan="magnify"><defs/><g><rect fill="none" height="27.6094" id="_title" style="stroke:none;stroke-width:1.0;" width="502" x="5" y="10"/><text fill="#000000" font-family="sans-serif" font-size="14" font-weight="bold" lengthAdjust="spacing" textLength="492" x="10" y="29.5332">System Sequence Diagram (SSD) - Visualization of my comments - User</text><rect fill="#FFFFFF" height="122.4063" style="stroke:#181818;stroke-width:1.0;" width="10" x="50.75" y="131.2188"/><rect fill="#FFFFFF" height="30.3516" style="stroke:#181818;stroke-width:1.0;" width="10" x="439.75" y="153.5703"/><rect fill="#FFFFFF" height="30.3516" style="stroke:#181818;stroke-width:1.0;" width="10" x="439.75" y="214.2734"/><line style="stroke:#181818;stroke-width:0.5;stroke-dasharray:5.0,5.0;" x1="55.25" x2="55.25" y1="121.2188" y2="262.625"/><line style="stroke:#181818;stroke-width:0.5;stroke-dasharray:5.0,5.0;" x1="444.75" x2="444.75" y1="121.2188" y2="262.625"/><text fill="#000000" font-family="sans-serif" font-size="14" lengthAdjust="spacing" textLength="29" x="38.25" y="118.1426">User</text><ellipse cx="55.75" cy="52.1094" fill="#E3E3E3" rx="8" ry="8" style="stroke:#181818;stroke-width:0.5;"/><path d="M55.75,60.1094 L55.75,87.1094 M42.75,68.1094 L68.75,68.1094 M55.75,87.1094 L42.75,102.1094 M55.75,87.1094 L68.75,102.1094 " fill="none" style="stroke:#181818;stroke-width:0.5;"/><text fill="#000000" font-family="sans-serif" font-size="14" lengthAdjust="spacing" textLength="29" x="38.25" y="276.1582">User</text><ellipse cx="55.75" cy="287.7344" fill="#E3E3E3" rx="8" ry="8" style="stroke:#181818;stroke-width:0.5;"/><path d="M55.75,295.7344 L55.75,322.7344 M42.75,303.7344 L68.75,303.7344 M55.75,322.7344 L42.75,337.7344 M55.75,322.7344 L68.75,337.7344 " fill="none" style="stroke:#181818;stroke-width:0.5;"/><rect fill="#E3E3E3" height="31.6094" rx="2.5" ry="2.5" style="stroke:#181818;stroke-width:0.5;" width="60" x="414.75" y="88.6094"/><text fill="#000000" font-family="sans-serif" font-size="14" lengthAdjust="spacing" textLength="46" x="421.75" y="110.1426">System</text><rect fill="#E3E3E3" height="31.6094" rx="2.5" ry="2.5" style="stroke:#181818;stroke-width:0.5;" width="60" x="414.75" y="261.625"/><text fill="#000000" font-family="sans-serif" font-size="14" lengthAdjust="spacing" textLength="46" x="421.75" y="283.1582">System</text><rect fill="#FFFFFF" height="122.4063" style="stroke:#181818;stroke-width:1.0;" width="10" x="50.75" y="131.2188"/><rect fill="#FFFFFF" height="30.3516" style="stroke:#181818;stroke-width:1.0;" width="10" x="439.75" y="153.5703"/><rect fill="#FFFFFF" height="30.3516" style="stroke:#181818;stroke-width:1.0;" width="10" x="439.75" y="214.2734"/><polygon fill="#181818" points="427.75,149.5703,437.75,153.5703,427.75,157.5703,431.75,153.5703" style="stroke:#181818;stroke-width:1.0;"/><line style="stroke:#181818;stroke-width:1.0;" x1="60.75" x2="433.75" y1="153.5703" y2="153.5703"/><text fill="#000000" font-family="sans-serif" font-size="13" font-weight="bold" lengthAdjust="spacing" textLength="7" x="67.75" y="148.7139">1</text><text fill="#000000" font-family="sans-serif" font-size="13" lengthAdjust="spacing" textLength="133" x="78.75" y="148.7139">Access the DDD forum</text><polygon fill="#181818" points="71.75,179.9219,61.75,183.9219,71.75,187.9219,67.75,183.9219" style="stroke:#181818;stroke-width:1.0;"/><line style="stroke:#181818;stroke-width:1.0;stroke-dasharray:2.0,2.0;" x1="65.75" x2="443.75" y1="183.9219" y2="183.9219"/><text fill="#000000" font-family="sans-serif" font-size="13" font-weight="bold" lengthAdjust="spacing" textLength="7" x="77.75" y="179.0654">2</text><text fill="#000000" font-family="sans-serif" font-size="13" lengthAdjust="spacing" textLength="134" x="88.75" y="179.0654">Return the default page</text><polygon fill="#181818" points="427.75,210.2734,437.75,214.2734,427.75,218.2734,431.75,214.2734" style="stroke:#181818;stroke-width:1.0;"/><line style="stroke:#181818;stroke-width:1.0;" x1="60.75" x2="433.75" y1="214.2734" y2="214.2734"/><text fill="#000000" font-family="sans-serif" font-size="13" font-weight="bold" lengthAdjust="spacing" textLength="7" x="67.75" y="209.417">3</text><text fill="#000000" font-family="sans-serif" font-size="13" lengthAdjust="spacing" textLength="227" x="78.75" y="209.417">Access on the "my comments" options</text><polygon fill="#181818" points="71.75,240.625,61.75,244.625,71.75,248.625,67.75,244.625" style="stroke:#181818;stroke-width:1.0;"/><line style="stroke:#181818;stroke-width:1.0;stroke-dasharray:2.0,2.0;" x1="65.75" x2="443.75" y1="244.625" y2="244.625"/><text fill="#000000" font-family="sans-serif" font-size="13" font-weight="bold" lengthAdjust="spacing" textLength="7" x="77.75" y="239.7686">4</text><text fill="#000000" font-family="sans-serif" font-size="13" lengthAdjust="spacing" textLength="344" x="88.75" y="239.7686">Return the posts that have comments made by the member</text><!--MD5=[6e73fcddd5aab0ac839c55062b7cd4d1]
@startuml US030
skinparam monochrome true
skinparam packageStyle rectangle
skinparam shadowing false

title System Sequence Diagram (SSD) - Visualization of my comments - User

autonumber

actor "User" as User
participant "System" as System

activate User
    User -> System: Access the DDD forum
   
    activate System
        System - -> User : Return the default page 
    deactivate System

    User -> System : Access on the "my comments" options

    activate System
        System - -> User : Return the posts that have comments made by the member
    deactivate System

@enduml

PlantUML version 1.2022.7(Mon Aug 22 18:01:30 BST 2022)
(GPL source distribution)
Java Runtime: Java(TM) SE Runtime Environment
JVM: Java HotSpot(TM) 64-Bit Server VM
Default Encoding: Cp1252
Language: en
Country: US
--></g></svg>