<?xml version="1.0" encoding="UTF-8" standalone="no"?><svg xmlns="http://www.w3.org/2000/svg" xmlns:xlink="http://www.w3.org/1999/xlink" contentStyleType="text/css" height="592px" preserveAspectRatio="none" style="width:1672px;height:592px;background:#FFFFFF;" version="1.1" viewBox="0 0 1672 592" width="1672px" zoomAndPan="magnify"><defs/><g><rect fill="#FFFFFF" height="377.2188" style="stroke:#181818;stroke-width:1.0;" width="10" x="362.5" y="114.9609"/><rect fill="#FFFFFF" height="316.5156" style="stroke:#181818;stroke-width:1.0;" width="10" x="766.5" y="145.3125"/><rect fill="#FFFFFF" height="212.4609" style="stroke:#181818;stroke-width:1.0;" width="10" x="1145.5" y="219.0156"/><rect fill="#FFFFFF" height="151.7578" style="stroke:#181818;stroke-width:1.0;" width="10" x="1400.5" y="249.3672"/><rect fill="#FFFFFF" height="30.3516" style="stroke:#181818;stroke-width:1.0;" width="10" x="1632.5" y="279.7188"/><rect fill="#FFFFFF" height="30.3516" style="stroke:#181818;stroke-width:1.0;" width="10" x="1632.5" y="340.4219"/><line style="stroke:#181818;stroke-width:0.5;stroke-dasharray:5.0,5.0;" x1="22" x2="22" y1="82.6094" y2="510.1797"/><line style="stroke:#181818;stroke-width:0.5;stroke-dasharray:5.0,5.0;" x1="367" x2="367" y1="82.6094" y2="510.1797"/><line style="stroke:#181818;stroke-width:0.5;stroke-dasharray:5.0,5.0;" x1="771" x2="771" y1="82.6094" y2="510.1797"/><line style="stroke:#181818;stroke-width:0.5;stroke-dasharray:5.0,5.0;" x1="1150" x2="1150" y1="82.6094" y2="510.1797"/><line style="stroke:#181818;stroke-width:0.5;stroke-dasharray:5.0,5.0;" x1="1405.5" x2="1405.5" y1="82.6094" y2="510.1797"/><line style="stroke:#181818;stroke-width:0.5;stroke-dasharray:5.0,5.0;" x1="1637.5" x2="1637.5" y1="82.6094" y2="510.1797"/><text fill="#000000" font-family="sans-serif" font-size="14" lengthAdjust="spacing" textLength="29" x="5" y="79.5332">User</text><ellipse cx="22.5" cy="13.5" fill="#E2E2F0" rx="8" ry="8" style="stroke:#181818;stroke-width:0.5;"/><path d="M22.5,21.5 L22.5,48.5 M9.5,29.5 L35.5,29.5 M22.5,48.5 L9.5,63.5 M22.5,48.5 L35.5,63.5 " fill="none" style="stroke:#181818;stroke-width:0.5;"/><text fill="#000000" font-family="sans-serif" font-size="14" lengthAdjust="spacing" textLength="29" x="5" y="523.7129">User</text><ellipse cx="22.5" cy="535.2891" fill="#E2E2F0" rx="8" ry="8" style="stroke:#181818;stroke-width:0.5;"/><path d="M22.5,543.2891 L22.5,570.2891 M9.5,551.2891 L35.5,551.2891 M22.5,570.2891 L9.5,585.2891 M22.5,570.2891 L35.5,585.2891 " fill="none" style="stroke:#181818;stroke-width:0.5;"/><rect fill="#E2E2F0" height="31.6094" rx="2.5" ry="2.5" style="stroke:#181818;stroke-width:0.5;" width="59" x="338" y="50"/><text fill="#000000" font-family="sans-serif" font-size="14" lengthAdjust="spacing" textLength="45" x="345" y="71.5332">Routes</text><rect fill="#E2E2F0" height="31.6094" rx="2.5" ry="2.5" style="stroke:#181818;stroke-width:0.5;" width="59" x="338" y="509.1797"/><text fill="#000000" font-family="sans-serif" font-size="14" lengthAdjust="spacing" textLength="45" x="345" y="530.7129">Routes</text><rect fill="#E2E2F0" height="31.6094" rx="2.5" ry="2.5" style="stroke:#181818;stroke-width:0.5;" width="485" x="529" y="50"/><text fill="#000000" font-family="sans-serif" font-size="14" lengthAdjust="spacing" textLength="471" x="536" y="71.5332">getPostsWithMyCommentsController: GetPostsWithMyCommentsController</text><rect fill="#E2E2F0" height="31.6094" rx="2.5" ry="2.5" style="stroke:#181818;stroke-width:0.5;" width="485" x="529" y="509.1797"/><text fill="#000000" font-family="sans-serif" font-size="14" lengthAdjust="spacing" textLength="471" x="536" y="530.7129">getPostsWithMyCommentsController: GetPostsWithMyCommentsController</text><rect fill="#E2E2F0" height="31.6094" rx="2.5" ry="2.5" style="stroke:#181818;stroke-width:0.5;" width="253" x="1024" y="50"/><text fill="#000000" font-family="sans-serif" font-size="14" lengthAdjust="spacing" textLength="235" x="1031" y="71.5332">useCase: GetPostsWithMyComments</text><rect fill="#E2E2F0" height="31.6094" rx="2.5" ry="2.5" style="stroke:#181818;stroke-width:0.5;" width="253" x="1024" y="509.1797"/><text fill="#000000" font-family="sans-serif" font-size="14" lengthAdjust="spacing" textLength="235" x="1031" y="530.7129">useCase: GetPostsWithMyComments</text><rect fill="#E2E2F0" height="31.6094" rx="2.5" ry="2.5" style="stroke:#181818;stroke-width:0.5;" width="148" x="1331.5" y="50"/><text fill="#000000" font-family="sans-serif" font-size="14" lengthAdjust="spacing" textLength="134" x="1338.5" y="71.5332">postRepo: IPostRepo</text><rect fill="#E2E2F0" height="31.6094" rx="2.5" ry="2.5" style="stroke:#181818;stroke-width:0.5;" width="148" x="1331.5" y="509.1797"/><text fill="#000000" font-family="sans-serif" font-size="14" lengthAdjust="spacing" textLength="134" x="1338.5" y="530.7129">postRepo: IPostRepo</text><text fill="#000000" font-family="sans-serif" font-size="14" lengthAdjust="spacing" textLength="46" x="1611.5" y="79.5332">MySQL</text><path d="M1619.5,29 C1619.5,19 1637.5,19 1637.5,19 C1637.5,19 1655.5,19 1655.5,29 L1655.5,55 C1655.5,65 1637.5,65 1637.5,65 C1637.5,65 1619.5,65 1619.5,55 L1619.5,29 " fill="#E2E2F0" style="stroke:#181818;stroke-width:1.5;"/><path d="M1619.5,29 C1619.5,39 1637.5,39 1637.5,39 C1637.5,39 1655.5,39 1655.5,29 " fill="none" style="stroke:#181818;stroke-width:1.5;"/><text fill="#000000" font-family="sans-serif" font-size="14" lengthAdjust="spacing" textLength="46" x="1611.5" y="523.7129">MySQL</text><path d="M1619.5,536.7891 C1619.5,526.7891 1637.5,526.7891 1637.5,526.7891 C1637.5,526.7891 1655.5,526.7891 1655.5,536.7891 L1655.5,562.7891 C1655.5,572.7891 1637.5,572.7891 1637.5,572.7891 C1637.5,572.7891 1619.5,572.7891 1619.5,562.7891 L1619.5,536.7891 " fill="#E2E2F0" style="stroke:#181818;stroke-width:1.5;"/><path d="M1619.5,536.7891 C1619.5,546.7891 1637.5,546.7891 1637.5,546.7891 C1637.5,546.7891 1655.5,546.7891 1655.5,536.7891 " fill="none" style="stroke:#181818;stroke-width:1.5;"/><rect fill="#FFFFFF" height="377.2188" style="stroke:#181818;stroke-width:1.0;" width="10" x="362.5" y="114.9609"/><rect fill="#FFFFFF" height="316.5156" style="stroke:#181818;stroke-width:1.0;" width="10" x="766.5" y="145.3125"/><rect fill="#FFFFFF" height="212.4609" style="stroke:#181818;stroke-width:1.0;" width="10" x="1145.5" y="219.0156"/><rect fill="#FFFFFF" height="151.7578" style="stroke:#181818;stroke-width:1.0;" width="10" x="1400.5" y="249.3672"/><rect fill="#FFFFFF" height="30.3516" style="stroke:#181818;stroke-width:1.0;" width="10" x="1632.5" y="279.7188"/><rect fill="#FFFFFF" height="30.3516" style="stroke:#181818;stroke-width:1.0;" width="10" x="1632.5" y="340.4219"/><polygon fill="#181818" points="350.5,110.9609,360.5,114.9609,350.5,118.9609,354.5,114.9609" style="stroke:#181818;stroke-width:1.0;"/><line style="stroke:#181818;stroke-width:1.0;" x1="22.5" x2="356.5" y1="114.9609" y2="114.9609"/><text fill="#000000" font-family="sans-serif" font-size="13" font-weight="bold" lengthAdjust="spacing" textLength="7" x="29.5" y="110.1045">1</text><text fill="#000000" font-family="sans-serif" font-size="13" lengthAdjust="spacing" textLength="310" x="40.5" y="110.1045">call endpoint (method: "GET", route: "/mycomments")</text><polygon fill="#181818" points="754.5,141.3125,764.5,145.3125,754.5,149.3125,758.5,145.3125" style="stroke:#181818;stroke-width:1.0;"/><line style="stroke:#181818;stroke-width:1.0;" x1="372.5" x2="760.5" y1="145.3125" y2="145.3125"/><text fill="#000000" font-family="sans-serif" font-size="13" font-weight="bold" lengthAdjust="spacing" textLength="7" x="379.5" y="140.4561">2</text><text fill="#000000" font-family="sans-serif" font-size="13" lengthAdjust="spacing" textLength="98" x="390.5" y="140.4561">execute(req, res)</text><line style="stroke:#181818;stroke-width:1.0;" x1="776.5" x2="818.5" y1="175.6641" y2="175.6641"/><line style="stroke:#181818;stroke-width:1.0;" x1="818.5" x2="818.5" y1="175.6641" y2="188.6641"/><line style="stroke:#181818;stroke-width:1.0;" x1="777.5" x2="818.5" y1="188.6641" y2="188.6641"/><polygon fill="#181818" points="787.5,184.6641,777.5,188.6641,787.5,192.6641,783.5,188.6641" style="stroke:#181818;stroke-width:1.0;"/><text fill="#000000" font-family="sans-serif" font-size="13" font-weight="bold" lengthAdjust="spacing" textLength="7" x="783.5" y="170.8076">3</text><text fill="#000000" font-family="sans-serif" font-size="13" lengthAdjust="spacing" textLength="122" x="794.5" y="170.8076">executeImpl(req, res)</text><polygon fill="#181818" points="1133.5,215.0156,1143.5,219.0156,1133.5,223.0156,1137.5,219.0156" style="stroke:#181818;stroke-width:1.0;"/><line style="stroke:#181818;stroke-width:1.0;" x1="776.5" x2="1139.5" y1="219.0156" y2="219.0156"/><text fill="#000000" font-family="sans-serif" font-size="13" font-weight="bold" lengthAdjust="spacing" textLength="7" x="783.5" y="214.1592">4</text><text fill="#000000" font-family="sans-serif" font-size="13" lengthAdjust="spacing" textLength="72" x="794.5" y="214.1592">execute(dto)</text><polygon fill="#181818" points="1388.5,245.3672,1398.5,249.3672,1388.5,253.3672,1392.5,249.3672" style="stroke:#181818;stroke-width:1.0;"/><line style="stroke:#181818;stroke-width:1.0;" x1="1155.5" x2="1394.5" y1="249.3672" y2="249.3672"/><text fill="#000000" font-family="sans-serif" font-size="13" font-weight="bold" lengthAdjust="spacing" textLength="7" x="1162.5" y="244.5107">5</text><text fill="#000000" font-family="sans-serif" font-size="13" lengthAdjust="spacing" textLength="215" x="1173.5" y="244.5107">getPostsWithMyComments(member)</text><polygon fill="#181818" points="1620.5,275.7188,1630.5,279.7188,1620.5,283.7188,1624.5,279.7188" style="stroke:#181818;stroke-width:1.0;"/><line style="stroke:#181818;stroke-width:1.0;" x1="1410.5" x2="1626.5" y1="279.7188" y2="279.7188"/><text fill="#000000" font-family="sans-serif" font-size="13" font-weight="bold" lengthAdjust="spacing" textLength="7" x="1417.5" y="274.8623">6</text><text fill="#000000" font-family="sans-serif" font-size="13" lengthAdjust="spacing" textLength="192" x="1428.5" y="274.8623">this.models.sequelize.query("...")</text><polygon fill="#181818" points="1421.5,306.0703,1411.5,310.0703,1421.5,314.0703,1417.5,310.0703" style="stroke:#181818;stroke-width:1.0;"/><line style="stroke:#181818;stroke-width:1.0;" x1="1415.5" x2="1636.5" y1="310.0703" y2="310.0703"/><text fill="#000000" font-family="sans-serif" font-size="13" font-weight="bold" lengthAdjust="spacing" textLength="7" x="1427.5" y="305.2139">7</text><text fill="#000000" font-family="sans-serif" font-size="13" lengthAdjust="spacing" textLength="40" x="1438.5" y="305.2139">string[]</text><polygon fill="#181818" points="1620.5,336.4219,1630.5,340.4219,1620.5,344.4219,1624.5,340.4219" style="stroke:#181818;stroke-width:1.0;"/><line style="stroke:#181818;stroke-width:1.0;" x1="1410.5" x2="1626.5" y1="340.4219" y2="340.4219"/><text fill="#000000" font-family="sans-serif" font-size="13" font-weight="bold" lengthAdjust="spacing" textLength="7" x="1417.5" y="335.5654">8</text><text fill="#000000" font-family="sans-serif" font-size="13" lengthAdjust="spacing" textLength="182" x="1428.5" y="335.5654">PostModel.findAll(detailsQuery)</text><polygon fill="#181818" points="1421.5,366.7734,1411.5,370.7734,1421.5,374.7734,1417.5,370.7734" style="stroke:#181818;stroke-width:1.0;"/><line style="stroke:#181818;stroke-width:1.0;" x1="1415.5" x2="1636.5" y1="370.7734" y2="370.7734"/><text fill="#000000" font-family="sans-serif" font-size="13" font-weight="bold" lengthAdjust="spacing" textLength="7" x="1427.5" y="365.917">9</text><text fill="#000000" font-family="sans-serif" font-size="13" lengthAdjust="spacing" textLength="75" x="1438.5" y="365.917">PostDetails[]</text><polygon fill="#181818" points="1166.5,397.125,1156.5,401.125,1166.5,405.125,1162.5,401.125" style="stroke:#181818;stroke-width:1.0;"/><line style="stroke:#181818;stroke-width:1.0;" x1="1160.5" x2="1404.5" y1="401.125" y2="401.125"/><text fill="#000000" font-family="sans-serif" font-size="13" font-weight="bold" lengthAdjust="spacing" textLength="14" x="1172.5" y="396.2686">10</text><text fill="#000000" font-family="sans-serif" font-size="13" lengthAdjust="spacing" textLength="75" x="1190.5" y="396.2686">PostDetails[]</text><polygon fill="#181818" points="787.5,427.4766,777.5,431.4766,787.5,435.4766,783.5,431.4766" style="stroke:#181818;stroke-width:1.0;"/><line style="stroke:#181818;stroke-width:1.0;" x1="781.5" x2="1149.5" y1="431.4766" y2="431.4766"/><text fill="#000000" font-family="sans-serif" font-size="13" font-weight="bold" lengthAdjust="spacing" textLength="14" x="793.5" y="426.6201">11</text><text fill="#000000" font-family="sans-serif" font-size="13" lengthAdjust="spacing" textLength="186" x="811.5" y="426.6201">Result.ok&lt;PostDetails[]&gt;(posts)</text><polygon fill="#181818" points="383.5,457.8281,373.5,461.8281,383.5,465.8281,379.5,461.8281" style="stroke:#181818;stroke-width:1.0;"/><line style="stroke:#181818;stroke-width:1.0;" x1="377.5" x2="770.5" y1="461.8281" y2="461.8281"/><text fill="#000000" font-family="sans-serif" font-size="13" font-weight="bold" lengthAdjust="spacing" textLength="14" x="389.5" y="456.9717">12</text><text fill="#000000" font-family="sans-serif" font-size="13" lengthAdjust="spacing" textLength="352" x="407.5" y="456.9717">this.ok&lt;GetPostsWithMyCommentsResponseDTO&gt;(res, ...);</text><polygon fill="#181818" points="33.5,488.1797,23.5,492.1797,33.5,496.1797,29.5,492.1797" style="stroke:#181818;stroke-width:1.0;"/><line style="stroke:#181818;stroke-width:1.0;" x1="27.5" x2="366.5" y1="492.1797" y2="492.1797"/><text fill="#000000" font-family="sans-serif" font-size="13" font-weight="bold" lengthAdjust="spacing" textLength="14" x="39.5" y="487.3232">13</text><text fill="#000000" font-family="sans-serif" font-size="13" lengthAdjust="spacing" textLength="4" x="57.5" y="487.3232"> </text><!--MD5=[ca17c83553027a8e173274142c48632d]
@startuml SD-MyCommentedPosts
autonumber 

actor User
participant Routes
participant "getPostsWithMyCommentsController: GetPostsWithMyCommentsController" as getPostsWithMyCommentsController
participant "useCase: GetPostsWithMyComments " as GetPostsWithMyCommentsUseCase
participant "postRepo: IPostRepo" as IPostRepo
database MySQL as database

User -> Routes: call endpoint (method: "GET", route: "/mycomments")
    activate Routes
    Routes -> getPostsWithMyCommentsController: execute(req, res) 
    activate getPostsWithMyCommentsController
        getPostsWithMyCommentsController -> getPostsWithMyCommentsController: executeImpl(req, res)
        getPostsWithMyCommentsController -> GetPostsWithMyCommentsUseCase: execute(dto)
        activate GetPostsWithMyCommentsUseCase
             GetPostsWithMyCommentsUseCase-> IPostRepo: getPostsWithMyComments(member)
            activate IPostRepo
                IPostRepo -> database: this.models.sequelize.query("...")
                activate database
                    database -> IPostRepo: string[]
                deactivate database
                IPostRepo -> database: PostModel.findAll(detailsQuery)
                activate database
                    database -> IPostRepo: PostDetails[]
                deactivate database
                IPostRepo -> GetPostsWithMyCommentsUseCase: PostDetails[] 
            deactivate IPostRepo

            GetPostsWithMyCommentsUseCase -> getPostsWithMyCommentsController: Result.ok<PostDetails[]>(posts)
            deactivate GetPostsWithMyCommentsUseCase

        getPostsWithMyCommentsController -> Routes: this.ok<GetPostsWithMyCommentsResponseDTO>(res, ...);
        deactivate getPostsWithMyCommentsController
        Routes -> User
    deactivate Routes
@enduml

PlantUML version 1.2022.7(Mon Aug 22 18:01:30 BST 2022)
(GPL source distribution)
Java Runtime: Java(TM) SE Runtime Environment
JVM: Java HotSpot(TM) 64-Bit Server VM
Default Encoding: Cp1252
Language: en
Country: US
--></g></svg>