<svg xmlns="http://www.w3.org/2000/svg" xmlns:xlink="http://www.w3.org/1999/xlink" contentStyleType="text/css" height="452px" preserveAspectRatio="none" style="width:635px;height:452px;background:#FFFFFF;" version="1.1" viewBox="0 0 635 452" width="635px" zoomAndPan="magnify"><defs/><g><text fill="#000000" font-family="sans-serif" font-size="14" font-weight="bold" lengthAdjust="spacing" textLength="607" x="10" y="27.9951">SSD - US017 - View Top 3 Members with Most Comments for a Specific Day</text><rect fill="#FFFFFF" height="225.0625" style="stroke:#181818;stroke-width:1.0;" width="10" x="61.5" y="128.5938"/><rect fill="#FFFFFF" height="29.1328" style="stroke:#181818;stroke-width:1.0;" width="10" x="559.5" y="149.7266"/><rect fill="#FFFFFF" height="29.1328" style="stroke:#181818;stroke-width:1.0;" width="10" x="559.5" y="207.9922"/><rect fill="#FFFFFF" height="29.1328" style="stroke:#181818;stroke-width:1.0;" width="10" x="559.5" y="266.2578"/><rect fill="#FFFFFF" height="29.1328" style="stroke:#181818;stroke-width:1.0;" width="10" x="559.5" y="324.5234"/><line style="stroke:#181818;stroke-width:0.5;stroke-dasharray:5.0,5.0;" x1="66.5" x2="66.5" y1="118.5938" y2="371.6563"/><line style="stroke:#181818;stroke-width:0.5;stroke-dasharray:5.0,5.0;" x1="564.5" x2="564.5" y1="118.5938" y2="371.6563"/><text fill="#000000" font-family="sans-serif" font-size="14" lengthAdjust="spacing" textLength="60" x="33.5" y="115.292">Member</text><ellipse cx="66.5" cy="50.7969" fill="#E2E2F0" rx="8" ry="8" style="stroke:#181818;stroke-width:0.5;"/><path d="M66.5,58.7969 L66.5,85.7969 M53.5,66.7969 L79.5,66.7969 M66.5,85.7969 L53.5,100.7969 M66.5,85.7969 L79.5,100.7969 " fill="none" style="stroke:#181818;stroke-width:0.5;"/><text fill="#000000" font-family="sans-serif" font-size="14" lengthAdjust="spacing" textLength="60" x="33.5" y="383.6514">Member</text><ellipse cx="66.5" cy="395.4531" fill="#E2E2F0" rx="8" ry="8" style="stroke:#181818;stroke-width:0.5;"/><path d="M66.5,403.4531 L66.5,430.4531 M53.5,411.4531 L79.5,411.4531 M66.5,430.4531 L53.5,445.4531 M66.5,430.4531 L79.5,445.4531 " fill="none" style="stroke:#181818;stroke-width:0.5;"/><text fill="#000000" font-family="sans-serif" font-size="14" lengthAdjust="spacing" textLength="54" x="534.5" y="115.292">System</text><path d="M544,74.2969 L544,98.2969 M544,86.2969 L561,86.2969 " fill="none" style="stroke:#181818;stroke-width:0.5;"/><ellipse cx="573" cy="86.2969" fill="#E2E2F0" rx="12" ry="12" style="stroke:#181818;stroke-width:0.5;"/><text fill="#000000" font-family="sans-serif" font-size="14" lengthAdjust="spacing" textLength="54" x="534.5" y="383.6514">System</text><path d="M544,390.9531 L544,414.9531 M544,402.9531 L561,402.9531 " fill="none" style="stroke:#181818;stroke-width:0.5;"/><ellipse cx="573" cy="402.9531" fill="#E2E2F0" rx="12" ry="12" style="stroke:#181818;stroke-width:0.5;"/><rect fill="#FFFFFF" height="225.0625" style="stroke:#181818;stroke-width:1.0;" width="10" x="61.5" y="128.5938"/><rect fill="#FFFFFF" height="29.1328" style="stroke:#181818;stroke-width:1.0;" width="10" x="559.5" y="149.7266"/><rect fill="#FFFFFF" height="29.1328" style="stroke:#181818;stroke-width:1.0;" width="10" x="559.5" y="207.9922"/><rect fill="#FFFFFF" height="29.1328" style="stroke:#181818;stroke-width:1.0;" width="10" x="559.5" y="266.2578"/><rect fill="#FFFFFF" height="29.1328" style="stroke:#181818;stroke-width:1.0;" width="10" x="559.5" y="324.5234"/><polygon fill="#181818" points="547.5,145.7266,557.5,149.7266,547.5,153.7266,551.5,149.7266" style="stroke:#181818;stroke-width:1.0;"/><line style="stroke:#181818;stroke-width:1.0;" x1="71.5" x2="553.5" y1="149.7266" y2="149.7266"/><text fill="#000000" font-family="sans-serif" font-size="13" lengthAdjust="spacing" textLength="223" x="78.5" y="144.6606">1. Goes to DDD Forum Home Page</text><polygon fill="#181818" points="82.5,174.8594,72.5,178.8594,82.5,182.8594,78.5,178.8594" style="stroke:#181818;stroke-width:1.0;"/><line style="stroke:#181818;stroke-width:1.0;" x1="76.5" x2="563.5" y1="178.8594" y2="178.8594"/><text fill="#000000" font-family="sans-serif" font-size="13" lengthAdjust="spacing" textLength="215" x="88.5" y="173.7935">2. Shows DDD Forum Home Page</text><polygon fill="#181818" points="547.5,203.9922,557.5,207.9922,547.5,211.9922,551.5,207.9922" style="stroke:#181818;stroke-width:1.0;"/><line style="stroke:#181818;stroke-width:1.0;" x1="71.5" x2="553.5" y1="207.9922" y2="207.9922"/><text fill="#000000" font-family="sans-serif" font-size="13" lengthAdjust="spacing" textLength="153" x="78.5" y="202.9263">7. Logs into DDD Forum</text><polygon fill="#181818" points="82.5,233.125,72.5,237.125,82.5,241.125,78.5,237.125" style="stroke:#181818;stroke-width:1.0;"/><line style="stroke:#181818;stroke-width:1.0;" x1="76.5" x2="563.5" y1="237.125" y2="237.125"/><text fill="#000000" font-family="sans-serif" font-size="13" lengthAdjust="spacing" textLength="285" x="88.5" y="232.0591">8. Confirms Login and returns to Home Page</text><polygon fill="#181818" points="547.5,262.2578,557.5,266.2578,547.5,270.2578,551.5,266.2578" style="stroke:#181818;stroke-width:1.0;"/><line style="stroke:#181818;stroke-width:1.0;" x1="71.5" x2="553.5" y1="266.2578" y2="266.2578"/><text fill="#000000" font-family="sans-serif" font-size="13" lengthAdjust="spacing" textLength="190" x="78.5" y="261.1919">9. Clicks on the "Stats" Button</text><polygon fill="#181818" points="82.5,291.3906,72.5,295.3906,82.5,299.3906,78.5,295.3906" style="stroke:#181818;stroke-width:1.0;"/><line style="stroke:#181818;stroke-width:1.0;" x1="76.5" x2="563.5" y1="295.3906" y2="295.3906"/><text fill="#000000" font-family="sans-serif" font-size="13" lengthAdjust="spacing" textLength="149" x="88.5" y="290.3247">10. Shows "Stats" Page</text><polygon fill="#181818" points="547.5,320.5234,557.5,324.5234,547.5,328.5234,551.5,324.5234" style="stroke:#181818;stroke-width:1.0;"/><line style="stroke:#181818;stroke-width:1.0;" x1="71.5" x2="553.5" y1="324.5234" y2="324.5234"/><text fill="#000000" font-family="sans-serif" font-size="13" lengthAdjust="spacing" textLength="422" x="78.5" y="319.4575">11. Inserts a date on the text box and clicks on the refresh button</text><polygon fill="#181818" points="77.5,349.6563,67.5,353.6563,77.5,357.6563,73.5,353.6563" style="stroke:#181818;stroke-width:1.0;"/><line style="stroke:#181818;stroke-width:1.0;" x1="71.5" x2="563.5" y1="353.6563" y2="353.6563"/><text fill="#000000" font-family="sans-serif" font-size="13" lengthAdjust="spacing" textLength="464" x="83.5" y="348.5903">12. Shows the Top 3 Members with Most Comments for the Specific Day</text><!--SRC=[bPBBJiCm44Nt_OghxXiri2XqmG8Y7XALa0pidMJIMDIUofwGzk_9eu6MiWYhaSPtZkyynCY6e5I26TxKF5uqyTrGZLVUuX8hiYdvWDf8YHK7mHrRIqu22lRGK5lAJ64o97e_cUXCccnVD4cvShdsUwXz4BBTg_dKGeEW3vZT71HBn14Uc0A4aIG9xjbN5ezi2IzwJJ-00x4FBQ17BN4HGPLSXp_BS_eDE7UmYF3Cwm3ZZZsC-FagQaRZ2kDjQ0d6GRiSdgJohcleVpwk6zp6P1y1x20bOQf4IvZYjX9XDy9GF1zcCPIE_Znkzl3a0lbcpHfvgpsu4De9KjvrpMKd1ZqLdaA9TBJ1xsMrvQFkhHMUNDnvDqUP7lO5]--></g></svg>