<?xml version="1.0" encoding="us-ascii" standalone="no"?><svg xmlns="http://www.w3.org/2000/svg" xmlns:xlink="http://www.w3.org/1999/xlink" contentStyleType="text/css" height="394px" preserveAspectRatio="none" style="width:802px;height:394px;background:#FFFFFF;" version="1.1" viewBox="0 0 802 394" width="802px" zoomAndPan="magnify"><defs/><g><text fill="#000000" font-family="sans-serif" font-size="14" font-weight="bold" lengthAdjust="spacing" textLength="774" x="10" y="27.9951">System Sequence Diagram (SSD) - US016 SD - Display post with most Comments on a given day</text><rect fill="#FFFFFF" height="175.7969" style="stroke:#181818;stroke-width:1.0;" width="10" x="177.25" y="128.5938"/><rect fill="#FFFFFF" height="29.1328" style="stroke:#181818;stroke-width:1.0;" width="10" x="592.25" y="149.7266"/><rect fill="#FFFFFF" height="29.1328" style="stroke:#181818;stroke-width:1.0;" width="10" x="592.25" y="207.9922"/><rect fill="#FFFFFF" height="29.1328" style="stroke:#181818;stroke-width:1.0;" width="10" x="592.25" y="266.2578"/><line style="stroke:#181818;stroke-width:0.5;stroke-dasharray:5.0,5.0;" x1="181.75" x2="181.75" y1="118.5938" y2="313.3906"/><line style="stroke:#181818;stroke-width:0.5;stroke-dasharray:5.0,5.0;" x1="597.25" x2="597.25" y1="118.5938" y2="313.3906"/><text fill="#000000" font-family="sans-serif" font-size="14" lengthAdjust="spacing" textLength="31" x="163.75" y="115.292">User</text><ellipse cx="182.25" cy="50.7969" fill="#E3E3E3" rx="8" ry="8" style="stroke:#181818;stroke-width:0.5;"/><path d="M182.25,58.7969 L182.25,85.7969 M169.25,66.7969 L195.25,66.7969 M182.25,85.7969 L169.25,100.7969 M182.25,85.7969 L195.25,100.7969 " fill="none" style="stroke:#181818;stroke-width:0.5;"/><text fill="#000000" font-family="sans-serif" font-size="14" lengthAdjust="spacing" textLength="31" x="163.75" y="325.3857">User</text><ellipse cx="182.25" cy="337.1875" fill="#E3E3E3" rx="8" ry="8" style="stroke:#181818;stroke-width:0.5;"/><path d="M182.25,345.1875 L182.25,372.1875 M169.25,353.1875 L195.25,353.1875 M182.25,372.1875 L169.25,387.1875 M182.25,372.1875 L195.25,387.1875 " fill="none" style="stroke:#181818;stroke-width:0.5;"/><rect fill="#E3E3E3" height="30.2969" rx="2.5" ry="2.5" style="stroke:#181818;stroke-width:0.5;" width="68" x="563.25" y="87.2969"/><text fill="#000000" font-family="sans-serif" font-size="14" lengthAdjust="spacing" textLength="54" x="570.25" y="107.292">System</text><rect fill="#E3E3E3" height="30.2969" rx="2.5" ry="2.5" style="stroke:#181818;stroke-width:0.5;" width="68" x="563.25" y="312.3906"/><text fill="#000000" font-family="sans-serif" font-size="14" lengthAdjust="spacing" textLength="54" x="570.25" y="332.3857">System</text><rect fill="#FFFFFF" height="175.7969" style="stroke:#181818;stroke-width:1.0;" width="10" x="177.25" y="128.5938"/><rect fill="#FFFFFF" height="29.1328" style="stroke:#181818;stroke-width:1.0;" width="10" x="592.25" y="149.7266"/><rect fill="#FFFFFF" height="29.1328" style="stroke:#181818;stroke-width:1.0;" width="10" x="592.25" y="207.9922"/><rect fill="#FFFFFF" height="29.1328" style="stroke:#181818;stroke-width:1.0;" width="10" x="592.25" y="266.2578"/><polygon fill="#181818" points="580.25,145.7266,590.25,149.7266,580.25,153.7266,584.25,149.7266" style="stroke:#181818;stroke-width:1.0;"/><line style="stroke:#181818;stroke-width:1.0;" x1="187.25" x2="586.25" y1="149.7266" y2="149.7266"/><text fill="#000000" font-family="sans-serif" font-size="13" font-weight="bold" lengthAdjust="spacing" textLength="9" x="194.25" y="144.6606">1</text><text fill="#000000" font-family="sans-serif" font-size="13" lengthAdjust="spacing" textLength="113" x="207.25" y="144.6606">Access the forum</text><polygon fill="#181818" points="198.25,174.8594,188.25,178.8594,198.25,182.8594,194.25,178.8594" style="stroke:#181818;stroke-width:1.0;"/><line style="stroke:#181818;stroke-width:1.0;stroke-dasharray:2.0,2.0;" x1="192.25" x2="596.25" y1="178.8594" y2="178.8594"/><text fill="#000000" font-family="sans-serif" font-size="13" font-weight="bold" lengthAdjust="spacing" textLength="9" x="204.25" y="173.7935">2</text><text fill="#000000" font-family="sans-serif" font-size="13" lengthAdjust="spacing" textLength="153" x="217.25" y="173.7935">Return the default page</text><polygon fill="#181818" points="580.25,203.9922,590.25,207.9922,580.25,211.9922,584.25,207.9922" style="stroke:#181818;stroke-width:1.0;"/><line style="stroke:#181818;stroke-width:1.0;" x1="187.25" x2="586.25" y1="207.9922" y2="207.9922"/><text fill="#000000" font-family="sans-serif" font-size="13" font-weight="bold" lengthAdjust="spacing" textLength="8" x="194.25" y="202.9263">3</text><text fill="#000000" font-family="sans-serif" font-size="13" lengthAdjust="spacing" textLength="193" x="206.25" y="202.9263">Access the "Statistics" options</text><polygon fill="#181818" points="198.25,233.125,188.25,237.125,198.25,241.125,194.25,237.125" style="stroke:#181818;stroke-width:1.0;"/><line style="stroke:#181818;stroke-width:1.0;stroke-dasharray:2.0,2.0;" x1="192.25" x2="596.25" y1="237.125" y2="237.125"/><text fill="#000000" font-family="sans-serif" font-size="13" font-weight="bold" lengthAdjust="spacing" textLength="9" x="204.25" y="232.0591">4</text><text fill="#000000" font-family="sans-serif" font-size="13" lengthAdjust="spacing" textLength="151" x="217.25" y="232.0591">Return "Statistics" Page</text><polygon fill="#181818" points="580.25,262.2578,590.25,266.2578,580.25,270.2578,584.25,266.2578" style="stroke:#181818;stroke-width:1.0;"/><line style="stroke:#181818;stroke-width:1.0;" x1="187.25" x2="586.25" y1="266.2578" y2="266.2578"/><text fill="#000000" font-family="sans-serif" font-size="13" font-weight="bold" lengthAdjust="spacing" textLength="9" x="194.25" y="261.1919">5</text><text fill="#000000" font-family="sans-serif" font-size="13" lengthAdjust="spacing" textLength="373" x="207.25" y="261.1919">Inserts a date on text box and clicks on the refresh button</text><polygon fill="#181818" points="198.25,291.3906,188.25,295.3906,198.25,299.3906,194.25,295.3906" style="stroke:#181818;stroke-width:1.0;"/><line style="stroke:#181818;stroke-width:1.0;stroke-dasharray:2.0,2.0;" x1="192.25" x2="596.25" y1="295.3906" y2="295.3906"/><text fill="#000000" font-family="sans-serif" font-size="13" font-weight="bold" lengthAdjust="spacing" textLength="9" x="204.25" y="290.3247">6</text><text fill="#000000" font-family="sans-serif" font-size="13" lengthAdjust="spacing" textLength="318" x="217.25" y="290.3247">Display most comment post on the selected date</text><!--SRC=[bP8nJyCm48Nt_8fJ9XWgmSBG0GdHXGrXzGTSdKjYDR63xzms_vwB4ofQ5GayFSNFJz_b7k-T7p1Y3ttmmROnz0GI4nLylXdGxh4X8sD74CaA-gRxQU0Mgt1qle4QEwQY42TgDICBzM3eCv6t11k7pMI_CsPp3olOceV79p0RbHl7GuSZ3845ZavQnL7r6lgUl3043mYDEv272iUYm2J1ftv7KRML4A7SCiKIa64IXOA9isv0Br3E8FboblcHEw3Gx0Ozau3Ly-9Omukrn0pI4jGXfduoPUFvwP85ord6NMb6pbh31qcAFaTKL6FgHFzbGtDCHTT1Dp3WWgCqWk9O1-CImY0kU2v-PRhYEUDSfBmhptzmthn-q8MWxa6jkXUXay0kd01z1RPpTf_NDV56gYDn2xiakgu_a-hGttt8BR1p2-PoBD5CdHQHgennUu0l]--></g></svg>