<?xml version="1.0" encoding="us-ascii" standalone="no"?><svg xmlns="http://www.w3.org/2000/svg" xmlns:xlink="http://www.w3.org/1999/xlink" contentStyleType="text/css" height="465px" preserveAspectRatio="none" style="width:1668px;height:465px;background:#FFFFFF;" version="1.1" viewBox="0 0 1668 465" width="1668px" zoomAndPan="magnify"><defs/><g><text fill="#000000" font-family="sans-serif" font-size="14" font-weight="bold" lengthAdjust="spacing" textLength="495" x="584.75" y="27.9951">US016 SD - Display post with most Comments on a given day</text><rect fill="#FFFFFF" height="216.9297" style="stroke:#181818;stroke-width:1.0;" width="10" x="437" y="149.7266"/><rect fill="#FFFFFF" height="187.7969" style="stroke:#181818;stroke-width:1.0;" width="10" x="678.5" y="178.8594"/><rect fill="#FFFFFF" height="116.5313" style="stroke:#181818;stroke-width:1.0;" width="10" x="1137.5" y="250.125"/><rect fill="#FFFFFF" height="87.3984" style="stroke:#181818;stroke-width:1.0;" width="10" x="1361.5" y="279.2578"/><rect fill="#FFFFFF" height="29.1328" style="stroke:#181818;stroke-width:1.0;" width="10" x="1628.5" y="308.3906"/><line style="stroke:#181818;stroke-width:0.5;stroke-dasharray:5.0,5.0;" x1="27" x2="27" y1="118.5938" y2="384.6563"/><line style="stroke:#181818;stroke-width:0.5;stroke-dasharray:5.0,5.0;" x1="442" x2="442" y1="118.5938" y2="384.6563"/><line style="stroke:#181818;stroke-width:0.5;stroke-dasharray:5.0,5.0;" x1="683" x2="683" y1="118.5938" y2="384.6563"/><line style="stroke:#181818;stroke-width:0.5;stroke-dasharray:5.0,5.0;" x1="1142.5" x2="1142.5" y1="118.5938" y2="384.6563"/><line style="stroke:#181818;stroke-width:0.5;stroke-dasharray:5.0,5.0;" x1="1366.5" x2="1366.5" y1="118.5938" y2="384.6563"/><line style="stroke:#181818;stroke-width:0.5;stroke-dasharray:5.0,5.0;" x1="1633.5" x2="1633.5" y1="118.5938" y2="384.6563"/><text fill="#000000" font-family="sans-serif" font-size="14" lengthAdjust="spacing" textLength="38" x="5" y="115.292">Users</text><ellipse cx="27" cy="50.7969" fill="#E2E2F0" rx="8" ry="8" style="stroke:#181818;stroke-width:0.5;"/><path d="M27,58.7969 L27,85.7969 M14,66.7969 L40,66.7969 M27,85.7969 L14,100.7969 M27,85.7969 L40,100.7969 " fill="none" style="stroke:#181818;stroke-width:0.5;"/><text fill="#000000" font-family="sans-serif" font-size="14" lengthAdjust="spacing" textLength="38" x="5" y="396.6514">Users</text><ellipse cx="27" cy="408.4531" fill="#E2E2F0" rx="8" ry="8" style="stroke:#181818;stroke-width:0.5;"/><path d="M27,416.4531 L27,443.4531 M14,424.4531 L40,424.4531 M27,443.4531 L14,458.4531 M27,443.4531 L40,458.4531 " fill="none" style="stroke:#181818;stroke-width:0.5;"/><rect fill="#E2E2F0" height="30.2969" rx="2.5" ry="2.5" style="stroke:#181818;stroke-width:0.5;" width="64" x="410" y="87.2969"/><text fill="#000000" font-family="sans-serif" font-size="14" lengthAdjust="spacing" textLength="50" x="417" y="107.292">Routes</text><rect fill="#E2E2F0" height="30.2969" rx="2.5" ry="2.5" style="stroke:#181818;stroke-width:0.5;" width="64" x="410" y="383.6563"/><text fill="#000000" font-family="sans-serif" font-size="14" lengthAdjust="spacing" textLength="50" x="417" y="403.6514">Routes</text><rect fill="#E2E2F0" height="30.2969" rx="2.5" ry="2.5" style="stroke:#181818;stroke-width:0.5;" width="399" x="484" y="87.2969"/><text fill="#000000" font-family="sans-serif" font-size="14" lengthAdjust="spacing" textLength="385" x="491" y="107.292">getPostsByDateController:getPostsByDateController</text><rect fill="#E2E2F0" height="30.2969" rx="2.5" ry="2.5" style="stroke:#181818;stroke-width:0.5;" width="399" x="484" y="383.6563"/><text fill="#000000" font-family="sans-serif" font-size="14" lengthAdjust="spacing" textLength="385" x="491" y="403.6514">getPostsByDateController:getPostsByDateController</text><rect fill="#E2E2F0" height="30.2969" rx="2.5" ry="2.5" style="stroke:#181818;stroke-width:0.5;" width="200" x="1042.5" y="87.2969"/><text fill="#000000" font-family="sans-serif" font-size="14" lengthAdjust="spacing" textLength="186" x="1049.5" y="107.292">useCase: GetPostsByDate</text><rect fill="#E2E2F0" height="30.2969" rx="2.5" ry="2.5" style="stroke:#181818;stroke-width:0.5;" width="200" x="1042.5" y="383.6563"/><text fill="#000000" font-family="sans-serif" font-size="14" lengthAdjust="spacing" textLength="186" x="1049.5" y="403.6514">useCase: GetPostsByDate</text><rect fill="#E2E2F0" height="30.2969" rx="2.5" ry="2.5" style="stroke:#181818;stroke-width:0.5;" width="168" x="1282.5" y="87.2969"/><text fill="#000000" font-family="sans-serif" font-size="14" lengthAdjust="spacing" textLength="154" x="1289.5" y="107.292">postRepo: IPostRepo</text><rect fill="#E2E2F0" height="30.2969" rx="2.5" ry="2.5" style="stroke:#181818;stroke-width:0.5;" width="168" x="1282.5" y="383.6563"/><text fill="#000000" font-family="sans-serif" font-size="14" lengthAdjust="spacing" textLength="154" x="1289.5" y="403.6514">postRepo: IPostRepo</text><text fill="#000000" font-family="sans-serif" font-size="14" lengthAdjust="spacing" textLength="48" x="1606.5" y="115.292">MySQL</text><path d="M1615.5,66.2969 C1615.5,56.2969 1633.5,56.2969 1633.5,56.2969 C1633.5,56.2969 1651.5,56.2969 1651.5,66.2969 L1651.5,92.2969 C1651.5,102.2969 1633.5,102.2969 1633.5,102.2969 C1633.5,102.2969 1615.5,102.2969 1615.5,92.2969 L1615.5,66.2969 " fill="#E2E2F0" style="stroke:#181818;stroke-width:1.5;"/><path d="M1615.5,66.2969 C1615.5,76.2969 1633.5,76.2969 1633.5,76.2969 C1633.5,76.2969 1651.5,76.2969 1651.5,66.2969 " fill="none" style="stroke:#181818;stroke-width:1.5;"/><text fill="#000000" font-family="sans-serif" font-size="14" lengthAdjust="spacing" textLength="48" x="1606.5" y="396.6514">MySQL</text><path d="M1615.5,409.9531 C1615.5,399.9531 1633.5,399.9531 1633.5,399.9531 C1633.5,399.9531 1651.5,399.9531 1651.5,409.9531 L1651.5,435.9531 C1651.5,445.9531 1633.5,445.9531 1633.5,445.9531 C1633.5,445.9531 1615.5,445.9531 1615.5,435.9531 L1615.5,409.9531 " fill="#E2E2F0" style="stroke:#181818;stroke-width:1.5;"/><path d="M1615.5,409.9531 C1615.5,419.9531 1633.5,419.9531 1633.5,419.9531 C1633.5,419.9531 1651.5,419.9531 1651.5,409.9531 " fill="none" style="stroke:#181818;stroke-width:1.5;"/><rect fill="#FFFFFF" height="216.9297" style="stroke:#181818;stroke-width:1.0;" width="10" x="437" y="149.7266"/><rect fill="#FFFFFF" height="187.7969" style="stroke:#181818;stroke-width:1.0;" width="10" x="678.5" y="178.8594"/><rect fill="#FFFFFF" height="116.5313" style="stroke:#181818;stroke-width:1.0;" width="10" x="1137.5" y="250.125"/><rect fill="#FFFFFF" height="87.3984" style="stroke:#181818;stroke-width:1.0;" width="10" x="1361.5" y="279.2578"/><rect fill="#FFFFFF" height="29.1328" style="stroke:#181818;stroke-width:1.0;" width="10" x="1628.5" y="308.3906"/><polygon fill="#181818" points="425,145.7266,435,149.7266,425,153.7266,429,149.7266" style="stroke:#181818;stroke-width:1.0;"/><line style="stroke:#181818;stroke-width:1.0;" x1="27" x2="431" y1="149.7266" y2="149.7266"/><text fill="#000000" font-family="sans-serif" font-size="13" lengthAdjust="spacing" textLength="391" x="34" y="144.6606">call Endpoint (method: GET, route: "/", header: "specificDay")</text><polygon fill="#181818" points="666.5,174.8594,676.5,178.8594,666.5,182.8594,670.5,178.8594" style="stroke:#181818;stroke-width:1.0;"/><line style="stroke:#181818;stroke-width:1.0;" x1="447" x2="672.5" y1="178.8594" y2="178.8594"/><text fill="#000000" font-family="sans-serif" font-size="13" lengthAdjust="spacing" textLength="115" x="454" y="173.7935">.execute(req, res)</text><line style="stroke:#181818;stroke-width:1.0;" x1="688.5" x2="730.5" y1="207.9922" y2="207.9922"/><line style="stroke:#181818;stroke-width:1.0;" x1="730.5" x2="730.5" y1="207.9922" y2="220.9922"/><line style="stroke:#181818;stroke-width:1.0;" x1="689.5" x2="730.5" y1="220.9922" y2="220.9922"/><polygon fill="#181818" points="699.5,216.9922,689.5,220.9922,699.5,224.9922,695.5,220.9922" style="stroke:#181818;stroke-width:1.0;"/><text fill="#000000" font-family="sans-serif" font-size="13" lengthAdjust="spacing" textLength="435" x="695.5" y="202.9263">.executeImpl(req: DecodedExpressRequest,res: express.Response)</text><polygon fill="#181818" points="1125.5,246.125,1135.5,250.125,1125.5,254.125,1129.5,250.125" style="stroke:#181818;stroke-width:1.0;"/><line style="stroke:#181818;stroke-width:1.0;" x1="688.5" x2="1131.5" y1="250.125" y2="250.125"/><text fill="#000000" font-family="sans-serif" font-size="13" lengthAdjust="spacing" textLength="87" x="695.5" y="245.0591">.execute(dto)</text><polygon fill="#181818" points="1349.5,275.2578,1359.5,279.2578,1349.5,283.2578,1353.5,279.2578" style="stroke:#181818;stroke-width:1.0;"/><line style="stroke:#181818;stroke-width:1.0;" x1="1147.5" x2="1355.5" y1="279.2578" y2="279.2578"/><text fill="#000000" font-family="sans-serif" font-size="13" lengthAdjust="spacing" textLength="195" x="1154.5" y="274.1919">.getPostsByDate (date: string)</text><polygon fill="#181818" points="1616.5,304.3906,1626.5,308.3906,1616.5,312.3906,1620.5,308.3906" style="stroke:#181818;stroke-width:1.0;"/><line style="stroke:#181818;stroke-width:1.0;" x1="1371.5" x2="1622.5" y1="308.3906" y2="308.3906"/><text fill="#000000" font-family="sans-serif" font-size="13" lengthAdjust="spacing" textLength="238" x="1378.5" y="303.3247">getPostsByDate(date?: Date | string)</text><polygon fill="#181818" points="1382.5,333.5234,1372.5,337.5234,1382.5,341.5234,1378.5,337.5234" style="stroke:#181818;stroke-width:1.0;"/><line style="stroke:#181818;stroke-width:1.0;stroke-dasharray:2.0,2.0;" x1="1376.5" x2="1632.5" y1="337.5234" y2="337.5234"/><text fill="#000000" font-family="sans-serif" font-size="13" lengthAdjust="spacing" textLength="147" x="1388.5" y="332.4575">&lt;PostDetails[]&gt;(posts)</text><polygon fill="#181818" points="1153.5,362.6563,1143.5,366.6563,1153.5,370.6563,1149.5,366.6563" style="stroke:#181818;stroke-width:1.0;"/><line style="stroke:#181818;stroke-width:1.0;stroke-dasharray:2.0,2.0;" x1="1147.5" x2="1365.5" y1="366.6563" y2="366.6563"/><text fill="#000000" font-family="sans-serif" font-size="13" lengthAdjust="spacing" textLength="147" x="1159.5" y="361.5903">&lt;PostDetails[]&gt;(posts)</text><!--SRC=[ZL9DJyCm3BtdLrWzTT8suCAXGaDYdT0aaCR6JeX3QCmMgMsosXkhn8ydwRvQM86ROpllsS-FDQS8yzdbrJNCOkX1hCcciWHhYE53yn8o7mrDbc7E12O72GkzmHoKB8MG2Pi2veG52IiBrecsCcUOcZLZCnKia2SEZExAM38EJSw5ILCiehP209AWhTZ4NXCE9M44zuts2g6Pckywcz_zkbEq9eBnP1zMNuyleIJBD_SF7ilPquEl7J92LEj3Rx3V6Y98P9h2A5VMQ0SVPiXBeznme-Sk5BufWk0YwC8IfN82G40M4_skarYMGSUhgZTkreECOW_iA5f5X3vkCN5jOO4hnu9KmsaLKRHL_iSrpcpg-IA8CJ4ArMXh7JDDSRL6ugwB8y1ThZz5iYOdxFnAUlPQjUqKczfYvsyhpgOz-l6W3h4v1OJke8w8kD3veaPnye0uXXxgSF_ecquLpgrJn7_-_8btyitHKxtcP3S-Z96bJkdbTH1wTxfhAZo3KHkfNRo_0Mj6np_4hJMqsghMixFk5m00]--></g></svg>