<?xml version="1.0" encoding="us-ascii" standalone="no"?><svg xmlns="http://www.w3.org/2000/svg" xmlns:xlink="http://www.w3.org/1999/xlink" contentStyleType="text/css" height="3493px" preserveAspectRatio="none" style="width:1131px;height:3493px;background:#FFFFFF;" version="1.1" viewBox="0 0 1131 3493" width="1131px" zoomAndPan="magnify"><defs/><g><!--cluster DDD Forum--><g id="cluster_DDD Forum"><rect fill="none" height="3480" rx="2.5" ry="2.5" style="stroke:#000000;stroke-width:1.0;" width="908" x="217" y="7"/><text fill="#000000" font-family="sans-serif" font-size="14" font-weight="bold" lengthAdjust="spacing" textLength="89" x="626.5" y="21.9951">DDD Forum</text></g><g id="elem_UC1"><ellipse cx="671.1802" cy="68.836" fill="#F1F1F1" rx="122.1802" ry="26.836" style="stroke:#181818;stroke-width:0.5;"/><text fill="#000000" font-family="sans-serif" font-size="14" lengthAdjust="spacing" textLength="212" x="565.1802" y="71.6827">US001: Register New Account</text></g><g id="elem_UC2"><ellipse cx="670.7652" cy="156.153" fill="#F1F1F1" rx="113.7652" ry="25.153" style="stroke:#181818;stroke-width:0.5;"/><text fill="#000000" font-family="sans-serif" font-size="14" lengthAdjust="spacing" textLength="194" x="573.7652" y="158.9997">US002: View Individual Post</text></g><g id="elem_UC3"><ellipse cx="671.1316" cy="240.2263" fill="#F1F1F1" rx="109.1316" ry="24.2263" style="stroke:#181818;stroke-width:0.5;"/><text fill="#000000" font-family="sans-serif" font-size="14" lengthAdjust="spacing" textLength="184" x="579.1316" y="243.073">US003: View Member Info</text></g><g id="elem_UC4"><ellipse cx="671.0038" cy="326.9008" fill="#F1F1F1" rx="125.0038" ry="27.4008" style="stroke:#181818;stroke-width:0.5;"/><text fill="#000000" font-family="sans-serif" font-size="14" lengthAdjust="spacing" textLength="218" x="562.0038" y="329.7474">US004: View Popular Posts List</text></g><g id="elem_UC5"><ellipse cx="671.2303" cy="415.2461" fill="#F1F1F1" rx="114.2303" ry="25.2461" style="stroke:#181818;stroke-width:0.5;"/><text fill="#000000" font-family="sans-serif" font-size="14" lengthAdjust="spacing" textLength="195" x="573.7303" y="418.0927">US006: View New Posts List</text></g><g id="elem_UC6"><ellipse cx="671.1163" cy="496.2233" fill="#F1F1F1" rx="94.1163" ry="21.2233" style="stroke:#181818;stroke-width:0.5;"/><text fill="#000000" font-family="sans-serif" font-size="14" lengthAdjust="spacing" textLength="151" x="595.6163" y="499.0699">US005: Create a Post</text></g><g id="elem_UC7"><ellipse cx="671.0673" cy="574.2135" fill="#F1F1F1" rx="99.0673" ry="22.2135" style="stroke:#181818;stroke-width:0.5;"/><text fill="#000000" font-family="sans-serif" font-size="14" lengthAdjust="spacing" textLength="162" x="590.0673" y="577.0601">US007: Comment Post</text></g><g id="elem_UC8"><ellipse cx="670.9079" cy="655.7816" fill="#F1F1F1" rx="111.9079" ry="24.7816" style="stroke:#181818;stroke-width:0.5;"/><text fill="#000000" font-family="sans-serif" font-size="14" lengthAdjust="spacing" textLength="190" x="575.9079" y="658.6283">US008: Reply to Comment</text></g><g id="elem_UC9"><ellipse cx="670.8318" cy="736.8664" fill="#F1F1F1" rx="92.3318" ry="20.8664" style="stroke:#181818;stroke-width:0.5;"/><text fill="#000000" font-family="sans-serif" font-size="14" lengthAdjust="spacing" textLength="147" x="597.3318" y="739.713">US009: Vote on Post</text></g><g id="elem_UC10"><ellipse cx="671.0183" cy="818.0037" fill="#F1F1F1" rx="110.5183" ry="24.5037" style="stroke:#181818;stroke-width:0.5;"/><text fill="#000000" font-family="sans-serif" font-size="14" lengthAdjust="spacing" textLength="187" x="577.5183" y="820.8503">US010: Vote on Comment</text></g><g id="elem_UC11"><ellipse cx="670.8479" cy="909.9696" fill="#F1F1F1" rx="147.8479" ry="31.9696" style="stroke:#181818;stroke-width:0.5;"/><text fill="#000000" font-family="sans-serif" font-size="14" lengthAdjust="spacing" textLength="266" x="537.8479" y="912.8163">US011: Sort Post by Ascending Order</text></g><g id="elem_UC12"><ellipse cx="670.8973" cy="1003.1795" fill="#F1F1F1" rx="118.8973" ry="26.1795" style="stroke:#181818;stroke-width:0.5;"/><text fill="#000000" font-family="sans-serif" font-size="14" lengthAdjust="spacing" textLength="205" x="568.3973" y="1006.0261">US012: View Member Details</text></g><g id="elem_UC13"><ellipse cx="670.8518" cy="1084.0704" fill="#F1F1F1" rx="88.3518" ry="20.0704" style="stroke:#181818;stroke-width:0.5;"/><text fill="#000000" font-family="sans-serif" font-size="14" lengthAdjust="spacing" textLength="138" x="601.8518" y="1086.917">US013: Delete User</text></g><g id="elem_UC14"><ellipse cx="671.1272" cy="1188.1254" fill="#F1F1F1" rx="233.6272" ry="49.1254" style="stroke:#181818;stroke-width:0.5;"/><text fill="#000000" font-family="sans-serif" font-size="14" lengthAdjust="spacing" textLength="442" x="450.1272" y="1190.9721">US014: Member view average of Comments for a Specific Day</text></g><g id="elem_UC15"><ellipse cx="670.962" cy="1317.7924" fill="#F1F1F1" rx="214.462" ry="45.2924" style="stroke:#181818;stroke-width:0.5;"/><text fill="#000000" font-family="sans-serif" font-size="14" lengthAdjust="spacing" textLength="403" x="469.462" y="1320.6391">US015: Member view average of Posts for a Specific Day</text></g><g id="elem_UC16"><ellipse cx="670.8781" cy="1450.9756" fill="#F1F1F1" rx="250.3781" ry="52.4756" style="stroke:#181818;stroke-width:0.5;"/><text fill="#000000" font-family="sans-serif" font-size="14" lengthAdjust="spacing" textLength="476" x="432.8781" y="1453.8223">US016: Member view Post with more Comments for a Specific Day</text></g><g id="elem_UC17"><ellipse cx="671.0832" cy="1606.0166" fill="#F1F1F1" rx="325.5832" ry="67.5166" style="stroke:#181818;stroke-width:0.5;"/><text fill="#000000" font-family="sans-serif" font-size="14" lengthAdjust="spacing" textLength="628" x="357.0832" y="1608.8633">US017: Member view top 3 Members that published more Comments for a Specific Day</text></g><g id="elem_UC18"><ellipse cx="670.9539" cy="1779.8908" fill="#F1F1F1" rx="342.4539" ry="70.8908" style="stroke:#181818;stroke-width:0.5;"/><text fill="#000000" font-family="sans-serif" font-size="14" lengthAdjust="spacing" textLength="662" x="339.9539" y="1782.7375">US018: Member view Members without any activity (Posts and Comments) for a Specific Day</text></g><g id="elem_UC19"><ellipse cx="671.2269" cy="1950.1454" fill="#F1F1F1" rx="308.7269" ry="64.1454" style="stroke:#181818;stroke-width:0.5;"/><text fill="#000000" font-family="sans-serif" font-size="14" lengthAdjust="spacing" textLength="594" x="374.2269" y="1952.9921">US019: Member view percentage of Posts without any Comment for a Specific Day</text></g><g id="elem_UC20"><ellipse cx="671.1489" cy="2105.0298" fill="#F1F1F1" rx="268.1489" ry="56.0298" style="stroke:#181818;stroke-width:0.5;"/><text fill="#000000" font-family="sans-serif" font-size="14" lengthAdjust="spacing" textLength="512" x="415.1489" y="2107.8765">US020: Member view hour of the day with more Posts for a Specific Day</text></g><g id="elem_UC21"><ellipse cx="670.8905" cy="2269.1781" fill="#F1F1F1" rx="351.3905" ry="72.6781" style="stroke:#181818;stroke-width:0.5;"/><text fill="#000000" font-family="sans-serif" font-size="14" lengthAdjust="spacing" textLength="680" x="330.8905" y="2272.0248">US021: Member View Popular posts, with more than 2/3 of the comments highlighted in green.</text></g><g id="elem_UC22"><ellipse cx="671.0018" cy="2446.1004" fill="#F1F1F1" rx="336.0018" ry="69.6004" style="stroke:#181818;stroke-width:0.5;"/><text fill="#000000" font-family="sans-serif" font-size="14" lengthAdjust="spacing" textLength="649" x="346.5018" y="2448.947">US022: Member View Recent posts, with less than 1/3 of the comments highlighted in red.</text></g><g id="elem_UC23"><ellipse cx="670.9856" cy="2637.7971" fill="#F1F1F1" rx="421.9856" ry="86.7971" style="stroke:#181818;stroke-width:0.5;"/><text fill="#000000" font-family="sans-serif" font-size="14" lengthAdjust="spacing" textLength="822" x="259.9856" y="2640.6438">US023: Member View Unpopular posts, with more than 1/3 and less than 2/3 of the comments highlighted in yellow</text></g><g id="elem_UC24"><ellipse cx="671.036" cy="2829.2072" fill="#F1F1F1" rx="331.536" ry="68.7072" style="stroke:#181818;stroke-width:0.5;"/><text fill="#000000" font-family="sans-serif" font-size="14" lengthAdjust="spacing" textLength="636" x="351.036" y="2832.0539">US024: Member View Popular posts, with more than five days should have the date in red</text></g><g id="elem_UC25"><ellipse cx="670.9503" cy="3003.9901" fill="#F1F1F1" rx="342.9503" ry="70.9901" style="stroke:#181818;stroke-width:0.5;"/><text fill="#000000" font-family="sans-serif" font-size="14" lengthAdjust="spacing" textLength="663" x="339.4503" y="3006.8367">US025: Member View Unpopular posts, with less than two days should have the date in green</text></g><g id="elem_UC26"><ellipse cx="670.9125" cy="3199.9825" fill="#F1F1F1" rx="437.9125" ry="89.9825" style="stroke:#181818;stroke-width:0.5;"/><text fill="#000000" font-family="sans-serif" font-size="14" lengthAdjust="spacing" textLength="854" x="243.9125" y="3202.8292">US026: Member View Popular posts, older than two days and newer than seven days should have the date in yellow text</text></g><g id="elem_UC27"><ellipse cx="670.8939" cy="3398.0788" fill="#F1F1F1" rx="350.8939" ry="72.5788" style="stroke:#181818;stroke-width:0.5;"/><text fill="#000000" font-family="sans-serif" font-size="14" lengthAdjust="spacing" textLength="679" x="331.3939" y="3400.9255">US027: Member View Popular posts, posts that have no comments should display a purple text</text></g><!--entity Visitor--><g id="elem_Visitor"><ellipse cx="149.5" cy="254.5" fill="#F1F1F1" rx="8" ry="8" style="stroke:#181818;stroke-width:0.5;"/><path d="M149.5,262.5 L149.5,289.5 M136.5,270.5 L162.5,270.5 M149.5,289.5 L136.5,304.5 M149.5,289.5 L162.5,304.5 " fill="none" style="stroke:#181818;stroke-width:0.5;"/><text fill="#000000" font-family="sans-serif" font-size="14" lengthAdjust="spacing" textLength="47" x="126" y="318.9951">Visitor</text></g><!--entity Member--><g id="elem_Member"><ellipse cx="36" cy="1421.5" fill="#F1F1F1" rx="8" ry="8" style="stroke:#181818;stroke-width:0.5;"/><path d="M36,1429.5 L36,1456.5 M23,1437.5 L49,1437.5 M36,1456.5 L23,1471.5 M36,1456.5 L49,1471.5 " fill="none" style="stroke:#181818;stroke-width:0.5;"/><text fill="#000000" font-family="sans-serif" font-size="14" lengthAdjust="spacing" textLength="60" x="6" y="1485.9951">Member</text></g><!--link Member to Visitor--><g id="link_Member_Visitor"><path d="M40.0968,1412.75 C50.7924,1281.65 87.631,838.4 126,473 C131.487,420.75 136.5993,378.3502 141.3813,340.2002 " fill="none" id="Member-to-Visitor" style="stroke:#181818;stroke-width:1.0;"/><polygon fill="none" points="143.62,322.34,135.4279,339.454,147.3347,340.9465,143.62,322.34" style="stroke:#181818;stroke-width:1.0;"/></g><!--link Visitor to UC1--><g id="link_Visitor_UC1"><path d="M152.085,245.97 C155.96,206.09 168.608,144.88 209,113 C314.235,29.94 472.0314,35.5641 573.4064,50.1741 " fill="none" id="Visitor-to-UC1" style="stroke:#181818;stroke-width:1.0;"/><polygon fill="#181818" points="579.345,51.03,571.0076,45.7871,574.3961,50.3168,569.8665,53.7053,579.345,51.03" style="stroke:#181818;stroke-width:1.0;"/></g><!--link Visitor to UC2--><g id="link_Visitor_UC2"><path d="M166.921,245.84 C176.541,228.25 190.483,208.9 209,198 C321.536,131.74 470.9809,132.0923 569.4969,141.6223 " fill="none" id="Visitor-to-UC2" style="stroke:#181818;stroke-width:1.0;"/><polygon fill="#181818" points="575.469,142.2,566.896,137.352,570.4922,141.7186,566.1257,145.3148,575.469,142.2" style="stroke:#181818;stroke-width:1.0;"/></g><!--link Visitor to UC3--><g id="link_Visitor_UC3"><path d="M173.156,282.08 C240.825,276.35 438.4794,259.6063 563.0544,249.0563 " fill="none" id="Visitor-to-UC3" style="stroke:#181818;stroke-width:1.0;"/><polygon fill="#181818" points="569.033,248.55,559.7276,245.3237,564.0508,248.9719,560.4026,253.2952,569.033,248.55" style="stroke:#181818;stroke-width:1.0;"/></g><!--link Visitor to UC4--><g id="link_Visitor_UC4"><path d="M173.156,285.88 C238.139,291.25 422.5305,306.5148 547.8635,316.8948 " fill="none" id="Visitor-to-UC4" style="stroke:#181818;stroke-width:1.0;"/><polygon fill="#181818" points="553.843,317.39,545.2039,312.6608,548.8601,316.9773,544.5436,320.6335,553.843,317.39" style="stroke:#181818;stroke-width:1.0;"/></g><!--link Visitor to UC5--><g id="link_Visitor_UC5"><path d="M166.249,322.11 C175.833,340.33 189.944,360.61 209,372 C321.304,439.1 471.1647,438.8359 569.7897,429.3259 " fill="none" id="Visitor-to-UC5" style="stroke:#181818;stroke-width:1.0;"/><polygon fill="#181818" points="575.762,428.75,566.4196,425.6323,570.7851,429.2299,567.1875,433.5954,575.762,428.75" style="stroke:#181818;stroke-width:1.0;"/></g><!--link Member to UC6--><g id="link_Member_UC6"><path d="M37.2244,1412.92 C39.1248,1251.78 56.3727,629.8 209,534 C328.542,458.97 495.2825,468.2074 591.7985,481.8974 " fill="none" id="Member-to-UC6" style="stroke:#181818;stroke-width:1.0;"/><polygon fill="#181818" points="597.739,482.74,589.3899,477.5157,592.7886,482.0378,588.2664,485.4364,597.739,482.74" style="stroke:#181818;stroke-width:1.0;"/></g><!--link Member to UC7--><g id="link_Member_UC7"><path d="M38,1412.96 C42.9381,1260.9 70.4391,700.77 209,613 C326.555,538.54 490.1908,546.1908 587.5398,559.4408 " fill="none" id="Member-to-UC7" style="stroke:#181818;stroke-width:1.0;"/><polygon fill="#181818" points="593.485,560.25,585.1067,555.0728,588.5307,559.5757,584.0278,562.9997,593.485,560.25" style="stroke:#181818;stroke-width:1.0;"/></g><!--link Member to UC8--><g id="link_Member_UC8"><path d="M37.3361,1412.66 C39.2962,1314.02 51.6132,1044.56 126,836 C150.044,768.59 148.363,736.02 209,698 C321.514,627.45 474.8969,629.8157 573.7319,640.8257 " fill="none" id="Member-to-UC8" style="stroke:#181818;stroke-width:1.0;"/><polygon fill="#181818" points="579.695,641.49,571.1932,636.5182,574.7257,640.9364,570.3075,644.469,579.695,641.49" style="stroke:#181818;stroke-width:1.0;"/></g><!--link Member to UC9--><g id="link_Member_UC9"><path d="M40.13,1412.76 C51.8888,1280.44 98.5169,846.22 209,776 C328.476,700.07 496.0125,709.3572 592.5025,723.0472 " fill="none" id="Member-to-UC9" style="stroke:#181818;stroke-width:1.0;"/><polygon fill="#181818" points="598.443,723.89,590.0941,718.6654,593.4926,723.1876,588.9703,726.5861,598.443,723.89" style="stroke:#181818;stroke-width:1.0;"/></g><!--link Member to UC10--><g id="link_Member_UC10"><path d="M40.1969,1412.77 C47.7475,1333.64 70.4101,1147.07 126,1001 C151.865,933.04 147.576,898.92 209,860 C321.858,788.49 476.5933,791.4547 575.3983,802.8147 " fill="none" id="Member-to-UC10" style="stroke:#181818;stroke-width:1.0;"/><polygon fill="#181818" points="581.359,803.5,572.8748,798.4982,576.3917,802.9289,571.961,806.4458,581.359,803.5" style="stroke:#181818;stroke-width:1.0;"/></g><!--link Member to UC11--><g id="link_Member_UC11"><path d="M40.5081,1412.84 C48.1656,1341.93 70.37,1186.3 126,1068 C151.912,1012.9 155.946,988.88 209,959 C308.23,903.11 432.61,893.8398 529.386,896.9098 " fill="none" id="Member-to-UC11" style="stroke:#181818;stroke-width:1.0;"/><polygon fill="#181818" points="535.383,897.1,526.5144,892.8167,530.3855,896.9415,526.2607,900.8126,535.383,897.1" style="stroke:#181818;stroke-width:1.0;"/></g><!--link Member to UC12--><g id="link_Member_UC12"><path d="M38.8148,1412.9 C45.2763,1327.03 74.7347,1120.1 209,1046 C320.019,984.73 463.2821,982.1873 561.4871,989.6173 " fill="none" id="Member-to-UC12" style="stroke:#181818;stroke-width:1.0;"/><polygon fill="#181818" points="567.47,990.07,558.7974,985.4024,562.4842,989.6928,558.1939,993.3796,567.47,990.07" style="stroke:#181818;stroke-width:1.0;"/></g><!--link Member to UC13--><g id="link_Member_UC13"><path d="M44.3083,1412.76 C60.1699,1341.45 105.0367,1189.26 209,1121 C329.814,1041.68 502.7201,1054.6636 598.2531,1069.9236 " fill="none" id="Member-to-UC13" style="stroke:#181818;stroke-width:1.0;"/><polygon fill="#181818" points="604.178,1070.87,595.9216,1065.5005,599.2406,1070.0813,594.6597,1073.4003,604.178,1070.87" style="stroke:#181818;stroke-width:1.0;"/></g><!--link Member to UC14--><g id="link_Member_UC14"><path d="M58.7931,1412.74 C87.0779,1366.98 140.966,1291.94 209,1255 C278.031,1217.52 355.0779,1199.5123 431.5199,1190.7623 " fill="none" id="Member-to-UC14" style="stroke:#181818;stroke-width:1.0;"/><polygon fill="#181818" points="437.481,1190.08,428.0845,1187.1295,432.5134,1190.6486,428.9943,1195.0776,437.481,1190.08" style="stroke:#181818;stroke-width:1.0;"/></g><!--link Member to UC15--><g id="link_Member_UC15"><path d="M66.0516,1436.54 C99.639,1420.45 156.986,1394.9 209,1381 C293.283,1358.47 382.5399,1344.4311 464.4649,1334.9311 " fill="none" id="Member-to-UC15" style="stroke:#181818;stroke-width:1.0;"/><polygon fill="#181818" points="470.425,1334.24,461.0242,1331.3033,465.4583,1334.8159,461.9457,1339.2501,470.425,1334.24" style="stroke:#181818;stroke-width:1.0;"/></g><!--link Member to UC16--><g id="link_Member_UC16"><path d="M66.2614,1451 C129.358,1451 277.586,1451 414.359,1451 " fill="none" id="Member-to-UC16" style="stroke:#181818;stroke-width:1.0;"/><polygon fill="#181818" points="420.359,1451,411.359,1447,415.359,1451,411.359,1455,420.359,1451" style="stroke:#181818;stroke-width:1.0;"/></g><!--link Member to UC17--><g id="link_Member_UC17"><path d="M66.1739,1465.02 C99.8735,1480.71 157.323,1505.89 209,1521 C271.882,1539.38 334.9048,1553.4987 399.8468,1565.7387 " fill="none" id="Member-to-UC17" style="stroke:#181818;stroke-width:1.0;"/><polygon fill="#181818" points="405.743,1566.85,397.6396,1561.2523,400.8295,1565.9239,396.1579,1569.1139,405.743,1566.85" style="stroke:#181818;stroke-width:1.0;"/></g><!--link Member to UC18--><g id="link_Member_UC18"><path d="M64.1365,1489.24 C111.947,1556.56 206.424,1689.35 209,1691 C252.925,1719.14 297.8998,1737.2447 349.3538,1750.8647 " fill="none" id="Member-to-UC18" style="stroke:#181818;stroke-width:1.0;"/><polygon fill="#181818" points="355.154,1752.4,347.4772,1746.2302,350.3205,1751.1206,345.4301,1753.9638,355.154,1752.4" style="stroke:#181818;stroke-width:1.0;"/></g><!--link Member to UC19--><g id="link_Member_UC19"><path d="M52.4265,1489.2 C69.0083,1529.13 96.9256,1593.19 126,1646 C144.43,1679.48 157.901,1682.89 173,1718 C200.259,1781.38 158.771,1821.7 209,1869 C251.3,1908.83 300.1018,1931.3168 356.8778,1945.0768 " fill="none" id="Member-to-UC19" style="stroke:#181818;stroke-width:1.0;"/><polygon fill="#181818" points="362.709,1946.49,354.9044,1940.4827,357.8497,1945.3123,353.0201,1948.2576,362.709,1946.49" style="stroke:#181818;stroke-width:1.0;"/></g><!--link Member to UC20--><g id="link_Member_UC20"><path d="M46.5112,1489.34 C60.4679,1542.84 88.9116,1642.31 126,1722 C142.757,1758.01 159.261,1760.74 173,1798 C209.402,1896.73 134.759,1957.43 209,2032 C261.956,2085.19 330.9876,2108.704 405.1286,2117.994 " fill="none" id="Member-to-UC20" style="stroke:#181818;stroke-width:1.0;"/><polygon fill="#181818" points="411.082,2118.74,402.6491,2113.6521,406.1208,2118.1184,401.6545,2121.59,411.082,2118.74" style="stroke:#181818;stroke-width:1.0;"/></g><!--link Member to UC21--><g id="link_Member_UC21"><path d="M43.3462,1489.14 C54.9779,1554.69 82.5805,1692.25 126,1802 C141.88,1842.14 159.672,1845.94 173,1887 C193.186,1949.19 164.418,2131.18 209,2179 C241.39,2213.74 277.2448,2235.3551 322.0598,2251.0651 " fill="none" id="Member-to-UC21" style="stroke:#181818;stroke-width:1.0;"/><polygon fill="#181818" points="327.722,2253.05,320.552,2246.2979,323.0035,2251.3959,317.9055,2253.8475,327.722,2253.05" style="stroke:#181818;stroke-width:1.0;"/></g><!--link Member to UC22--><g id="link_Member_UC22"><path d="M41.7208,1489.12 C51.933,1566.36 79.0239,1746.26 126,1891 C141.534,1938.86 159.909,1945.41 173,1994 C194.205,2072.7 153.965,2298.88 209,2359 C243.579,2396.77 283.2596,2419.433 332.0826,2434.853 " fill="none" id="Member-to-UC22" style="stroke:#181818;stroke-width:1.0;"/><polygon fill="#181818" points="337.804,2436.66,330.4266,2430.1352,333.0361,2435.1541,328.0172,2437.7637,337.804,2436.66" style="stroke:#181818;stroke-width:1.0;"/></g><!--link Member to UC23--><g id="link_Member_UC23"><path d="M41.0514,1489.23 C51.0315,1578.98 79.4283,1809.81 126,1998 C141.767,2061.71 159.485,2073.77 173,2138 C191.149,2224.25 150.956,2466.67 209,2533 C233.19,2560.643 257.6276,2579.1776 290.3696,2595.3216 " fill="none" id="Member-to-UC23" style="stroke:#181818;stroke-width:1.0;"/><polygon fill="#181818" points="295.751,2597.975,289.4478,2590.4073,291.2665,2595.7638,285.91,2597.5825,295.751,2597.975" style="stroke:#181818;stroke-width:1.0;"/></g><!--link Member to UC24--><g id="link_Member_UC24"><path d="M40.6928,1489.01 C51.1158,1593.61 82.8342,1894.45 126,2142 C142.653,2237.5 158.048,2259.22 173,2355 C186.355,2440.56 150.647,2679.022 209,2743 C244.319,2781.724 285.286,2804.6627 335.42,2819.9237 " fill="none" id="Member-to-UC24" style="stroke:#181818;stroke-width:1.0;"/><polygon fill="#181818" points="341.16,2821.671,333.7149,2815.2235,336.3767,2820.2149,331.3852,2822.8767,341.16,2821.671" style="stroke:#181818;stroke-width:1.0;"/></g><!--link Member to UC25--><g id="link_Member_UC25"><path d="M40.044,1489.14 C50.1676,1614.11 84.4307,2022.59 126,2359 C127.915,2374.5 198.195,2903.726 209,2915 C243.263,2950.752 281.5254,2972.6723 328.6534,2988.1733 " fill="none" id="Member-to-UC25" style="stroke:#181818;stroke-width:1.0;"/><polygon fill="#181818" points="334.353,2990.048,327.0534,2983.4362,329.6033,2988.4858,324.5538,2991.0357,334.353,2990.048" style="stroke:#181818;stroke-width:1.0;"/></g><!--link Member to UC26--><g id="link_Member_UC26"><path d="M38.2124,1489.21 C46.0471,1724.85 92.9004,2974.262 209,3093 C233.771,3118.334 257.8789,3135.555 289.8249,3151.025 " fill="none" id="Member-to-UC26" style="stroke:#181818;stroke-width:1.0;"/><polygon fill="#181818" points="295.225,3153.64,288.8681,3146.1173,290.7249,3151.4608,285.3814,3153.3175,295.225,3153.64" style="stroke:#181818;stroke-width:1.0;"/></g><!--link Member to UC27--><g id="link_Member_UC27"><path d="M37.5625,1489.34 C41.6726,1743.5 70.9321,3179.224 209,3308 C244.034,3340.677 281.5712,3361.2118 327.3952,3376.3598 " fill="none" id="Member-to-UC27" style="stroke:#181818;stroke-width:1.0;"/><polygon fill="#181818" points="333.092,3378.243,325.8022,3371.6203,328.3447,3376.6737,323.2913,3379.2161,333.092,3378.243" style="stroke:#181818;stroke-width:1.0;"/></g><!--SRC=[bLPDRziu4BthLmnyIHTeTqtQZfCS0gJnBb1W-u46sJiZZIsYD2cGb5sZxN_lwDCcYJXP7soDDVFU8zzmf0ltJUfAMB65hT4cBwtP8dXROtQyKudyczZWWpye18kv5tgZCBiuPhXI56OlzGRMGZdCJeh7_1yPqEUziGNQUwECXIT5mDclBBlmqXFqeqEu5_IracBJrFxzNMmhOieKhZru0rPkIW-5R42bqLacSaz0a_-aatGn0U6WlnvkVSJj4tPtkiiiwtxXtRkVjsCsVKQbC5cjLl2FiVLs0ftisc7UA9iyFaodx0Q-uaOwJo2VS0ztUMvgxLkEntkM5l0Rug743xgGErdKGi4NuuO2dXRC-e9UwGUzDdtoB4sUzybVJ5KhOLje1__AaM2UrbpsDP_QkYX_aUOlRk3Uel08ubJwPPgvf4optQBsfudBDF6gsSLA7HfV-ue- -IfDlYQzXjYDFaMzJXBPz9WOWh9fcan6FXZR2OMd0zov7CaYQkFFJPSEbQcZZ8S6hT0BgTnGa3hAoD4LAlHjbu_8gPkCtEn1Tms1sA6bimTcFQp7mPhwMi13XRbSonnMuZ3WfKwpnRDudU_FWwLjm2v3i7RVzjAND3milaPWsZ1i6M9wKy6i_yU1BuM7gdvIqfLOl9ecRJTs5T8C18rwKtiG-W0qCUXu-WEywRP6w68a- -CCMzglx3fagz1IP_bWuq-PXnFpF4VQwdmQSX2ORT1zYL28mualBnZDqvF1sOWTZ9QgGNfx0at-QE1_pGRYVF2cf4cjccbDhaaD6uke_nm8qmF5UKZu5Plz2lWKEjVniPVvB1OZMteQ-InaUzJLsGKsX4qp72MyOia7LChi1n7fIUVp_xF7QxbhRNNqh3MrAg2aaznxJKEbMp8CREaSu8lNBFcuGBytv-bQHmU-T5JmoxEhCuhcQyJKxB36_V2_mntgyngwBGQFtyTdQJfW-FAialQdcpCjlZP7HtlUGhfAqOaID8ailOy4XClc1QP_Yw1NYjls3I2CUHJFedWUnOlZ6yfj-v0DmcKONeNXTHZIKo-CMHJpA9v5yJoA8sqi4iSYTIoIno9zFDB78tqyqiSZVJpInoDzFDB7bxy1]--></g></svg>