<?xml version="1.0" encoding="us-ascii" standalone="no"?><svg xmlns="http://www.w3.org/2000/svg" xmlns:xlink="http://www.w3.org/1999/xlink" contentStyleType="text/css" height="452px" preserveAspectRatio="none" style="width:819px;height:452px;background:#FFFFFF;" version="1.1" viewBox="0 0 819 452" width="819px" zoomAndPan="magnify"><defs/><g><text fill="#000000" font-family="sans-serif" font-size="14" font-weight="bold" lengthAdjust="spacing" textLength="791" x="10" y="27.9951">SSD - US020 - As a Member, I wish to know the hour of the day with more posts for a specific day</text><rect fill="#FFFFFF" height="225.0625" style="stroke:#181818;stroke-width:1.0;" width="10" x="179.5" y="128.5938"/><rect fill="#FFFFFF" height="29.1328" style="stroke:#181818;stroke-width:1.0;" width="10" x="625.5" y="149.7266"/><rect fill="#FFFFFF" height="29.1328" style="stroke:#181818;stroke-width:1.0;" width="10" x="625.5" y="207.9922"/><rect fill="#FFFFFF" height="29.1328" style="stroke:#181818;stroke-width:1.0;" width="10" x="625.5" y="266.2578"/><rect fill="#FFFFFF" height="38.1328" style="stroke:#181818;stroke-width:1.0;" width="10" x="625.5" y="324.5234"/><line style="stroke:#181818;stroke-width:0.5;stroke-dasharray:5.0,5.0;" x1="184.5" x2="184.5" y1="118.5938" y2="371.6563"/><line style="stroke:#181818;stroke-width:0.5;stroke-dasharray:5.0,5.0;" x1="630.5" x2="630.5" y1="118.5938" y2="371.6563"/><text fill="#000000" font-family="sans-serif" font-size="14" lengthAdjust="spacing" textLength="60" x="151.5" y="115.292">Member</text><ellipse cx="184.5" cy="50.7969" fill="#E2E2F0" rx="8" ry="8" style="stroke:#181818;stroke-width:0.5;"/><path d="M184.5,58.7969 L184.5,85.7969 M171.5,66.7969 L197.5,66.7969 M184.5,85.7969 L171.5,100.7969 M184.5,85.7969 L197.5,100.7969 " fill="none" style="stroke:#181818;stroke-width:0.5;"/><text fill="#000000" font-family="sans-serif" font-size="14" lengthAdjust="spacing" textLength="60" x="151.5" y="383.6514">Member</text><ellipse cx="184.5" cy="395.4531" fill="#E2E2F0" rx="8" ry="8" style="stroke:#181818;stroke-width:0.5;"/><path d="M184.5,403.4531 L184.5,430.4531 M171.5,411.4531 L197.5,411.4531 M184.5,430.4531 L171.5,445.4531 M184.5,430.4531 L197.5,445.4531 " fill="none" style="stroke:#181818;stroke-width:0.5;"/><text fill="#000000" font-family="sans-serif" font-size="14" lengthAdjust="spacing" textLength="54" x="600.5" y="115.292">System</text><path d="M610,74.2969 L610,98.2969 M610,86.2969 L627,86.2969 " fill="none" style="stroke:#181818;stroke-width:0.5;"/><ellipse cx="639" cy="86.2969" fill="#E2E2F0" rx="12" ry="12" style="stroke:#181818;stroke-width:0.5;"/><text fill="#000000" font-family="sans-serif" font-size="14" lengthAdjust="spacing" textLength="54" x="600.5" y="383.6514">System</text><path d="M610,390.9531 L610,414.9531 M610,402.9531 L627,402.9531 " fill="none" style="stroke:#181818;stroke-width:0.5;"/><ellipse cx="639" cy="402.9531" fill="#E2E2F0" rx="12" ry="12" style="stroke:#181818;stroke-width:0.5;"/><rect fill="#FFFFFF" height="225.0625" style="stroke:#181818;stroke-width:1.0;" width="10" x="179.5" y="128.5938"/><rect fill="#FFFFFF" height="29.1328" style="stroke:#181818;stroke-width:1.0;" width="10" x="625.5" y="149.7266"/><rect fill="#FFFFFF" height="29.1328" style="stroke:#181818;stroke-width:1.0;" width="10" x="625.5" y="207.9922"/><rect fill="#FFFFFF" height="29.1328" style="stroke:#181818;stroke-width:1.0;" width="10" x="625.5" y="266.2578"/><rect fill="#FFFFFF" height="38.1328" style="stroke:#181818;stroke-width:1.0;" width="10" x="625.5" y="324.5234"/><polygon fill="#181818" points="613.5,145.7266,623.5,149.7266,613.5,153.7266,617.5,149.7266" style="stroke:#181818;stroke-width:1.0;"/><line style="stroke:#181818;stroke-width:1.0;" x1="189.5" x2="619.5" y1="149.7266" y2="149.7266"/><text fill="#000000" font-family="sans-serif" font-size="13" lengthAdjust="spacing" textLength="223" x="196.5" y="144.6606">1. Goes to DDD Forum Home Page</text><polygon fill="#181818" points="200.5,174.8594,190.5,178.8594,200.5,182.8594,196.5,178.8594" style="stroke:#181818;stroke-width:1.0;"/><line style="stroke:#181818;stroke-width:1.0;" x1="194.5" x2="629.5" y1="178.8594" y2="178.8594"/><text fill="#000000" font-family="sans-serif" font-size="13" lengthAdjust="spacing" textLength="227" x="206.5" y="173.7935">2. Displays DDD Forum Home Page</text><polygon fill="#181818" points="613.5,203.9922,623.5,207.9922,613.5,211.9922,617.5,207.9922" style="stroke:#181818;stroke-width:1.0;"/><line style="stroke:#181818;stroke-width:1.0;" x1="189.5" x2="619.5" y1="207.9922" y2="207.9922"/><text fill="#000000" font-family="sans-serif" font-size="13" lengthAdjust="spacing" textLength="153" x="196.5" y="202.9263">7. Logs into DDD Forum</text><polygon fill="#181818" points="200.5,233.125,190.5,237.125,200.5,241.125,196.5,237.125" style="stroke:#181818;stroke-width:1.0;"/><line style="stroke:#181818;stroke-width:1.0;" x1="194.5" x2="629.5" y1="237.125" y2="237.125"/><text fill="#000000" font-family="sans-serif" font-size="13" lengthAdjust="spacing" textLength="285" x="206.5" y="232.0591">8. Confirms Login and returns to Home Page</text><polygon fill="#181818" points="613.5,262.2578,623.5,266.2578,613.5,270.2578,617.5,266.2578" style="stroke:#181818;stroke-width:1.0;"/><line style="stroke:#181818;stroke-width:1.0;" x1="189.5" x2="619.5" y1="266.2578" y2="266.2578"/><text fill="#000000" font-family="sans-serif" font-size="13" lengthAdjust="spacing" textLength="190" x="196.5" y="261.1919">9. Clicks on the "Stats" Button</text><polygon fill="#181818" points="200.5,291.3906,190.5,295.3906,200.5,299.3906,196.5,295.3906" style="stroke:#181818;stroke-width:1.0;"/><line style="stroke:#181818;stroke-width:1.0;" x1="194.5" x2="629.5" y1="295.3906" y2="295.3906"/><text fill="#000000" font-family="sans-serif" font-size="13" lengthAdjust="spacing" textLength="161" x="206.5" y="290.3247">10. Displays "Stats" Page</text><polygon fill="#181818" points="613.5,320.5234,623.5,324.5234,613.5,328.5234,617.5,324.5234" style="stroke:#181818;stroke-width:1.0;"/><line style="stroke:#181818;stroke-width:1.0;" x1="189.5" x2="619.5" y1="324.5234" y2="324.5234"/><text fill="#000000" font-family="sans-serif" font-size="13" lengthAdjust="spacing" textLength="417" x="196.5" y="319.4575">11. Inserts a date in the text box and clicks on the refresh button</text><polygon fill="#181818" points="195.5,349.6563,185.5,353.6563,195.5,357.6563,191.5,353.6563" style="stroke:#181818;stroke-width:1.0;"/><line style="stroke:#181818;stroke-width:1.0;" x1="189.5" x2="624.5" y1="353.6563" y2="353.6563"/><text fill="#000000" font-family="sans-serif" font-size="13" lengthAdjust="spacing" textLength="392" x="201.5" y="348.5903">12. Views the time with the highest number of posts in a day</text><!--SRC=[ZP9DIyD048Rl-HKlFTlGzgBs8AX1BIW8GU-RPD8iRNRAxiGs_zxDRelr0ybfGp9vzfcPLxHi2NcUOOgtVBQO-VFMGU65seBi1LROQzT061l3UqX3QBYpu3eyLwht1TAWPKlOiHE7cgq7k1sLkjRbK98agXJ_DaAJWZjJATiZxvrG6xxg3oLqAeW7fZV7YYNcAHwPtE2HPHaUs7OjdhWblAerVG6En7WCW8XQOf4YqswtLRtxar3HJyPlYSiKpxnsqEPS8nbn-rMAUpQrjgqR4Df0cGgMfBCcDFMVo1ycrvwtrUN6WKtOmoGN9Mw2kqw4pHYb-Uni8gVVnnlC_KPMnf6L8ItLKAoZYj11KF0Xj5X-ixHKM_9fAiPR-hszQzgxYDP-IY5k8OTwtP0Jc2x8-KJ6_0tJ3S4yxoG2Fm40]--></g></svg>