<?xml version="1.0" encoding="us-ascii" standalone="no"?><svg xmlns="http://www.w3.org/2000/svg" xmlns:xlink="http://www.w3.org/1999/xlink" contentStyleType="text/css" height="394px" preserveAspectRatio="none" style="width:1068px;height:394px;background:#FFFFFF;" version="1.1" viewBox="0 0 1068 394" width="1068px" zoomAndPan="magnify"><defs/><g><text fill="#000000" font-family="sans-serif" font-size="14" font-weight="bold" lengthAdjust="spacing" textLength="1040" x="10" y="27.9951">System Sequence Diagram (SSD) - Registration of New Account - With at least 1 Invalid Parameter (Email/ Username/ Password)</text><rect fill="#FFFFFF" height="166.7969" style="stroke:#181818;stroke-width:1.0;" width="10" x="290.75" y="128.5938"/><rect fill="#FFFFFF" height="29.1328" style="stroke:#181818;stroke-width:1.0;" width="10" x="744.75" y="149.7266"/><rect fill="#FFFFFF" height="29.1328" style="stroke:#181818;stroke-width:1.0;" width="10" x="744.75" y="207.9922"/><rect fill="#FFFFFF" height="29.1328" style="stroke:#181818;stroke-width:1.0;" width="10" x="744.75" y="266.2578"/><line style="stroke:#181818;stroke-width:0.5;stroke-dasharray:5.0,5.0;" x1="295.25" x2="295.25" y1="118.5938" y2="313.3906"/><line style="stroke:#181818;stroke-width:0.5;stroke-dasharray:5.0,5.0;" x1="749.75" x2="749.75" y1="118.5938" y2="313.3906"/><text fill="#000000" font-family="sans-serif" font-size="14" lengthAdjust="spacing" textLength="31" x="277.25" y="115.292">User</text><ellipse cx="295.75" cy="50.7969" fill="#E3E3E3" rx="8" ry="8" style="stroke:#181818;stroke-width:0.5;"/><path d="M295.75,58.7969 L295.75,85.7969 M282.75,66.7969 L308.75,66.7969 M295.75,85.7969 L282.75,100.7969 M295.75,85.7969 L308.75,100.7969 " fill="none" style="stroke:#181818;stroke-width:0.5;"/><text fill="#000000" font-family="sans-serif" font-size="14" lengthAdjust="spacing" textLength="31" x="277.25" y="325.3857">User</text><ellipse cx="295.75" cy="337.1875" fill="#E3E3E3" rx="8" ry="8" style="stroke:#181818;stroke-width:0.5;"/><path d="M295.75,345.1875 L295.75,372.1875 M282.75,353.1875 L308.75,353.1875 M295.75,372.1875 L282.75,387.1875 M295.75,372.1875 L308.75,387.1875 " fill="none" style="stroke:#181818;stroke-width:0.5;"/><rect fill="#E3E3E3" height="30.2969" rx="2.5" ry="2.5" style="stroke:#181818;stroke-width:0.5;" width="68" x="715.75" y="87.2969"/><text fill="#000000" font-family="sans-serif" font-size="14" lengthAdjust="spacing" textLength="54" x="722.75" y="107.292">System</text><rect fill="#E3E3E3" height="30.2969" rx="2.5" ry="2.5" style="stroke:#181818;stroke-width:0.5;" width="68" x="715.75" y="312.3906"/><text fill="#000000" font-family="sans-serif" font-size="14" lengthAdjust="spacing" textLength="54" x="722.75" y="332.3857">System</text><rect fill="#FFFFFF" height="166.7969" style="stroke:#181818;stroke-width:1.0;" width="10" x="290.75" y="128.5938"/><rect fill="#FFFFFF" height="29.1328" style="stroke:#181818;stroke-width:1.0;" width="10" x="744.75" y="149.7266"/><rect fill="#FFFFFF" height="29.1328" style="stroke:#181818;stroke-width:1.0;" width="10" x="744.75" y="207.9922"/><rect fill="#FFFFFF" height="29.1328" style="stroke:#181818;stroke-width:1.0;" width="10" x="744.75" y="266.2578"/><polygon fill="#181818" points="732.75,145.7266,742.75,149.7266,732.75,153.7266,736.75,149.7266" style="stroke:#181818;stroke-width:1.0;"/><line style="stroke:#181818;stroke-width:1.0;" x1="300.75" x2="738.75" y1="149.7266" y2="149.7266"/><text fill="#000000" font-family="sans-serif" font-size="13" font-weight="bold" lengthAdjust="spacing" textLength="9" x="307.75" y="144.6606">1</text><text fill="#000000" font-family="sans-serif" font-size="13" lengthAdjust="spacing" textLength="185" x="320.75" y="144.6606">Access to the localhost:3000</text><polygon fill="#181818" points="311.75,174.8594,301.75,178.8594,311.75,182.8594,307.75,178.8594" style="stroke:#181818;stroke-width:1.0;"/><line style="stroke:#181818;stroke-width:1.0;stroke-dasharray:2.0,2.0;" x1="305.75" x2="748.75" y1="178.8594" y2="178.8594"/><text fill="#000000" font-family="sans-serif" font-size="13" font-weight="bold" lengthAdjust="spacing" textLength="9" x="317.75" y="173.7935">2</text><text fill="#000000" font-family="sans-serif" font-size="13" lengthAdjust="spacing" textLength="136" x="330.75" y="173.7935">Loads the homepage</text><polygon fill="#181818" points="732.75,203.9922,742.75,207.9922,732.75,211.9922,736.75,207.9922" style="stroke:#181818;stroke-width:1.0;"/><line style="stroke:#181818;stroke-width:1.0;" x1="300.75" x2="738.75" y1="207.9922" y2="207.9922"/><text fill="#000000" font-family="sans-serif" font-size="13" font-weight="bold" lengthAdjust="spacing" textLength="8" x="307.75" y="202.9263">3</text><text fill="#000000" font-family="sans-serif" font-size="13" lengthAdjust="spacing" textLength="157" x="319.75" y="202.9263">Click on the "Join" button</text><polygon fill="#181818" points="311.75,233.125,301.75,237.125,311.75,241.125,307.75,237.125" style="stroke:#181818;stroke-width:1.0;"/><line style="stroke:#181818;stroke-width:1.0;stroke-dasharray:2.0,2.0;" x1="305.75" x2="748.75" y1="237.125" y2="237.125"/><text fill="#000000" font-family="sans-serif" font-size="13" font-weight="bold" lengthAdjust="spacing" textLength="9" x="317.75" y="232.0591">4</text><text fill="#000000" font-family="sans-serif" font-size="13" lengthAdjust="spacing" textLength="337" x="330.75" y="232.0591">Loads the registration page (localhost:3000/register)</text><polygon fill="#181818" points="732.75,262.2578,742.75,266.2578,732.75,270.2578,736.75,266.2578" style="stroke:#181818;stroke-width:1.0;"/><line style="stroke:#181818;stroke-width:1.0;" x1="300.75" x2="738.75" y1="266.2578" y2="266.2578"/><text fill="#000000" font-family="sans-serif" font-size="13" font-weight="bold" lengthAdjust="spacing" textLength="9" x="307.75" y="261.1919">5</text><text fill="#000000" font-family="sans-serif" font-size="13" lengthAdjust="spacing" textLength="412" x="320.75" y="261.1919">Insertion of 1 invalid parameter (Email / Username &amp; Password).</text><polygon fill="#181818" points="306.75,291.3906,296.75,295.3906,306.75,299.3906,302.75,295.3906" style="stroke:#181818;stroke-width:1.0;"/><line style="stroke:#181818;stroke-width:1.0;" x1="300.75" x2="748.75" y1="295.3906" y2="295.3906"/><text fill="#000000" font-family="sans-serif" font-size="13" font-weight="bold" lengthAdjust="spacing" textLength="9" x="312.75" y="290.3247">6</text><text fill="#000000" font-family="sans-serif" font-size="13" lengthAdjust="spacing" textLength="367" x="325.75" y="290.3247">Throws a prompt Message pointing out the invalid input/s</text><!--SRC=[bLB1JXin4BtxAvxsK2M7D47SSa12fGUgWX3RYlFW7NQjUEt5dYNYxplU41AWIEt5icRcpNlpPlB6XO4IzUXZYBPBiMT86jdaryn0TaCjr_Bi6OcjK6ZzSK7kg8bR5reyaCziZ3ZHqlev2_Ue-N7aO1aNZjfIFglhYpaMkENMPKaaBWR41rpp5kVMnZ68Pk-ST221Pyg24ro69_AkmKsXPE64sVUUd5_YT-OKDBRKNCxRc9gvCJHA36D_pqd_Lc92LUegK9u0HgMBisuWPQjsKgVaxZk1t1C9xwfDUR4usm-rBaevPqY4T0mVBVakPbcVhbQh0tZVxGMsq0vJfpL-HchoXEtKyq4DDWr_m7sW_UQTtK0DAyZgHtIXmlqeEkp_aQPZymixPczdMEugECt_ITTbqCX-aoTmBziQtcqBXtNXos5VNpyN_whzbnxdDeCmw94EWYkrl-WUr0CfnnT7cKRRS-jvZhBCvY_wZoAb-ny0]--></g></svg>