<?xml version="1.0" encoding="us-ascii" standalone="no"?><svg xmlns="http://www.w3.org/2000/svg" xmlns:xlink="http://www.w3.org/1999/xlink" contentStyleType="text/css" height="394px" preserveAspectRatio="none" style="width:1025px;height:394px;background:#FFFFFF;" version="1.1" viewBox="0 0 1025 394" width="1025px" zoomAndPan="magnify"><defs/><g><text fill="#000000" font-family="sans-serif" font-size="14" font-weight="bold" lengthAdjust="spacing" textLength="997" x="10" y="27.9951">System Sequence Diagram (SSD) - Registration of New Account - With all valid Parameters (Email + Username + Password)</text><rect fill="#FFFFFF" height="166.7969" style="stroke:#181818;stroke-width:1.0;" width="10" x="275.75" y="128.5938"/><rect fill="#FFFFFF" height="29.1328" style="stroke:#181818;stroke-width:1.0;" width="10" x="716.75" y="149.7266"/><rect fill="#FFFFFF" height="29.1328" style="stroke:#181818;stroke-width:1.0;" width="10" x="716.75" y="207.9922"/><rect fill="#FFFFFF" height="29.1328" style="stroke:#181818;stroke-width:1.0;" width="10" x="716.75" y="266.2578"/><line style="stroke:#181818;stroke-width:0.5;stroke-dasharray:5.0,5.0;" x1="280.25" x2="280.25" y1="118.5938" y2="313.3906"/><line style="stroke:#181818;stroke-width:0.5;stroke-dasharray:5.0,5.0;" x1="721.75" x2="721.75" y1="118.5938" y2="313.3906"/><text fill="#000000" font-family="sans-serif" font-size="14" lengthAdjust="spacing" textLength="31" x="262.25" y="115.292">User</text><ellipse cx="280.75" cy="50.7969" fill="#E3E3E3" rx="8" ry="8" style="stroke:#181818;stroke-width:0.5;"/><path d="M280.75,58.7969 L280.75,85.7969 M267.75,66.7969 L293.75,66.7969 M280.75,85.7969 L267.75,100.7969 M280.75,85.7969 L293.75,100.7969 " fill="none" style="stroke:#181818;stroke-width:0.5;"/><text fill="#000000" font-family="sans-serif" font-size="14" lengthAdjust="spacing" textLength="31" x="262.25" y="325.3857">User</text><ellipse cx="280.75" cy="337.1875" fill="#E3E3E3" rx="8" ry="8" style="stroke:#181818;stroke-width:0.5;"/><path d="M280.75,345.1875 L280.75,372.1875 M267.75,353.1875 L293.75,353.1875 M280.75,372.1875 L267.75,387.1875 M280.75,372.1875 L293.75,387.1875 " fill="none" style="stroke:#181818;stroke-width:0.5;"/><rect fill="#E3E3E3" height="30.2969" rx="2.5" ry="2.5" style="stroke:#181818;stroke-width:0.5;" width="68" x="687.75" y="87.2969"/><text fill="#000000" font-family="sans-serif" font-size="14" lengthAdjust="spacing" textLength="54" x="694.75" y="107.292">System</text><rect fill="#E3E3E3" height="30.2969" rx="2.5" ry="2.5" style="stroke:#181818;stroke-width:0.5;" width="68" x="687.75" y="312.3906"/><text fill="#000000" font-family="sans-serif" font-size="14" lengthAdjust="spacing" textLength="54" x="694.75" y="332.3857">System</text><rect fill="#FFFFFF" height="166.7969" style="stroke:#181818;stroke-width:1.0;" width="10" x="275.75" y="128.5938"/><rect fill="#FFFFFF" height="29.1328" style="stroke:#181818;stroke-width:1.0;" width="10" x="716.75" y="149.7266"/><rect fill="#FFFFFF" height="29.1328" style="stroke:#181818;stroke-width:1.0;" width="10" x="716.75" y="207.9922"/><rect fill="#FFFFFF" height="29.1328" style="stroke:#181818;stroke-width:1.0;" width="10" x="716.75" y="266.2578"/><polygon fill="#181818" points="704.75,145.7266,714.75,149.7266,704.75,153.7266,708.75,149.7266" style="stroke:#181818;stroke-width:1.0;"/><line style="stroke:#181818;stroke-width:1.0;" x1="285.75" x2="710.75" y1="149.7266" y2="149.7266"/><text fill="#000000" font-family="sans-serif" font-size="13" font-weight="bold" lengthAdjust="spacing" textLength="9" x="292.75" y="144.6606">1</text><text fill="#000000" font-family="sans-serif" font-size="13" lengthAdjust="spacing" textLength="185" x="305.75" y="144.6606">Access to the localhost:3000</text><polygon fill="#181818" points="296.75,174.8594,286.75,178.8594,296.75,182.8594,292.75,178.8594" style="stroke:#181818;stroke-width:1.0;"/><line style="stroke:#181818;stroke-width:1.0;stroke-dasharray:2.0,2.0;" x1="290.75" x2="720.75" y1="178.8594" y2="178.8594"/><text fill="#000000" font-family="sans-serif" font-size="13" font-weight="bold" lengthAdjust="spacing" textLength="9" x="302.75" y="173.7935">2</text><text fill="#000000" font-family="sans-serif" font-size="13" lengthAdjust="spacing" textLength="136" x="315.75" y="173.7935">Loads the homepage</text><polygon fill="#181818" points="704.75,203.9922,714.75,207.9922,704.75,211.9922,708.75,207.9922" style="stroke:#181818;stroke-width:1.0;"/><line style="stroke:#181818;stroke-width:1.0;" x1="285.75" x2="710.75" y1="207.9922" y2="207.9922"/><text fill="#000000" font-family="sans-serif" font-size="13" font-weight="bold" lengthAdjust="spacing" textLength="8" x="292.75" y="202.9263">3</text><text fill="#000000" font-family="sans-serif" font-size="13" lengthAdjust="spacing" textLength="157" x="304.75" y="202.9263">Click on the "Join" button</text><polygon fill="#181818" points="296.75,233.125,286.75,237.125,296.75,241.125,292.75,237.125" style="stroke:#181818;stroke-width:1.0;"/><line style="stroke:#181818;stroke-width:1.0;stroke-dasharray:2.0,2.0;" x1="290.75" x2="720.75" y1="237.125" y2="237.125"/><text fill="#000000" font-family="sans-serif" font-size="13" font-weight="bold" lengthAdjust="spacing" textLength="9" x="302.75" y="232.0591">4</text><text fill="#000000" font-family="sans-serif" font-size="13" lengthAdjust="spacing" textLength="337" x="315.75" y="232.0591">Loads the registration page (localhost:3000/register)</text><polygon fill="#181818" points="704.75,262.2578,714.75,266.2578,704.75,270.2578,708.75,266.2578" style="stroke:#181818;stroke-width:1.0;"/><line style="stroke:#181818;stroke-width:1.0;" x1="285.75" x2="710.75" y1="266.2578" y2="266.2578"/><text fill="#000000" font-family="sans-serif" font-size="13" font-weight="bold" lengthAdjust="spacing" textLength="9" x="292.75" y="261.1919">5</text><text fill="#000000" font-family="sans-serif" font-size="13" lengthAdjust="spacing" textLength="382" x="305.75" y="261.1919">Inserts unique parameters (Email + Username + Password)</text><polygon fill="#181818" points="291.75,291.3906,281.75,295.3906,291.75,299.3906,287.75,295.3906" style="stroke:#181818;stroke-width:1.0;"/><line style="stroke:#181818;stroke-width:1.0;" x1="285.75" x2="720.75" y1="295.3906" y2="295.3906"/><text fill="#000000" font-family="sans-serif" font-size="13" font-weight="bold" lengthAdjust="spacing" textLength="9" x="297.75" y="290.3247">6</text><text fill="#000000" font-family="sans-serif" font-size="13" lengthAdjust="spacing" textLength="394" x="310.75" y="290.3247">Returns a prompt message of "Account created successfully"</text><!--SRC=[bL9DImCn4BtdLmnxQf5YmLiFWgW7HQHq4SzZTheRcatMpAIb_zx9rcf51Rs48VFUl3SVl75Xm8Gzz354swNO4qZAPFWZCw3TO4krx3r18YiOMdyAu0wRk7EXXJLw9cF4YKBhFGlrKDDhfc09RXos1Jwfwvifp615hMD9A2u6Y6juf1rSMHjp4Cq-E-a0lOSjUjV0iYYHK6AOtFReF9p14rCA-glX4fbtCJLJOp1B3Bb_eQInbPYWAi0Aa4U6KTFYh1jGTQg3oJ5v24UIswBG0MtA2xFBOpkBuf6OGI98H-2ZHTz5biN5V3x_91-hlTDcMc6ij827Y0sFt4wdFUXeJKFVUDzahxsp6z1H5MPr7rseu2MBDli_qNGwzg8Eawyzd1yGbAP_ydKNz4SOSd2wQ1Z-kgXVJNzuNf7a51WG1htBGQ3NkHV3UYpLyL9i8YtI0ETnBUli_RuoFpW_-Idrtm00]--></g></svg>