<?xml version="1.0" encoding="UTF-8" standalone="no"?><svg xmlns="http://www.w3.org/2000/svg" xmlns:xlink="http://www.w3.org/1999/xlink" contentStyleType="text/css" height="344px" preserveAspectRatio="none" style="width:549px;height:344px;background:#FFFFFF;" version="1.1" viewBox="0 0 549 344" width="549px" zoomAndPan="magnify"><defs/><g><rect fill="none" height="27.6094" id="_title" style="stroke:none;stroke-width:1.0;" width="531" x="5" y="10"/><text fill="#000000" font-family="sans-serif" font-size="14" font-weight="bold" lengthAdjust="spacing" textLength="521" x="10" y="29.5332">System Sequence Diagram (SSD) - Visualization of the Popular posts - User</text><rect fill="#FFFFFF" height="122.4063" style="stroke:#181818;stroke-width:1.0;" width="10" x="131.75" y="131.2188"/><rect fill="#FFFFFF" height="30.3516" style="stroke:#181818;stroke-width:1.0;" width="10" x="387.75" y="153.5703"/><rect fill="#FFFFFF" height="30.3516" style="stroke:#181818;stroke-width:1.0;" width="10" x="387.75" y="214.2734"/><line style="stroke:#181818;stroke-width:0.5;stroke-dasharray:5.0,5.0;" x1="136.25" x2="136.25" y1="121.2188" y2="262.625"/><line style="stroke:#181818;stroke-width:0.5;stroke-dasharray:5.0,5.0;" x1="392.75" x2="392.75" y1="121.2188" y2="262.625"/><text fill="#000000" font-family="sans-serif" font-size="14" lengthAdjust="spacing" textLength="29" x="119.25" y="118.1426">User</text><ellipse cx="136.75" cy="52.1094" fill="#E3E3E3" rx="8" ry="8" style="stroke:#181818;stroke-width:0.5;"/><path d="M136.75,60.1094 L136.75,87.1094 M123.75,68.1094 L149.75,68.1094 M136.75,87.1094 L123.75,102.1094 M136.75,87.1094 L149.75,102.1094 " fill="none" style="stroke:#181818;stroke-width:0.5;"/><text fill="#000000" font-family="sans-serif" font-size="14" lengthAdjust="spacing" textLength="29" x="119.25" y="276.1582">User</text><ellipse cx="136.75" cy="287.7344" fill="#E3E3E3" rx="8" ry="8" style="stroke:#181818;stroke-width:0.5;"/><path d="M136.75,295.7344 L136.75,322.7344 M123.75,303.7344 L149.75,303.7344 M136.75,322.7344 L123.75,337.7344 M136.75,322.7344 L149.75,337.7344 " fill="none" style="stroke:#181818;stroke-width:0.5;"/><rect fill="#E3E3E3" height="31.6094" rx="2.5" ry="2.5" style="stroke:#181818;stroke-width:0.5;" width="60" x="362.75" y="88.6094"/><text fill="#000000" font-family="sans-serif" font-size="14" lengthAdjust="spacing" textLength="46" x="369.75" y="110.1426">System</text><rect fill="#E3E3E3" height="31.6094" rx="2.5" ry="2.5" style="stroke:#181818;stroke-width:0.5;" width="60" x="362.75" y="261.625"/><text fill="#000000" font-family="sans-serif" font-size="14" lengthAdjust="spacing" textLength="46" x="369.75" y="283.1582">System</text><rect fill="#FFFFFF" height="122.4063" style="stroke:#181818;stroke-width:1.0;" width="10" x="131.75" y="131.2188"/><rect fill="#FFFFFF" height="30.3516" style="stroke:#181818;stroke-width:1.0;" width="10" x="387.75" y="153.5703"/><rect fill="#FFFFFF" height="30.3516" style="stroke:#181818;stroke-width:1.0;" width="10" x="387.75" y="214.2734"/><polygon fill="#181818" points="375.75,149.5703,385.75,153.5703,375.75,157.5703,379.75,153.5703" style="stroke:#181818;stroke-width:1.0;"/><line style="stroke:#181818;stroke-width:1.0;" x1="141.75" x2="381.75" y1="153.5703" y2="153.5703"/><text fill="#000000" font-family="sans-serif" font-size="13" font-weight="bold" lengthAdjust="spacing" textLength="7" x="148.75" y="148.7139">1</text><text fill="#000000" font-family="sans-serif" font-size="13" lengthAdjust="spacing" textLength="102" x="159.75" y="148.7139">Access the forum</text><polygon fill="#181818" points="152.75,179.9219,142.75,183.9219,152.75,187.9219,148.75,183.9219" style="stroke:#181818;stroke-width:1.0;"/><line style="stroke:#181818;stroke-width:1.0;stroke-dasharray:2.0,2.0;" x1="146.75" x2="391.75" y1="183.9219" y2="183.9219"/><text fill="#000000" font-family="sans-serif" font-size="13" font-weight="bold" lengthAdjust="spacing" textLength="7" x="158.75" y="179.0654">2</text><text fill="#000000" font-family="sans-serif" font-size="13" lengthAdjust="spacing" textLength="134" x="169.75" y="179.0654">Return the default page</text><polygon fill="#181818" points="375.75,210.2734,385.75,214.2734,375.75,218.2734,379.75,214.2734" style="stroke:#181818;stroke-width:1.0;"/><line style="stroke:#181818;stroke-width:1.0;" x1="141.75" x2="381.75" y1="214.2734" y2="214.2734"/><text fill="#000000" font-family="sans-serif" font-size="13" font-weight="bold" lengthAdjust="spacing" textLength="7" x="148.75" y="209.417">3</text><text fill="#000000" font-family="sans-serif" font-size="13" lengthAdjust="spacing" textLength="216" x="159.75" y="209.417">Clicks on the "Popular" posts options</text><polygon fill="#181818" points="152.75,240.625,142.75,244.625,152.75,248.625,148.75,244.625" style="stroke:#181818;stroke-width:1.0;"/><line style="stroke:#181818;stroke-width:1.0;stroke-dasharray:2.0,2.0;" x1="146.75" x2="391.75" y1="244.625" y2="244.625"/><text fill="#000000" font-family="sans-serif" font-size="13" font-weight="bold" lengthAdjust="spacing" textLength="7" x="158.75" y="239.7686">4</text><text fill="#000000" font-family="sans-serif" font-size="13" lengthAdjust="spacing" textLength="137" x="169.75" y="239.7686">The top "Popular" posts</text><!--MD5=[2b9112359c0d348c52e2fe785bc44521]
@startuml US004
skinparam monochrome true
skinparam packageStyle rectangle
skinparam shadowing false

title System Sequence Diagram (SSD) - Visualization of the Popular posts - User

autonumber

actor "User" as User
participant "System" as System

activate User
    User -> System: Access the forum
   
    activate System
        System - -> User : Return the default page 
    deactivate System

    User -> System : Clicks on the "Popular" posts options

    activate System
        System - -> User : The top "Popular" posts  
    deactivate System

@enduml

PlantUML version 1.2022.7(Mon Aug 22 18:01:30 BST 2022)
(GPL source distribution)
Java Runtime: Java(TM) SE Runtime Environment
JVM: Java HotSpot(TM) 64-Bit Server VM
Default Encoding: Cp1252
Language: en
Country: US
--></g></svg>