<svg xmlns="http://www.w3.org/2000/svg" xmlns:xlink="http://www.w3.org/1999/xlink" contentStyleType="text/css" height="682" preserveAspectRatio="none" style="width:2178px;height:682px;background:#FFFFFF;" version="1.1" viewBox="0 0 2178 682" width="2178" zoomAndPan="magnify"><defs/><g><text fill="#000000" font-family="sans-serif" font-size="14" font-weight="bold" lengthAdjust="spacing" textLength="522" x="826" y="27.9951">US014 SD - Get Average Number of Comments For a Specific Day</text><rect fill="#FFFFFF" height="433.8594" style="stroke:#181818;stroke-width:1.0;" width="10" x="477" y="149.7266"/><rect fill="#FFFFFF" height="404.7266" style="stroke:#181818;stroke-width:1.0;" width="10" x="858" y="178.8594"/><rect fill="#FFFFFF" height="333.4609" style="stroke:#181818;stroke-width:1.0;" width="10" x="1317" y="250.125"/><rect fill="#FFFFFF" height="87.3984" style="stroke:#181818;stroke-width:1.0;" width="10" x="1704" y="279.2578"/><rect fill="#FFFFFF" height="187.7969" style="stroke:#181818;stroke-width:1.0;" width="10" x="1704" y="395.7891"/><rect fill="#FFFFFF" height="29.1328" style="stroke:#181818;stroke-width:1.0;" width="10" x="2138" y="308.3906"/><rect fill="#FFFFFF" height="29.1328" style="stroke:#181818;stroke-width:1.0;" width="10" x="2138" y="424.9219"/><line style="stroke:#181818;stroke-width:0.5;stroke-dasharray:5.0,5.0;" x1="27" x2="27" y1="118.5938" y2="601.5859"/><line style="stroke:#181818;stroke-width:0.5;stroke-dasharray:5.0,5.0;" x1="482" x2="482" y1="118.5938" y2="601.5859"/><line style="stroke:#181818;stroke-width:0.5;stroke-dasharray:5.0,5.0;" x1="862.5" x2="862.5" y1="118.5938" y2="601.5859"/><line style="stroke:#181818;stroke-width:0.5;stroke-dasharray:5.0,5.0;" x1="1322" x2="1322" y1="118.5938" y2="601.5859"/><line style="stroke:#181818;stroke-width:0.5;stroke-dasharray:5.0,5.0;" x1="1708.5" x2="1708.5" y1="118.5938" y2="601.5859"/><line style="stroke:#181818;stroke-width:0.5;stroke-dasharray:5.0,5.0;" x1="2143" x2="2143" y1="118.5938" y2="601.5859"/><text fill="#000000" font-family="sans-serif" font-size="14" lengthAdjust="spacing" textLength="38" x="5" y="115.292">Users</text><ellipse cx="27" cy="50.7969" fill="#E2E2F0" rx="8" ry="8" style="stroke:#181818;stroke-width:0.5;"/><path d="M27,58.7969 L27,85.7969 M14,66.7969 L40,66.7969 M27,85.7969 L14,100.7969 M27,85.7969 L40,100.7969 " fill="none" style="stroke:#181818;stroke-width:0.5;"/><text fill="#000000" font-family="sans-serif" font-size="14" lengthAdjust="spacing" textLength="38" x="5" y="613.5811">Users</text><ellipse cx="27" cy="625.3828" fill="#E2E2F0" rx="8" ry="8" style="stroke:#181818;stroke-width:0.5;"/><path d="M27,633.3828 L27,660.3828 M14,641.3828 L40,641.3828 M27,660.3828 L14,675.3828 M27,660.3828 L40,675.3828 " fill="none" style="stroke:#181818;stroke-width:0.5;"/><rect fill="#E2E2F0" height="30.2969" rx="2.5" ry="2.5" style="stroke:#181818;stroke-width:0.5;" width="64" x="450" y="87.2969"/><text fill="#000000" font-family="sans-serif" font-size="14" lengthAdjust="spacing" textLength="50" x="457" y="107.292">Routes</text><rect fill="#E2E2F0" height="30.2969" rx="2.5" ry="2.5" style="stroke:#181818;stroke-width:0.5;" width="64" x="450" y="600.5859"/><text fill="#000000" font-family="sans-serif" font-size="14" lengthAdjust="spacing" textLength="50" x="457" y="620.5811">Routes</text><rect fill="#E2E2F0" height="30.2969" rx="2.5" ry="2.5" style="stroke:#181818;stroke-width:0.5;" width="591" x="567.5" y="87.2969"/><text fill="#000000" font-family="sans-serif" font-size="14" lengthAdjust="spacing" textLength="577" x="574.5" y="107.292">getAverageCommentsForDayController:getAverageCommentsForDayController</text><rect fill="#E2E2F0" height="30.2969" rx="2.5" ry="2.5" style="stroke:#181818;stroke-width:0.5;" width="591" x="567.5" y="600.5859"/><text fill="#000000" font-family="sans-serif" font-size="14" lengthAdjust="spacing" textLength="577" x="574.5" y="620.5811">getAverageCommentsForDayController:getAverageCommentsForDayController</text><rect fill="#E2E2F0" height="30.2969" rx="2.5" ry="2.5" style="stroke:#181818;stroke-width:0.5;" width="294" x="1175" y="87.2969"/><text fill="#000000" font-family="sans-serif" font-size="14" lengthAdjust="spacing" textLength="280" x="1182" y="107.292">useCase: getAverageCommentsForDay</text><rect fill="#E2E2F0" height="30.2969" rx="2.5" ry="2.5" style="stroke:#181818;stroke-width:0.5;" width="294" x="1175" y="600.5859"/><text fill="#000000" font-family="sans-serif" font-size="14" lengthAdjust="spacing" textLength="280" x="1182" y="620.5811">useCase: getAverageCommentsForDay</text><rect fill="#E2E2F0" height="30.2969" rx="2.5" ry="2.5" style="stroke:#181818;stroke-width:0.5;" width="259" x="1579.5" y="87.2969"/><text fill="#000000" font-family="sans-serif" font-size="14" lengthAdjust="spacing" textLength="245" x="1586.5" y="107.292">commentsRepo: ICommentsRepo</text><rect fill="#E2E2F0" height="30.2969" rx="2.5" ry="2.5" style="stroke:#181818;stroke-width:0.5;" width="259" x="1579.5" y="600.5859"/><text fill="#000000" font-family="sans-serif" font-size="14" lengthAdjust="spacing" textLength="245" x="1586.5" y="620.5811">commentsRepo: ICommentsRepo</text><text fill="#000000" font-family="sans-serif" font-size="14" lengthAdjust="spacing" textLength="48" x="2116" y="115.292">MySQL</text><path d="M2125,66.2969 C2125,56.2969 2143,56.2969 2143,56.2969 C2143,56.2969 2161,56.2969 2161,66.2969 L2161,92.2969 C2161,102.2969 2143,102.2969 2143,102.2969 C2143,102.2969 2125,102.2969 2125,92.2969 L2125,66.2969 " fill="#E2E2F0" style="stroke:#181818;stroke-width:1.5;"/><path d="M2125,66.2969 C2125,76.2969 2143,76.2969 2143,76.2969 C2143,76.2969 2161,76.2969 2161,66.2969 " fill="none" style="stroke:#181818;stroke-width:1.5;"/><text fill="#000000" font-family="sans-serif" font-size="14" lengthAdjust="spacing" textLength="48" x="2116" y="613.5811">MySQL</text><path d="M2125,626.8828 C2125,616.8828 2143,616.8828 2143,616.8828 C2143,616.8828 2161,616.8828 2161,626.8828 L2161,652.8828 C2161,662.8828 2143,662.8828 2143,662.8828 C2143,662.8828 2125,662.8828 2125,652.8828 L2125,626.8828 " fill="#E2E2F0" style="stroke:#181818;stroke-width:1.5;"/><path d="M2125,626.8828 C2125,636.8828 2143,636.8828 2143,636.8828 C2143,636.8828 2161,636.8828 2161,626.8828 " fill="none" style="stroke:#181818;stroke-width:1.5;"/><rect fill="#FFFFFF" height="433.8594" style="stroke:#181818;stroke-width:1.0;" width="10" x="477" y="149.7266"/><rect fill="#FFFFFF" height="404.7266" style="stroke:#181818;stroke-width:1.0;" width="10" x="858" y="178.8594"/><rect fill="#FFFFFF" height="333.4609" style="stroke:#181818;stroke-width:1.0;" width="10" x="1317" y="250.125"/><rect fill="#FFFFFF" height="87.3984" style="stroke:#181818;stroke-width:1.0;" width="10" x="1704" y="279.2578"/><rect fill="#FFFFFF" height="187.7969" style="stroke:#181818;stroke-width:1.0;" width="10" x="1704" y="395.7891"/><rect fill="#FFFFFF" height="29.1328" style="stroke:#181818;stroke-width:1.0;" width="10" x="2138" y="308.3906"/><rect fill="#FFFFFF" height="29.1328" style="stroke:#181818;stroke-width:1.0;" width="10" x="2138" y="424.9219"/><polygon fill="#181818" points="465,145.7266,475,149.7266,465,153.7266,469,149.7266" style="stroke:#181818;stroke-width:1.0;"/><line style="stroke:#181818;stroke-width:1.0;" x1="27" x2="471" y1="149.7266" y2="149.7266"/><text fill="#000000" font-family="sans-serif" font-size="13" lengthAdjust="spacing" textLength="431" x="34" y="144.6606">call Endpoint (method: GET, route: "/", header: "specificDay/:Date")</text><polygon fill="#181818" points="846,174.8594,856,178.8594,846,182.8594,850,178.8594" style="stroke:#181818;stroke-width:1.0;"/><line style="stroke:#181818;stroke-width:1.0;" x1="487" x2="852" y1="178.8594" y2="178.8594"/><text fill="#000000" font-family="sans-serif" font-size="13" lengthAdjust="spacing" textLength="115" x="494" y="173.7935">.execute(req, res)</text><line style="stroke:#181818;stroke-width:1.0;" x1="868" x2="910" y1="207.9922" y2="207.9922"/><line style="stroke:#181818;stroke-width:1.0;" x1="910" x2="910" y1="207.9922" y2="220.9922"/><line style="stroke:#181818;stroke-width:1.0;" x1="869" x2="910" y1="220.9922" y2="220.9922"/><polygon fill="#181818" points="879,216.9922,869,220.9922,879,224.9922,875,220.9922" style="stroke:#181818;stroke-width:1.0;"/><text fill="#000000" font-family="sans-serif" font-size="13" lengthAdjust="spacing" textLength="435" x="875" y="202.9263">.executeImpl(req: DecodedExpressRequest,res: express.Response)</text><polygon fill="#181818" points="1305,246.125,1315,250.125,1305,254.125,1309,250.125" style="stroke:#181818;stroke-width:1.0;"/><line style="stroke:#181818;stroke-width:1.0;" x1="868" x2="1311" y1="250.125" y2="250.125"/><text fill="#000000" font-family="sans-serif" font-size="13" lengthAdjust="spacing" textLength="87" x="875" y="245.0591">.execute(dto)</text><polygon fill="#181818" points="1692,275.2578,1702,279.2578,1692,283.2578,1696,279.2578" style="stroke:#181818;stroke-width:1.0;"/><line style="stroke:#181818;stroke-width:1.0;" x1="1327" x2="1698" y1="279.2578" y2="279.2578"/><text fill="#000000" font-family="sans-serif" font-size="13" lengthAdjust="spacing" textLength="299" x="1334" y="274.1919">.getNumberOfCommentsOnDate (date: string)</text><polygon fill="#181818" points="2126,304.3906,2136,308.3906,2126,312.3906,2130,308.3906" style="stroke:#181818;stroke-width:1.0;"/><line style="stroke:#181818;stroke-width:1.0;" x1="1714" x2="2132" y1="308.3906" y2="308.3906"/><text fill="#000000" font-family="sans-serif" font-size="13" lengthAdjust="spacing" textLength="342" x="1721" y="303.3247">getNumberOfCommentsOnDate(date?: Date | string)</text><polygon fill="#181818" points="1725,333.5234,1715,337.5234,1725,341.5234,1721,337.5234" style="stroke:#181818;stroke-width:1.0;"/><line style="stroke:#181818;stroke-width:1.0;stroke-dasharray:2.0,2.0;" x1="1719" x2="2142" y1="337.5234" y2="337.5234"/><text fill="#000000" font-family="sans-serif" font-size="13" lengthAdjust="spacing" textLength="71" x="1731" y="332.4575">&lt;Number&gt;</text><polygon fill="#181818" points="1338,362.6563,1328,366.6563,1338,370.6563,1334,366.6563" style="stroke:#181818;stroke-width:1.0;"/><line style="stroke:#181818;stroke-width:1.0;stroke-dasharray:2.0,2.0;" x1="1332" x2="1708" y1="366.6563" y2="366.6563"/><text fill="#000000" font-family="sans-serif" font-size="13" lengthAdjust="spacing" textLength="71" x="1344" y="361.5903">&lt;Number&gt;</text><polygon fill="#181818" points="1692,391.7891,1702,395.7891,1692,399.7891,1696,395.7891" style="stroke:#181818;stroke-width:1.0;"/><line style="stroke:#181818;stroke-width:1.0;" x1="1327" x2="1698" y1="395.7891" y2="395.7891"/><text fill="#000000" font-family="sans-serif" font-size="13" lengthAdjust="spacing" textLength="358" x="1334" y="390.7231">.getNumberOfCommentsMembersOnDate (date: string)</text><polygon fill="#181818" points="2126,420.9219,2136,424.9219,2126,428.9219,2130,424.9219" style="stroke:#181818;stroke-width:1.0;"/><line style="stroke:#181818;stroke-width:1.0;" x1="1714" x2="2132" y1="424.9219" y2="424.9219"/><text fill="#000000" font-family="sans-serif" font-size="13" lengthAdjust="spacing" textLength="405" x="1721" y="419.856">getNumberOfCommentsMembersOnDate (date?: Date | string)</text><polygon fill="#181818" points="1725,450.0547,1715,454.0547,1725,458.0547,1721,454.0547" style="stroke:#181818;stroke-width:1.0;"/><line style="stroke:#181818;stroke-width:1.0;stroke-dasharray:2.0,2.0;" x1="1719" x2="2142" y1="454.0547" y2="454.0547"/><text fill="#000000" font-family="sans-serif" font-size="13" lengthAdjust="spacing" textLength="71" x="1731" y="448.9888">&lt;Number&gt;</text><polygon fill="#181818" points="1338,479.1875,1328,483.1875,1338,487.1875,1334,483.1875" style="stroke:#181818;stroke-width:1.0;"/><line style="stroke:#181818;stroke-width:1.0;stroke-dasharray:2.0,2.0;" x1="1332" x2="1703" y1="483.1875" y2="483.1875"/><text fill="#000000" font-family="sans-serif" font-size="13" lengthAdjust="spacing" textLength="71" x="1344" y="478.1216">&lt;Number&gt;</text><line style="stroke:#181818;stroke-width:1.0;" x1="1327" x2="1369" y1="512.3203" y2="512.3203"/><line style="stroke:#181818;stroke-width:1.0;" x1="1369" x2="1369" y1="512.3203" y2="525.3203"/><line style="stroke:#181818;stroke-width:1.0;" x1="1328" x2="1369" y1="525.3203" y2="525.3203"/><polygon fill="#181818" points="1338,521.3203,1328,525.3203,1338,529.3203,1334,525.3203" style="stroke:#181818;stroke-width:1.0;"/><text fill="#000000" font-family="sans-serif" font-size="13" lengthAdjust="spacing" textLength="111" x="1334" y="507.2544">calculateAverage</text><polygon fill="#181818" points="879,550.4531,869,554.4531,879,558.4531,875,554.4531" style="stroke:#181818;stroke-width:1.0;"/><line style="stroke:#181818;stroke-width:1.0;" x1="873" x2="1316" y1="554.4531" y2="554.4531"/><text fill="#000000" font-family="sans-serif" font-size="13" lengthAdjust="spacing" textLength="198" x="885" y="549.3872">Result.Ok &lt;number&gt;(average)</text><polygon fill="#181818" points="493,579.5859,483,583.5859,493,587.5859,489,583.5859" style="stroke:#181818;stroke-width:1.0;"/><line style="stroke:#181818;stroke-width:1.0;" x1="487" x2="862" y1="583.5859" y2="583.5859"/><text fill="#000000" font-family="sans-serif" font-size="13" lengthAdjust="spacing" textLength="347" x="499" y="578.52">this.ok&lt;GetAverageCommentsForDayResponseDTO&gt;</text><!--SRC=[pLHjJzim4FxkNt7AfrPg2qZxP5LCgEagfB5gBVm0urnRYoGEjeD0se_VkKcO0qqRXYRjctqlptD-xdnEkHJXRdr-yGNMCOnXWGwkdj28BSAFChj70te3Cvrbc3iBtxG10Ui2fTee2R5uOKn8HzOxYyQoGXYdf2f4xc2bIuTjKxH5LwCta8H8A3ETEwFJ50q_7HA1i70whCrSMfm9YxmpyIXg6qlMlXKMciFrBBZkKLeMbWWdxeaQRbxMFxzxVsDXRAyQZ2zhiO2356aAypmfj2AgGOPkfnCEY_dj28mFuX2THIFOeKX8BOXitGogyep7mc4qz2rHJtHiUi1gU2BgqG6Ou3DAIXWOV2HMj05Y3ztPwPYFLdAT5QclXaECKYUOp9yBgei4VYpHkX6TEM1bcwpG5ZgtEFna8O4GYTCzDEX-kQTfJGLXKsprmvQRnhFCVGDXG0D2VRREg7mRyBRdYhMkdg6Pg_sG7yRUGtyb6JtUh_SKVqRpTMp7xskVLk2NBC43cM_gEghmAr88zUQTdnJr1ltzdsfxWEA_rFYOajtvj99acH9_xVyxdF1RqmyjKpTPFi0qhseRY2fds7TxL1kDWzifEz4FqqL7LhCCujlbiI4B79s_kqTCi0M3wAhMtm00]--></g></svg>