<?xml version="1.0" encoding="us-ascii" standalone="no"?><svg xmlns="http://www.w3.org/2000/svg" xmlns:xlink="http://www.w3.org/1999/xlink" contentStyleType="text/css" height="452px" preserveAspectRatio="none" style="width:1087px;height:452px;background:#FFFFFF;" version="1.1" viewBox="0 0 1087 452" width="1087px" zoomAndPan="magnify"><defs/><g><text fill="#000000" font-family="sans-serif" font-size="14" font-weight="bold" lengthAdjust="spacing" textLength="1059" x="10" y="27.9951">SSD - US025 - As a member, when I look at the unpopular posts, posts with less than two days should have the date in green text.</text><rect fill="#FFFFFF" height="225.0625" style="stroke:#181818;stroke-width:1.0;" width="10" x="248" y="128.5938"/><rect fill="#FFFFFF" height="29.1328" style="stroke:#181818;stroke-width:1.0;" width="10" x="825" y="149.7266"/><rect fill="#FFFFFF" height="29.1328" style="stroke:#181818;stroke-width:1.0;" width="10" x="825" y="207.9922"/><rect fill="#FFFFFF" height="29.1328" style="stroke:#181818;stroke-width:1.0;" width="10" x="825" y="266.2578"/><rect fill="#FFFFFF" height="29.1328" style="stroke:#181818;stroke-width:1.0;" width="10" x="825" y="324.5234"/><line style="stroke:#181818;stroke-width:0.5;stroke-dasharray:5.0,5.0;" x1="253" x2="253" y1="118.5938" y2="371.6563"/><line style="stroke:#181818;stroke-width:0.5;stroke-dasharray:5.0,5.0;" x1="830" x2="830" y1="118.5938" y2="371.6563"/><text fill="#000000" font-family="sans-serif" font-size="14" lengthAdjust="spacing" textLength="60" x="220" y="115.292">Member</text><ellipse cx="253" cy="50.7969" fill="#E2E2F0" rx="8" ry="8" style="stroke:#181818;stroke-width:0.5;"/><path d="M253,58.7969 L253,85.7969 M240,66.7969 L266,66.7969 M253,85.7969 L240,100.7969 M253,85.7969 L266,100.7969 " fill="none" style="stroke:#181818;stroke-width:0.5;"/><text fill="#000000" font-family="sans-serif" font-size="14" lengthAdjust="spacing" textLength="60" x="220" y="383.6514">Member</text><ellipse cx="253" cy="395.4531" fill="#E2E2F0" rx="8" ry="8" style="stroke:#181818;stroke-width:0.5;"/><path d="M253,403.4531 L253,430.4531 M240,411.4531 L266,411.4531 M253,430.4531 L240,445.4531 M253,430.4531 L266,445.4531 " fill="none" style="stroke:#181818;stroke-width:0.5;"/><text fill="#000000" font-family="sans-serif" font-size="14" lengthAdjust="spacing" textLength="54" x="800" y="115.292">System</text><path d="M809.5,74.2969 L809.5,98.2969 M809.5,86.2969 L826.5,86.2969 " fill="none" style="stroke:#181818;stroke-width:0.5;"/><ellipse cx="838.5" cy="86.2969" fill="#E2E2F0" rx="12" ry="12" style="stroke:#181818;stroke-width:0.5;"/><text fill="#000000" font-family="sans-serif" font-size="14" lengthAdjust="spacing" textLength="54" x="800" y="383.6514">System</text><path d="M809.5,390.9531 L809.5,414.9531 M809.5,402.9531 L826.5,402.9531 " fill="none" style="stroke:#181818;stroke-width:0.5;"/><ellipse cx="838.5" cy="402.9531" fill="#E2E2F0" rx="12" ry="12" style="stroke:#181818;stroke-width:0.5;"/><rect fill="#FFFFFF" height="225.0625" style="stroke:#181818;stroke-width:1.0;" width="10" x="248" y="128.5938"/><rect fill="#FFFFFF" height="29.1328" style="stroke:#181818;stroke-width:1.0;" width="10" x="825" y="149.7266"/><rect fill="#FFFFFF" height="29.1328" style="stroke:#181818;stroke-width:1.0;" width="10" x="825" y="207.9922"/><rect fill="#FFFFFF" height="29.1328" style="stroke:#181818;stroke-width:1.0;" width="10" x="825" y="266.2578"/><rect fill="#FFFFFF" height="29.1328" style="stroke:#181818;stroke-width:1.0;" width="10" x="825" y="324.5234"/><polygon fill="#181818" points="813,145.7266,823,149.7266,813,153.7266,817,149.7266" style="stroke:#181818;stroke-width:1.0;"/><line style="stroke:#181818;stroke-width:1.0;" x1="258" x2="819" y1="149.7266" y2="149.7266"/><text fill="#000000" font-family="sans-serif" font-size="13" lengthAdjust="spacing" textLength="223" x="265" y="144.6606">1. Goes to DDD Forum Home Page</text><polygon fill="#181818" points="269,174.8594,259,178.8594,269,182.8594,265,178.8594" style="stroke:#181818;stroke-width:1.0;"/><line style="stroke:#181818;stroke-width:1.0;" x1="263" x2="829" y1="178.8594" y2="178.8594"/><text fill="#000000" font-family="sans-serif" font-size="13" lengthAdjust="spacing" textLength="215" x="275" y="173.7935">2. Shows DDD Forum Home Page</text><polygon fill="#181818" points="813,203.9922,823,207.9922,813,211.9922,817,207.9922" style="stroke:#181818;stroke-width:1.0;"/><line style="stroke:#181818;stroke-width:1.0;" x1="258" x2="819" y1="207.9922" y2="207.9922"/><text fill="#000000" font-family="sans-serif" font-size="13" lengthAdjust="spacing" textLength="153" x="265" y="202.9263">7. Logs into DDD Forum</text><polygon fill="#181818" points="269,233.125,259,237.125,269,241.125,265,237.125" style="stroke:#181818;stroke-width:1.0;"/><line style="stroke:#181818;stroke-width:1.0;" x1="263" x2="829" y1="237.125" y2="237.125"/><text fill="#000000" font-family="sans-serif" font-size="13" lengthAdjust="spacing" textLength="285" x="275" y="232.0591">8. Confirms Login and returns to Home Page</text><polygon fill="#181818" points="813,262.2578,823,266.2578,813,270.2578,817,266.2578" style="stroke:#181818;stroke-width:1.0;"/><line style="stroke:#181818;stroke-width:1.0;" x1="258" x2="819" y1="266.2578" y2="266.2578"/><text fill="#000000" font-family="sans-serif" font-size="13" lengthAdjust="spacing" textLength="261" x="265" y="261.1919">9. Clicks on the "Ascending Posts" Button</text><polygon fill="#181818" points="269,291.3906,259,295.3906,269,299.3906,265,295.3906" style="stroke:#181818;stroke-width:1.0;"/><line style="stroke:#181818;stroke-width:1.0;" x1="263" x2="829" y1="295.3906" y2="295.3906"/><text fill="#000000" font-family="sans-serif" font-size="13" lengthAdjust="spacing" textLength="220" x="275" y="290.3247">10. Shows "Unpopular Posts" Page</text><polygon fill="#181818" points="813,320.5234,823,324.5234,813,328.5234,817,324.5234" style="stroke:#181818;stroke-width:1.0;"/><line style="stroke:#181818;stroke-width:1.0;" x1="258" x2="819" y1="324.5234" y2="324.5234"/><text fill="#000000" font-family="sans-serif" font-size="13" lengthAdjust="spacing" textLength="422" x="265" y="319.4575">11. Inserts a date on the text box and clicks on the refresh button</text><polygon fill="#181818" points="264,349.6563,254,353.6563,264,357.6563,260,353.6563" style="stroke:#181818;stroke-width:1.0;"/><line style="stroke:#181818;stroke-width:1.0;" x1="258" x2="829" y1="353.6563" y2="353.6563"/><text fill="#000000" font-family="sans-serif" font-size="13" lengthAdjust="spacing" textLength="543" x="270" y="348.5903">12. Shows the Unpopular Posts with Less than Two Days, with the date in green text</text><!--SRC=[bLBHJi9047pdAoOyGmCaHkN1H6rK4an8AXzmfGjjQ6_9tPR2ttlNLaJWeJvjShSxExCpaabEYA8GGooZqUJErMSBXOAAcCm0LKeQC-JCMoY1f8HIxtXNvifWnrRie2ceCacHaxMkIMb8nKZKqSAcNEO9KhMdUZnHGiWqDeOSjD110lJKIjZWirxQYxdKYJ97H4ShLFJyRxRtOsr3Kp1yQZkc60TuPtAh6M4OuerDMU232y92RUWNe4LiYWTeeAQO18XIhkpDyOGk0QuPt0UOyyOwPUSSEcn-2F3AUfsPmde4Tncb4nYIqkXQqFzuF3guF5jjBLZNz-ulJtujl55zl9GYh3jG6uz-hd8DqfdGs7apqvQC-5pLxhVClFU8-L0BNlqXRMXjoAQ8ErCz6UZ7BzWssPoVildbiXcwR0wQZzkfl27kxANP-mq0]--></g></svg>