<?xml version="1.0" encoding="UTF-8" standalone="no"?><svg xmlns="http://www.w3.org/2000/svg" xmlns:xlink="http://www.w3.org/1999/xlink" contentStyleType="text/css" height="531px" preserveAspectRatio="none" style="width:1515px;height:531px;background:#FFFFFF;" version="1.1" viewBox="0 0 1515 531" width="1515px" zoomAndPan="magnify"><defs/><g><rect fill="#FFFFFF" height="316.5156" style="stroke:#181818;stroke-width:1.0;" width="10" x="355.5" y="114.9609"/><rect fill="#FFFFFF" height="255.8125" style="stroke:#181818;stroke-width:1.0;" width="10" x="727.5" y="145.3125"/><rect fill="#FFFFFF" height="151.7578" style="stroke:#181818;stroke-width:1.0;" width="10" x="1058.5" y="219.0156"/><rect fill="#FFFFFF" height="91.0547" style="stroke:#181818;stroke-width:1.0;" width="10" x="1253" y="249.3672"/><rect fill="#FFFFFF" height="30.3516" style="stroke:#181818;stroke-width:1.0;" width="10" x="1475" y="279.7188"/><line style="stroke:#181818;stroke-width:0.5;stroke-dasharray:5.0,5.0;" x1="22" x2="22" y1="82.6094" y2="449.4766"/><line style="stroke:#181818;stroke-width:0.5;stroke-dasharray:5.0,5.0;" x1="360" x2="360" y1="82.6094" y2="449.4766"/><line style="stroke:#181818;stroke-width:0.5;stroke-dasharray:5.0,5.0;" x1="732" x2="732" y1="82.6094" y2="449.4766"/><line style="stroke:#181818;stroke-width:0.5;stroke-dasharray:5.0,5.0;" x1="1063" x2="1063" y1="82.6094" y2="449.4766"/><line style="stroke:#181818;stroke-width:0.5;stroke-dasharray:5.0,5.0;" x1="1258" x2="1258" y1="82.6094" y2="449.4766"/><line style="stroke:#181818;stroke-width:0.5;stroke-dasharray:5.0,5.0;" x1="1480" x2="1480" y1="82.6094" y2="449.4766"/><text fill="#000000" font-family="sans-serif" font-size="14" lengthAdjust="spacing" textLength="29" x="5" y="79.5332">User</text><ellipse cx="22.5" cy="13.5" fill="#E2E2F0" rx="8" ry="8" style="stroke:#181818;stroke-width:0.5;"/><path d="M22.5,21.5 L22.5,48.5 M9.5,29.5 L35.5,29.5 M22.5,48.5 L9.5,63.5 M22.5,48.5 L35.5,63.5 " fill="none" style="stroke:#181818;stroke-width:0.5;"/><text fill="#000000" font-family="sans-serif" font-size="14" lengthAdjust="spacing" textLength="29" x="5" y="463.0098">User</text><ellipse cx="22.5" cy="474.5859" fill="#E2E2F0" rx="8" ry="8" style="stroke:#181818;stroke-width:0.5;"/><path d="M22.5,482.5859 L22.5,509.5859 M9.5,490.5859 L35.5,490.5859 M22.5,509.5859 L9.5,524.5859 M22.5,509.5859 L35.5,524.5859 " fill="none" style="stroke:#181818;stroke-width:0.5;"/><rect fill="#E2E2F0" height="31.6094" rx="2.5" ry="2.5" style="stroke:#181818;stroke-width:0.5;" width="59" x="331" y="50"/><text fill="#000000" font-family="sans-serif" font-size="14" lengthAdjust="spacing" textLength="45" x="338" y="71.5332">Routes</text><rect fill="#E2E2F0" height="31.6094" rx="2.5" ry="2.5" style="stroke:#181818;stroke-width:0.5;" width="59" x="331" y="448.4766"/><text fill="#000000" font-family="sans-serif" font-size="14" lengthAdjust="spacing" textLength="45" x="338" y="470.0098">Routes</text><rect fill="#E2E2F0" height="31.6094" rx="2.5" ry="2.5" style="stroke:#181818;stroke-width:0.5;" width="421" x="522" y="50"/><text fill="#000000" font-family="sans-serif" font-size="14" lengthAdjust="spacing" textLength="407" x="529" y="71.5332">getAllPostsAscendingController: GetAllPostsAscendingController</text><rect fill="#E2E2F0" height="31.6094" rx="2.5" ry="2.5" style="stroke:#181818;stroke-width:0.5;" width="421" x="522" y="448.4766"/><text fill="#000000" font-family="sans-serif" font-size="14" lengthAdjust="spacing" textLength="407" x="529" y="470.0098">getAllPostsAscendingController: GetAllPostsAscendingController</text><rect fill="#E2E2F0" height="31.6094" rx="2.5" ry="2.5" style="stroke:#181818;stroke-width:0.5;" width="221" x="953" y="50"/><text fill="#000000" font-family="sans-serif" font-size="14" lengthAdjust="spacing" textLength="203" x="960" y="71.5332">useCase: GetAllPostsAscending</text><rect fill="#E2E2F0" height="31.6094" rx="2.5" ry="2.5" style="stroke:#181818;stroke-width:0.5;" width="221" x="953" y="448.4766"/><text fill="#000000" font-family="sans-serif" font-size="14" lengthAdjust="spacing" textLength="203" x="960" y="470.0098">useCase: GetAllPostsAscending</text><rect fill="#E2E2F0" height="31.6094" rx="2.5" ry="2.5" style="stroke:#181818;stroke-width:0.5;" width="148" x="1184" y="50"/><text fill="#000000" font-family="sans-serif" font-size="14" lengthAdjust="spacing" textLength="134" x="1191" y="71.5332">postRepo: IPostRepo</text><rect fill="#E2E2F0" height="31.6094" rx="2.5" ry="2.5" style="stroke:#181818;stroke-width:0.5;" width="148" x="1184" y="448.4766"/><text fill="#000000" font-family="sans-serif" font-size="14" lengthAdjust="spacing" textLength="134" x="1191" y="470.0098">postRepo: IPostRepo</text><text fill="#000000" font-family="sans-serif" font-size="14" lengthAdjust="spacing" textLength="46" x="1454" y="79.5332">MySQL</text><path d="M1462,29 C1462,19 1480,19 1480,19 C1480,19 1498,19 1498,29 L1498,55 C1498,65 1480,65 1480,65 C1480,65 1462,65 1462,55 L1462,29 " fill="#E2E2F0" style="stroke:#181818;stroke-width:1.5;"/><path d="M1462,29 C1462,39 1480,39 1480,39 C1480,39 1498,39 1498,29 " fill="none" style="stroke:#181818;stroke-width:1.5;"/><text fill="#000000" font-family="sans-serif" font-size="14" lengthAdjust="spacing" textLength="46" x="1454" y="463.0098">MySQL</text><path d="M1462,476.0859 C1462,466.0859 1480,466.0859 1480,466.0859 C1480,466.0859 1498,466.0859 1498,476.0859 L1498,502.0859 C1498,512.0859 1480,512.0859 1480,512.0859 C1480,512.0859 1462,512.0859 1462,502.0859 L1462,476.0859 " fill="#E2E2F0" style="stroke:#181818;stroke-width:1.5;"/><path d="M1462,476.0859 C1462,486.0859 1480,486.0859 1480,486.0859 C1480,486.0859 1498,486.0859 1498,476.0859 " fill="none" style="stroke:#181818;stroke-width:1.5;"/><rect fill="#FFFFFF" height="316.5156" style="stroke:#181818;stroke-width:1.0;" width="10" x="355.5" y="114.9609"/><rect fill="#FFFFFF" height="255.8125" style="stroke:#181818;stroke-width:1.0;" width="10" x="727.5" y="145.3125"/><rect fill="#FFFFFF" height="151.7578" style="stroke:#181818;stroke-width:1.0;" width="10" x="1058.5" y="219.0156"/><rect fill="#FFFFFF" height="91.0547" style="stroke:#181818;stroke-width:1.0;" width="10" x="1253" y="249.3672"/><rect fill="#FFFFFF" height="30.3516" style="stroke:#181818;stroke-width:1.0;" width="10" x="1475" y="279.7188"/><polygon fill="#181818" points="343.5,110.9609,353.5,114.9609,343.5,118.9609,347.5,114.9609" style="stroke:#181818;stroke-width:1.0;"/><line style="stroke:#181818;stroke-width:1.0;" x1="22.5" x2="349.5" y1="114.9609" y2="114.9609"/><text fill="#000000" font-family="sans-serif" font-size="13" font-weight="bold" lengthAdjust="spacing" textLength="7" x="29.5" y="110.1045">1</text><text fill="#000000" font-family="sans-serif" font-size="13" lengthAdjust="spacing" textLength="303" x="40.5" y="110.1045">call endpoint (method: "GET", route: "/allascending")</text><polygon fill="#181818" points="715.5,141.3125,725.5,145.3125,715.5,149.3125,719.5,145.3125" style="stroke:#181818;stroke-width:1.0;"/><line style="stroke:#181818;stroke-width:1.0;" x1="365.5" x2="721.5" y1="145.3125" y2="145.3125"/><text fill="#000000" font-family="sans-serif" font-size="13" font-weight="bold" lengthAdjust="spacing" textLength="7" x="372.5" y="140.4561">2</text><text fill="#000000" font-family="sans-serif" font-size="13" lengthAdjust="spacing" textLength="98" x="383.5" y="140.4561">execute(req, res)</text><line style="stroke:#181818;stroke-width:1.0;" x1="737.5" x2="779.5" y1="175.6641" y2="175.6641"/><line style="stroke:#181818;stroke-width:1.0;" x1="779.5" x2="779.5" y1="175.6641" y2="188.6641"/><line style="stroke:#181818;stroke-width:1.0;" x1="738.5" x2="779.5" y1="188.6641" y2="188.6641"/><polygon fill="#181818" points="748.5,184.6641,738.5,188.6641,748.5,192.6641,744.5,188.6641" style="stroke:#181818;stroke-width:1.0;"/><text fill="#000000" font-family="sans-serif" font-size="13" font-weight="bold" lengthAdjust="spacing" textLength="7" x="744.5" y="170.8076">3</text><text fill="#000000" font-family="sans-serif" font-size="13" lengthAdjust="spacing" textLength="122" x="755.5" y="170.8076">executeImpl(req, res)</text><polygon fill="#181818" points="1046.5,215.0156,1056.5,219.0156,1046.5,223.0156,1050.5,219.0156" style="stroke:#181818;stroke-width:1.0;"/><line style="stroke:#181818;stroke-width:1.0;" x1="737.5" x2="1052.5" y1="219.0156" y2="219.0156"/><text fill="#000000" font-family="sans-serif" font-size="13" font-weight="bold" lengthAdjust="spacing" textLength="7" x="744.5" y="214.1592">4</text><text fill="#000000" font-family="sans-serif" font-size="13" lengthAdjust="spacing" textLength="72" x="755.5" y="214.1592">execute(dto)</text><polygon fill="#181818" points="1241,245.3672,1251,249.3672,1241,253.3672,1245,249.3672" style="stroke:#181818;stroke-width:1.0;"/><line style="stroke:#181818;stroke-width:1.0;" x1="1068.5" x2="1247" y1="249.3672" y2="249.3672"/><text fill="#000000" font-family="sans-serif" font-size="13" font-weight="bold" lengthAdjust="spacing" textLength="7" x="1075.5" y="244.5107">5</text><text fill="#000000" font-family="sans-serif" font-size="13" lengthAdjust="spacing" textLength="129" x="1086.5" y="244.5107">getAllPostAscending()</text><polygon fill="#181818" points="1463,275.7188,1473,279.7188,1463,283.7188,1467,279.7188" style="stroke:#181818;stroke-width:1.0;"/><line style="stroke:#181818;stroke-width:1.0;" x1="1263" x2="1469" y1="279.7188" y2="279.7188"/><text fill="#000000" font-family="sans-serif" font-size="13" font-weight="bold" lengthAdjust="spacing" textLength="7" x="1270" y="274.8623">6</text><text fill="#000000" font-family="sans-serif" font-size="13" lengthAdjust="spacing" textLength="182" x="1281" y="274.8623">PostModel.findAll(detailsQuery)</text><polygon fill="#181818" points="1274,306.0703,1264,310.0703,1274,314.0703,1270,310.0703" style="stroke:#181818;stroke-width:1.0;"/><line style="stroke:#181818;stroke-width:1.0;" x1="1268" x2="1479" y1="310.0703" y2="310.0703"/><text fill="#000000" font-family="sans-serif" font-size="13" font-weight="bold" lengthAdjust="spacing" textLength="7" x="1280" y="305.2139">7</text><text fill="#000000" font-family="sans-serif" font-size="13" lengthAdjust="spacing" textLength="75" x="1291" y="305.2139">PostDetails[]</text><polygon fill="#181818" points="1079.5,336.4219,1069.5,340.4219,1079.5,344.4219,1075.5,340.4219" style="stroke:#181818;stroke-width:1.0;"/><line style="stroke:#181818;stroke-width:1.0;" x1="1073.5" x2="1257" y1="340.4219" y2="340.4219"/><text fill="#000000" font-family="sans-serif" font-size="13" font-weight="bold" lengthAdjust="spacing" textLength="7" x="1085.5" y="335.5654">8</text><text fill="#000000" font-family="sans-serif" font-size="13" lengthAdjust="spacing" textLength="73" x="1096.5" y="335.5654">Postdetails[]</text><polygon fill="#181818" points="748.5,366.7734,738.5,370.7734,748.5,374.7734,744.5,370.7734" style="stroke:#181818;stroke-width:1.0;"/><line style="stroke:#181818;stroke-width:1.0;" x1="742.5" x2="1062.5" y1="370.7734" y2="370.7734"/><text fill="#000000" font-family="sans-serif" font-size="13" font-weight="bold" lengthAdjust="spacing" textLength="7" x="754.5" y="365.917">9</text><text fill="#000000" font-family="sans-serif" font-size="13" lengthAdjust="spacing" textLength="186" x="765.5" y="365.917">Result.ok&lt;PostDetails[]&gt;(posts)</text><polygon fill="#181818" points="376.5,397.125,366.5,401.125,376.5,405.125,372.5,401.125" style="stroke:#181818;stroke-width:1.0;"/><line style="stroke:#181818;stroke-width:1.0;" x1="370.5" x2="731.5" y1="401.125" y2="401.125"/><text fill="#000000" font-family="sans-serif" font-size="13" font-weight="bold" lengthAdjust="spacing" textLength="14" x="382.5" y="396.2686">10</text><text fill="#000000" font-family="sans-serif" font-size="13" lengthAdjust="spacing" textLength="320" x="400.5" y="396.2686">this.ok&lt;GetAllPostsAscendingResponseDTO&gt;(res, ...);</text><polygon fill="#181818" points="33.5,427.4766,23.5,431.4766,33.5,435.4766,29.5,431.4766" style="stroke:#181818;stroke-width:1.0;"/><line style="stroke:#181818;stroke-width:1.0;" x1="27.5" x2="359.5" y1="431.4766" y2="431.4766"/><text fill="#000000" font-family="sans-serif" font-size="13" font-weight="bold" lengthAdjust="spacing" textLength="14" x="39.5" y="426.6201">11</text><text fill="#000000" font-family="sans-serif" font-size="13" lengthAdjust="spacing" textLength="4" x="57.5" y="426.6201"> </text><!--MD5=[03291f0d0f4e30618eb8259ddbe01d05]
@startuml SD-UpVotePost
autonumber 

actor User
participant Routes
participant "getAllPostsAscendingController: GetAllPostsAscendingController" as GetAllPostsAscendingController
participant "useCase: GetAllPostsAscending " as GetAllPostsAscendingUseCase
participant "postRepo: IPostRepo" as IPostRepo
database MySQL as database

User -> Routes: call endpoint (method: "GET", route: "/allascending")
    activate Routes
    Routes -> GetAllPostsAscendingController: execute(req, res) 
    activate GetAllPostsAscendingController
        GetAllPostsAscendingController -> GetAllPostsAscendingController: executeImpl(req, res)
        GetAllPostsAscendingController -> GetAllPostsAscendingUseCase: execute(dto)
        activate GetAllPostsAscendingUseCase
             GetAllPostsAscendingUseCase-> IPostRepo: getAllPostAscending()
            activate IPostRepo
                IPostRepo -> database: PostModel.findAll(detailsQuery)
                activate database
                    database -> IPostRepo: PostDetails[]
                deactivate database
                IPostRepo -> GetAllPostsAscendingUseCase: Postdetails[] 
            deactivate IPostRepo

            GetAllPostsAscendingUseCase -> GetAllPostsAscendingController:  Result.ok<PostDetails[]>(posts)
            deactivate GetAllPostsAscendingUseCase

        GetAllPostsAscendingController -> Routes:  this.ok<GetAllPostsAscendingResponseDTO>(res, ...);
        deactivate GetAllPostsAscendingController
        Routes -> User
    deactivate Routes
@enduml

PlantUML version 1.2022.7(Mon Aug 22 18:01:30 BST 2022)
(GPL source distribution)
Java Runtime: Java(TM) SE Runtime Environment
JVM: Java HotSpot(TM) 64-Bit Server VM
Default Encoding: Cp1252
Language: en
Country: US
--></g></svg>