<?xml version="1.0" encoding="us-ascii" standalone="no"?><svg xmlns="http://www.w3.org/2000/svg" xmlns:xlink="http://www.w3.org/1999/xlink" contentStyleType="text/css" height="554px" preserveAspectRatio="none" style="width:803px;height:554px;background:#FFFFFF;" version="1.1" viewBox="0 0 803 554" width="803px" zoomAndPan="magnify"><defs/><g><text fill="#000000" font-family="sans-serif" font-size="14" font-weight="bold" lengthAdjust="spacing" textLength="775" x="10" y="27.9951">System Sequence Diagram (SSD) - View member info - User (member not found - error handling)</text><rect fill="#FFFFFF" height="335.8047" style="stroke:#181818;stroke-width:1.0;" width="10" x="131.75" y="128.5938"/><rect fill="none" height="249.5391" style="stroke:#000000;stroke-width:1.5;" width="599.5" x="98.25" y="206.8594"/><rect fill="none" height="132.3359" style="stroke:#000000;stroke-width:1.5;" width="579.5" x="108.25" y="273.125"/><line style="stroke:#181818;stroke-width:0.5;stroke-dasharray:5.0,5.0;" x1="136.25" x2="136.25" y1="118.5938" y2="473.3984"/><line style="stroke:#181818;stroke-width:0.5;stroke-dasharray:5.0,5.0;" x1="455.25" x2="455.25" y1="118.5938" y2="473.3984"/><text fill="#000000" font-family="sans-serif" font-size="14" lengthAdjust="spacing" textLength="31" x="118.25" y="115.292">User</text><ellipse cx="136.75" cy="50.7969" fill="#E3E3E3" rx="8" ry="8" style="stroke:#181818;stroke-width:0.5;"/><path d="M136.75,58.7969 L136.75,85.7969 M123.75,66.7969 L149.75,66.7969 M136.75,85.7969 L123.75,100.7969 M136.75,85.7969 L149.75,100.7969 " fill="none" style="stroke:#181818;stroke-width:0.5;"/><text fill="#000000" font-family="sans-serif" font-size="14" lengthAdjust="spacing" textLength="31" x="118.25" y="485.3936">User</text><ellipse cx="136.75" cy="497.1953" fill="#E3E3E3" rx="8" ry="8" style="stroke:#181818;stroke-width:0.5;"/><path d="M136.75,505.1953 L136.75,532.1953 M123.75,513.1953 L149.75,513.1953 M136.75,532.1953 L123.75,547.1953 M136.75,532.1953 L149.75,547.1953 " fill="none" style="stroke:#181818;stroke-width:0.5;"/><rect fill="#E3E3E3" height="30.2969" rx="2.5" ry="2.5" style="stroke:#181818;stroke-width:0.5;" width="73" x="419.25" y="87.2969"/><text fill="#000000" font-family="sans-serif" font-size="14" lengthAdjust="spacing" textLength="59" x="426.25" y="107.292">:System</text><rect fill="#E3E3E3" height="30.2969" rx="2.5" ry="2.5" style="stroke:#181818;stroke-width:0.5;" width="73" x="419.25" y="472.3984"/><text fill="#000000" font-family="sans-serif" font-size="14" lengthAdjust="spacing" textLength="59" x="426.25" y="492.3936">:System</text><rect fill="#FFFFFF" height="335.8047" style="stroke:#181818;stroke-width:1.0;" width="10" x="131.75" y="128.5938"/><polygon fill="#181818" points="443.75,145.7266,453.75,149.7266,443.75,153.7266,447.75,149.7266" style="stroke:#181818;stroke-width:1.0;"/><line style="stroke:#181818;stroke-width:1.0;" x1="141.75" x2="449.75" y1="149.7266" y2="149.7266"/><text fill="#000000" font-family="sans-serif" font-size="13" font-weight="bold" lengthAdjust="spacing" textLength="9" x="148.75" y="144.6606">1</text><text fill="#000000" font-family="sans-serif" font-size="13" lengthAdjust="spacing" textLength="190" x="161.75" y="144.6606">Request member information</text><line style="stroke:#181818;stroke-width:1.0;" x1="455.75" x2="497.75" y1="178.8594" y2="178.8594"/><line style="stroke:#181818;stroke-width:1.0;" x1="497.75" x2="497.75" y1="178.8594" y2="191.8594"/><line style="stroke:#181818;stroke-width:1.0;" x1="456.75" x2="497.75" y1="191.8594" y2="191.8594"/><polygon fill="#181818" points="466.75,187.8594,456.75,191.8594,466.75,195.8594,462.75,191.8594" style="stroke:#181818;stroke-width:1.0;"/><text fill="#000000" font-family="sans-serif" font-size="13" font-weight="bold" lengthAdjust="spacing" textLength="9" x="462.75" y="173.7935">2</text><text fill="#000000" font-family="sans-serif" font-size="13" lengthAdjust="spacing" textLength="105" x="475.75" y="173.7935">Validate request</text><path d="M98.25,206.8594 L164.25,206.8594 L164.25,213.9922 L154.25,223.9922 L98.25,223.9922 L98.25,206.8594 " fill="#EEEEEE" style="stroke:#000000;stroke-width:1.5;"/><rect fill="none" height="249.5391" style="stroke:#000000;stroke-width:1.5;" width="599.5" x="98.25" y="206.8594"/><text fill="#000000" font-family="sans-serif" font-size="13" font-weight="bold" lengthAdjust="spacing" textLength="21" x="113.25" y="219.9263">alt</text><text fill="#000000" font-family="sans-serif" font-size="11" font-weight="bold" lengthAdjust="spacing" textLength="99" x="179.25" y="219.0698">[Valid request]</text><line style="stroke:#181818;stroke-width:1.0;" x1="455.75" x2="497.75" y1="245.125" y2="245.125"/><line style="stroke:#181818;stroke-width:1.0;" x1="497.75" x2="497.75" y1="245.125" y2="258.125"/><line style="stroke:#181818;stroke-width:1.0;" x1="456.75" x2="497.75" y1="258.125" y2="258.125"/><polygon fill="#181818" points="466.75,254.125,456.75,258.125,466.75,262.125,462.75,258.125" style="stroke:#181818;stroke-width:1.0;"/><text fill="#000000" font-family="sans-serif" font-size="13" font-weight="bold" lengthAdjust="spacing" textLength="8" x="462.75" y="240.0591">3</text><text fill="#000000" font-family="sans-serif" font-size="13" lengthAdjust="spacing" textLength="191" x="474.75" y="240.0591">Retrieve member information</text><path d="M108.25,273.125 L174.25,273.125 L174.25,280.2578 L164.25,290.2578 L108.25,290.2578 L108.25,273.125 " fill="#EEEEEE" style="stroke:#000000;stroke-width:1.5;"/><rect fill="none" height="132.3359" style="stroke:#000000;stroke-width:1.5;" width="579.5" x="108.25" y="273.125"/><text fill="#000000" font-family="sans-serif" font-size="13" font-weight="bold" lengthAdjust="spacing" textLength="21" x="123.25" y="286.1919">alt</text><text fill="#000000" font-family="sans-serif" font-size="11" font-weight="bold" lengthAdjust="spacing" textLength="107" x="189.25" y="285.3354">[Member found]</text><line style="stroke:#181818;stroke-width:1.0;" x1="455.75" x2="497.75" y1="311.3906" y2="311.3906"/><line style="stroke:#181818;stroke-width:1.0;" x1="497.75" x2="497.75" y1="311.3906" y2="324.3906"/><line style="stroke:#181818;stroke-width:1.0;" x1="456.75" x2="497.75" y1="324.3906" y2="324.3906"/><polygon fill="#181818" points="466.75,320.3906,456.75,324.3906,466.75,328.3906,462.75,324.3906" style="stroke:#181818;stroke-width:1.0;"/><text fill="#000000" font-family="sans-serif" font-size="13" font-weight="bold" lengthAdjust="spacing" textLength="9" x="462.75" y="306.3247">4</text><text fill="#000000" font-family="sans-serif" font-size="13" lengthAdjust="spacing" textLength="200" x="475.75" y="306.3247">Prepare member info response</text><polygon fill="#181818" points="152.75,349.5234,142.75,353.5234,152.75,357.5234,148.75,353.5234" style="stroke:#181818;stroke-width:1.0;"/><line style="stroke:#181818;stroke-width:1.0;stroke-dasharray:2.0,2.0;" x1="146.75" x2="454.75" y1="353.5234" y2="353.5234"/><text fill="#000000" font-family="sans-serif" font-size="13" font-weight="bold" lengthAdjust="spacing" textLength="9" x="158.75" y="348.4575">5</text><text fill="#000000" font-family="sans-serif" font-size="13" lengthAdjust="spacing" textLength="184" x="171.75" y="348.4575">Display member information</text><line style="stroke:#000000;stroke-width:1.0;stroke-dasharray:2.0,2.0;" x1="108.25" x2="687.75" y1="362.5234" y2="362.5234"/><text fill="#000000" font-family="sans-serif" font-size="11" font-weight="bold" lengthAdjust="spacing" textLength="135" x="113.25" y="372.7339">[Member not found]</text><polygon fill="#181818" points="152.75,393.4609,142.75,397.4609,152.75,401.4609,148.75,397.4609" style="stroke:#181818;stroke-width:1.0;"/><line style="stroke:#181818;stroke-width:1.0;stroke-dasharray:2.0,2.0;" x1="146.75" x2="454.75" y1="397.4609" y2="397.4609"/><text fill="#000000" font-family="sans-serif" font-size="13" font-weight="bold" lengthAdjust="spacing" textLength="9" x="158.75" y="392.395">6</text><text fill="#000000" font-family="sans-serif" font-size="13" lengthAdjust="spacing" textLength="277" x="171.75" y="392.395">Display error message (Member not found)</text><line style="stroke:#000000;stroke-width:1.0;stroke-dasharray:2.0,2.0;" x1="98.25" x2="697.75" y1="413.4609" y2="413.4609"/><text fill="#000000" font-family="sans-serif" font-size="11" font-weight="bold" lengthAdjust="spacing" textLength="109" x="103.25" y="423.6714">[Invalid request]</text><polygon fill="#181818" points="152.75,444.3984,142.75,448.3984,152.75,452.3984,148.75,448.3984" style="stroke:#181818;stroke-width:1.0;"/><line style="stroke:#181818;stroke-width:1.0;stroke-dasharray:2.0,2.0;" x1="146.75" x2="454.75" y1="448.3984" y2="448.3984"/><text fill="#000000" font-family="sans-serif" font-size="13" font-weight="bold" lengthAdjust="spacing" textLength="9" x="158.75" y="443.3325">7</text><text fill="#000000" font-family="sans-serif" font-size="13" lengthAdjust="spacing" textLength="253" x="171.75" y="443.3325">Display error message (Invalid request)</text><!--SRC=[XPAnRW8n38RtF8N5n0sy04CdbWwLAavbT-_C4P4uH-83yVPr4eee1N6JvT__Ppk-jBSyOaGFFd3eTZ5u0eaJcNHLHkpsE50hPqSGgHFamTqMf1tsuMHvW2swHCQ85Irjpqd8Gqk7YRWZM5aSSlcyRLSDB61ZwGIU_3T5iBmDclfA6iylEGu2sp1nhmB562Bia7kdVHfZS9B0KwxJk1CLPzay0qo5OdGqiPqTaGLcopfBKMjONFQ8GhNSbDQBjukyX7KUEydjWD6ZsC3cijXDyGQTxJChLfT19pLvpO1-_urhacZfI8_QP4VcV5IfF4L9FaPzHjAT_v2qUHe3wqdkRUhB2o_rA6bqU7xMd_IUlmDSx_6QLi_bAINzSM1-3sWgMqc5_yx7fq_r2dtdROnIVm00]--></g></svg>