<?xml version="1.0" encoding="us-ascii" standalone="no"?><svg xmlns="http://www.w3.org/2000/svg" xmlns:xlink="http://www.w3.org/1999/xlink" contentStyleType="text/css" height="394px" preserveAspectRatio="none" style="width:1029px;height:394px;background:#FFFFFF;" version="1.1" viewBox="0 0 1029 394" width="1029px" zoomAndPan="magnify"><defs/><g><text fill="#000000" font-family="sans-serif" font-size="14" font-weight="bold" lengthAdjust="spacing" textLength="1001" x="10" y="27.9951">US024 - As a member, when I look at the popular posts, those with more than five days should display the date in red text.</text><rect fill="#FFFFFF" height="166.7969" style="stroke:#181818;stroke-width:1.0;" width="10" x="310.5" y="128.5938"/><rect fill="#FFFFFF" height="29.1328" style="stroke:#181818;stroke-width:1.0;" width="10" x="704.5" y="149.7266"/><rect fill="#FFFFFF" height="29.1328" style="stroke:#181818;stroke-width:1.0;" width="10" x="704.5" y="207.9922"/><rect fill="#FFFFFF" height="38.1328" style="stroke:#181818;stroke-width:1.0;" width="10" x="704.5" y="266.2578"/><line style="stroke:#181818;stroke-width:0.5;stroke-dasharray:5.0,5.0;" x1="315.5" x2="315.5" y1="118.5938" y2="313.3906"/><line style="stroke:#181818;stroke-width:0.5;stroke-dasharray:5.0,5.0;" x1="709.5" x2="709.5" y1="118.5938" y2="313.3906"/><text fill="#000000" font-family="sans-serif" font-size="14" lengthAdjust="spacing" textLength="60" x="282.5" y="115.292">Member</text><ellipse cx="315.5" cy="50.7969" fill="#E2E2F0" rx="8" ry="8" style="stroke:#181818;stroke-width:0.5;"/><path d="M315.5,58.7969 L315.5,85.7969 M302.5,66.7969 L328.5,66.7969 M315.5,85.7969 L302.5,100.7969 M315.5,85.7969 L328.5,100.7969 " fill="none" style="stroke:#181818;stroke-width:0.5;"/><text fill="#000000" font-family="sans-serif" font-size="14" lengthAdjust="spacing" textLength="60" x="282.5" y="325.3857">Member</text><ellipse cx="315.5" cy="337.1875" fill="#E2E2F0" rx="8" ry="8" style="stroke:#181818;stroke-width:0.5;"/><path d="M315.5,345.1875 L315.5,372.1875 M302.5,353.1875 L328.5,353.1875 M315.5,372.1875 L302.5,387.1875 M315.5,372.1875 L328.5,387.1875 " fill="none" style="stroke:#181818;stroke-width:0.5;"/><text fill="#000000" font-family="sans-serif" font-size="14" lengthAdjust="spacing" textLength="54" x="679.5" y="115.292">System</text><path d="M689,74.2969 L689,98.2969 M689,86.2969 L706,86.2969 " fill="none" style="stroke:#181818;stroke-width:0.5;"/><ellipse cx="718" cy="86.2969" fill="#E2E2F0" rx="12" ry="12" style="stroke:#181818;stroke-width:0.5;"/><text fill="#000000" font-family="sans-serif" font-size="14" lengthAdjust="spacing" textLength="54" x="679.5" y="325.3857">System</text><path d="M689,332.6875 L689,356.6875 M689,344.6875 L706,344.6875 " fill="none" style="stroke:#181818;stroke-width:0.5;"/><ellipse cx="718" cy="344.6875" fill="#E2E2F0" rx="12" ry="12" style="stroke:#181818;stroke-width:0.5;"/><rect fill="#FFFFFF" height="166.7969" style="stroke:#181818;stroke-width:1.0;" width="10" x="310.5" y="128.5938"/><rect fill="#FFFFFF" height="29.1328" style="stroke:#181818;stroke-width:1.0;" width="10" x="704.5" y="149.7266"/><rect fill="#FFFFFF" height="29.1328" style="stroke:#181818;stroke-width:1.0;" width="10" x="704.5" y="207.9922"/><rect fill="#FFFFFF" height="38.1328" style="stroke:#181818;stroke-width:1.0;" width="10" x="704.5" y="266.2578"/><polygon fill="#181818" points="692.5,145.7266,702.5,149.7266,692.5,153.7266,696.5,149.7266" style="stroke:#181818;stroke-width:1.0;"/><line style="stroke:#181818;stroke-width:1.0;" x1="320.5" x2="698.5" y1="149.7266" y2="149.7266"/><text fill="#000000" font-family="sans-serif" font-size="13" lengthAdjust="spacing" textLength="223" x="327.5" y="144.6606">1. Goes to DDD Forum Home Page</text><polygon fill="#181818" points="331.5,174.8594,321.5,178.8594,331.5,182.8594,327.5,178.8594" style="stroke:#181818;stroke-width:1.0;"/><line style="stroke:#181818;stroke-width:1.0;" x1="325.5" x2="708.5" y1="178.8594" y2="178.8594"/><text fill="#000000" font-family="sans-serif" font-size="13" lengthAdjust="spacing" textLength="227" x="337.5" y="173.7935">2. Displays DDD Forum Home Page</text><polygon fill="#181818" points="692.5,203.9922,702.5,207.9922,692.5,211.9922,696.5,207.9922" style="stroke:#181818;stroke-width:1.0;"/><line style="stroke:#181818;stroke-width:1.0;" x1="320.5" x2="698.5" y1="207.9922" y2="207.9922"/><text fill="#000000" font-family="sans-serif" font-size="13" lengthAdjust="spacing" textLength="153" x="327.5" y="202.9263">7. Logs into DDD Forum</text><polygon fill="#181818" points="331.5,233.125,321.5,237.125,331.5,241.125,327.5,237.125" style="stroke:#181818;stroke-width:1.0;"/><line style="stroke:#181818;stroke-width:1.0;" x1="325.5" x2="708.5" y1="237.125" y2="237.125"/><text fill="#000000" font-family="sans-serif" font-size="13" lengthAdjust="spacing" textLength="285" x="337.5" y="232.0591">8. Confirms Login and returns to Home Page</text><polygon fill="#181818" points="692.5,262.2578,702.5,266.2578,692.5,270.2578,696.5,266.2578" style="stroke:#181818;stroke-width:1.0;"/><line style="stroke:#181818;stroke-width:1.0;" x1="320.5" x2="698.5" y1="266.2578" y2="266.2578"/><text fill="#000000" font-family="sans-serif" font-size="13" lengthAdjust="spacing" textLength="209" x="327.5" y="261.1919">11. Clicks on the 'Popular' button</text><polygon fill="#181818" points="326.5,291.3906,316.5,295.3906,326.5,299.3906,322.5,295.3906" style="stroke:#181818;stroke-width:1.0;"/><line style="stroke:#181818;stroke-width:1.0;" x1="320.5" x2="703.5" y1="295.3906" y2="295.3906"/><text fill="#000000" font-family="sans-serif" font-size="13" lengthAdjust="spacing" textLength="360" x="332.5" y="290.3247">12. Views popular posts with dates over five days in red</text><!--SRC=[ZP5FQm8n4CNl-odUpOikLGej7Wh5fN-W1K7QUpIZ6zpDI6PMkz- -sOsWRQLu6f9CVlFcFNLQ4JuMDvDRZF0eCAYfNb8Oub2InoigvYsCGal2ZdTDPKAieZACLoo4WzCIDGUAP-EnTdk2DQr0Icug2-jaLvcs1rYZ1ESHo4BfI_CiColbWFT-QBRanbiJMYnQKQhxLxVlFXqRKi7euTWnnJZ7CvD06KLHu8b3K-E5QyBSREW4E19JwG09DSKaHv4aoaM2fT-CloBkShpnHk9gvpAoAwRVvvYnNxjGIuU8tXXlep_Q1DylzP-GItP4FsQLMsq5x7lF1_EKsW3BHfNzDQh6qPHFHmVv6NdAkWinqlTny2di5EgvniJw1W00]--></g></svg>