<?xml version="1.0" encoding="us-ascii" standalone="no"?><svg xmlns="http://www.w3.org/2000/svg" xmlns:xlink="http://www.w3.org/1999/xlink" contentStyleType="text/css" height="552px" preserveAspectRatio="none" style="width:2886px;height:552px;background:#FFFFFF;" version="1.1" viewBox="0 0 2886 552" width="2886px" zoomAndPan="magnify"><defs/><g><text fill="#000000" font-family="sans-serif" font-size="14" font-weight="bold" lengthAdjust="spacing" textLength="739" x="1071.5" y="27.9951">SSD - US018 - View Members without any activity (Posts and Comments) for a Specific Day</text><rect fill="#FFFFFF" height="304.3281" style="stroke:#181818;stroke-width:1.0;" width="10" x="719.5" y="149.7266"/><rect fill="#FFFFFF" height="246.0625" style="stroke:#181818;stroke-width:1.0;" width="10" x="1332.5" y="178.8594"/><rect fill="#FFFFFF" height="145.6641" style="stroke:#181818;stroke-width:1.0;" width="10" x="2163" y="250.125"/><rect fill="#FFFFFF" height="87.3984" style="stroke:#181818;stroke-width:1.0;" width="10" x="2624" y="279.2578"/><rect fill="#FFFFFF" height="29.1328" style="stroke:#181818;stroke-width:1.0;" width="10" x="2846" y="308.3906"/><line style="stroke:#181818;stroke-width:0.5;stroke-dasharray:5.0,5.0;" x1="23" x2="23" y1="118.5938" y2="472.0547"/><line style="stroke:#181818;stroke-width:0.5;stroke-dasharray:5.0,5.0;" x1="724.5" x2="724.5" y1="118.5938" y2="472.0547"/><line style="stroke:#181818;stroke-width:0.5;stroke-dasharray:5.0,5.0;" x1="1337" x2="1337" y1="118.5938" y2="472.0547"/><line style="stroke:#181818;stroke-width:0.5;stroke-dasharray:5.0,5.0;" x1="2168" x2="2168" y1="118.5938" y2="472.0547"/><line style="stroke:#181818;stroke-width:0.5;stroke-dasharray:5.0,5.0;" x1="2629" x2="2629" y1="118.5938" y2="472.0547"/><line style="stroke:#181818;stroke-width:0.5;stroke-dasharray:5.0,5.0;" x1="2851" x2="2851" y1="118.5938" y2="472.0547"/><text fill="#000000" font-family="sans-serif" font-size="14" lengthAdjust="spacing" textLength="31" x="5" y="115.292">User</text><ellipse cx="23.5" cy="50.7969" fill="#E2E2F0" rx="8" ry="8" style="stroke:#181818;stroke-width:0.5;"/><path d="M23.5,58.7969 L23.5,85.7969 M10.5,66.7969 L36.5,66.7969 M23.5,85.7969 L10.5,100.7969 M23.5,85.7969 L36.5,100.7969 " fill="none" style="stroke:#181818;stroke-width:0.5;"/><text fill="#000000" font-family="sans-serif" font-size="14" lengthAdjust="spacing" textLength="31" x="5" y="484.0498">User</text><ellipse cx="23.5" cy="495.8516" fill="#E2E2F0" rx="8" ry="8" style="stroke:#181818;stroke-width:0.5;"/><path d="M23.5,503.8516 L23.5,530.8516 M10.5,511.8516 L36.5,511.8516 M23.5,530.8516 L10.5,545.8516 M23.5,530.8516 L36.5,545.8516 " fill="none" style="stroke:#181818;stroke-width:0.5;"/><rect fill="#E2E2F0" height="30.2969" rx="2.5" ry="2.5" style="stroke:#181818;stroke-width:0.5;" width="64" x="692.5" y="87.2969"/><text fill="#000000" font-family="sans-serif" font-size="14" lengthAdjust="spacing" textLength="50" x="699.5" y="107.292">Routes</text><rect fill="#E2E2F0" height="30.2969" rx="2.5" ry="2.5" style="stroke:#181818;stroke-width:0.5;" width="64" x="692.5" y="471.0547"/><text fill="#000000" font-family="sans-serif" font-size="14" lengthAdjust="spacing" textLength="50" x="699.5" y="491.0498">Routes</text><rect fill="#E2E2F0" height="30.2969" rx="2.5" ry="2.5" style="stroke:#181818;stroke-width:0.5;" width="1093" x="791" y="87.2969"/><text fill="#000000" font-family="sans-serif" font-size="14" lengthAdjust="spacing" textLength="1079" x="798" y="107.292">getListOfUsernamesWithoutPostsAndWithoutCommentsByDateController: GetListOfUsernamesWithoutPostsAndWithoutCommentsByDateController</text><rect fill="#E2E2F0" height="30.2969" rx="2.5" ry="2.5" style="stroke:#181818;stroke-width:0.5;" width="1093" x="791" y="471.0547"/><text fill="#000000" font-family="sans-serif" font-size="14" lengthAdjust="spacing" textLength="1079" x="798" y="491.0498">getListOfUsernamesWithoutPostsAndWithoutCommentsByDateController: GetListOfUsernamesWithoutPostsAndWithoutCommentsByDateController</text><rect fill="#E2E2F0" height="30.2969" rx="2.5" ry="2.5" style="stroke:#181818;stroke-width:0.5;" width="548" x="1894" y="87.2969"/><text fill="#000000" font-family="sans-serif" font-size="14" lengthAdjust="spacing" textLength="530" x="1901" y="107.292">useCase: GetListOfUsernamesWithoutPostsAndWithoutCommentsByDate</text><rect fill="#E2E2F0" height="30.2969" rx="2.5" ry="2.5" style="stroke:#181818;stroke-width:0.5;" width="548" x="1894" y="471.0547"/><text fill="#000000" font-family="sans-serif" font-size="14" lengthAdjust="spacing" textLength="530" x="1901" y="491.0498">useCase: GetListOfUsernamesWithoutPostsAndWithoutCommentsByDate</text><rect fill="#E2E2F0" height="30.2969" rx="2.5" ry="2.5" style="stroke:#181818;stroke-width:0.5;" width="168" x="2545" y="87.2969"/><text fill="#000000" font-family="sans-serif" font-size="14" lengthAdjust="spacing" textLength="154" x="2552" y="107.292">postRepo: IPostRepo</text><rect fill="#E2E2F0" height="30.2969" rx="2.5" ry="2.5" style="stroke:#181818;stroke-width:0.5;" width="168" x="2545" y="471.0547"/><text fill="#000000" font-family="sans-serif" font-size="14" lengthAdjust="spacing" textLength="154" x="2552" y="491.0498">postRepo: IPostRepo</text><text fill="#000000" font-family="sans-serif" font-size="14" lengthAdjust="spacing" textLength="48" x="2824" y="115.292">MySQL</text><path d="M2833,66.2969 C2833,56.2969 2851,56.2969 2851,56.2969 C2851,56.2969 2869,56.2969 2869,66.2969 L2869,92.2969 C2869,102.2969 2851,102.2969 2851,102.2969 C2851,102.2969 2833,102.2969 2833,92.2969 L2833,66.2969 " fill="#E2E2F0" style="stroke:#181818;stroke-width:1.5;"/><path d="M2833,66.2969 C2833,76.2969 2851,76.2969 2851,76.2969 C2851,76.2969 2869,76.2969 2869,66.2969 " fill="none" style="stroke:#181818;stroke-width:1.5;"/><text fill="#000000" font-family="sans-serif" font-size="14" lengthAdjust="spacing" textLength="48" x="2824" y="484.0498">MySQL</text><path d="M2833,497.3516 C2833,487.3516 2851,487.3516 2851,487.3516 C2851,487.3516 2869,487.3516 2869,497.3516 L2869,523.3516 C2869,533.3516 2851,533.3516 2851,533.3516 C2851,533.3516 2833,533.3516 2833,523.3516 L2833,497.3516 " fill="#E2E2F0" style="stroke:#181818;stroke-width:1.5;"/><path d="M2833,497.3516 C2833,507.3516 2851,507.3516 2851,507.3516 C2851,507.3516 2869,507.3516 2869,497.3516 " fill="none" style="stroke:#181818;stroke-width:1.5;"/><rect fill="#FFFFFF" height="304.3281" style="stroke:#181818;stroke-width:1.0;" width="10" x="719.5" y="149.7266"/><rect fill="#FFFFFF" height="246.0625" style="stroke:#181818;stroke-width:1.0;" width="10" x="1332.5" y="178.8594"/><rect fill="#FFFFFF" height="145.6641" style="stroke:#181818;stroke-width:1.0;" width="10" x="2163" y="250.125"/><rect fill="#FFFFFF" height="87.3984" style="stroke:#181818;stroke-width:1.0;" width="10" x="2624" y="279.2578"/><rect fill="#FFFFFF" height="29.1328" style="stroke:#181818;stroke-width:1.0;" width="10" x="2846" y="308.3906"/><polygon fill="#181818" points="707.5,145.7266,717.5,149.7266,707.5,153.7266,711.5,149.7266" style="stroke:#181818;stroke-width:1.0;"/><line style="stroke:#181818;stroke-width:1.0;" x1="23.5" x2="713.5" y1="149.7266" y2="149.7266"/><text fill="#000000" font-family="sans-serif" font-size="13" font-weight="bold" lengthAdjust="spacing" textLength="9" x="30.5" y="144.6606">1</text><text fill="#000000" font-family="sans-serif" font-size="13" lengthAdjust="spacing" textLength="664" x="43.5" y="144.6606">call endpoint (method: "GET", route: "/getListOfUsernamesWithoutPostsAndWithoutCommentsByDate")</text><polygon fill="#181818" points="1320.5,174.8594,1330.5,178.8594,1320.5,182.8594,1324.5,178.8594" style="stroke:#181818;stroke-width:1.0;"/><line style="stroke:#181818;stroke-width:1.0;" x1="729.5" x2="1326.5" y1="178.8594" y2="178.8594"/><text fill="#000000" font-family="sans-serif" font-size="13" font-weight="bold" lengthAdjust="spacing" textLength="9" x="736.5" y="173.7935">2</text><text fill="#000000" font-family="sans-serif" font-size="13" lengthAdjust="spacing" textLength="111" x="749.5" y="173.7935">execute(req, res)</text><line style="stroke:#181818;stroke-width:1.0;" x1="1342.5" x2="1384.5" y1="207.9922" y2="207.9922"/><line style="stroke:#181818;stroke-width:1.0;" x1="1384.5" x2="1384.5" y1="207.9922" y2="220.9922"/><line style="stroke:#181818;stroke-width:1.0;" x1="1343.5" x2="1384.5" y1="220.9922" y2="220.9922"/><polygon fill="#181818" points="1353.5,216.9922,1343.5,220.9922,1353.5,224.9922,1349.5,220.9922" style="stroke:#181818;stroke-width:1.0;"/><text fill="#000000" font-family="sans-serif" font-size="13" font-weight="bold" lengthAdjust="spacing" textLength="8" x="1349.5" y="202.9263">3</text><text fill="#000000" font-family="sans-serif" font-size="13" lengthAdjust="spacing" textLength="138" x="1361.5" y="202.9263">executeImpl(req, res)</text><polygon fill="#181818" points="2151,246.125,2161,250.125,2151,254.125,2155,250.125" style="stroke:#181818;stroke-width:1.0;"/><line style="stroke:#181818;stroke-width:1.0;" x1="1342.5" x2="2157" y1="250.125" y2="250.125"/><text fill="#000000" font-family="sans-serif" font-size="13" font-weight="bold" lengthAdjust="spacing" textLength="9" x="1349.5" y="245.0591">4</text><text fill="#000000" font-family="sans-serif" font-size="13" lengthAdjust="spacing" textLength="83" x="1362.5" y="245.0591">execute(dto)</text><polygon fill="#181818" points="2612,275.2578,2622,279.2578,2612,283.2578,2616,279.2578" style="stroke:#181818;stroke-width:1.0;"/><line style="stroke:#181818;stroke-width:1.0;" x1="2173" x2="2618" y1="279.2578" y2="279.2578"/><text fill="#000000" font-family="sans-serif" font-size="13" font-weight="bold" lengthAdjust="spacing" textLength="9" x="2180" y="274.1919">5</text><text fill="#000000" font-family="sans-serif" font-size="13" lengthAdjust="spacing" textLength="419" x="2193" y="274.1919">getListOfUsernamesWithoutPostsAndWithoutCommentsByDate()</text><polygon fill="#181818" points="2834,304.3906,2844,308.3906,2834,312.3906,2838,308.3906" style="stroke:#181818;stroke-width:1.0;"/><line style="stroke:#181818;stroke-width:1.0;" x1="2634" x2="2840" y1="308.3906" y2="308.3906"/><text fill="#000000" font-family="sans-serif" font-size="13" font-weight="bold" lengthAdjust="spacing" textLength="9" x="2641" y="303.3247">6</text><text fill="#000000" font-family="sans-serif" font-size="13" lengthAdjust="spacing" textLength="180" x="2654" y="303.3247">PostModel.sequelize.query()</text><polygon fill="#181818" points="2645,333.5234,2635,337.5234,2645,341.5234,2641,337.5234" style="stroke:#181818;stroke-width:1.0;"/><line style="stroke:#181818;stroke-width:1.0;" x1="2639" x2="2850" y1="337.5234" y2="337.5234"/><text fill="#000000" font-family="sans-serif" font-size="13" font-weight="bold" lengthAdjust="spacing" textLength="9" x="2651" y="332.4575">7</text><text fill="#000000" font-family="sans-serif" font-size="13" lengthAdjust="spacing" textLength="46" x="2664" y="332.4575">string[]</text><polygon fill="#181818" points="2184,362.6563,2174,366.6563,2184,370.6563,2180,366.6563" style="stroke:#181818;stroke-width:1.0;"/><line style="stroke:#181818;stroke-width:1.0;" x1="2178" x2="2628" y1="366.6563" y2="366.6563"/><text fill="#000000" font-family="sans-serif" font-size="13" font-weight="bold" lengthAdjust="spacing" textLength="9" x="2190" y="361.5903">8</text><text fill="#000000" font-family="sans-serif" font-size="13" lengthAdjust="spacing" textLength="46" x="2203" y="361.5903">string[]</text><polygon fill="#181818" points="1353.5,391.7891,1343.5,395.7891,1353.5,399.7891,1349.5,395.7891" style="stroke:#181818;stroke-width:1.0;"/><line style="stroke:#181818;stroke-width:1.0;" x1="1347.5" x2="2167" y1="395.7891" y2="395.7891"/><text fill="#000000" font-family="sans-serif" font-size="13" font-weight="bold" lengthAdjust="spacing" textLength="9" x="1359.5" y="390.7231">9</text><text fill="#000000" font-family="sans-serif" font-size="13" lengthAdjust="spacing" textLength="207" x="1372.5" y="390.7231">Result.ok&lt;string[]&gt;(usernames)</text><polygon fill="#181818" points="740.5,420.9219,730.5,424.9219,740.5,428.9219,736.5,424.9219" style="stroke:#181818;stroke-width:1.0;"/><line style="stroke:#181818;stroke-width:1.0;" x1="734.5" x2="1336.5" y1="424.9219" y2="424.9219"/><text fill="#000000" font-family="sans-serif" font-size="13" font-weight="bold" lengthAdjust="spacing" textLength="19" x="746.5" y="419.856">10</text><text fill="#000000" font-family="sans-serif" font-size="13" lengthAdjust="spacing" textLength="556" x="769.5" y="419.856">this.ok&lt;GetListOfUsernamesWithoutPostsAndWithoutCommentsByDateDTO&gt;(res, ...);</text><polygon fill="#181818" points="34.5,450.0547,24.5,454.0547,34.5,458.0547,30.5,454.0547" style="stroke:#181818;stroke-width:1.0;"/><line style="stroke:#181818;stroke-width:1.0;" x1="28.5" x2="723.5" y1="454.0547" y2="454.0547"/><text fill="#000000" font-family="sans-serif" font-size="13" font-weight="bold" lengthAdjust="spacing" textLength="18" x="40.5" y="448.9888">11</text><text fill="#000000" font-family="sans-serif" font-size="13" lengthAdjust="spacing" textLength="46" x="62.5" y="448.9888">200 OK</text><!--SRC=[pLLHRzCm47xthpZbAP6sK7X20LM25bKJgpgQbJrCF7Z9TRD8uio-CCAlnsxZX9HDI7KVk1V7P_kxx_FTEIIeG4ZJEPp39fsyVcl6hmAVO8db7IeDJu8UP4F0gnPuHkA7e1R2Awb96ryECrcMM96EO2iLS4XhpCHMP33dBUCDoQgnGC2OEMrsR3GgLdD58XCrhmZM1Xtro1NS8rqAJQkjtLtn4lNDdiOkxeSgxwOk-CTspWbdiY8bYm9L0WjFX02uzWOPYseqphZ6Oxc11wNDFlIOJsrEhB6M2LnSTP-x4FsCvPpudJa7opRzScdNd8Sn6n_Efrtw4iXuKG1MUIs50GzBD3Jo18B5f-lW39JTPMQlZiji434mjgi_UnLTpLZV_jCoMNWN3Vx4pA252XyDPJGrFGxhNG_GcI_GIULUb7KnIFuFE6vSexXyv2G7NfxPSAq0VveNbD7Pjqm2nnLu68q8zHg7NeG3wrViFRksJC1wbpB78jRus60XVc5iHjKUH1X5wRiQdh7-4HZhrAH4TN_xxQypEVuRTqJUiqWS4M0li1Zka9qivwTfG5YZRWgAvVVtJiKqR1nQz98Wly8_QOExrn_eGMYhupZG-VLgQfuWVGPn74VlsCb4F_Fs3ZyCYvJ0cya4Lf_PGRZzhjy0]--></g></svg>