<?xml version="1.0" encoding="us-ascii" standalone="no"?><svg xmlns="http://www.w3.org/2000/svg" xmlns:xlink="http://www.w3.org/1999/xlink" contentStyleType="text/css" height="452px" preserveAspectRatio="none" style="width:767px;height:452px;background:#FFFFFF;" version="1.1" viewBox="0 0 767 452" width="767px" zoomAndPan="magnify"><defs/><g><text fill="#000000" font-family="sans-serif" font-size="14" font-weight="bold" lengthAdjust="spacing" textLength="739" x="10" y="27.9951">SSD - US018 - View Members without any activity (Posts and Comments) for a Specific Day</text><rect fill="#FFFFFF" height="225.0625" style="stroke:#181818;stroke-width:1.0;" width="10" x="69.5" y="128.5938"/><rect fill="#FFFFFF" height="29.1328" style="stroke:#181818;stroke-width:1.0;" width="10" x="683.5" y="149.7266"/><rect fill="#FFFFFF" height="29.1328" style="stroke:#181818;stroke-width:1.0;" width="10" x="683.5" y="207.9922"/><rect fill="#FFFFFF" height="29.1328" style="stroke:#181818;stroke-width:1.0;" width="10" x="683.5" y="266.2578"/><rect fill="#FFFFFF" height="29.1328" style="stroke:#181818;stroke-width:1.0;" width="10" x="683.5" y="324.5234"/><line style="stroke:#181818;stroke-width:0.5;stroke-dasharray:5.0,5.0;" x1="74.5" x2="74.5" y1="118.5938" y2="371.6563"/><line style="stroke:#181818;stroke-width:0.5;stroke-dasharray:5.0,5.0;" x1="688.5" x2="688.5" y1="118.5938" y2="371.6563"/><text fill="#000000" font-family="sans-serif" font-size="14" lengthAdjust="spacing" textLength="60" x="41.5" y="115.292">Member</text><ellipse cx="74.5" cy="50.7969" fill="#E2E2F0" rx="8" ry="8" style="stroke:#181818;stroke-width:0.5;"/><path d="M74.5,58.7969 L74.5,85.7969 M61.5,66.7969 L87.5,66.7969 M74.5,85.7969 L61.5,100.7969 M74.5,85.7969 L87.5,100.7969 " fill="none" style="stroke:#181818;stroke-width:0.5;"/><text fill="#000000" font-family="sans-serif" font-size="14" lengthAdjust="spacing" textLength="60" x="41.5" y="383.6514">Member</text><ellipse cx="74.5" cy="395.4531" fill="#E2E2F0" rx="8" ry="8" style="stroke:#181818;stroke-width:0.5;"/><path d="M74.5,403.4531 L74.5,430.4531 M61.5,411.4531 L87.5,411.4531 M74.5,430.4531 L61.5,445.4531 M74.5,430.4531 L87.5,445.4531 " fill="none" style="stroke:#181818;stroke-width:0.5;"/><text fill="#000000" font-family="sans-serif" font-size="14" lengthAdjust="spacing" textLength="54" x="658.5" y="115.292">System</text><path d="M668,74.2969 L668,98.2969 M668,86.2969 L685,86.2969 " fill="none" style="stroke:#181818;stroke-width:0.5;"/><ellipse cx="697" cy="86.2969" fill="#E2E2F0" rx="12" ry="12" style="stroke:#181818;stroke-width:0.5;"/><text fill="#000000" font-family="sans-serif" font-size="14" lengthAdjust="spacing" textLength="54" x="658.5" y="383.6514">System</text><path d="M668,390.9531 L668,414.9531 M668,402.9531 L685,402.9531 " fill="none" style="stroke:#181818;stroke-width:0.5;"/><ellipse cx="697" cy="402.9531" fill="#E2E2F0" rx="12" ry="12" style="stroke:#181818;stroke-width:0.5;"/><rect fill="#FFFFFF" height="225.0625" style="stroke:#181818;stroke-width:1.0;" width="10" x="69.5" y="128.5938"/><rect fill="#FFFFFF" height="29.1328" style="stroke:#181818;stroke-width:1.0;" width="10" x="683.5" y="149.7266"/><rect fill="#FFFFFF" height="29.1328" style="stroke:#181818;stroke-width:1.0;" width="10" x="683.5" y="207.9922"/><rect fill="#FFFFFF" height="29.1328" style="stroke:#181818;stroke-width:1.0;" width="10" x="683.5" y="266.2578"/><rect fill="#FFFFFF" height="29.1328" style="stroke:#181818;stroke-width:1.0;" width="10" x="683.5" y="324.5234"/><polygon fill="#181818" points="671.5,145.7266,681.5,149.7266,671.5,153.7266,675.5,149.7266" style="stroke:#181818;stroke-width:1.0;"/><line style="stroke:#181818;stroke-width:1.0;" x1="79.5" x2="677.5" y1="149.7266" y2="149.7266"/><text fill="#000000" font-family="sans-serif" font-size="13" lengthAdjust="spacing" textLength="223" x="86.5" y="144.6606">1. Goes to DDD Forum Home Page</text><polygon fill="#181818" points="90.5,174.8594,80.5,178.8594,90.5,182.8594,86.5,178.8594" style="stroke:#181818;stroke-width:1.0;"/><line style="stroke:#181818;stroke-width:1.0;" x1="84.5" x2="687.5" y1="178.8594" y2="178.8594"/><text fill="#000000" font-family="sans-serif" font-size="13" lengthAdjust="spacing" textLength="215" x="96.5" y="173.7935">2. Shows DDD Forum Home Page</text><polygon fill="#181818" points="671.5,203.9922,681.5,207.9922,671.5,211.9922,675.5,207.9922" style="stroke:#181818;stroke-width:1.0;"/><line style="stroke:#181818;stroke-width:1.0;" x1="79.5" x2="677.5" y1="207.9922" y2="207.9922"/><text fill="#000000" font-family="sans-serif" font-size="13" lengthAdjust="spacing" textLength="153" x="86.5" y="202.9263">7. Logs into DDD Forum</text><polygon fill="#181818" points="90.5,233.125,80.5,237.125,90.5,241.125,86.5,237.125" style="stroke:#181818;stroke-width:1.0;"/><line style="stroke:#181818;stroke-width:1.0;" x1="84.5" x2="687.5" y1="237.125" y2="237.125"/><text fill="#000000" font-family="sans-serif" font-size="13" lengthAdjust="spacing" textLength="285" x="96.5" y="232.0591">8. Confirms Login and returns to Home Page</text><polygon fill="#181818" points="671.5,262.2578,681.5,266.2578,671.5,270.2578,675.5,266.2578" style="stroke:#181818;stroke-width:1.0;"/><line style="stroke:#181818;stroke-width:1.0;" x1="79.5" x2="677.5" y1="266.2578" y2="266.2578"/><text fill="#000000" font-family="sans-serif" font-size="13" lengthAdjust="spacing" textLength="190" x="86.5" y="261.1919">9. Clicks on the "Stats" Button</text><polygon fill="#181818" points="90.5,291.3906,80.5,295.3906,90.5,299.3906,86.5,295.3906" style="stroke:#181818;stroke-width:1.0;"/><line style="stroke:#181818;stroke-width:1.0;" x1="84.5" x2="687.5" y1="295.3906" y2="295.3906"/><text fill="#000000" font-family="sans-serif" font-size="13" lengthAdjust="spacing" textLength="149" x="96.5" y="290.3247">10. Shows "Stats" Page</text><polygon fill="#181818" points="671.5,320.5234,681.5,324.5234,671.5,328.5234,675.5,324.5234" style="stroke:#181818;stroke-width:1.0;"/><line style="stroke:#181818;stroke-width:1.0;" x1="79.5" x2="677.5" y1="324.5234" y2="324.5234"/><text fill="#000000" font-family="sans-serif" font-size="13" lengthAdjust="spacing" textLength="413" x="86.5" y="319.4575">11. Selects a date on a calendar and clicks on the refresh button</text><polygon fill="#181818" points="85.5,349.6563,75.5,353.6563,85.5,357.6563,81.5,353.6563" style="stroke:#181818;stroke-width:1.0;"/><line style="stroke:#181818;stroke-width:1.0;" x1="79.5" x2="687.5" y1="353.6563" y2="353.6563"/><text fill="#000000" font-family="sans-serif" font-size="13" lengthAdjust="spacing" textLength="580" x="91.5" y="348.5903">12. Shows a list of Members without any activity (Posts and Comments) for a Specific Day</text><!--SRC=[hP8nJyCm48Nt_8gdJZ0qQbWe7HWW0WQGAbcmEywbiOXjP5zQvT_Z92qKMg4CJ2UTxzvzTy-ikI48aMEELx78bZ6-QThXXKn1Fc2dkNOjGzeEKh7UQkvmiNQ1GyoLk7V6aELmYSfvI8WFKhhI2hdiaYHsnEoebHIkjQNq7KGNcCpmghUIwL0m1inlznKhP2aU7GMmGvxdU72-DNXoXh2M6_eMs2kEeHSOfLQuIY5gjmjdsqlwBN1AS9tYsMq2j3rcI2QCNgRnEBRIteHUGjlXNfwuzNROw2-GCoGtKQ_HwZt0MN1Dc0cM76QuQvcTdOAKBGxdEFHE7vz5BmGrf7hZKVR5aKD2oOPwMuVjr0z0JvMdKAEO3lZbbqIZ0yDL__CJJrSyoemJFW40]--></g></svg>