<?xml version="1.0" encoding="UTF-8" standalone="no"?><svg xmlns="http://www.w3.org/2000/svg" xmlns:xlink="http://www.w3.org/1999/xlink" contentStyleType="text/css" height="531px" preserveAspectRatio="none" style="width:1569px;height:531px;background:#FFFFFF;" version="1.1" viewBox="0 0 1569 531" width="1569px" zoomAndPan="magnify"><defs/><g><rect fill="#FFFFFF" height="316.5156" style="stroke:#181818;stroke-width:1.0;" width="10" x="359.5" y="114.9609"/><rect fill="#FFFFFF" height="255.8125" style="stroke:#181818;stroke-width:1.0;" width="10" x="743.5" y="145.3125"/><rect fill="#FFFFFF" height="151.7578" style="stroke:#181818;stroke-width:1.0;" width="10" x="1103" y="219.0156"/><rect fill="#FFFFFF" height="91.0547" style="stroke:#181818;stroke-width:1.0;" width="10" x="1307" y="249.3672"/><rect fill="#FFFFFF" height="30.3516" style="stroke:#181818;stroke-width:1.0;" width="10" x="1529" y="279.7188"/><line style="stroke:#181818;stroke-width:0.5;stroke-dasharray:5.0,5.0;" x1="22" x2="22" y1="82.6094" y2="449.4766"/><line style="stroke:#181818;stroke-width:0.5;stroke-dasharray:5.0,5.0;" x1="364" x2="364" y1="82.6094" y2="449.4766"/><line style="stroke:#181818;stroke-width:0.5;stroke-dasharray:5.0,5.0;" x1="748" x2="748" y1="82.6094" y2="449.4766"/><line style="stroke:#181818;stroke-width:0.5;stroke-dasharray:5.0,5.0;" x1="1108" x2="1108" y1="82.6094" y2="449.4766"/><line style="stroke:#181818;stroke-width:0.5;stroke-dasharray:5.0,5.0;" x1="1312" x2="1312" y1="82.6094" y2="449.4766"/><line style="stroke:#181818;stroke-width:0.5;stroke-dasharray:5.0,5.0;" x1="1534" x2="1534" y1="82.6094" y2="449.4766"/><text fill="#000000" font-family="sans-serif" font-size="14" lengthAdjust="spacing" textLength="29" x="5" y="79.5332">User</text><ellipse cx="22.5" cy="13.5" fill="#E2E2F0" rx="8" ry="8" style="stroke:#181818;stroke-width:0.5;"/><path d="M22.5,21.5 L22.5,48.5 M9.5,29.5 L35.5,29.5 M22.5,48.5 L9.5,63.5 M22.5,48.5 L35.5,63.5 " fill="none" style="stroke:#181818;stroke-width:0.5;"/><text fill="#000000" font-family="sans-serif" font-size="14" lengthAdjust="spacing" textLength="29" x="5" y="463.0098">User</text><ellipse cx="22.5" cy="474.5859" fill="#E2E2F0" rx="8" ry="8" style="stroke:#181818;stroke-width:0.5;"/><path d="M22.5,482.5859 L22.5,509.5859 M9.5,490.5859 L35.5,490.5859 M22.5,509.5859 L9.5,524.5859 M22.5,509.5859 L35.5,524.5859 " fill="none" style="stroke:#181818;stroke-width:0.5;"/><rect fill="#E2E2F0" height="31.6094" rx="2.5" ry="2.5" style="stroke:#181818;stroke-width:0.5;" width="59" x="335" y="50"/><text fill="#000000" font-family="sans-serif" font-size="14" lengthAdjust="spacing" textLength="45" x="342" y="71.5332">Routes</text><rect fill="#E2E2F0" height="31.6094" rx="2.5" ry="2.5" style="stroke:#181818;stroke-width:0.5;" width="59" x="335" y="448.4766"/><text fill="#000000" font-family="sans-serif" font-size="14" lengthAdjust="spacing" textLength="45" x="342" y="470.0098">Routes</text><rect fill="#E2E2F0" height="31.6094" rx="2.5" ry="2.5" style="stroke:#181818;stroke-width:0.5;" width="459" x="519" y="50"/><text fill="#000000" font-family="sans-serif" font-size="14" lengthAdjust="spacing" textLength="445" x="526" y="71.5332">getAveragePostsForDayController: GetAveragePostsForDayController</text><rect fill="#E2E2F0" height="31.6094" rx="2.5" ry="2.5" style="stroke:#181818;stroke-width:0.5;" width="459" x="519" y="448.4766"/><text fill="#000000" font-family="sans-serif" font-size="14" lengthAdjust="spacing" textLength="445" x="526" y="470.0098">getAveragePostsForDayController: GetAveragePostsForDayController</text><rect fill="#E2E2F0" height="31.6094" rx="2.5" ry="2.5" style="stroke:#181818;stroke-width:0.5;" width="240" x="988" y="50"/><text fill="#000000" font-family="sans-serif" font-size="14" lengthAdjust="spacing" textLength="222" x="995" y="71.5332">useCase: GetAveragePostsForDay</text><rect fill="#E2E2F0" height="31.6094" rx="2.5" ry="2.5" style="stroke:#181818;stroke-width:0.5;" width="240" x="988" y="448.4766"/><text fill="#000000" font-family="sans-serif" font-size="14" lengthAdjust="spacing" textLength="222" x="995" y="470.0098">useCase: GetAveragePostsForDay</text><rect fill="#E2E2F0" height="31.6094" rx="2.5" ry="2.5" style="stroke:#181818;stroke-width:0.5;" width="148" x="1238" y="50"/><text fill="#000000" font-family="sans-serif" font-size="14" lengthAdjust="spacing" textLength="134" x="1245" y="71.5332">postRepo: IPostRepo</text><rect fill="#E2E2F0" height="31.6094" rx="2.5" ry="2.5" style="stroke:#181818;stroke-width:0.5;" width="148" x="1238" y="448.4766"/><text fill="#000000" font-family="sans-serif" font-size="14" lengthAdjust="spacing" textLength="134" x="1245" y="470.0098">postRepo: IPostRepo</text><text fill="#000000" font-family="sans-serif" font-size="14" lengthAdjust="spacing" textLength="46" x="1508" y="79.5332">MySQL</text><path d="M1516,29 C1516,19 1534,19 1534,19 C1534,19 1552,19 1552,29 L1552,55 C1552,65 1534,65 1534,65 C1534,65 1516,65 1516,55 L1516,29 " fill="#E2E2F0" style="stroke:#181818;stroke-width:1.5;"/><path d="M1516,29 C1516,39 1534,39 1534,39 C1534,39 1552,39 1552,29 " fill="none" style="stroke:#181818;stroke-width:1.5;"/><text fill="#000000" font-family="sans-serif" font-size="14" lengthAdjust="spacing" textLength="46" x="1508" y="463.0098">MySQL</text><path d="M1516,476.0859 C1516,466.0859 1534,466.0859 1534,466.0859 C1534,466.0859 1552,466.0859 1552,476.0859 L1552,502.0859 C1552,512.0859 1534,512.0859 1534,512.0859 C1534,512.0859 1516,512.0859 1516,502.0859 L1516,476.0859 " fill="#E2E2F0" style="stroke:#181818;stroke-width:1.5;"/><path d="M1516,476.0859 C1516,486.0859 1534,486.0859 1534,486.0859 C1534,486.0859 1552,486.0859 1552,476.0859 " fill="none" style="stroke:#181818;stroke-width:1.5;"/><rect fill="#FFFFFF" height="316.5156" style="stroke:#181818;stroke-width:1.0;" width="10" x="359.5" y="114.9609"/><rect fill="#FFFFFF" height="255.8125" style="stroke:#181818;stroke-width:1.0;" width="10" x="743.5" y="145.3125"/><rect fill="#FFFFFF" height="151.7578" style="stroke:#181818;stroke-width:1.0;" width="10" x="1103" y="219.0156"/><rect fill="#FFFFFF" height="91.0547" style="stroke:#181818;stroke-width:1.0;" width="10" x="1307" y="249.3672"/><rect fill="#FFFFFF" height="30.3516" style="stroke:#181818;stroke-width:1.0;" width="10" x="1529" y="279.7188"/><polygon fill="#181818" points="347.5,110.9609,357.5,114.9609,347.5,118.9609,351.5,114.9609" style="stroke:#181818;stroke-width:1.0;"/><line style="stroke:#181818;stroke-width:1.0;" x1="22.5" x2="353.5" y1="114.9609" y2="114.9609"/><text fill="#000000" font-family="sans-serif" font-size="13" font-weight="bold" lengthAdjust="spacing" textLength="7" x="29.5" y="110.1045">1</text><text fill="#000000" font-family="sans-serif" font-size="13" lengthAdjust="spacing" textLength="307" x="40.5" y="110.1045">call endpoint (method: "GET", route: "/averageposts")</text><polygon fill="#181818" points="731.5,141.3125,741.5,145.3125,731.5,149.3125,735.5,145.3125" style="stroke:#181818;stroke-width:1.0;"/><line style="stroke:#181818;stroke-width:1.0;" x1="369.5" x2="737.5" y1="145.3125" y2="145.3125"/><text fill="#000000" font-family="sans-serif" font-size="13" font-weight="bold" lengthAdjust="spacing" textLength="7" x="376.5" y="140.4561">2</text><text fill="#000000" font-family="sans-serif" font-size="13" lengthAdjust="spacing" textLength="98" x="387.5" y="140.4561">execute(req, res)</text><line style="stroke:#181818;stroke-width:1.0;" x1="753.5" x2="795.5" y1="175.6641" y2="175.6641"/><line style="stroke:#181818;stroke-width:1.0;" x1="795.5" x2="795.5" y1="175.6641" y2="188.6641"/><line style="stroke:#181818;stroke-width:1.0;" x1="754.5" x2="795.5" y1="188.6641" y2="188.6641"/><polygon fill="#181818" points="764.5,184.6641,754.5,188.6641,764.5,192.6641,760.5,188.6641" style="stroke:#181818;stroke-width:1.0;"/><text fill="#000000" font-family="sans-serif" font-size="13" font-weight="bold" lengthAdjust="spacing" textLength="7" x="760.5" y="170.8076">3</text><text fill="#000000" font-family="sans-serif" font-size="13" lengthAdjust="spacing" textLength="122" x="771.5" y="170.8076">executeImpl(req, res)</text><polygon fill="#181818" points="1091,215.0156,1101,219.0156,1091,223.0156,1095,219.0156" style="stroke:#181818;stroke-width:1.0;"/><line style="stroke:#181818;stroke-width:1.0;" x1="753.5" x2="1097" y1="219.0156" y2="219.0156"/><text fill="#000000" font-family="sans-serif" font-size="13" font-weight="bold" lengthAdjust="spacing" textLength="7" x="760.5" y="214.1592">4</text><text fill="#000000" font-family="sans-serif" font-size="13" lengthAdjust="spacing" textLength="72" x="771.5" y="214.1592">execute(dto)</text><polygon fill="#181818" points="1295,245.3672,1305,249.3672,1295,253.3672,1299,249.3672" style="stroke:#181818;stroke-width:1.0;"/><line style="stroke:#181818;stroke-width:1.0;" x1="1113" x2="1301" y1="249.3672" y2="249.3672"/><text fill="#000000" font-family="sans-serif" font-size="13" font-weight="bold" lengthAdjust="spacing" textLength="7" x="1120" y="244.5107">5</text><text fill="#000000" font-family="sans-serif" font-size="13" lengthAdjust="spacing" textLength="148" x="1131" y="244.5107">getAveragePostsForDay()</text><polygon fill="#181818" points="1517,275.7188,1527,279.7188,1517,283.7188,1521,279.7188" style="stroke:#181818;stroke-width:1.0;"/><line style="stroke:#181818;stroke-width:1.0;" x1="1317" x2="1523" y1="279.7188" y2="279.7188"/><text fill="#000000" font-family="sans-serif" font-size="13" font-weight="bold" lengthAdjust="spacing" textLength="7" x="1324" y="274.8623">6</text><text fill="#000000" font-family="sans-serif" font-size="13" lengthAdjust="spacing" textLength="182" x="1335" y="274.8623">PostModel.findAll(detailsQuery)</text><polygon fill="#181818" points="1328,306.0703,1318,310.0703,1328,314.0703,1324,310.0703" style="stroke:#181818;stroke-width:1.0;"/><line style="stroke:#181818;stroke-width:1.0;" x1="1322" x2="1533" y1="310.0703" y2="310.0703"/><text fill="#000000" font-family="sans-serif" font-size="13" font-weight="bold" lengthAdjust="spacing" textLength="7" x="1334" y="305.2139">7</text><text fill="#000000" font-family="sans-serif" font-size="13" lengthAdjust="spacing" textLength="45" x="1345" y="305.2139">Number</text><polygon fill="#181818" points="1124,336.4219,1114,340.4219,1124,344.4219,1120,340.4219" style="stroke:#181818;stroke-width:1.0;"/><line style="stroke:#181818;stroke-width:1.0;" x1="1118" x2="1311" y1="340.4219" y2="340.4219"/><text fill="#000000" font-family="sans-serif" font-size="13" font-weight="bold" lengthAdjust="spacing" textLength="7" x="1130" y="335.5654">8</text><text fill="#000000" font-family="sans-serif" font-size="13" lengthAdjust="spacing" textLength="45" x="1141" y="335.5654">Number</text><polygon fill="#181818" points="764.5,366.7734,754.5,370.7734,764.5,374.7734,760.5,370.7734" style="stroke:#181818;stroke-width:1.0;"/><line style="stroke:#181818;stroke-width:1.0;" x1="758.5" x2="1107" y1="370.7734" y2="370.7734"/><text fill="#000000" font-family="sans-serif" font-size="13" font-weight="bold" lengthAdjust="spacing" textLength="7" x="770.5" y="365.917">9</text><text fill="#000000" font-family="sans-serif" font-size="13" lengthAdjust="spacing" textLength="168" x="781.5" y="365.917">Result.ok&lt;Number&gt;(average)</text><polygon fill="#181818" points="380.5,397.125,370.5,401.125,380.5,405.125,376.5,401.125" style="stroke:#181818;stroke-width:1.0;"/><line style="stroke:#181818;stroke-width:1.0;" x1="374.5" x2="747.5" y1="401.125" y2="401.125"/><text fill="#000000" font-family="sans-serif" font-size="13" font-weight="bold" lengthAdjust="spacing" textLength="14" x="386.5" y="396.2686">10</text><text fill="#000000" font-family="sans-serif" font-size="13" lengthAdjust="spacing" textLength="332" x="404.5" y="396.2686">this.ok&lt;GetAveragePostsForDayResponseDTO&gt;(res, ...);</text><polygon fill="#181818" points="33.5,427.4766,23.5,431.4766,33.5,435.4766,29.5,431.4766" style="stroke:#181818;stroke-width:1.0;"/><line style="stroke:#181818;stroke-width:1.0;" x1="27.5" x2="363.5" y1="431.4766" y2="431.4766"/><text fill="#000000" font-family="sans-serif" font-size="13" font-weight="bold" lengthAdjust="spacing" textLength="14" x="39.5" y="426.6201">11</text><text fill="#000000" font-family="sans-serif" font-size="13" lengthAdjust="spacing" textLength="4" x="57.5" y="426.6201"> </text><!--MD5=[a22780a570a984e600a887c658e0aff4]
@startuml SD-AveragePosts
autonumber 

actor User
participant Routes
participant "getAveragePostsForDayController: GetAveragePostsForDayController" as GetAveragePostsForDayController
participant "useCase: GetAveragePostsForDay " as GetAveragePostsForDayUseCase
participant "postRepo: IPostRepo" as IPostRepo
database MySQL as database

User -> Routes: call endpoint (method: "GET", route: "/averageposts")
    activate Routes
    Routes -> GetAveragePostsForDayController: execute(req, res) 
    activate GetAveragePostsForDayController
        GetAveragePostsForDayController -> GetAveragePostsForDayController: executeImpl(req, res)
        GetAveragePostsForDayController -> GetAveragePostsForDayUseCase: execute(dto)
        activate GetAveragePostsForDayUseCase
             GetAveragePostsForDayUseCase-> IPostRepo: getAveragePostsForDay()
            activate IPostRepo
                IPostRepo -> database: PostModel.findAll(detailsQuery)
                activate database
                    database -> IPostRepo: Number
                deactivate database
                IPostRepo -> GetAveragePostsForDayUseCase: Number 
            deactivate IPostRepo

            GetAveragePostsForDayUseCase -> GetAveragePostsForDayController:  Result.ok<Number>(average)
            deactivate GetAveragePostsForDayUseCase

        GetAveragePostsForDayController -> Routes:  this.ok<GetAveragePostsForDayResponseDTO>(res, ...);
        deactivate GetAveragePostsForDayController
        Routes -> User
    deactivate Routes
@enduml

PlantUML version 1.2022.7(Mon Aug 22 18:01:30 BST 2022)
(GPL source distribution)
Java Runtime: Java(TM) SE Runtime Environment
JVM: Java HotSpot(TM) 64-Bit Server VM
Default Encoding: Cp1252
Language: en
Country: US
--></g></svg>